<svg id="eqyq5n0w5m31" xmlns="http://www.w3.org/2000/svg" xmlns:xlink="http://www.w3.org/1999/xlink" viewBox="0 0 57 79" shape-rendering="geometricPrecision" text-rendering="geometricPrecision"><style><![CDATA[#eqyq5n0w5m35_to {animation: eqyq5n0w5m35_to__to 3000ms linear infinite normal forwards}@keyframes eqyq5n0w5m35_to__to { 0% {transform: translate(0px,0px)} 16.666667% {transform: translate(0px,0px);animation-timing-function: cubic-bezier(0.420000,0,0.580000,1)} 26.666667% {transform: translate(0px,2px);animation-timing-function: cubic-bezier(0.420000,0,0.580000,1)} 50% {transform: translate(0px,2px);animation-timing-function: cubic-bezier(0.420000,0,0.580000,1)} 60% {transform: translate(0px,0px)} 100% {transform: translate(0px,0px)} }#eqyq5n0w5m311_ts {animation: eqyq5n0w5m311_ts__ts 3000ms linear infinite normal forwards}@keyframes eqyq5n0w5m311_ts__ts { 0% {transform: translate(28.260471px,26.581710px) scale(1,1)} 16.666667% {transform: translate(28.260471px,26.581710px) scale(1,1);animation-timing-function: cubic-bezier(0.420000,0,0.580000,1)} 26.666667% {transform: translate(28.260471px,26.581710px) scale(1,0.210618);animation-timing-function: cubic-bezier(0.420000,0,0.580000,1)} 50% {transform: translate(28.260471px,26.581710px) scale(1,0.210618);animation-timing-function: cubic-bezier(0.420000,0,0.580000,1)} 60% {transform: translate(28.260471px,26.581710px) scale(1,1)} 100% {transform: translate(28.260471px,26.581710px) scale(1,1)} }]]></style><rect id="eqyq5n0w5m32" width="37.821602" height="51.429901" rx="18.910800" ry="0" transform="matrix(1 0 0 1 9.34967041015625 1.47434997558594)" fill="none" stroke="rgb(156,119,224)" stroke-width="2"/><path id="eqyq5n0w5m33" d="M51.272700,28.582700C51.272700,31.026700,49.534800,33.064900,47.227500,33.528800L47.227500,23.636500C49.534800,24.100500,51.272700,26.138600,51.272700,28.582700Z" fill="none" stroke="rgb(156,119,224)" stroke-width="2"/><path id="eqyq5n0w5m34" d="M5.228590,28.582700C5.228590,31.026700,6.966430,33.064900,9.273800,33.528800L9.273800,23.636500C6.966430,24.100500,5.228590,26.138600,5.228590,28.582700Z" fill="none" stroke="rgb(156,119,224)" stroke-width="2"/><g id="eqyq5n0w5m35_to" transform="translate(0,0)"><g id="eqyq5n0w5m35" transform="translate(0,0)"><line id="eqyq5n0w5m36" x1="35.678400" y1="19.658700" x2="40.367300" y2="20.056200" fill="none" stroke="rgb(156,119,224)" stroke-width="2" stroke-linecap="round"/><line id="eqyq5n0w5m37" x1="1" y1="-1" x2="5.705670" y2="-1" transform="matrix(-0.99642604589462 0.08447420597076 0.08447420597076 0.99642604589462 22.08270072937012 20.57060050964355)" fill="none" stroke="rgb(156,119,224)" stroke-width="2" stroke-linecap="round"/></g></g><path id="eqyq5n0w5m38" d="M26.411900,34.356600L29.537600,32.272400C29.994800,31.967500,30.116500,31.352300,29.840600,30.877000C28.465400,28.508900,27.947400,26.223400,28.071300,22.671500" fill="none" stroke="rgb(156,119,224)" stroke-width="2" stroke-linecap="round"/><path id="eqyq5n0w5m39" d="M24.338700,43.091000C24.338700,43.091000,26.250600,43.909500,28.727700,43.909500C31.204800,43.909500,33.116600,43.091000,33.116600,43.091000" fill="none" stroke="rgb(156,119,224)" stroke-width="2" stroke-linecap="round"/><path id="eqyq5n0w5m310" d="M22.299400,60.267900C24.773900,64.783700,32.518700,64.969800,34.762800,60.270600M7.893390,65.956600C11.660800,62.785100,16.539500,60.704300,21.209800,60.328500C22.557300,63.248400,25.660000,64.690200,28.585500,64.724600C31.516000,64.759100,34.595500,63.379000,35.829200,60.331600C40.487800,60.716000,45.349800,62.793900,49.106700,65.956700C52.788000,69.055800,55.318000,73.114200,55.653600,77.525700L1.346410,77.525600C1.682010,73.114100,4.211980,69.055800,7.893390,65.956600ZM34.129500,59.143600C33.405300,61.523500,31.122700,62.754300,28.609100,62.724800C26.094100,62.695100,23.715100,61.400800,22.870700,59.115200L22.870700,52.135100C24.836500,52.598400,26.548100,52.838300,28.318800,52.838500C30.121300,52.838600,31.948600,52.590100,34.129500,52.110600L34.129500,59.143600Z" fill="none" stroke="rgb(156,119,224)" stroke-width="2"/><g id="eqyq5n0w5m311_ts" transform="translate(28.260471,26.581710) scale(1,1)"><g id="eqyq5n0w5m311" transform="translate(-28.260471,-27.581710)"><circle id="eqyq5n0w5m312" r="1.834710" transform="matrix(1 0 0 1 37.55279922485352 25.74699974060059)" fill="rgb(156,119,224)" stroke="none" stroke-width="1"/><circle id="eqyq5n0w5m313" r="1.834710" transform="matrix(1 0 0 1 18.94809913635254 25.74699974060059)" fill="rgb(156,119,224)" stroke="none" stroke-width="1"/></g></g></svg>