<svg width="50" height="50" viewBox="0 0 50 50" fill="none" xmlns="http://www.w3.org/2000/svg">
<path d="M48.166 15.6264H25.0004C19.823 15.6213 15.6217 19.8143 15.6165 24.9917C15.615 26.5998 16.0271 28.1813 16.8132 29.584L5.23047 9.70992C13.6669 -1.20902 29.3576 -3.22143 40.2766 5.21501C43.7831 7.92436 46.5061 11.5177 48.166 15.6264Z" fill="#F44336"/>
<path d="M49.9997 25.0011C49.9882 38.8028 38.8026 49.9884 25.0008 50C23.9556 50.0039 22.9114 49.9342 21.876 49.7917L33.1255 29.6884C35.7038 25.1999 34.1668 19.4715 29.6881 16.8764C28.2701 16.0555 26.6601 15.6241 25.0216 15.6265H48.1664C49.383 18.6019 50.0058 21.7866 49.9997 25.0011Z" fill="#FFC107"/>
<path d="M33.1255 29.6883L21.876 49.7916H21.8552C8.16558 48.0619 -1.52988 35.5621 0.199729 21.8725C0.759567 17.4415 2.49689 13.2416 5.23095 9.70996L16.8137 29.5841L16.8762 29.6883C19.4592 34.1754 25.1906 35.7189 29.6777 33.1361C31.111 32.311 32.3005 31.1215 33.1255 29.6883Z" fill="#4CAF50"/>
<path d="M33.1254 29.6882C30.5424 34.1753 24.811 35.7189 20.3239 33.136C18.8907 32.3109 17.7012 31.1214 16.8761 29.6882L16.8136 29.584C14.2824 25.0675 15.8919 19.3542 20.4084 16.823C21.8113 16.0368 23.3927 15.6247 25.0008 15.6262H25.0216C26.6601 15.6239 28.2701 16.0552 29.6881 16.8762C34.1669 19.4714 35.7037 25.1997 33.1254 29.6882Z" fill="#F44336"/>
<path d="M33.1254 29.6882C30.5424 34.1753 24.811 35.7189 20.3239 33.136C18.8907 32.3109 17.7012 31.1214 16.8761 29.6882L16.8136 29.584C14.2824 25.0675 15.8919 19.3542 20.4084 16.823C21.8113 16.0368 23.3927 15.6247 25.0008 15.6262H25.0216C26.6601 15.6239 28.2701 16.0552 29.6881 16.8762C34.1669 19.4714 35.7037 25.1997 33.1254 29.6882Z" fill="#2196F3"/>
<path d="M24.9657 35.4171C23.1495 35.4169 21.3654 34.9383 19.793 34.0296C18.2074 33.1126 16.8906 31.7951 15.9744 30.209C13.098 25.227 14.805 18.8566 19.787 15.9803C21.3722 15.0651 23.1706 14.5837 25.0011 14.5847C30.7538 14.5802 35.421 19.2402 35.4254 24.9928C35.4268 26.824 34.9454 28.6232 34.0298 30.209C32.1526 33.4364 28.6993 35.4206 24.9657 35.4171ZM25.0198 16.6679C22.0304 16.652 19.2627 18.2431 17.7722 20.8344C15.4711 24.8245 16.8403 29.9246 20.8303 32.2256C24.8204 34.5267 29.9204 33.1575 32.2215 29.1675C34.5226 25.1819 33.157 20.0855 29.1714 17.7844C27.9096 17.0559 26.4788 16.671 25.0218 16.668H25.0198V16.6679Z" fill="#FAFAFA"/>
</svg>
