<svg width="200" height="200" viewBox="0 0 200 200" fill="none" xmlns="http://www.w3.org/2000/svg">
<rect width="200" height="200" rx="100" fill="#F5F9FE"/>
<path d="M102.624 166.745C102.624 166.745 42.6453 162.589 35.4309 134.951C28.2165 107.314 44.2005 103.554 49.6665 88.0807C55.1233 72.5985 30.3697 63.475 46.9335 42.4174C63.4972 21.3598 87.9471 20.9819 98.2442 30.9071C108.541 40.8231 120.412 24.8433 139.534 33.8469C158.647 42.8505 163.33 61.0329 157.285 75.2434C151.239 89.4446 176.02 103.038 179.13 119.137C182.232 135.237 154.184 173.841 102.624 166.745Z" fill="white"/>
<path d="M35.458 82.1649C34.225 76.2762 43.5466 74.304 45.0374 80.1283C45.1754 80.6536 45.2582 81.2434 45.2858 81.8977C45.5803 88.9015 41.0805 96.532 36.2862 95.2511C31.4919 93.9701 34.2526 89.178 35.7065 86.3119C36.3874 84.9757 35.7709 83.6763 35.458 82.1649Z" fill="white"/>
<path d="M171.014 69.3271C168.281 68.4332 165.29 69.7971 164.269 72.3498C163.468 74.3312 162.557 77.0959 162.474 79.5196C162.327 83.9062 164.177 93.3061 171.244 95.6284C178.32 97.9507 182.535 91.8224 177.833 84.7356C175.808 81.7037 176.82 71.2347 171.014 69.3271Z" fill="white"/>
<path d="M66.3219 41.542C66.3219 41.542 66.1838 42.8506 65.0796 42.9428C66.1746 43.0349 66.3219 44.3435 66.3219 44.3435C66.3219 44.3435 66.4599 43.0349 67.5642 42.9428C66.4691 42.8506 66.3219 41.542 66.3219 41.542Z" fill="white"/>
<path d="M166.691 184.903L134.612 200L120.669 166.911C119.565 163.925 117.292 161.52 114.394 160.202C111.661 158.967 107.98 156.718 104.419 152.71C97.4801 144.913 93.7993 136.545 93.7993 136.545L117.182 136.435C117.182 136.435 115.075 123.33 126.697 105.931C127.939 104.07 128.51 101.83 128.316 99.6001L127.212 86.9102C127.212 86.9102 119.317 78.0725 124.157 67.1059C124.157 67.1059 128.795 60.6826 130.626 63.0326C130.626 63.0326 144.622 96.4115 145.901 101.379C147.171 106.346 148.874 109.461 147.171 125.063C146.72 129.191 146.564 132.638 146.564 135.467C146.573 140.904 147.788 146.268 150.107 151.18L166.691 184.903Z" fill="#F6CAB1"/>
<path d="M72.6989 40.7679C72.6989 40.7679 64.7023 35.4137 62.8803 38.9433C61.0583 42.4636 73.2602 54.96 73.2602 54.96L72.6989 40.7679Z" fill="#F5BBA7"/>
<path d="M72.6989 64.1107C72.6989 64.1107 64.7023 58.7565 62.8803 62.286C61.0583 65.8156 73.2602 78.3028 73.2602 78.3028L72.6989 64.1107Z" fill="#F5BBA7"/>
<path d="M72.6989 80.0082C72.6989 80.0082 64.7023 74.6539 62.8803 78.1835C61.0583 81.7131 73.2602 94.2002 73.2602 94.2002L72.6989 80.0082Z" fill="#F5BBA7"/>
<path d="M124.019 110.272C124.019 110.272 131.951 129.726 131.187 133.403C130.414 137.08 125.601 142.001 113.786 140.361C101.97 138.72 93.799 136.527 93.799 136.527C93.799 136.527 93.3021 110.272 93.799 108.936C94.2959 107.609 115.534 98.1533 116.372 98.1533C117.209 98.1625 124.019 110.272 124.019 110.272Z" fill="#F1C2A8"/>
<path d="M121.939 34.7598H78.0634C74.7967 34.7598 72.1465 37.4139 72.1465 40.6854V113.811V130.491C72.1465 133.791 74.8243 136.417 78.0634 136.417H121.939C125.206 136.417 127.856 133.772 127.856 130.491V57.3748V40.6946C127.856 37.3862 125.169 34.7598 121.939 34.7598Z" fill="#0B0754"/>
<path fill-rule="evenodd" clip-rule="evenodd" d="M88.6679 39.6407C88.6679 38.5905 87.8167 37.7393 86.7665 37.7393H78.2083C76.441 37.7393 75.0083 39.1719 75.0083 40.9393V129.705C75.0083 131.472 76.441 132.905 78.2083 132.905H121.785C123.552 132.905 124.985 131.472 124.985 129.705V40.9393C124.985 39.1719 123.552 37.7393 121.785 37.7393H113.309C112.259 37.7393 111.408 38.5905 111.408 39.6407C111.408 40.6908 110.556 41.5421 109.506 41.5421H90.5693C89.5192 41.5421 88.6679 40.6908 88.6679 39.6407Z" fill="white"/>
<path d="M129.006 94.5594C129.006 94.5594 128.702 95.6837 128.021 96.2366L127.212 86.9012C127.212 86.9012 121.405 80.395 122.804 71.631C123.282 68.6267 124.773 65.862 127.055 63.8623C128.353 62.7195 129.788 61.9546 130.626 63.0329C130.626 63.0329 137.205 78.727 141.76 90.2004L129.006 94.5594Z" fill="#F6CAB1"/>
<path d="M129.448 72.239C127.626 71.4003 126.678 66.6635 126.337 64.5347C127.801 63.0602 129.632 61.7424 130.626 63.0234C130.626 63.0234 132.079 66.4792 134.086 71.3358C132.714 72.1007 130.81 72.8656 129.448 72.239Z" fill="#FFE1CF"/>
<path d="M150.659 153.042C146.665 155.502 133.81 162.847 120.522 164.414C119.74 164.506 119.197 165.225 119.427 165.842L121.746 172.072C121.902 172.487 122.362 172.726 122.878 172.662C126.798 172.182 142.957 169.749 154.33 160.939C154.717 160.635 154.882 160.184 154.735 159.797L152.361 153.438C152.149 152.83 151.312 152.645 150.659 153.042Z" fill="#9C77E0"/>
<path d="M151.744 159.031L151.965 158.948C152.149 158.884 152.241 158.672 152.177 158.488L151.395 156.396C151.33 156.211 151.118 156.119 150.934 156.184L150.714 156.267C150.53 156.331 150.438 156.543 150.502 156.727L151.284 158.819C151.349 159.004 151.56 159.105 151.744 159.031Z" fill="#7A52C2"/>
<path d="M149.379 160.497L149.536 160.432C149.738 160.359 149.84 160.137 149.766 159.935L149.011 157.898C148.938 157.695 148.717 157.594 148.514 157.668L148.358 157.732C148.156 157.806 148.054 158.027 148.128 158.23L148.883 160.266C148.956 160.469 149.177 160.57 149.379 160.497Z" fill="#7A52C2"/>
<path d="M146.987 161.963L147.143 161.898C147.346 161.824 147.447 161.603 147.373 161.4L146.619 159.364C146.545 159.161 146.324 159.06 146.122 159.133L145.965 159.198C145.763 159.272 145.662 159.493 145.735 159.696L146.49 161.732C146.564 161.935 146.784 162.036 146.987 161.963Z" fill="#7A52C2"/>
<path d="M144.521 163.151L144.677 163.087C144.88 163.013 144.981 162.792 144.908 162.589L144.153 160.552C144.079 160.35 143.859 160.248 143.656 160.322L143.5 160.386C143.297 160.46 143.196 160.681 143.27 160.884L144.024 162.921C144.098 163.123 144.319 163.234 144.521 163.151Z" fill="#7A52C2"/>
<path d="M142.101 164.543L142.257 164.478C142.46 164.404 142.561 164.183 142.487 163.98L141.733 161.944C141.659 161.741 141.438 161.64 141.236 161.713L141.079 161.778C140.877 161.852 140.776 162.073 140.849 162.276L141.604 164.312C141.668 164.515 141.898 164.616 142.101 164.543Z" fill="#7A52C2"/>
<path d="M139.561 165.639L139.717 165.575C139.92 165.501 140.021 165.28 139.948 165.077L139.193 163.041C139.119 162.838 138.899 162.736 138.696 162.81L138.54 162.875C138.337 162.948 138.236 163.17 138.31 163.372L139.064 165.409C139.138 165.612 139.368 165.713 139.561 165.639Z" fill="#7A52C2"/>
<path d="M136.957 166.616L137.177 166.533C137.361 166.469 137.454 166.257 137.389 166.072L136.607 163.981C136.543 163.796 136.331 163.704 136.147 163.769L135.926 163.852C135.742 163.916 135.65 164.128 135.714 164.312L136.497 166.404C136.561 166.589 136.773 166.681 136.957 166.616Z" fill="#7A52C2"/>
<path d="M134.353 167.436L134.509 167.372C134.711 167.298 134.813 167.077 134.739 166.874L133.985 164.837C133.911 164.635 133.69 164.533 133.488 164.607L133.331 164.672C133.129 164.745 133.028 164.966 133.101 165.169L133.856 167.206C133.929 167.409 134.15 167.51 134.353 167.436Z" fill="#7A52C2"/>
<path d="M131.583 167.989L131.803 167.906C131.987 167.842 132.08 167.63 132.015 167.446L131.233 165.354C131.169 165.169 130.957 165.077 130.773 165.142L130.552 165.225C130.368 165.289 130.276 165.501 130.34 165.685L131.123 167.777C131.196 167.971 131.399 168.063 131.583 167.989Z" fill="#7A52C2"/>
<path d="M128.923 168.727L129.144 168.644C129.328 168.579 129.42 168.367 129.356 168.183L128.574 166.091C128.509 165.907 128.298 165.814 128.114 165.879L127.893 165.962C127.709 166.026 127.617 166.238 127.681 166.423L128.463 168.515C128.528 168.708 128.739 168.8 128.923 168.727Z" fill="#7A52C2"/>
<path d="M126.181 169.187L126.338 169.123C126.54 169.049 126.641 168.828 126.568 168.625L125.813 166.588C125.74 166.386 125.519 166.284 125.316 166.358L125.16 166.423C124.957 166.496 124.856 166.717 124.93 166.92L125.684 168.957C125.758 169.16 125.979 169.261 126.181 169.187Z" fill="#7A52C2"/>
<path d="M123.384 169.647L123.605 169.565C123.789 169.5 123.881 169.288 123.816 169.104L123.034 167.012C122.97 166.827 122.758 166.735 122.574 166.8L122.353 166.883C122.169 166.947 122.077 167.159 122.142 167.344L122.924 169.436C122.988 169.62 123.2 169.721 123.384 169.647Z" fill="#7A52C2"/>
<path d="M142.772 167.464L142.763 167.436C142.809 167.427 142.846 167.418 142.892 167.409L146.039 166.229C146.352 166.109 146.499 165.741 146.38 165.409L143.545 157.797C143.417 157.465 143.067 157.281 142.754 157.4L139.607 158.58C139.423 158.645 139.294 158.81 139.248 158.995C139 159.105 138.751 159.207 138.503 159.317C138.42 158.681 138.742 158.055 139.331 157.834L142.478 156.654C143.168 156.396 143.95 156.792 144.236 157.539L147.07 165.151C147.346 165.897 147.015 166.717 146.324 166.975L143.177 168.155C142.708 168.33 142.193 168.201 141.815 167.86C142.128 167.731 142.45 167.602 142.772 167.464Z" fill="#DDE8FE"/>
<path d="M143.462 161.427L144.834 160.911C145.082 160.819 145.358 160.957 145.459 161.225C145.561 161.492 145.441 161.778 145.192 161.87L143.821 162.386L143.462 161.427Z" fill="#BED1F9"/>
<rect x="94.1113" y="38.7129" width="9.33331" height="0.800007" rx="0.400003" fill="#5A578A"/>
<rect x="104.139" y="38.7129" width="0.799995" height="0.800007" rx="0.399998" fill="#5A578A"/>
<g filter="url(#filter0_d)">
<rect x="82.2461" y="106.798" width="35.6184" height="10.3601" rx="5.18007" fill="#9C77E0"/>
</g>
<path d="M75.3467 127.043C75.3467 127.043 81.1532 130.536 80.5735 132.25C79.9938 133.964 78.1349 136.581 72.1444 134.314L66.2183 131.402C66.2183 131.402 70.4052 127.356 70.4052 127.145C70.4144 126.923 75.3467 127.043 75.3467 127.043Z" fill="#F5BBA7"/>
<path d="M91.0821 115.072C90.2815 117.671 84.1162 122.214 75.4294 127.089C75.4202 127.099 75.411 127.099 75.4018 127.108C74.6288 127.541 73.7362 128.075 72.7516 128.684C72.678 128.73 72.5952 128.776 72.5215 128.831C71.0584 129.753 69.402 130.849 67.6444 132.093C65.3715 133.697 62.9238 135.54 60.4852 137.549C53.7585 143.078 47.0778 149.843 44.3356 156.229C44.3264 156.238 44.3264 156.257 44.3172 156.266C43.443 158.303 42.9829 160.312 43.0381 162.219C43.0381 162.219 50.6942 160.772 58.8289 156.395C59.3902 156.1 59.9331 155.824 60.476 155.575C66.5494 152.819 71.4909 153.391 73.2761 155.87C73.5706 156.275 73.6626 156.754 73.5982 157.215C73.5982 157.243 73.589 157.27 73.5798 157.298C73.5798 157.307 73.5798 157.307 73.5798 157.316C73.5706 157.344 73.5706 157.363 73.5614 157.39C73.5614 157.399 73.5522 157.418 73.5522 157.427C73.543 157.445 73.543 157.464 73.5338 157.482C73.5246 157.51 73.5154 157.547 73.497 157.574C73.3681 157.925 73.1289 158.238 72.7976 158.459C72.724 158.514 72.6412 158.561 72.5584 158.625C72.4203 158.717 72.2823 158.809 72.1259 158.911C72.0798 158.948 72.0246 158.975 71.9786 159.012C71.8314 159.113 71.6658 159.224 71.5001 159.335C71.3989 159.399 71.3069 159.464 71.1964 159.537C70.6351 159.915 69.991 160.339 69.3008 160.809C69.2272 160.864 69.1444 160.911 69.0708 160.966C68.1322 161.592 67.0923 162.284 65.9881 163.021C64.2581 164.173 62.3809 165.435 60.476 166.698C53.5837 171.297 46.4245 176.052 45.4122 176.66C45.3202 176.715 45.219 176.771 45.1178 176.835C44.9889 176.909 44.8601 176.992 44.7129 177.075C44.6853 177.093 44.6577 177.112 44.6209 177.121C44.5933 177.139 44.5564 177.158 44.5288 177.167C44.4828 177.194 44.4368 177.222 44.3908 177.241C44.2988 177.287 44.2068 177.342 44.1055 177.388C44.0687 177.406 44.0411 177.425 44.0043 177.434C43.9399 177.462 43.8755 177.499 43.8203 177.526C43.8111 177.526 43.8111 177.526 43.8019 177.535C43.7283 177.572 43.6638 177.6 43.5902 177.637C43.4798 177.683 43.3694 177.738 43.259 177.784C43.2221 177.803 43.1853 177.821 43.1393 177.83C42.5136 178.098 41.7866 178.356 40.9492 178.577C40.9032 178.586 40.8664 178.595 40.8204 178.614C40.6456 178.66 40.4799 178.697 40.2959 178.743C40.2407 178.752 40.1947 178.77 40.1395 178.78C39.8358 178.844 39.5321 178.899 39.2008 178.955C39.118 178.973 39.026 178.982 38.9432 178.992C38.5383 179.047 38.115 179.102 37.6733 179.139C37.5997 179.148 37.5353 179.148 37.4616 179.157C37.4248 179.157 37.3788 179.167 37.342 179.167C37.2684 179.176 37.1948 179.176 37.1304 179.176C37.0568 179.176 36.9923 179.185 36.9187 179.185C36.8359 179.194 36.7439 179.194 36.6611 179.194C36.5782 179.194 36.5046 179.203 36.4218 179.203C36.3758 179.203 36.3298 179.203 36.2838 179.203C36.1734 179.203 36.0537 179.203 35.9341 179.213C33.7808 179.231 31.2226 178.982 28.1952 178.273C21.5881 176.761 8.53953 183.295 0 188.207V149.981C0.0460104 149.935 0.0920207 149.879 0.128829 149.833C3.35876 146.184 7.73894 141.042 13.5731 133.826C13.5731 133.826 14.6681 132.361 16.4165 130.306C21.2752 124.573 31.2134 114.206 36.9279 117.662C36.9371 117.662 36.9463 117.671 36.9555 117.68C36.9555 117.68 37.0015 117.662 37.1028 117.625C38.1794 117.256 44.8325 115.183 48.7986 118.288C48.7986 118.288 60.6325 117.321 65.8408 119.883L85.6253 111.229C87.5853 110.372 89.9043 111.156 90.8613 113.072C91.165 113.681 91.303 114.363 91.0821 115.072Z" fill="#F6CAB1"/>
<path d="M72.8253 128.569C62.7951 134.836 42.5689 150.613 43.1118 162.105L38.2071 163.745C38.2071 163.745 34.4067 150.383 57.6971 136.495C63.1264 133.26 68.2151 130.652 72.8253 128.569Z" fill="#F1C2A8"/>
<path d="M65.795 119.864C63.4393 120.472 61.1204 121.247 58.8566 122.15C56.6113 123.025 54.3476 124.085 52.2128 125.219C50.2435 126.269 47.7958 127.78 46.0382 129.172C43.6732 130.997 42.2653 132.517 40.9126 134.388L40.9494 134.416C42.4401 132.508 44.2806 130.886 46.2406 129.439C47.6025 128.416 50.0779 126.822 52.4244 125.596C54.5593 124.444 56.7678 123.412 59.0039 122.463C61.1112 121.569 63.6877 120.592 65.8226 119.91L65.795 119.864Z" fill="#F1BDA0"/>
<path d="M48.9 118.288C47.2068 118.316 45.5321 118.694 43.9309 119.256C40.9402 120.288 37.9403 122.26 35.5846 124.969C34.5724 126.195 33.9006 127.024 32.7964 129.199L32.8332 129.218C33.6982 127.78 34.7012 126.425 35.8331 125.191C38.2256 122.647 40.9218 120.795 44.0505 119.56C45.5229 118.979 47.3265 118.463 48.9 118.325V118.288Z" fill="#F1BDA0"/>
<path d="M37.103 117.615C35.465 117.929 33.4774 118.933 32.3547 119.735C29.861 121.403 28.0022 123.559 26.5942 126.149L26.631 126.177C28.5911 123.476 29.907 122.048 32.5848 120.067C33.4682 119.394 35.4926 118.205 37.1122 117.661L37.103 117.615Z" fill="#F1BDA0"/>
<path d="M64.5988 158.957C64.976 157.547 67.479 156.238 69.5955 155.362C70.9206 154.819 72.4389 155.114 73.4143 156.1C73.8376 156.911 73.58 157.934 72.7978 158.459C71.4175 159.38 68.9237 161.048 65.9883 163.011C65.0957 161.823 64.2491 160.265 64.5988 158.957Z" fill="#FFE1CF"/>
<path d="M83.4902 117.385C82.8369 116.888 80.0947 114.178 80.5916 113.681L85.7079 111.441C86.7202 110.999 87.8336 110.999 88.809 111.367C88.8182 111.367 88.8182 111.367 88.8274 111.377C88.855 111.386 88.9195 111.414 89.0023 111.45C89.4348 111.662 90.447 112.317 90.0973 113.607C89.7568 114.879 86.4533 116.759 85.0362 117.523C84.5301 117.782 83.9319 117.726 83.4902 117.385Z" fill="#FFE1CF"/>
<g clip-path="url(#clip0)">
<rect x="79.7163" y="54.6484" width="40.9333" height="43.0667" rx="9" fill="#F7F9FE"/>
<path d="M100.721 55.8989C100.721 55.8989 105.903 56.1356 110.008 62.7898C114.107 69.4441 120.158 80.1085 119.242 83.6047C117.496 90.2589 111.252 86.9724 111.252 86.9724C111.252 86.9724 108.236 91.1989 102.66 89.9478C97.0909 88.6968 94.3831 86.1135 94.3831 86.1135C94.3831 86.1135 88.4459 88.2843 87.0486 82.1778C85.6579 76.0713 88.2654 62.7898 91.9828 59.0299C95.6935 55.27 100.721 55.8989 100.721 55.8989Z" fill="#313642"/>
<path opacity="0.44" d="M91.3009 71.1484C92.1902 65.2786 94.8445 53.708 108.317 64.9202C108.317 64.9202 113.786 72.3589 113.786 79.0334C113.786 85.708 108.143 85.2954 105.041 87.5203C102.868 89.0757 100.354 89.1974 98.5218 88.609C98.0137 88.3926 97.5523 88.1695 97.1445 87.9531C96.9506 87.8178 96.7767 87.6758 96.623 87.5271C95.1119 86.0055 90.4117 77.0182 91.3009 71.1484Z" fill="#313642"/>
<path d="M99.9524 90.7727C99.9524 90.7727 105.214 91.5301 107.033 91.5301C108.851 91.5301 112.89 90.1776 116.32 91.5098C119.335 93.897 122.009 107.571 121.08 115.949C120.151 124.321 116.962 127.513 114.267 131.429C113.746 132.193 112.355 134.134 110.015 133.904C103.857 133.295 88.3656 132.558 84.6683 132.558C79.5602 132.558 75.6756 106.874 78.8247 97.7177C82.0407 88.3517 81.5593 86.7017 85.8116 88.1151C90.0705 89.5216 92.6379 90.2385 93.9751 90.7659C95.3056 91.2934 99.9524 90.7727 99.9524 90.7727Z" fill="#FAD87C"/>
<path opacity="0.65" d="M116.581 122.34C115.585 115.246 118.794 95.5069 116.394 91.5982C115.518 90.1713 109.955 104.122 109.353 115.747C108.885 124.802 111.74 129.59 107.314 133.667C108.33 133.749 109.246 133.823 110.015 133.904C112.355 134.134 113.739 132.193 114.267 131.429C115.344 129.867 116.494 128.413 117.557 126.702C116.761 124.869 116.28 123.267 116.581 122.34Z" fill="#EDCB6E"/>
<path d="M93.9754 90.7659C95.3126 91.2933 99.9527 90.7726 99.9527 90.7726C99.9527 90.7726 105.215 91.53 107.033 91.53C107.468 91.53 107.949 91.4151 108.598 91.3677C107.568 96.1623 105.134 102.512 100.274 102.512C95.1856 102.512 92.3507 94.7151 91.0938 89.7988C92.3908 89.9408 93.2199 90.4683 93.9754 90.7659Z" fill="white"/>
<path d="M104.419 80.5476C104.419 80.5476 105.261 89.9677 105.756 90.4681C106.251 90.9685 107.033 91.523 107.033 91.523C107.033 91.523 105.235 100.564 100.534 100.977C95.8342 101.389 93.0127 90.3261 93.0127 90.3261C94.4903 90.414 95.7205 89.19 95.6603 87.6887L95.3327 79.5332L104.419 80.5476Z" fill="#F6CAB1"/>
<path d="M104.419 80.5476C104.419 80.5476 104.579 82.3329 104.8 84.3886C101.798 88.392 97.1712 87.8916 95.5732 85.4842L95.3325 79.5332L104.419 80.5476Z" fill="#F1C2A8"/>
<path d="M106.144 64.352C106.144 64.352 107.381 67.1719 107.381 73.0417C107.381 78.9115 105.99 82.2792 103.282 84.2336C100.574 86.1879 97.4519 85.3156 95.9275 84.2336C93.1862 82.2725 90.5118 74.9961 91.2874 69.8296C92.0563 64.663 94.3763 54.4856 106.144 64.352Z" fill="#F6CAB1"/>
<path d="M102.038 58.4414C102.312 58.4414 105.869 59.848 107.574 63.5267C109.279 67.2055 107.574 72.2165 107.574 72.2165C107.574 72.2165 106.277 68.9299 105.187 68.6527C104.091 68.3754 99.9121 69.7482 98.254 68.0643C96.5892 66.3805 94.5366 62.8978 94.5366 62.8978C94.5366 62.8978 94.9444 67.3407 96.2014 68.6121C97.4584 69.8834 92.4105 70.607 91.1936 69.0449C89.9768 67.4828 89.3951 73.9341 89.3951 73.9341C89.3951 73.9341 88.7733 65.6366 92.6846 61.3695C96.5825 57.1092 102.038 58.4414 102.038 58.4414Z" fill="#313642"/>
<path d="M83.485 87.6892C82.9969 96.4669 77.0597 124.977 84.6684 132.558C82.8498 134.952 82.1946 135.933 80.6167 141.775C74.6394 134.722 73.8371 126.83 73.8438 121.961C73.8505 114.137 78.5507 87.439 83.485 87.6892Z" fill="#FFE49C"/>
<path d="M122.243 104.785C124.737 124.775 126.315 122.523 118.727 142.621C117.623 139.476 113.264 132.606 113.264 132.606C113.264 132.606 116.868 128.622 116.139 121.211C114.662 106.198 115.671 95.358 116.112 91.5237C116.661 90.7595 121.394 97.9683 122.243 104.785Z" fill="#FFE49C"/>
</g>
<rect x="79.7163" y="54.6484" width="40.9333" height="43.0667" rx="9" stroke="#9C77E0" stroke-width="2"/>
<defs>
<filter id="filter0_d" x="69.9536" y="103.798" width="58.6667" height="37.2728" filterUnits="userSpaceOnUse" color-interpolation-filters="sRGB">
<feFlood flood-opacity="0" result="BackgroundImageFix"/>
<feColorMatrix in="SourceAlpha" type="matrix" values="0 0 0 0 0 0 0 0 0 0 0 0 0 0 0 0 0 0 127 0"/>
<feOffset dy="5"/>
<feGaussianBlur stdDeviation="4"/>
<feColorMatrix type="matrix" values="0 0 0 0 0.054375 0 0 0 0 0.199667 0 0 0 0 0.483333 0 0 0 0.15 0"/>
<feBlend mode="normal" in2="BackgroundImageFix" result="effect1_dropShadow"/>
<feBlend mode="normal" in="SourceGraphic" in2="effect1_dropShadow" result="shape"/>
</filter>
<clipPath id="clip0">
</clipPath>
</defs>
</svg>
