<svg width="33" height="32" viewBox="0 0 33 32" fill="none" xmlns="http://www.w3.org/2000/svg">
<path d="M11.8615 23.0588C10.0043 23.058 8.49947 21.5518 8.5 19.6949C8.50026 18.8052 8.85333 17.9519 9.48159 17.3218L12.7743 14.0291C12.9628 13.8413 13.1731 13.6763 13.4002 13.5377C14.4987 12.867 15.8836 12.882 16.9671 13.5764C17.1714 13.7068 17.3605 13.8594 17.5309 14.0317C17.6882 14.1892 17.7702 14.407 17.7559 14.6292C17.7306 15.057 17.3633 15.3832 16.9355 15.3578C16.7454 15.3464 16.5662 15.2657 16.4317 15.131C15.7247 14.4256 14.5805 14.4256 13.8736 15.131L10.568 18.4159C9.8608 19.123 9.8608 20.2694 10.568 20.9766C11.2751 21.6837 12.4215 21.6837 13.1286 20.9766L15.0944 19.0237C15.6513 19.2501 16.247 19.3651 16.8481 19.3626H16.9516L14.2357 22.0758C13.6069 22.7067 12.7523 23.0605 11.8615 23.0588Z" fill="white"/>
<path d="M16.8485 18.0694H16.6623C16.548 18.0642 16.4339 18.0531 16.3209 18.0357C16.2252 18.0202 16.1295 17.9995 16.0338 17.9762L15.8941 17.9374C15.8424 17.9219 15.7932 17.9064 15.7467 17.8883C15.7001 17.8702 15.638 17.8495 15.5914 17.8314L15.4388 17.7667C15.0809 17.6012 14.7552 17.3736 14.4766 17.0942C14.3194 16.9367 14.2374 16.7189 14.2516 16.4967C14.2769 16.0689 14.6442 15.7427 15.072 15.7681C15.2622 15.7795 15.4414 15.8602 15.5759 15.9949C16.2828 16.7003 17.4271 16.7003 18.134 15.9949L19.0005 15.131L21.4319 12.6997C22.1427 11.9889 22.1427 10.8368 21.4319 10.126C20.7211 9.41523 19.569 9.41523 18.8582 10.126L16.9028 12.0918C16.3469 11.8649 15.752 11.7488 15.1517 11.7504H15.0508L17.7641 9.03967C19.047 7.69699 21.1755 7.64837 22.5182 8.93129C23.8609 10.2142 23.9095 12.3427 22.6266 13.6854C22.5914 13.7224 22.5552 13.7586 22.5182 13.7937L19.2256 17.0865C18.7975 17.5158 18.2613 17.8216 17.6737 17.9711H17.6555L17.5107 17.9995L17.4279 18.015L17.265 18.0383H17.1822L17.0141 18.0538H16.8512L16.8485 18.0694Z" fill="white"/>
</svg>
