<svg width="65" height="65" viewBox="0 0 65 65" fill="none" xmlns="http://www.w3.org/2000/svg">
<circle cx="32.5" cy="32.5" r="32.5" fill="#F05A7E"/>
<path fill-rule="evenodd" clip-rule="evenodd" d="M23.7066 40.2592C23.3164 39.8684 23.3164 39.2348 23.7066 38.844L38.8214 23.7076C39.2116 23.3168 39.8444 23.3168 40.2346 23.7076L42.2647 25.7406C42.655 26.1314 42.655 26.7651 42.2647 27.1559L27.1499 42.2923C26.7597 42.6831 26.127 42.6831 25.7367 42.2923L23.7066 40.2592Z" fill="white"/>
<path fill-rule="evenodd" clip-rule="evenodd" d="M40.2632 42.2924C39.873 42.6832 39.2403 42.6832 38.85 42.2924L23.7352 27.156C23.345 26.7652 23.345 26.1316 23.7352 25.7408L25.7654 23.7077C26.1556 23.3169 26.7883 23.3169 27.1786 23.7077L42.2934 38.8441C42.6836 39.2349 42.6836 39.8686 42.2934 40.2594L40.2632 42.2924Z" fill="white"/>
</svg>
