<svg width="51" height="51" viewBox="0 0 51 51" fill="none" xmlns="http://www.w3.org/2000/svg">
<path d="M26.0524 48.6873C38.0268 48.6873 47.7272 38.9344 47.7272 26.9085C47.7272 14.8827 38.0268 5.12988 26.064 5.12988C14.1012 5.12988 4.40092 14.8828 4.40092 26.9085C4.37773 38.946 14.0895 48.6873 26.0524 48.6873Z" fill="#248AEA"/>
<path fill-rule="evenodd" clip-rule="evenodd" d="M39.2834 7.93603C39.0891 7.74372 38.9157 7.58193 38.7681 7.45854C33.6765 3.20186 33.7916 2.29771 33.8896 2.14355C33.873 2.16167 33.8487 2.18857 33.8177 2.22378C33.7574 1.9834 33.7148 1.78125 33.7148 1.78125C33.7148 1.78125 30.9316 4.56445 30.3457 9.20312C29.9632 12.2315 31.0968 15.3885 32.7383 17.4062C33.593 18.4519 34.559 19.4015 35.6191 20.2383V20.237C36.8594 22.0181 37.542 24.216 37.542 26.5802C37.542 32.5003 32.7402 37.2995 26.8168 37.2995C26.0095 37.2999 25.2047 37.2095 24.4177 37.03C21.6229 36.4974 20.0091 35.0876 19.2042 34.1305C18.7429 33.582 18.5468 33.1821 18.5468 33.1821C21.0508 34.0792 23.8195 33.8915 25.5032 32.9615C25.7334 32.8339 25.9512 32.7108 26.1578 32.594C27.4749 31.8496 28.3396 31.3608 29.0597 31.5985C29.881 31.8722 30.5349 31.0776 29.9484 30.254C29.3736 29.4314 27.8781 28.2535 25.6575 28.5798C25.1823 28.649 24.7183 28.7932 24.2476 28.9395C23.0358 29.3161 21.7801 29.7063 20.177 28.8652C20.0337 28.7908 19.8943 28.7089 19.7593 28.6201C19.6901 28.5793 19.7923 28.6063 19.9044 28.6359C20.0298 28.669 20.1676 28.7053 20.0907 28.6534C19.6576 28.4426 18.8909 27.9831 18.6921 27.8197C18.6756 27.8062 18.7592 27.8324 18.8431 27.8587C18.9272 27.8851 19.0116 27.9116 18.9949 27.8979C17.0364 26.4528 17.1511 25.4489 17.226 24.7934C17.2307 24.7523 17.2352 24.7127 17.2391 24.6743C17.2915 24.1538 17.6694 23.4868 18.3064 23.2163C18.614 23.3667 18.8057 23.4816 18.8057 23.4816C18.8057 23.4816 18.6745 23.2414 18.6035 23.1147C18.6159 23.11 18.6281 23.1082 18.6402 23.1065C18.6523 23.1047 18.6644 23.1029 18.6768 23.0982C18.9288 23.2072 19.4861 23.4902 19.7796 23.6631C20.1618 23.9047 20.2836 24.1201 20.2836 24.1201C20.2836 24.1201 20.3842 24.0705 20.3098 23.8598C20.2826 23.7734 20.1667 23.4989 19.7882 23.2219L19.8119 23.2243C20.0366 23.3388 20.2511 23.4723 20.4532 23.6233C20.4737 23.5564 20.4974 23.4889 20.522 23.4188C20.6252 23.1252 20.7438 22.7875 20.7097 22.263C20.7051 22.1818 20.7017 22.1113 20.6987 22.0492C20.6849 21.7625 20.6798 21.6567 20.606 21.5118C20.5255 21.3604 20.6511 21.3012 20.7906 21.4586C20.7665 21.3345 20.7264 21.214 20.6713 21.1001L20.6725 21.0883C20.8034 20.6796 22.8185 19.7795 23.9218 19.2867C24.2874 19.1234 24.5528 19.0048 24.6165 18.9636C25.0286 18.7049 25.3811 18.3616 25.6504 17.9563C25.8458 17.6772 25.9929 17.2857 26.0288 16.6919C26.0408 16.4243 25.9584 16.2125 25.0278 16.01C24.4692 15.8884 23.6051 15.7701 22.2723 15.6451C21.3006 15.5593 20.7304 14.9285 20.4064 14.3462C20.3473 14.2208 20.2871 14.107 20.2268 13.9936C20.1694 13.8616 20.1232 13.7251 20.0885 13.5854C20.67 12.0632 21.7171 10.7635 23.0807 9.87139C23.1197 9.83945 23.0416 9.84354 22.9634 9.84764C22.8853 9.85174 22.8072 9.85583 22.8463 9.82393C22.9133 9.76923 23.2523 9.63874 23.4722 9.55412C23.5517 9.52354 23.6156 9.49894 23.6455 9.48608C23.7828 9.42817 23.0574 9.1521 22.417 9.21919C21.8181 9.27968 21.6523 9.34338 21.3597 9.45586C21.3336 9.46586 21.3066 9.47625 21.2782 9.48706C21.3528 9.4205 21.5115 9.34322 21.6326 9.28423C21.7459 9.22903 21.8264 9.18984 21.7743 9.19043C21.0712 9.28701 20.1972 9.65327 19.4501 10.068C19.4487 9.9953 19.4642 9.92324 19.4952 9.85747C19.1471 9.98975 18.2922 10.5251 18.0434 10.9781C18.0541 10.8914 18.0589 10.804 18.0577 10.7167C17.7956 10.912 17.5564 11.1364 17.3448 11.3856L17.3318 11.3962C15.3129 10.6675 13.5363 10.6203 12.0329 10.947C12.0222 10.9374 12.0113 10.9277 12.0003 10.9177C11.6695 10.621 11.1509 10.1558 10.4268 8.73022C10.4004 8.68416 10.3804 8.73536 10.3617 8.78298C10.3445 8.82707 10.3284 8.86809 10.3096 8.82598C10.0188 8.15151 9.84316 7.04648 9.87202 6.28467C9.87202 6.28467 9.27056 6.55879 8.77275 7.70361C8.68063 7.90875 8.62143 8.0222 8.5624 8.13536L8.56182 8.13647C8.54571 8.15604 8.57022 8.02113 8.59003 7.91212C8.60373 7.83669 8.61519 7.77366 8.60938 7.78276C8.57973 7.83296 8.53396 7.88998 8.48264 7.95392C8.38419 8.07659 8.26531 8.22472 8.20063 8.39888C8.17298 8.47922 8.14077 8.5451 8.10822 8.61168C8.06123 8.7078 8.01353 8.80538 7.97778 8.95005L7.96357 8.97251C7.96143 8.94088 7.96461 8.87992 7.96746 8.82532C7.97111 8.75534 7.97422 8.69579 7.96489 8.72168C7.73156 9.19309 7.53077 9.67992 7.36392 10.1788C7.0959 11.0599 6.78389 12.2593 6.73442 13.8196C6.72831 13.8803 6.72812 13.9447 6.72794 14.0074C6.72777 14.067 6.7276 14.125 6.72236 14.1769C6.0876 14.9017 5.65508 15.5154 5.49155 15.8335C4.6709 17.1017 3.7666 19.0779 2.88999 22.2041C3.28 21.3501 3.74639 20.5332 4.28345 19.7632C3.55449 21.4225 2.84985 24.0282 2.70898 28.041C2.88593 27.2106 3.11211 26.3914 3.38633 25.5879C3.26045 28.2637 3.57212 31.5811 5.26372 35.3239C6.26812 37.5254 8.58018 41.9962 14.2295 45.485C14.2295 45.485 16.1509 46.916 19.4545 47.9882C19.6986 48.0768 19.9459 48.164 20.1983 48.2486C20.1191 48.2166 20.0425 48.183 19.9681 48.1484C22.167 48.8073 24.45 49.1428 26.7455 49.1445C30.5172 49.1477 35.6595 48.4374 38.3672 45.4688C37.6337 45.9863 37.067 46.1134 35.9294 46.3687C35.8735 46.3813 35.8162 46.3941 35.7574 46.4074C38.036 45.7382 41.0864 43.4717 42.9512 41.9689C45.4756 39.9523 46.0249 37.9866 46.312 36.6906C46.272 36.8148 46.1472 37.1044 46.0596 37.2919C45.4577 38.0408 45.191 38.2833 44.0269 39.1321C45.933 36.6313 47.4918 33.3937 47.5374 30.1117C49.8983 26.7324 49.0004 22.4033 49.0004 22.4033C49.0004 22.4033 48.6861 22.7684 48.2177 23.4414C47.8404 17.9237 44.6008 12.9256 42.3899 9.51458C41.2082 7.69154 40.3204 6.32182 40.3204 5.56836C39.8491 6.11718 39.4793 6.94266 39.2834 7.93603Z" fill="#FF772B"/>
</svg>
