<svg width="48" height="49" viewBox="0 0 48 49" fill="none" xmlns="http://www.w3.org/2000/svg">
<path d="M38.3204 4.56836C37.1511 5.92988 36.6066 8.99409 37.7922 12.1004C38.9778 15.2067 40.7951 14.532 41.9279 17.6997C43.4232 21.8793 42.7272 27.494 42.7272 27.494C42.7272 27.494 44.5248 32.6996 45.7774 27.1702C48.55 16.7843 38.3204 7.12593 38.3204 4.56836Z" fill="url(#paint0_radial)"/>
<path d="M24.0524 47.6875C36.0268 47.6875 45.7272 37.9346 45.7272 25.9088C45.7272 13.883 36.0268 4.13013 24.064 4.13013C12.1012 4.13013 2.40092 13.883 2.40092 25.9088C2.37773 37.9462 12.0895 47.6875 24.0524 47.6875Z" fill="url(#paint1_radial)"/>
<path d="M40.2928 39.3377C39.8243 39.6682 39.3327 39.9649 38.8219 40.2255C39.4986 39.2341 40.1228 38.208 40.6921 37.1513C41.154 36.64 41.5771 36.1431 41.9219 35.6057C42.0898 35.3417 42.279 35.0159 42.4794 34.638C43.6962 32.4456 45.038 28.8976 45.076 25.2532V25.2444C45.0769 25.1547 45.0774 25.065 45.0767 24.9751C45.083 24.0603 44.9895 23.1476 44.7978 22.2531C44.8075 22.3229 44.8161 22.3928 44.8249 22.4626C44.8141 22.4089 44.8051 22.3546 44.7935 22.3008C44.8114 22.4001 44.8257 22.4961 44.8411 22.5929C45.0899 24.7031 44.9127 26.7615 44.0266 28.279C44.0126 28.3011 43.9983 28.3219 43.9842 28.3436C44.4436 26.0372 44.5973 23.4907 44.0861 20.9412C44.0861 20.9412 43.8817 19.7018 42.3588 15.9392C41.4822 13.7735 39.9255 11.998 38.5502 10.7045C37.3446 9.21299 36.2497 8.21206 35.6461 7.57656C34.3853 6.24897 33.8569 5.25386 33.6399 4.60454C33.4518 4.51021 31.0454 2.17256 30.8543 2.0835C29.8039 3.71201 26.5007 8.80591 28.072 13.5652C28.7841 15.7221 30.585 17.9606 32.4698 19.2164C32.5526 19.3109 33.5913 20.4392 34.0853 22.9838C34.5954 25.6128 34.3272 27.6643 33.2774 30.6979C32.0427 33.3592 28.8796 35.9902 25.9178 36.2594C19.586 36.8346 17.268 33.0803 17.268 33.0803C19.5305 33.9848 22.0321 33.7956 23.5533 32.8578C25.0865 31.9093 26.014 31.2061 26.7667 31.4834C27.5089 31.7594 28.0997 30.9582 27.5696 30.1276C27.1601 29.497 26.5743 29.0007 25.8849 28.7005C25.1956 28.4004 24.4332 28.3096 23.6926 28.4395C22.1578 28.6889 20.7519 29.9047 18.7408 28.7272C18.6107 28.6517 18.4847 28.5692 18.3635 28.4801C18.2309 28.3929 18.7944 28.6127 18.6629 28.5137C18.2716 28.3011 17.5789 27.8378 17.3992 27.673C17.3693 27.6456 17.7029 27.7794 17.673 27.7519C15.7926 26.2035 16.0275 25.1575 16.0865 24.5014C16.1339 23.9766 16.4754 23.304 17.051 23.0312C17.3289 23.1829 17.5021 23.2987 17.5021 23.2987C17.5021 23.2987 17.3836 23.0565 17.3195 22.9288C17.3419 22.919 17.3634 22.9216 17.3858 22.9121C17.6135 23.022 18.1171 23.3076 18.3822 23.4818C18.7275 23.7253 18.8376 23.9425 18.8376 23.9425C18.8376 23.9425 18.9285 23.8925 18.8613 23.6801C18.8368 23.593 18.732 23.3162 18.39 23.0368L18.4114 23.0392C18.6161 23.1559 18.81 23.2905 18.9908 23.4416C19.0872 23.091 19.2607 22.7249 19.2225 22.0699C19.1992 21.6094 19.21 21.4902 19.1288 21.3124C19.0562 21.1596 19.1696 21.1 19.2957 21.2586C19.2741 21.1344 19.2379 21.0131 19.1879 20.8973L19.189 20.8854C19.3465 20.3368 22.5214 18.9098 22.7525 18.743C23.1322 18.4743 23.4506 18.1281 23.6867 17.7273C23.8633 17.4459 23.9961 17.0512 24.0285 16.4523C24.0458 16.0205 23.8449 15.7329 20.6346 15.3968C19.7566 15.3103 19.2415 14.6741 18.9488 14.0871C18.8953 13.9606 18.8409 13.846 18.7864 13.7315C18.7344 13.5976 18.6926 13.46 18.6615 13.3198C19.1864 11.8124 20.0682 10.5377 21.365 9.57471C21.4356 9.51035 21.0826 9.59121 21.1532 9.52686C21.2356 9.45176 21.7737 9.23501 21.8753 9.18618C21.9994 9.12759 21.3439 8.84927 20.7653 8.91704C20.176 8.98345 20.0509 9.05376 19.7364 9.18711C19.8669 9.05718 20.2819 8.88687 20.1846 8.88799C19.5493 8.9854 18.7598 9.35469 18.085 9.77295C18.0837 9.70012 18.0976 9.62781 18.1258 9.56064C17.8113 9.69404 17.0388 10.2339 16.814 10.6906C16.8237 10.6031 16.828 10.515 16.827 10.427C16.5874 10.6268 16.3712 10.8531 16.1827 11.1017L16.1709 11.1124C14.3468 10.3775 12.7416 10.3299 11.3832 10.6594C11.086 10.361 10.9408 10.5792 10.2647 9.09355C10.2187 9.0041 10.2999 9.18188 10.2647 9.09355C10.1534 8.80547 10.3325 9.47793 10.2647 9.09355C9.12776 9.99062 7.63186 11.0073 6.91379 11.7249C6.90491 11.7535 7.75149 11.4856 6.91379 11.7249C6.62043 11.8087 6.64036 11.9828 6.59578 13.556C6.58503 13.6752 6.59456 13.8088 6.58489 13.9162C6.01126 14.6471 5.62058 15.266 5.47283 15.5867C4.73098 16.865 3.91394 18.8578 3.12195 22.0101C3.47128 21.1556 3.89245 20.3323 4.38093 19.5491C3.72234 21.2223 3.08567 23.8498 2.95837 27.896C3.11769 27.061 3.32198 26.2353 3.57034 25.4224C3.41486 28.7793 3.99375 32.1297 5.26663 35.2398C5.72214 36.3541 6.47561 38.0452 7.75828 39.898C11.7882 44.1382 17.4724 46.7779 23.7667 46.7779C30.3376 46.7779 36.2381 43.903 40.2928 39.3377Z" fill="url(#paint2_linear)"/>
<path d="M35.4306 42.4173C43.3832 41.4964 46.9037 33.3011 42.3828 33.14C38.2991 33.0094 31.6637 42.8519 35.4306 42.4173Z" fill="url(#paint3_radial)"/>
<path d="M42.9555 31.4661C48.427 28.2818 47.0004 21.4036 47.0004 21.4036C47.0004 21.4036 44.8888 23.8566 43.4543 27.7668C42.0372 31.6389 39.666 33.3893 42.9555 31.4661Z" fill="url(#paint4_radial)"/>
<path d="M25.5857 46.4874C33.214 48.9215 39.7703 42.9122 35.7289 40.9054C32.0546 39.0955 21.9651 45.3364 25.5857 46.4874Z" fill="url(#paint5_radial)"/>
<path d="M43.5239 34.3864C43.7094 34.1246 43.9604 33.2861 44.1821 32.9113C45.5289 30.7373 45.5384 29.0039 45.5384 28.9642C46.3518 24.9008 46.278 23.2416 45.7776 20.173C45.3748 17.7023 43.6135 14.1627 42.0877 12.4582C40.5154 10.7021 41.6231 11.2743 40.1008 9.9915C38.7665 8.51235 37.4727 7.04761 36.7681 6.45854C31.6765 2.20186 31.7916 1.29771 31.8896 1.14355C31.873 1.16167 31.8487 1.18857 31.8177 1.22378C31.7574 0.983398 31.7148 0.78125 31.7148 0.78125C31.7148 0.78125 28.9316 3.56445 28.3457 8.20312C27.9632 11.2315 29.0968 14.3885 30.7383 16.4062C31.593 17.4519 32.559 18.4015 33.6191 19.2383V19.237C34.8594 21.0181 35.542 23.216 35.542 25.5802C35.542 31.5003 30.7402 36.2995 24.8168 36.2995C24.0095 36.2999 23.2047 36.2095 22.4177 36.03C19.6229 35.4974 18.0091 34.0876 17.2042 33.1305C16.7429 32.582 16.5468 32.1821 16.5468 32.1821C19.0508 33.0792 21.8195 32.8915 23.5032 31.9615C25.2 31.0209 26.2266 30.3235 27.0597 30.5985C27.881 30.8722 28.5349 30.0776 27.9484 29.254C27.3736 28.4314 25.8781 27.2535 23.6575 27.5798C21.9588 27.8272 20.4027 29.033 18.177 27.8652C18.0337 27.7908 17.8942 27.7089 17.7593 27.6201C17.6126 27.5336 18.2363 27.7517 18.0907 27.6534C17.6576 27.4426 16.8909 26.9831 16.6921 26.8197C16.659 26.7925 17.0282 26.9252 16.9949 26.8979C14.9138 25.3623 15.1736 24.325 15.2391 23.6743C15.2915 23.1538 15.6694 22.4868 16.3064 22.2163C16.614 22.3667 16.8057 22.4816 16.8057 22.4816C16.8057 22.4816 16.6745 22.2414 16.6035 22.1147C16.6284 22.1053 16.6521 22.1077 16.6768 22.0982C16.9288 22.2072 17.4861 22.4902 17.7796 22.6631C18.1618 22.9047 18.2836 23.1201 18.2836 23.1201C18.2836 23.1201 18.3842 23.0705 18.3098 22.8598C18.2826 22.7734 18.1667 22.4989 17.7882 22.2219L17.8119 22.2243C18.0366 22.3388 18.2511 22.4723 18.4532 22.6233C18.5599 22.2756 18.7519 21.9125 18.7097 21.263C18.6839 20.8064 18.6958 20.6881 18.606 20.5118C18.5255 20.3604 18.6511 20.3012 18.7906 20.4586C18.7665 20.3345 18.7264 20.214 18.6713 20.1001L18.6725 20.0883C18.8468 19.5442 22.3607 18.1291 22.6165 17.9636C23.0286 17.7049 23.3811 17.3616 23.6504 16.9563C23.8458 16.6772 23.9929 16.2857 24.0288 15.6919C24.0408 15.4243 23.9584 15.2125 23.0278 15.01C22.4692 14.8884 21.6051 14.7701 20.2723 14.6451C19.3006 14.5593 18.7304 13.9285 18.4064 13.3462C18.3473 13.2208 18.2871 13.107 18.2268 12.9936C18.1694 12.8616 18.1232 12.7251 18.0885 12.5854C18.67 11.0632 19.7171 9.76346 21.0807 8.87139C21.1588 8.80752 20.7682 8.88774 20.8463 8.82393C20.9375 8.74946 21.533 8.53452 21.6455 8.48608C21.7828 8.42817 21.0574 8.1521 20.417 8.21919C19.7648 8.28506 19.6263 8.35474 19.2782 8.48706C19.4227 8.3582 19.882 8.18921 19.7743 8.19043C19.0712 8.28701 18.1972 8.65327 17.4501 9.06802C17.4487 8.9953 17.4642 8.92324 17.4952 8.85747C17.1471 8.98975 16.2922 9.52515 16.0434 9.97808C16.0541 9.89136 16.0589 9.80402 16.0577 9.71665C15.7956 9.91201 15.5564 10.1364 15.3448 10.3856L15.3318 10.3962C13.3129 9.66748 11.5363 9.62031 10.0329 9.94702C9.70396 9.65107 9.17515 9.20356 8.42681 7.73022C8.37598 7.6415 8.34868 7.91357 8.30962 7.82598C8.01885 7.15151 7.84316 6.04648 7.87202 5.28467C7.87202 5.28467 7.27056 5.55879 6.77275 6.70361C6.68032 6.90942 6.62104 7.02295 6.56182 7.13647C6.53457 7.16958 6.62358 6.7605 6.60938 6.78276C6.52285 6.92925 6.29902 7.13394 6.20063 7.39888C6.13306 7.59522 6.03828 7.70518 5.97778 7.95005L5.96357 7.97251C5.95869 7.90034 5.98149 7.67559 5.96489 7.72168C5.73156 8.19309 5.53077 8.67992 5.36392 9.17876C5.0959 10.0599 4.78389 11.2593 4.73442 12.8196C4.72251 12.9379 4.73311 13.0704 4.72236 13.1769C4.0876 13.9017 3.65508 14.5154 3.49155 14.8335C2.6709 16.1017 1.7666 18.0779 0.88999 21.2041C1.28 20.3501 1.74639 19.5332 2.28345 18.7632C1.55449 20.4225 0.849854 23.0282 0.708984 27.041C0.885929 26.2106 1.11211 25.3914 1.38633 24.5879C1.26045 27.2637 1.57212 30.5811 3.26372 34.3239C4.26812 36.5254 6.58018 40.9962 12.2295 44.485L12.2291 44.4854C12.2291 44.4854 14.1509 45.916 17.4545 46.9882C17.6986 47.0768 17.9459 47.164 18.1983 47.2486C18.1191 47.2166 18.0425 47.183 17.9681 47.1484C20.167 47.8073 22.45 48.1428 24.7455 48.1445C33.2992 48.1518 35.8219 44.7168 35.8219 44.7168C35.8219 44.7168 35.813 44.7235 35.7969 44.7352C35.9176 44.6216 36.0338 44.5034 36.1457 44.3809C34.7961 45.6553 31.7162 45.7398 30.5646 45.6479C32.5286 45.0711 33.821 44.5832 36.3349 43.6206C36.629 43.5116 36.9298 43.3872 37.2373 43.2476C37.2706 43.2329 37.3041 43.217 37.3375 43.2019C37.3985 43.1734 37.4589 43.1466 37.5205 43.1167C38.7453 42.5395 39.897 41.8185 40.9512 40.9689C43.4756 38.9523 44.0249 36.9866 44.312 35.6906C44.272 35.8148 44.1472 36.1044 44.0596 36.2919C43.4094 37.6827 41.9677 38.536 40.402 39.2679C41.147 38.2903 41.838 37.2726 42.4717 36.2194C42.9828 35.7124 43.1422 34.9193 43.5239 34.3864Z" fill="url(#paint6_radial)"/>
<path d="M40.4513 39.2081C41.4806 38.0733 42.4049 36.7753 43.105 35.3034C44.9068 31.5152 47.6925 25.2165 45.4985 18.6381C43.7645 13.4387 41.3836 10.5957 38.3607 7.81846C33.4514 3.3084 32.0802 1.29497 32.0802 0.0976562C32.0802 0.0976562 26.4118 6.41646 28.8702 13.0069C31.3285 19.5973 36.3633 19.3557 39.6943 26.2332C43.614 34.3262 36.523 43.1577 30.659 45.6295C31.018 45.5498 43.6946 42.6812 44.3608 35.4302C44.3458 35.5636 44.0601 37.569 40.4513 39.2081Z" fill="url(#paint7_radial)"/>
<path d="M24.0286 15.6921C24.0478 15.2639 23.8257 14.9763 20.2844 14.6441C18.8274 14.5096 18.2695 13.1629 18.0994 12.5962C17.5814 13.9421 17.3674 15.3545 17.4824 17.0628C17.561 18.182 18.313 19.3832 18.6724 20.0885C18.6724 20.0885 18.7523 19.9847 18.7891 19.9463C19.4659 19.2417 22.3016 18.168 22.568 18.0156C22.8617 17.8301 23.9793 17.0135 24.0286 15.6921Z" fill="url(#paint8_linear)"/>
<path d="M8.43919 7.73784C8.38836 7.64907 8.36106 7.92114 8.322 7.83359C8.03123 7.15913 7.85432 6.06602 7.89622 5.29346C7.89622 5.29346 7.29475 5.56758 6.79695 6.7124C6.70452 6.91821 6.64524 7.03174 6.58601 7.14526C6.55877 7.17837 6.64778 6.76929 6.63357 6.79155C6.5471 6.93804 6.32327 7.14272 6.22605 7.3958C6.14544 7.60278 6.06253 7.71392 6.00081 7.97061C5.98181 8.04038 6.01995 7.66186 6.00335 7.70796C4.84558 9.94551 4.62458 13.3288 4.74661 13.1857C7.21135 10.5539 10.0359 9.92969 10.0359 9.92969C9.73538 9.7083 9.0824 9.06909 8.43924 7.73784H8.43919Z" fill="url(#paint9_linear)"/>
<path d="M17.7914 35.2589C14.3869 33.8053 10.5164 31.7552 10.6625 27.0978C10.8614 20.9641 16.3824 22.1764 16.3824 22.1764C16.1741 22.2271 15.617 22.6238 15.4196 23.0465C15.211 23.5752 14.8303 24.769 15.9836 26.0202C17.7946 27.9827 12.2629 30.6762 20.8012 35.7646C21.0165 35.8818 18.7997 35.6948 17.7915 35.2589H17.7914Z" fill="url(#paint10_linear)"/>
<path d="M16.5817 32.2023C18.9959 33.0424 21.8083 32.8951 23.492 31.965C24.6192 31.3376 26.0653 30.3325 26.955 30.5806C26.1846 30.2761 25.6012 30.1338 24.8993 30.0991C24.7798 30.0991 24.6365 30.0965 24.5064 30.0835C24.2493 30.0826 23.9924 30.0967 23.737 30.1256C23.3024 30.1655 22.8207 30.4397 22.3827 30.3957C22.3591 30.3933 22.8075 30.2114 22.7711 30.2197C22.539 30.2681 22.2869 30.2785 22.0206 30.3115C21.8513 30.3304 21.7057 30.3516 21.5376 30.3586C16.5092 30.785 12.2595 27.6333 12.2595 27.6333C11.8977 28.8516 13.8789 31.2612 16.5818 32.2023H16.5817Z" fill="url(#paint11_linear)"/>
<path d="M40.4424 39.2405C45.5284 34.2469 48.1016 28.1768 47.0138 21.3685C47.0138 21.3685 47.4484 24.8597 45.8005 28.4304C46.5922 24.9444 46.6843 20.6124 44.581 16.1263C41.7738 10.1385 37.1568 6.98774 35.3942 5.67329C32.7235 3.68164 31.6164 1.65381 31.5965 1.23535C30.7987 2.86997 28.3852 8.47168 31.3372 13.2959C34.1028 17.8156 38.4595 19.1572 41.5095 23.3031C47.1284 30.9408 40.4424 39.2405 40.4424 39.2405Z" fill="url(#paint12_linear)"/>
<path d="M39.7136 26.2476C37.9361 22.5757 35.7177 20.9741 33.6191 19.2383C33.8633 19.5801 33.9234 19.7008 34.0586 19.9219C35.9056 21.8904 38.6292 26.6922 36.6519 32.7201C32.9297 44.0665 18.0414 38.7235 16.4805 37.2226C17.1119 43.7895 28.1033 46.9318 35.2598 42.6733C39.332 38.8184 42.6264 32.265 39.7136 26.2476Z" fill="url(#paint13_linear)"/>
<defs>
<radialGradient id="paint0_radial" cx="0" cy="0" r="1" gradientUnits="userSpaceOnUse" gradientTransform="translate(45.054 12.1191) rotate(2.55481) scale(16.7924 24.6818)">
<stop offset="0.045" stop-color="#FFEA00"/>
<stop offset="0.12" stop-color="#FFDE00"/>
<stop offset="0.254" stop-color="#FFBF00"/>
<stop offset="0.429" stop-color="#FF8E00"/>
<stop offset="0.769" stop-color="#FF272D"/>
<stop offset="0.872" stop-color="#E0255A"/>
<stop offset="0.953" stop-color="#CC2477"/>
<stop offset="1" stop-color="#C42482"/>
</radialGradient>
<radialGradient id="paint1_radial" cx="0" cy="0" r="1" gradientUnits="userSpaceOnUse" gradientTransform="translate(33.0879 9.52809) scale(47.3269)">
<stop stop-color="#00CCDA"/>
<stop offset="0.22" stop-color="#0083FF"/>
<stop offset="0.261" stop-color="#007AF9"/>
<stop offset="0.33" stop-color="#0060E8"/>
<stop offset="0.333" stop-color="#005FE7"/>
<stop offset="0.438" stop-color="#2639AD"/>
<stop offset="0.522" stop-color="#401E84"/>
<stop offset="0.566" stop-color="#4A1475"/>
</radialGradient>
<linearGradient id="paint2_linear" x1="27.1089" y1="35.7025" x2="17.7613" y2="5.125" gradientUnits="userSpaceOnUse">
<stop stop-color="#000F43" stop-opacity="0.4"/>
<stop offset="0.485" stop-color="#001962" stop-opacity="0.173"/>
<stop offset="1" stop-color="#002079" stop-opacity="0"/>
</linearGradient>
<radialGradient id="paint3_radial" cx="0" cy="0" r="1" gradientUnits="userSpaceOnUse" gradientTransform="translate(49.1813 31.1255) rotate(5.76179) scale(15.9661)">
<stop offset="0.003" stop-color="#FFEA00"/>
<stop offset="0.497" stop-color="#FF272D"/>
<stop offset="1" stop-color="#C42482"/>
</radialGradient>
<radialGradient id="paint4_radial" cx="0" cy="0" r="1" gradientUnits="userSpaceOnUse" gradientTransform="translate(49.2812 15.7484) rotate(5.76178) scale(26.6621)">
<stop offset="0.003" stop-color="#FFE900"/>
<stop offset="0.157" stop-color="#FFAF0E"/>
<stop offset="0.316" stop-color="#FF7A1B"/>
<stop offset="0.472" stop-color="#FF4E26"/>
<stop offset="0.621" stop-color="#FF2C2E"/>
<stop offset="0.762" stop-color="#FF1434"/>
<stop offset="0.892" stop-color="#FF0538"/>
<stop offset="1" stop-color="#FF0039"/>
</radialGradient>
<radialGradient id="paint5_radial" cx="0" cy="0" r="1" gradientUnits="userSpaceOnUse" gradientTransform="translate(50.552 40.7174) rotate(5.76176) scale(24.4654)">
<stop offset="0.003" stop-color="#FF272D"/>
<stop offset="0.497" stop-color="#C42482"/>
<stop offset="0.986" stop-color="#620700"/>
</radialGradient>
<radialGradient id="paint6_radial" cx="0" cy="0" r="1" gradientUnits="userSpaceOnUse" gradientTransform="translate(35.6303 19.3379) scale(38.1924)">
<stop offset="0.156" stop-color="#FFEA00"/>
<stop offset="0.231" stop-color="#FFDE00"/>
<stop offset="0.365" stop-color="#FFBF00"/>
<stop offset="0.541" stop-color="#FF8E00"/>
<stop offset="0.763" stop-color="#FF272D"/>
<stop offset="0.796" stop-color="#F92433"/>
<stop offset="0.841" stop-color="#E91C45"/>
<stop offset="0.893" stop-color="#CF0E62"/>
<stop offset="0.935" stop-color="#B5007F"/>
</radialGradient>
<radialGradient id="paint7_radial" cx="0" cy="0" r="1" gradientUnits="userSpaceOnUse" gradientTransform="translate(32.7568 0.160595) scale(45.0984)">
<stop offset="0.279" stop-color="#FFEA00"/>
<stop offset="0.402" stop-color="#FFDD00"/>
<stop offset="0.63" stop-color="#FFBA00"/>
<stop offset="0.856" stop-color="#FF9100"/>
<stop offset="0.933" stop-color="#FF6711"/>
<stop offset="0.994" stop-color="#FF4A1D"/>
</radialGradient>
<linearGradient id="paint8_linear" x1="9.45378" y1="17.4254" x2="26.8147" y2="14.8189" gradientUnits="userSpaceOnUse">
<stop stop-color="#C42482" stop-opacity="0.5"/>
<stop offset="0.474" stop-color="#FF272D" stop-opacity="0.5"/>
<stop offset="0.486" stop-color="#FF2C2C" stop-opacity="0.513"/>
<stop offset="0.675" stop-color="#FF7A1A" stop-opacity="0.72"/>
<stop offset="0.829" stop-color="#FFB20D" stop-opacity="0.871"/>
<stop offset="0.942" stop-color="#FFD605" stop-opacity="0.964"/>
<stop offset="1" stop-color="#FFE302"/>
</linearGradient>
<linearGradient id="paint9_linear" x1="7.72197" y1="12.7868" x2="5.7535" y2="5.72601" gradientUnits="userSpaceOnUse">
<stop stop-color="#891551" stop-opacity="0.6"/>
<stop offset="1" stop-color="#C42482" stop-opacity="0"/>
</linearGradient>
<linearGradient id="paint10_linear" x1="11.4751" y1="22.9965" x2="15.5253" y2="28.649" gradientUnits="userSpaceOnUse">
<stop offset="0.005" stop-color="#891551" stop-opacity="0.5"/>
<stop offset="0.484" stop-color="#FF272D" stop-opacity="0.5"/>
<stop offset="1" stop-color="#FF272D" stop-opacity="0"/>
</linearGradient>
<linearGradient id="paint11_linear" x1="19.2188" y1="32.8923" x2="19.5872" y2="29.2595" gradientUnits="userSpaceOnUse">
<stop stop-color="#C42482"/>
<stop offset="0.083" stop-color="#C42482" stop-opacity="0.81"/>
<stop offset="0.206" stop-color="#C42482" stop-opacity="0.565"/>
<stop offset="0.328" stop-color="#C42482" stop-opacity="0.362"/>
<stop offset="0.447" stop-color="#C42482" stop-opacity="0.204"/>
<stop offset="0.562" stop-color="#C42482" stop-opacity="0.091"/>
<stop offset="0.673" stop-color="#C42482" stop-opacity="0.023"/>
<stop offset="0.773" stop-color="#C42482" stop-opacity="0"/>
</linearGradient>
<linearGradient id="paint12_linear" x1="31.0084" y1="1.86133" x2="45.933" y2="35.2351" gradientUnits="userSpaceOnUse">
<stop stop-color="#FFF14F"/>
<stop offset="0.268" stop-color="#FFEE4C"/>
<stop offset="0.452" stop-color="#FFE643"/>
<stop offset="0.612" stop-color="#FFD834"/>
<stop offset="0.757" stop-color="#FFC41E"/>
<stop offset="0.892" stop-color="#FFAB02"/>
<stop offset="0.902" stop-color="#FFA900"/>
<stop offset="0.949" stop-color="#FFA000"/>
<stop offset="1" stop-color="#FF9100"/>
</linearGradient>
<linearGradient id="paint13_linear" x1="33.9553" y1="21.0552" x2="26.8856" y2="40.0371" gradientUnits="userSpaceOnUse">
<stop stop-color="#FF8E00"/>
<stop offset="0.04" stop-color="#FF8E00" stop-opacity="0.858"/>
<stop offset="0.084" stop-color="#FF8E00" stop-opacity="0.729"/>
<stop offset="0.13" stop-color="#FF8E00" stop-opacity="0.628"/>
<stop offset="0.178" stop-color="#FF8E00" stop-opacity="0.557"/>
<stop offset="0.227" stop-color="#FF8E00" stop-opacity="0.514"/>
<stop offset="0.282" stop-color="#FF8E00" stop-opacity="0.5"/>
<stop offset="0.389" stop-color="#FF8E00" stop-opacity="0.478"/>
<stop offset="0.524" stop-color="#FF8E00" stop-opacity="0.416"/>
<stop offset="0.676" stop-color="#FF8E00" stop-opacity="0.314"/>
<stop offset="0.838" stop-color="#FF8E00" stop-opacity="0.172"/>
<stop offset="1" stop-color="#FF8E00" stop-opacity="0"/>
</linearGradient>
</defs>
</svg>
