<svg width="57" height="21" viewBox="0 0 57 21" fill="none" xmlns="http://www.w3.org/2000/svg">
<path d="M7.87081 5.02399V6.3637C7.06698 5.35891 5.99521 4.89001 4.72248 4.89001C3.81818 4.89001 3.01435 5.12446 2.27751 5.59336C1.54067 6.06226 0.971291 6.73212 0.60287 7.56944C0.23445 8.40676 0 9.41154 0 10.4833C0 11.5886 0.200957 12.5599 0.569377 13.4307C0.937798 14.268 1.47368 14.9379 2.17703 15.4068C2.88038 15.8757 3.65071 16.1101 4.55502 16.1101C5.62679 16.1101 6.76554 15.6077 7.9043 14.5694V15.1723C7.9043 15.9426 7.83731 16.5455 7.66985 17.0144C7.50239 17.4833 7.23444 17.8182 6.83253 18.0192C6.53109 18.1867 6.12918 18.2871 5.5933 18.3206H0.60287V21H5.79425C7.70334 20.9666 9.00956 20.5311 9.91387 19.6603C10.8517 18.756 11.3206 17.4498 11.3206 15.7417V7.56944H13.1292V5.02399H7.87081ZM7.26794 12.5599C6.86602 13.0623 6.33014 13.2967 5.69377 13.2967C5.02392 13.2967 4.52153 13.0288 4.11961 12.4929C3.75119 11.957 3.55024 11.2871 3.55024 10.4833C3.55024 9.64599 3.75119 8.97614 4.11961 8.44025C4.48803 7.90437 5.02392 7.66992 5.69377 7.66992C6.36363 7.66992 6.89951 7.93786 7.30143 8.44025C7.70334 8.94264 7.9043 9.64599 7.9043 10.5168C7.9043 11.3876 7.70334 12.0575 7.26794 12.5599Z" fill="#072950"/>
<path d="M25.3207 11.2201H17.1819C17.2489 12.0574 17.5503 12.7273 18.0527 13.1962C18.5551 13.6986 19.1915 13.933 19.9618 13.933C20.8326 13.933 21.6699 13.4976 22.5073 12.6603L25.2202 13.5311C24.6173 14.4354 23.8805 15.1053 23.0096 15.5407C22.1388 15.9761 21.1006 16.2105 19.8948 16.2105C18.6891 16.2105 17.6173 15.9761 16.713 15.5407C15.7752 15.0718 15.0719 14.4354 14.5695 13.5981C14.0671 12.7608 13.7991 11.7895 13.7991 10.6507C13.7991 9.54545 14.0671 8.54067 14.603 7.63636C15.1388 6.73206 15.8422 6.02871 16.7465 5.52632C17.6508 5.02392 18.6221 4.75598 19.6939 4.75598C20.8326 4.75598 21.8374 5.02392 22.7082 5.55981C23.579 6.09569 24.2154 6.83253 24.6843 7.80383C25.0862 8.80861 25.3207 9.91387 25.3207 11.2201ZM19.4929 7.10048C18.8565 7.10048 18.3542 7.26794 17.9857 7.63636C17.6173 8.00478 17.3829 8.54067 17.2824 9.27751H21.8374C21.7369 8.64115 21.469 8.10526 21.0336 7.70335C20.5982 7.30143 20.0623 7.10048 19.4929 7.10048Z" fill="#072950"/>
<path d="M42.3348 13.4306V15.9426H35.6028V13.4306H37.2774V7.56937H35.6028V5.02392H40.7272V13.4306H42.3348ZM40.9281 1.90909C40.9281 2.47847 40.7272 2.91387 40.3587 3.28229C39.9903 3.65071 39.5214 3.81818 39.019 3.81818C38.4831 3.81818 38.0477 3.61722 37.6793 3.2488C37.3109 2.88038 37.1099 2.41148 37.1099 1.90909C37.1099 1.3732 37.3109 0.937798 37.6793 0.569377C38.0477 0.200957 38.5166 0 39.019 0C39.5549 0 39.9903 0.200957 40.3587 0.569377C40.7272 0.937798 40.9281 1.4067 40.9281 1.90909Z" fill="url(#paint0_linear)"/>
<path d="M56.2345 13.4306V15.9426H50.9761V14.6364C49.9713 15.6076 48.933 16.11 47.7943 16.11C46.8565 16.11 46.0526 15.8756 45.3493 15.3732C44.6459 14.8708 44.0766 14.2009 43.7081 13.3301C43.3062 12.4593 43.1053 11.488 43.1053 10.4498C43.1053 9.34449 43.3062 8.3732 43.7081 7.50239C44.1101 6.63158 44.6794 5.96172 45.3828 5.49282C46.1196 5.02392 46.9235 4.75598 47.8278 4.75598C49.1005 4.75598 50.1723 5.25837 50.9761 6.22966V2.7799H49.2345V0.267944H54.4258V13.4306H56.2345ZM48.8325 13.3636C49.5024 13.3636 50.0383 13.0957 50.4402 12.5598C50.8086 12.0239 51.0096 11.3206 51.0096 10.4832C51.0096 9.64593 50.8086 8.94258 50.4067 8.40669C50.0048 7.87081 49.4689 7.60287 48.7991 7.60287C48.1292 7.60287 47.6268 7.87081 47.2249 8.40669C46.823 8.94258 46.6555 9.64593 46.6555 10.4832C46.6555 11.3206 46.8565 12.0239 47.2249 12.5598C47.6268 13.0957 48.1627 13.3636 48.8325 13.3636Z" fill="url(#paint1_linear)"/>
<path d="M33.4928 7.56933V5.02388H31.4832V0.83728L28 3.31575V5.02388H26.6268V7.56933H28V13.4306C28 14.8038 29.1387 15.9425 30.5119 15.9425H31.4832H33.4928V13.4306H32.354C31.8851 13.4306 31.5167 13.0622 31.5167 12.5933V7.56933H33.4928Z" fill="#072950"/>
<defs>
<linearGradient id="paint0_linear" x1="34.3238" y1="21.9788" x2="46.2527" y2="-7.59837" gradientUnits="userSpaceOnUse">
<stop stop-color="#00B1C9"/>
<stop offset="1" stop-color="#EA167C"/>
</linearGradient>
<linearGradient id="paint1_linear" x1="44.2214" y1="25.9705" x2="56.1503" y2="-3.6066" gradientUnits="userSpaceOnUse">
<stop stop-color="#00B1C9"/>
<stop offset="1" stop-color="#EA167C"/>
</linearGradient>
</defs>
</svg>
