<svg width="104" height="39" viewBox="0 0 104 39" fill="none" xmlns="http://www.w3.org/2000/svg">
<path fill-rule="evenodd" clip-rule="evenodd" d="M13.4647 23.3088C12.7022 24.2159 11.7312 24.6696 10.5527 24.6696C9.33489 24.6696 8.3741 24.1805 7.6694 23.2025C6.96469 22.2247 6.61206 20.9893 6.61206 19.4962C6.61206 17.9394 6.96469 16.6781 7.6694 15.7126C8.3741 14.7477 9.33489 14.2652 10.5527 14.2652C11.8082 14.2652 12.7982 14.7348 13.5223 15.6742C14.2458 16.6139 14.6083 17.9005 14.6083 19.5347C14.6083 21.1437 14.2268 22.4014 13.4647 23.3088ZM14.5699 9.32331V11.8135C13.0705 9.97337 11.1224 9.05302 8.72632 9.05302C7.0735 9.05302 5.57426 9.4942 4.22878 10.3754C2.8833 11.257 1.84218 12.489 1.10523 14.072C0.368474 15.6549 0 17.45 0 19.4576C0 21.5038 0.346108 23.3181 1.03795 24.9011C1.72998 26.4841 2.71332 27.7162 3.98854 28.5978C5.26338 29.4794 6.72776 29.9199 8.38077 29.9199C10.3793 29.9199 12.4427 28.9741 14.5699 27.0823V28.1827C14.5699 29.611 14.4256 30.7464 14.1371 31.5897C13.8488 32.4325 13.3362 33.0568 12.5993 33.462C12.0277 33.7766 11.2708 33.9676 10.3331 34.0379V34.0441H1.14419V38.9897H10.7528V38.9789C14.3131 38.9248 16.7054 38.1177 18.3756 36.5023C20.1056 34.8295 20.9704 32.4033 20.9704 29.2251V14.072H24.3148V9.32331H14.5699Z" fill="#2C296A"/>
<path fill-rule="evenodd" clip-rule="evenodd" d="M36.0207 13.1646C34.8674 13.1646 33.9413 13.4994 33.2433 14.1684C32.5445 14.8375 32.1058 15.8606 31.9265 17.2375H40.3453C40.1656 16.028 39.6756 15.0466 38.8749 14.2938C38.0741 13.541 37.1226 13.1646 36.0207 13.1646ZM46.8422 20.8281H31.7728C31.9265 22.3852 32.4614 23.6174 33.3777 24.5247C34.2936 25.4319 35.4759 25.8854 36.9239 25.8854C38.5255 25.8854 40.0889 25.0879 41.6142 23.4918L46.6114 25.1133C45.5092 26.7736 44.1447 28.0185 42.5172 28.8486C40.8899 29.6786 38.9614 30.0937 36.7316 30.0937C34.5023 30.0937 32.5321 29.672 30.8215 28.8294C29.1107 27.9865 27.7844 26.7927 26.8426 25.2485C25.9007 23.7043 25.4297 21.8898 25.4297 19.805C25.4297 17.7463 25.9201 15.8801 26.9002 14.2071C27.8804 12.5343 29.2067 11.2246 30.8789 10.2788C32.5513 9.33303 34.3677 8.86003 36.3281 8.86003C38.4552 8.86003 40.3069 9.35231 41.8831 10.3369C43.4592 11.3212 44.6731 12.7177 45.5256 14.5257C46.3775 16.3338 46.8164 18.4345 46.8422 20.8281Z" fill="#2C296A"/>
<path fill-rule="evenodd" clip-rule="evenodd" d="M60.4675 14.4774V9.72875H56.7389V1.94949L50.3189 6.58231V9.72875H47.7627V14.4774H50.3189V25.3451C50.3189 27.925 52.4015 30.0167 54.9706 30.0167H56.7389H60.4274V25.3451H58.2948C57.4354 25.3451 56.7389 24.6454 56.7389 23.7825V14.4774H60.4675Z" fill="#2C296A"/>
<path fill-rule="evenodd" clip-rule="evenodd" d="M69.6508 1.05193C70.341 0.359192 71.1651 0.00842296 72.1241 0H72.1936C73.14 0.00842296 73.958 0.359192 74.6484 1.05193C75.3466 1.75347 75.6957 2.5866 75.6957 3.55168C75.6957 4.58134 75.3466 5.43374 74.6484 6.10945C73.9496 6.78497 73.1203 7.12283 72.1591 7.12283C71.1851 7.12283 70.3493 6.77243 69.6508 6.07071C68.9522 5.36954 68.6035 4.52987 68.6035 3.55168C68.6035 2.5866 68.9522 1.75347 69.6508 1.05193ZM65.8154 14.0718V9.32336H75.2916V24.9395H78.2899V29.6111H65.8154V24.9395H68.8909V14.0718H65.8154ZM91.1032 5.17325V0.521157H100.695V24.9397H104V29.6112H94.294V27.1983C92.4488 29.0128 90.4881 29.9201 88.412 29.9201C86.708 29.9201 85.2024 29.46 83.8953 28.5398C82.588 27.6199 81.5659 26.3557 80.8295 24.7467C80.0926 23.1383 79.7241 21.3494 79.7241 19.3805C79.7241 17.3472 80.0926 15.5329 80.8295 13.9371C81.5659 12.3414 82.6074 11.0965 83.9529 10.2018C85.2984 9.30743 86.7978 8.86026 88.4504 8.86026C90.821 8.86026 92.769 9.78042 94.294 11.6206V5.17325H91.1032ZM86.2977 19.4189C86.2977 20.9889 86.6565 22.2825 87.3743 23.2987C88.0916 24.3156 89.072 24.8238 90.3152 24.8238C91.5708 24.8238 92.5543 24.3252 93.2658 23.3279C93.9766 22.3306 94.3324 21.0404 94.3324 19.4575C94.3324 17.8747 93.9703 16.5813 93.2464 15.5777C92.5223 14.5738 91.5324 14.0718 90.2768 14.0718C89.0591 14.0718 88.0916 14.5738 87.3743 15.5777C86.6565 16.5813 86.2977 17.862 86.2977 19.4189Z" fill="url(#paint0_linear)"/>
<defs>
<linearGradient id="paint0_linear" x1="104.298" y1="2.58277e-07" x2="66.283" y2="30.2171" gradientUnits="userSpaceOnUse">
<stop stop-color="#F20091"/>
<stop offset="1" stop-color="#31B6FB"/>
</linearGradient>
</defs>
</svg>
