<svg width="169" height="63" viewBox="0 0 169 63" fill="none" xmlns="http://www.w3.org/2000/svg">
<path d="M23.8342 15.0718V19.0909C21.4227 16.0766 18.2074 14.6699 14.3892 14.6699C11.6763 14.6699 9.26479 15.3732 7.05427 16.7799C4.84375 18.1866 3.13561 20.1962 2.03035 22.7082C0.925089 25.2201 0.221741 28.2345 0.221741 31.4498C0.221741 34.7656 0.824611 37.6794 1.92987 40.2919C3.03514 42.8038 4.64279 44.8134 6.75284 46.2201C8.86288 47.6268 11.1739 48.3301 13.8868 48.3301C17.1021 48.3301 20.5184 46.823 23.9346 43.7081V45.5168C23.9346 47.8278 23.7337 49.6364 23.2313 51.0431C22.7289 52.4498 21.9251 53.4545 20.7193 54.0574C19.815 54.5598 18.6093 54.8612 17.0016 54.9617H2.03035V63H17.6045C23.3318 62.8995 27.2504 61.5933 29.9633 58.9809C32.7767 56.2679 34.1834 52.3493 34.1834 47.2249V22.7082H39.6093V15.0718H23.8342ZM22.0255 37.6794C20.8198 39.1866 19.2122 39.89 17.3031 39.89C15.2935 39.89 13.7863 39.0861 12.5806 37.4785C11.4753 35.8708 10.8724 33.8613 10.8724 31.4498C10.8724 28.9378 11.4753 26.9283 12.5806 25.3206C13.6858 23.7129 15.2935 23.0096 17.3031 23.0096C19.3126 23.0096 20.9203 23.8134 22.126 25.3206C23.3318 26.8278 23.9346 28.9378 23.9346 31.5503C23.9346 34.1627 23.3318 36.1723 22.0255 37.6794Z" fill="#072950"/>
<path d="M76.1835 33.6603H51.7672C51.9682 36.1722 52.8725 38.1818 54.3797 39.5885C55.8868 41.0957 57.7959 41.799 60.1069 41.799C62.7194 41.799 65.2313 40.4928 67.7433 37.9808L75.882 40.5933C74.0734 43.3062 71.8629 45.3158 69.2505 46.622C66.638 47.9282 63.5232 48.6315 59.906 48.6315C56.2888 48.6315 53.0735 47.9282 50.3605 46.622C47.5471 45.2153 45.4371 43.3062 43.9299 40.7942C42.4227 38.2823 41.6189 35.3684 41.6189 31.9521C41.6189 28.6363 42.4227 25.622 44.0304 22.9091C45.6381 20.1962 47.7481 18.0861 50.461 16.5789C53.1739 15.0718 56.0878 14.2679 59.3031 14.2679C62.7194 14.2679 65.7337 15.0718 68.3462 16.6794C70.9586 18.2871 72.8677 20.4976 74.2744 23.4115C75.4801 26.4258 76.1835 29.7416 76.1835 33.6603ZM58.7002 21.3014C56.7912 21.3014 55.284 21.8038 54.1787 22.9091C53.0735 24.0143 52.3701 25.622 52.0687 27.8325H65.7337C65.4323 25.9234 64.6285 24.3158 63.3222 23.11C62.016 21.9043 60.4084 21.3014 58.7002 21.3014Z" fill="#072950"/>
<path d="M127.226 40.2918V47.8277H107.03V40.2918H112.054V22.7081H107.03V15.0718H122.403V40.2918H127.226ZM123.006 5.72727C123.006 7.4354 122.403 8.74162 121.298 9.84688C120.193 10.9521 118.786 11.4545 117.279 11.4545C115.671 11.4545 114.365 10.8517 113.26 9.7464C112.155 8.64114 111.552 7.23444 111.552 5.72727C111.552 4.11961 112.155 2.81339 113.26 1.70813C114.365 0.60287 115.772 0 117.279 0C118.887 0 120.193 0.60287 121.298 1.70813C122.403 2.81339 123.006 4.22009 123.006 5.72727Z" fill="url(#paint0_linear)"/>
<path d="M168.925 40.2919V47.8278H153.15V43.9091C150.135 46.823 147.021 48.3302 143.604 48.3302C140.791 48.3302 138.38 47.6268 136.269 46.1196C134.159 44.6125 132.451 42.6029 131.346 39.9904C130.14 37.378 129.537 34.4641 129.537 31.3493C129.537 28.0335 130.14 25.1196 131.346 22.5072C132.552 19.8948 134.26 17.8852 136.37 16.4785C138.58 15.0718 140.992 14.268 143.705 14.268C147.523 14.268 150.738 15.7752 153.15 18.689V8.33976H147.925V0.803879H163.499V40.2919H168.925ZM146.719 40.0909C148.729 40.0909 150.336 39.2871 151.542 37.6794C152.647 36.0718 153.25 33.9617 153.25 31.4498C153.25 28.9378 152.647 26.8278 151.442 25.2201C150.236 23.6125 148.628 22.8086 146.619 22.8086C144.609 22.8086 143.102 23.6125 141.896 25.2201C140.691 26.8278 140.188 28.9378 140.188 31.4498C140.188 33.9617 140.791 36.0718 141.896 37.6794C143.102 39.2871 144.71 40.0909 146.719 40.0909Z" fill="url(#paint1_linear)"/>
<path d="M100.7 22.7081V15.0718H94.6714V2.51199L84.2216 9.94739V15.0718H80.102V22.7081H84.2216V40.2919C84.2216 44.4115 87.6379 47.8277 91.7575 47.8277H94.6714H100.7V40.2919H97.2838C95.8771 40.2919 94.7719 39.1866 94.7719 37.7799V22.7081H100.7Z" fill="#072950"/>
<defs>
<linearGradient id="paint0_linear" x1="103.193" y1="65.9363" x2="138.98" y2="-22.7951" gradientUnits="userSpaceOnUse">
<stop stop-color="#00B1C9"/>
<stop offset="1" stop-color="#EA167C"/>
</linearGradient>
<linearGradient id="paint1_linear" x1="132.886" y1="77.9117" x2="168.672" y2="-10.8198" gradientUnits="userSpaceOnUse">
<stop stop-color="#00B1C9"/>
<stop offset="1" stop-color="#EA167C"/>
</linearGradient>
</defs>
</svg>
