<svg width="49" height="18" viewBox="0 0 49 18" fill="none" xmlns="http://www.w3.org/2000/svg">
    <path fill-rule="evenodd" clip-rule="evenodd" d="M6.22411 10.7579C5.8722 11.1766 5.42403 11.386 4.88011 11.386C4.31805 11.386 3.87461 11.1602 3.54936 10.7089C3.22411 10.2576 3.06136 9.68739 3.06136 8.99827C3.06136 8.27977 3.22411 7.69759 3.54936 7.25199C3.87461 6.80666 4.31805 6.58394 4.88011 6.58394C5.45955 6.58394 5.9165 6.8007 6.25069 7.23428C6.58463 7.66796 6.75194 8.2618 6.75194 9.01606C6.75194 9.75867 6.57586 10.3391 6.22411 10.7579ZM6.73433 4.30309V5.45241C6.04229 4.60312 5.14319 4.17834 4.0373 4.17834C3.27446 4.17834 2.5825 4.38196 1.96151 4.78869C1.34052 5.19558 0.860003 5.76419 0.519874 6.49479C0.17983 7.22538 0.00976562 8.05385 0.00976562 8.98047C0.00976562 9.92487 0.169508 10.7622 0.48882 11.4928C0.808218 12.2234 1.26207 12.7921 1.85063 13.199C2.43902 13.6059 3.11489 13.8092 3.87781 13.8092C4.80022 13.8092 5.75257 13.3727 6.73433 12.4995V13.0074C6.73433 13.6667 6.66775 14.1907 6.53459 14.5799C6.40151 14.9689 6.16496 15.257 5.82483 15.444C5.561 15.5892 5.21166 15.6774 4.77889 15.7098V15.7127H0.537852V17.9953H4.97261V17.9903C6.61579 17.9653 7.71997 17.5928 8.49081 16.8472C9.28926 16.0752 9.6884 14.9554 9.6884 13.4885V6.49479H11.232V4.30309H6.73433Z" fill="#2C296A"/>
    <path fill-rule="evenodd" clip-rule="evenodd" d="M16.6346 6.07594C16.1023 6.07594 15.6749 6.23049 15.3527 6.53924C15.0302 6.84808 14.8277 7.32029 14.745 7.95577H18.6306C18.5476 7.39752 18.3215 6.94458 17.9519 6.59712C17.5823 6.24967 17.1432 6.07594 16.6346 6.07594ZM21.6293 9.61296H14.6742C14.7451 10.3316 14.992 10.9003 15.4149 11.3191C15.8376 11.7378 16.3833 11.9471 17.0516 11.9471C17.7908 11.9471 18.5124 11.579 19.2164 10.8424L21.5228 11.5908C21.014 12.357 20.3843 12.9316 19.6331 13.3147C18.8821 13.6978 17.992 13.8894 16.9628 13.8894C15.9339 13.8894 15.0246 13.6948 14.2351 13.3058C13.4455 12.9168 12.8334 12.3658 12.3987 11.6531C11.964 10.9404 11.7466 10.103 11.7466 9.14076C11.7466 8.19056 11.9729 7.32926 12.4253 6.55712C12.8777 5.78505 13.4898 5.18059 14.2616 4.74406C15.0335 4.30754 15.8718 4.08923 16.7766 4.08923C17.7584 4.08923 18.613 4.31644 19.3405 4.77084C20.0679 5.22517 20.6281 5.86972 21.0216 6.70415C21.4148 7.53867 21.6174 8.50822 21.6293 9.61296Z" fill="#2C296A"/>
    <path fill-rule="evenodd" clip-rule="evenodd" d="M27.9177 6.6819V4.49021H26.1968V0.89978L23.2337 3.038V4.49021H22.054V6.6819H23.2337V11.6977C23.2337 12.8885 24.1949 13.8539 25.3807 13.8539H26.1968H27.8992V11.6977H26.9149C26.5183 11.6977 26.1968 11.3748 26.1968 10.9766V6.6819H27.9177Z" fill="#2C296A"/>
    <path fill-rule="evenodd" clip-rule="evenodd" d="M32.1559 0.485508C32.4744 0.165781 32.8548 0.00388752 33.2974 0H33.3295C33.7663 0.00388752 34.1439 0.165781 34.4625 0.485508C34.7847 0.809295 34.9458 1.19381 34.9458 1.63924C34.9458 2.11446 34.7847 2.50788 34.4625 2.81975C34.14 3.13152 33.7572 3.28746 33.3136 3.28746C32.864 3.28746 32.4783 3.12574 32.1559 2.80186C31.8335 2.47825 31.6726 2.09071 31.6726 1.63924C31.6726 1.19381 31.8335 0.809295 32.1559 0.485508ZM30.3857 6.4947V4.30309H34.7593V11.5105H36.1432V13.6666H30.3857V11.5105H31.8052V6.4947H30.3857ZM42.0573 2.38765V0.24053H46.4841V11.5106H48.0099V13.6667H43.5299V12.5531C42.6783 13.3905 41.7734 13.8093 40.8152 13.8093C40.0287 13.8093 39.3338 13.5969 38.7305 13.1722C38.1272 12.7476 37.6555 12.1642 37.3156 11.4215C36.9755 10.6792 36.8054 9.85359 36.8054 8.94486C36.8054 8.00641 36.9755 7.16904 37.3156 6.43248C37.6555 5.69601 38.1361 5.12144 38.7571 4.7085C39.3781 4.29573 40.0702 4.08935 40.8329 4.08935C41.927 4.08935 42.8261 4.51404 43.5299 5.36333V2.38765H42.0573ZM39.8396 8.96256C39.8396 9.6872 40.0052 10.2842 40.3364 10.7532C40.6675 11.2226 41.12 11.4571 41.6938 11.4571C42.2733 11.4571 42.7272 11.227 43.0556 10.7667C43.3837 10.3064 43.5479 9.71095 43.5479 8.98036C43.5479 8.24985 43.3807 7.6529 43.0466 7.18968C42.7124 6.72637 42.2556 6.49468 41.676 6.49468C41.1141 6.49468 40.6675 6.72637 40.3364 7.18968C40.0052 7.6529 39.8396 8.24398 39.8396 8.96256Z" fill="url(#paint0_linear)"/>
    <defs>
        <linearGradient id="paint0_linear" x1="48.1472" y1="1.19205e-07" x2="30.6018" y2="13.9466" gradientUnits="userSpaceOnUse">
            <stop stop-color="#F20091"/>
            <stop offset="1" stop-color="#31B6FB"/>
        </linearGradient>
    </defs>
</svg>
