<svg width="83" height="20" viewBox="0 0 83 20" fill="none" xmlns="http://www.w3.org/2000/svg">
<path fill-rule="evenodd" clip-rule="evenodd" d="M57.0929 0.00012207C56.7296 0.00012207 56.4151 0.129889 56.1582 0.385953C55.9014 0.641878 55.7712 0.955261 55.7712 1.31736C55.7712 1.67973 55.9014 1.99298 56.1582 2.24877C56.4147 2.50469 56.7291 2.63446 57.0929 2.63446C57.4562 2.63446 57.7707 2.50469 58.0275 2.24877C58.2844 1.99256 58.4146 1.67946 58.4146 1.31736C58.4146 0.955539 58.2844 0.642156 58.0275 0.385814C57.7704 0.129889 57.4558 0.00012207 57.0929 0.00012207Z" fill="#353EF4"/>
<path fill-rule="evenodd" clip-rule="evenodd" d="M6.69224 8.102C5.77144 9.75746 6.37166 11.8434 8.03277 12.761C9.69389 13.6788 11.787 13.0806 12.7078 11.425C13.6286 9.76968 13.0284 7.68356 11.3673 6.76603C9.70614 5.84836 7.61304 6.44654 6.69224 8.102Z" fill="#353EF4"/>
<path fill-rule="evenodd" clip-rule="evenodd" d="M5.22774 16.4901C5.02944 16.6088 4.83739 16.7342 4.65148 16.8651C4.52447 16.9548 4.5047 17.136 4.61068 17.2496C5.11996 17.794 5.67157 18.3195 6.25981 18.8205C6.86783 19.3383 7.68794 19.5432 8.46864 19.3702C9.30018 19.1865 10.1065 18.9557 10.8773 18.6807C12.0239 18.2717 13.1242 17.7536 14.1477 17.1407C14.3356 17.0282 14.5218 16.9119 14.7062 16.792C14.8123 16.7229 14.808 16.5662 14.6995 16.5009C11.8828 14.8079 8.2436 14.6841 5.22774 16.4901Z" fill="#353EF4"/>
<mask id="mask0" mask-type="alpha" maskUnits="userSpaceOnUse" x="0" y="4" width="5" height="11">
<path d="M0 4.62341H4.26205V14.8298H0V4.62341Z" fill="white"/>
</mask>
<g mask="url(#mask0)">
<path fill-rule="evenodd" clip-rule="evenodd" d="M2.95039 5.30663C2.83118 5.10885 2.70557 4.91746 2.57397 4.73218C2.48428 4.60575 2.30227 4.58604 2.18849 4.69152C1.64217 5.1992 1.11478 5.74908 0.612049 6.33518C0.0923237 6.94099 -0.113087 7.75832 0.0602935 8.5365C0.244955 9.3652 0.476408 10.1688 0.752285 10.937C1.16255 12.0798 1.68255 13.1762 2.29753 14.1963C2.41034 14.3834 2.52718 14.5689 2.64764 14.753C2.71685 14.8586 2.87408 14.8543 2.93953 14.7462C4.63838 11.9389 4.76247 8.31222 2.95039 5.30663Z" fill="#9A9FFA"/>
</g>
<path fill-rule="evenodd" clip-rule="evenodd" d="M14.0979 3.03694C14.2962 2.91813 14.4884 2.79295 14.6743 2.66193C14.8012 2.57241 14.8211 2.39102 14.7151 2.27763C14.2059 1.73302 13.6541 1.20757 13.0659 0.706547C12.458 0.18859 11.6379 -0.0161222 10.857 0.156669C10.0255 0.340702 9.21917 0.571367 8.44835 0.846306C7.30181 1.25531 6.2015 1.77341 5.17807 2.3863C4.99021 2.49872 4.80401 2.61516 4.61949 2.73521C4.51337 2.80433 4.51769 2.96088 4.62618 3.02611C7.44302 4.71918 11.0821 4.84284 14.0979 3.03694Z" fill="#9A9FFA"/>
<mask id="mask1" mask-type="alpha" maskUnits="userSpaceOnUse" x="15" y="4" width="5" height="11">
<path d="M15.1378 4.69739H19.3999V14.9036H15.1378V4.69739Z" fill="white"/>
</mask>
<g mask="url(#mask1)">
<path fill-rule="evenodd" clip-rule="evenodd" d="M16.4495 14.2205C16.5687 14.4182 16.6943 14.6095 16.8259 14.7948C16.9156 14.9214 17.0976 14.941 17.2114 14.8355C17.7577 14.3278 18.2851 13.7781 18.7878 13.192C19.3075 12.586 19.513 11.7687 19.3396 10.9906C19.1549 10.1619 18.9235 9.35836 18.6476 8.59017C18.2373 7.44753 17.7173 6.35096 17.1023 5.33087C16.9895 5.14365 16.8727 4.95809 16.7522 4.77419C16.683 4.66857 16.5258 4.67288 16.4603 4.78099C14.7615 7.58812 14.6374 11.2149 16.4495 14.2205Z" fill="#9A9FFA"/>
</g>
<path fill-rule="evenodd" clip-rule="evenodd" d="M42.4725 4.35181C40.9529 4.35181 39.8126 4.96164 39.1556 6.11983V4.63702H37.4149V14.8853H39.1556V9.55747C39.1556 8.48047 39.4282 7.60888 39.9662 6.96671C40.5008 6.32856 41.2485 6.00505 42.1885 6.00505C42.9804 6.00505 43.6153 6.26417 44.0755 6.77518C44.5379 7.28856 44.7721 8.07382 44.7721 9.10932V14.8853H46.5128V8.78359C46.5128 7.31812 46.1553 6.2013 45.4502 5.46419C44.7639 4.74694 43.7065 4.35181 42.4725 4.35181Z" fill="#353EF4"/>
<mask id="mask2" mask-type="alpha" maskUnits="userSpaceOnUse" x="72" y="4" width="11" height="12">
<path d="M72.0332 4.35181H82.8886V15.1705H72.0332V4.35181Z" fill="white"/>
</mask>
<g mask="url(#mask2)">
<path fill-rule="evenodd" clip-rule="evenodd" d="M81.1157 9.76121C81.1157 11.8401 79.4762 13.5317 77.4609 13.5317C75.4458 13.5317 73.8062 11.8401 73.8062 9.76121C73.8062 7.6823 75.4458 5.99089 77.4609 5.99089C79.4762 5.99089 81.1157 7.6823 81.1157 9.76121ZM77.4609 4.35181C74.4682 4.35181 72.0332 6.77851 72.0332 9.76121C72.0332 12.7439 74.4682 15.1705 77.4609 15.1705C80.4538 15.1705 82.8886 12.7439 82.8886 9.76121C82.8886 6.77851 80.4538 4.35181 77.4609 4.35181Z" fill="#353EF4"/>
</g>
<path fill-rule="evenodd" clip-rule="evenodd" d="M33.9846 9.76121C33.9846 11.8401 32.3451 13.5317 30.3298 13.5317C28.3147 13.5317 26.6753 11.8401 26.6753 9.76121C26.6753 7.6823 28.3147 5.99089 30.3298 5.99089C32.3451 5.99089 33.9846 7.6823 33.9846 9.76121ZM30.3298 4.35181C27.3371 4.35181 24.9022 6.77851 24.9022 9.76121C24.9022 12.7439 27.3371 15.1705 30.3298 15.1705C33.3227 15.1705 35.7576 12.7439 35.7576 9.76121C35.7576 6.77851 33.3227 4.35181 30.3298 4.35181Z" fill="#353EF4"/>
<path fill-rule="evenodd" clip-rule="evenodd" d="M68.6773 9.76125C68.6773 11.8402 67.0379 13.5317 65.0226 13.5317C63.0074 13.5317 61.3678 11.8402 61.3678 9.76125C61.3678 7.68235 63.0074 5.99094 65.0226 5.99094C67.0379 5.99094 68.6773 7.68235 68.6773 9.76125ZM68.732 6.07129C67.7449 4.97598 66.3651 4.35185 64.9162 4.35185C62.037 4.35185 59.6947 6.77856 59.6947 9.76125C59.6947 12.7439 62.037 15.1705 64.9162 15.1705C66.3652 15.1705 67.745 14.5464 68.732 13.4513V14.8853H70.4728V0.4823H68.732V6.07129Z" fill="#353EF4"/>
<mask id="mask3" mask-type="alpha" maskUnits="userSpaceOnUse" x="0" y="0" width="83" height="20">
<path d="M0 19.4305H82.8886V0H0V19.4305Z" fill="white"/>
</mask>
<g mask="url(#mask3)">
<path fill-rule="evenodd" clip-rule="evenodd" d="M56.2225 14.8853H57.9632V4.63708H56.2225V14.8853Z" fill="#353EF4"/>
<path fill-rule="evenodd" clip-rule="evenodd" d="M51.2735 4.63722V2.6105C51.2735 2.10822 51.6823 1.70116 52.1863 1.70116H54.2156V0.120361H51.9971C50.6361 0.120361 49.5329 1.21984 49.5329 2.57608V4.63722H47.6078V6.24327H49.5325V14.8855H51.2735V6.24327H54.2156V4.63722H51.2735Z" fill="#353EF4"/>
</g>
</svg>
