<svg width="116" height="18" viewBox="0 0 116 18" fill="none" xmlns="http://www.w3.org/2000/svg">
<path fill-rule="evenodd" clip-rule="evenodd" d="M74.2143 10.7579C73.8624 11.1766 73.4143 11.386 72.8703 11.386C72.3083 11.386 71.8648 11.1602 71.5396 10.7089C71.2143 10.2576 71.0516 9.68739 71.0516 8.99827C71.0516 8.27977 71.2143 7.69759 71.5396 7.25199C71.8648 6.80666 72.3083 6.58394 72.8703 6.58394C73.4498 6.58394 73.9067 6.8007 74.2409 7.23428C74.5749 7.66796 74.7422 8.2618 74.7422 9.01606C74.7422 9.75867 74.5661 10.3391 74.2143 10.7579V10.7579ZM74.7246 4.30309V5.45241C74.0325 4.60312 73.1334 4.17834 72.0275 4.17834C71.2647 4.17834 70.5727 4.38196 69.9517 4.78869C69.3308 5.19558 68.8502 5.76419 68.5101 6.49479C68.1701 7.22538 68 8.05385 68 8.98047C68 9.92487 68.1597 10.7622 68.4791 11.4928C68.7985 12.2234 69.2523 12.7921 69.8409 13.199C70.4293 13.6059 71.1051 13.8092 71.868 13.8092C72.7905 13.8092 73.7428 13.3727 74.7246 12.4995V13.0074C74.7246 13.6667 74.658 14.1907 74.5248 14.5799C74.3917 14.9689 74.1552 15.257 73.8151 15.444C73.5512 15.5892 73.2019 15.6774 72.7691 15.7098V15.7127H68.5281V17.9953H72.9628V17.9903C74.606 17.9653 75.7102 17.5928 76.481 16.8472C77.2795 16.0752 77.6786 14.9554 77.6786 13.4885V6.49479H79.2222V4.30309H74.7246Z" fill="#2C296A"/>
<path fill-rule="evenodd" clip-rule="evenodd" d="M84.6248 6.07594C84.0925 6.07594 83.6651 6.23049 83.3429 6.53924C83.0204 6.84808 82.8179 7.32029 82.7352 7.95577H86.6208C86.5379 7.39752 86.3117 6.94458 85.9422 6.59712C85.5725 6.24967 85.1334 6.07594 84.6248 6.07594M89.6195 9.61296H82.6644C82.7354 10.3316 82.9822 10.9003 83.4051 11.3191C83.8278 11.7378 84.3736 11.9471 85.0419 11.9471C85.781 11.9471 86.5026 11.579 87.2066 10.8424L89.513 11.5908C89.0043 12.357 88.3745 12.9316 87.6234 13.3147C86.8723 13.6978 85.9822 13.8894 84.9531 13.8894C83.9242 13.8894 83.0148 13.6948 82.2253 13.3058C81.4357 12.9168 80.8236 12.3658 80.3889 11.6531C79.9542 10.9404 79.7368 10.103 79.7368 9.14076C79.7368 8.19056 79.9631 7.32926 80.4155 6.55712C80.8679 5.78505 81.48 5.18059 82.2518 4.74406C83.0237 4.30754 83.8621 4.08923 84.7668 4.08923C85.7486 4.08923 86.6032 4.31644 87.3307 4.77084C88.0581 5.22517 88.6184 5.86972 89.0118 6.70415C89.405 7.53867 89.6076 8.50822 89.6195 9.61296" fill="#2C296A"/>
<path fill-rule="evenodd" clip-rule="evenodd" d="M95.9079 6.6819V4.4902H94.1871V0.89978L91.224 3.038V4.4902H90.0442V6.6819H91.224V11.6977C91.224 12.8885 92.1852 13.8539 93.3709 13.8539H94.1871H95.8894V11.6977H94.9052C94.5085 11.6977 94.1871 11.3748 94.1871 10.9766V6.6819H95.9079Z" fill="#2C296A"/>
<path fill-rule="evenodd" clip-rule="evenodd" d="M100.146 0.485508C100.465 0.165781 100.845 0.00388752 101.288 0H101.32C101.757 0.00388752 102.134 0.165781 102.453 0.485508C102.775 0.809295 102.936 1.19381 102.936 1.63924C102.936 2.11446 102.775 2.50788 102.453 2.81975C102.13 3.13152 101.747 3.28746 101.304 3.28746C100.854 3.28746 100.469 3.12574 100.146 2.80186C99.8237 2.47825 99.6628 2.09071 99.6628 1.63924C99.6628 1.19381 99.8237 0.809295 100.146 0.485508ZM98.376 6.4947V4.30309H102.75V11.5105H104.133V13.6666H98.376V11.5105H99.7954V6.4947H98.376ZM110.047 2.38765V0.24053H114.474V11.5106H116V13.6667H111.52V12.5531C110.669 13.3905 109.764 13.8093 108.805 13.8093C108.019 13.8093 107.324 13.5969 106.721 13.1722C106.117 12.7476 105.646 12.1642 105.306 11.4215C104.966 10.6792 104.796 9.85359 104.796 8.94486C104.796 8.00641 104.966 7.16904 105.306 6.43248C105.646 5.69601 106.126 5.12144 106.747 4.7085C107.368 4.29573 108.06 4.08935 108.823 4.08935C109.917 4.08935 110.816 4.51404 111.52 5.36333V2.38765H110.047ZM107.83 8.96256C107.83 9.6872 107.995 10.2842 108.327 10.7532C108.658 11.2226 109.11 11.4571 109.684 11.4571C110.264 11.4571 110.717 11.227 111.046 10.7667C111.374 10.3064 111.538 9.71095 111.538 8.98036C111.538 8.24985 111.371 7.6529 111.037 7.18968C110.703 6.72637 110.246 6.49468 109.666 6.49468C109.104 6.49468 108.658 6.72637 108.327 7.18968C107.995 7.6529 107.83 8.24398 107.83 8.96256Z" fill="url(#paint0_linear)"/>
<path d="M2.11523 9.66016V13H0.990234V4.46875H4.13672C5.07031 4.46875 5.80078 4.70703 6.32812 5.18359C6.85938 5.66016 7.125 6.29102 7.125 7.07617C7.125 7.9043 6.86523 8.54297 6.3457 8.99219C5.83008 9.4375 5.08984 9.66016 4.125 9.66016H2.11523ZM2.11523 8.74023H4.13672C4.73828 8.74023 5.19922 8.59961 5.51953 8.31836C5.83984 8.0332 6 7.62305 6 7.08789C6 6.58008 5.83984 6.17383 5.51953 5.86914C5.19922 5.56445 4.75977 5.40625 4.20117 5.39453H2.11523V8.74023Z" fill="#2C296A"/>
<path d="M8.02148 9.77148C8.02148 9.15039 8.14258 8.5918 8.38477 8.0957C8.63086 7.59961 8.9707 7.2168 9.4043 6.94727C9.8418 6.67773 10.3398 6.54297 10.8984 6.54297C11.7617 6.54297 12.459 6.8418 12.9902 7.43945C13.5254 8.03711 13.793 8.83203 13.793 9.82422V9.90039C13.793 10.5176 13.6738 11.0723 13.4355 11.5645C13.2012 12.0527 12.8633 12.4336 12.4219 12.707C11.9844 12.9805 11.4805 13.1172 10.9102 13.1172C10.0508 13.1172 9.35352 12.8184 8.81836 12.2207C8.28711 11.623 8.02148 10.832 8.02148 9.84766V9.77148ZM9.11133 9.90039C9.11133 10.6035 9.27344 11.168 9.59766 11.5938C9.92578 12.0195 10.3633 12.2324 10.9102 12.2324C11.4609 12.2324 11.8984 12.0176 12.2227 11.5879C12.5469 11.1543 12.709 10.5488 12.709 9.77148C12.709 9.07617 12.543 8.51367 12.2109 8.08398C11.8828 7.65039 11.4453 7.43359 10.8984 7.43359C10.3633 7.43359 9.93164 7.64648 9.60352 8.07227C9.27539 8.49805 9.11133 9.10742 9.11133 9.90039Z" fill="#2C296A"/>
<path d="M20.7656 11.5059L21.9844 6.66016H23.0684L21.2227 13H20.3438L18.8027 8.19531L17.3027 13H16.4238L14.584 6.66016H15.6621L16.9102 11.4062L18.3867 6.66016H19.2598L20.7656 11.5059Z" fill="#2C296A"/>
<path d="M26.8066 13.1172C25.9473 13.1172 25.248 12.8359 24.709 12.2734C24.1699 11.707 23.9004 10.9512 23.9004 10.0059V9.80664C23.9004 9.17773 24.0195 8.61719 24.2578 8.125C24.5 7.62891 24.8359 7.24219 25.2656 6.96484C25.6992 6.68359 26.168 6.54297 26.6719 6.54297C27.4961 6.54297 28.1367 6.81445 28.5938 7.35742C29.0508 7.90039 29.2793 8.67773 29.2793 9.68945V10.1406H24.9844C25 10.7656 25.1816 11.2715 25.5293 11.6582C25.8809 12.041 26.3262 12.2324 26.8652 12.2324C27.248 12.2324 27.5723 12.1543 27.8379 11.998C28.1035 11.8418 28.3359 11.6348 28.5352 11.377L29.1973 11.8926C28.666 12.709 27.8691 13.1172 26.8066 13.1172ZM26.6719 7.43359C26.2344 7.43359 25.8672 7.59375 25.5703 7.91406C25.2734 8.23047 25.0898 8.67578 25.0195 9.25H28.1953V9.16797C28.1641 8.61719 28.0156 8.19141 27.75 7.89062C27.4844 7.58594 27.125 7.43359 26.6719 7.43359Z" fill="#2C296A"/>
<path d="M33.6035 7.63281C33.4395 7.60547 33.2617 7.5918 33.0703 7.5918C32.3594 7.5918 31.877 7.89453 31.623 8.5V13H30.5391V6.66016H31.5938L31.6113 7.39258C31.9668 6.82617 32.4707 6.54297 33.123 6.54297C33.334 6.54297 33.4941 6.57031 33.6035 6.625V7.63281Z" fill="#2C296A"/>
<path d="M37.1191 13.1172C36.2598 13.1172 35.5605 12.8359 35.0215 12.2734C34.4824 11.707 34.2129 10.9512 34.2129 10.0059V9.80664C34.2129 9.17773 34.332 8.61719 34.5703 8.125C34.8125 7.62891 35.1484 7.24219 35.5781 6.96484C36.0117 6.68359 36.4805 6.54297 36.9844 6.54297C37.8086 6.54297 38.4492 6.81445 38.9062 7.35742C39.3633 7.90039 39.5918 8.67773 39.5918 9.68945V10.1406H35.2969C35.3125 10.7656 35.4941 11.2715 35.8418 11.6582C36.1934 12.041 36.6387 12.2324 37.1777 12.2324C37.5605 12.2324 37.8848 12.1543 38.1504 11.998C38.416 11.8418 38.6484 11.6348 38.8477 11.377L39.5098 11.8926C38.9785 12.709 38.1816 13.1172 37.1191 13.1172ZM36.9844 7.43359C36.5469 7.43359 36.1797 7.59375 35.8828 7.91406C35.5859 8.23047 35.4023 8.67578 35.332 9.25H38.5078V9.16797C38.4766 8.61719 38.3281 8.19141 38.0625 7.89062C37.7969 7.58594 37.4375 7.43359 36.9844 7.43359Z" fill="#2C296A"/>
<path d="M40.5879 9.77734C40.5879 8.80469 40.8184 8.02344 41.2793 7.43359C41.7402 6.83984 42.3438 6.54297 43.0898 6.54297C43.832 6.54297 44.4199 6.79688 44.8535 7.30469V4H45.9375V13H44.9414L44.8887 12.3203C44.4551 12.8516 43.8516 13.1172 43.0781 13.1172C42.3438 13.1172 41.7441 12.8164 41.2793 12.2148C40.8184 11.6133 40.5879 10.8281 40.5879 9.85938V9.77734ZM41.6719 9.90039C41.6719 10.6191 41.8203 11.1816 42.1172 11.5879C42.4141 11.9941 42.8242 12.1973 43.3477 12.1973C44.0352 12.1973 44.5371 11.8887 44.8535 11.2715V8.35938C44.5293 7.76172 44.0312 7.46289 43.3594 7.46289C42.8281 7.46289 42.4141 7.66797 42.1172 8.07812C41.8203 8.48828 41.6719 9.0957 41.6719 9.90039Z" fill="#2C296A"/>
<path d="M55.9688 9.90039C55.9688 10.8691 55.7461 11.6484 55.3008 12.2383C54.8555 12.8242 54.2578 13.1172 53.5078 13.1172C52.707 13.1172 52.0879 12.834 51.6504 12.2676L51.5977 13H50.6016V4H51.6855V7.35742C52.123 6.81445 52.7266 6.54297 53.4961 6.54297C54.2656 6.54297 54.8691 6.83398 55.3066 7.41602C55.748 7.99805 55.9688 8.79492 55.9688 9.80664V9.90039ZM54.8848 9.77734C54.8848 9.03906 54.7422 8.46875 54.457 8.06641C54.1719 7.66406 53.7617 7.46289 53.2266 7.46289C52.5117 7.46289 51.998 7.79492 51.6855 8.45898V11.2012C52.0176 11.8652 52.5352 12.1973 53.2383 12.1973C53.7578 12.1973 54.1621 11.9961 54.4512 11.5938C54.7402 11.1914 54.8848 10.5859 54.8848 9.77734Z" fill="#2C296A"/>
<path d="M59.3438 11.4121L60.8203 6.66016H61.9805L59.4316 13.9785C59.0371 15.0332 58.4102 15.5605 57.5508 15.5605L57.3457 15.543L56.9414 15.4668V14.5879L57.2344 14.6113C57.6016 14.6113 57.8867 14.5371 58.0898 14.3887C58.2969 14.2402 58.4668 13.9688 58.5996 13.5742L58.8398 12.9297L56.5781 6.66016H57.7617L59.3438 11.4121Z" fill="#2C296A"/>
<defs>
<linearGradient id="paint0_linear" x1="116.137" y1="1.19205e-07" x2="98.592" y2="13.9466" gradientUnits="userSpaceOnUse">
<stop stop-color="#F20091"/>
<stop offset="1" stop-color="#31B6FB"/>
</linearGradient>
</defs>
</svg>
