<svg width="50" height="50" viewBox="0 0 50 50" fill="none" xmlns="http://www.w3.org/2000/svg">
<path d="M25 50C38.8071 50 50 38.8071 50 25C50 11.1929 38.8071 0 25 0C11.1929 0 0 11.1929 0 25C0 38.8071 11.1929 50 25 50Z" fill="#1DA2F8"/>
<path d="M25.0004 3.70019C24.8321 3.70019 24.6956 3.56367 24.6956 3.39531V2.0002C24.6956 1.83184 24.8321 1.69531 25.0004 1.69531C25.1688 1.69531 25.3053 1.83184 25.3053 2.0002V3.39531C25.3053 3.56367 25.1688 3.70019 25.0004 3.70019Z" fill="#F2F2F2"/>
<path d="M25.0004 48.3047C24.8321 48.3047 24.6956 48.1682 24.6956 47.9998V46.6047C24.6956 46.4363 24.8321 46.2998 25.0004 46.2998C25.1688 46.2998 25.3053 46.4363 25.3053 46.6047V47.9998C25.3053 48.1682 25.1688 48.3047 25.0004 48.3047Z" fill="#F2F2F2"/>
<path d="M21.2481 4.02862C21.1028 4.02862 20.9742 3.92452 20.9481 3.77657L20.7058 2.40264C20.6766 2.23682 20.7874 2.07862 20.9531 2.04952C21.1194 2.02061 21.2772 2.13106 21.3063 2.29688L21.5486 3.6708C21.5778 3.83663 21.4671 3.99483 21.3014 4.02393C21.2834 4.02696 21.2657 4.02862 21.2481 4.02862Z" fill="#F2F2F2"/>
<path d="M28.9931 47.9555C28.8478 47.9555 28.7192 47.8514 28.6931 47.7034L28.4508 46.3295C28.4216 46.1637 28.5324 46.0055 28.6981 45.9764C28.8644 45.9471 29.0222 46.0578 29.0513 46.2237L29.2936 47.5976C29.3228 47.7634 29.2121 47.9216 29.0464 47.9507C29.0284 47.9539 29.0107 47.9555 28.9931 47.9555Z" fill="#F2F2F2"/>
<path d="M17.6107 5.00309C17.4862 5.00309 17.3693 4.92614 17.3242 4.8024L16.847 3.49147C16.7896 3.33317 16.8711 3.15826 17.0293 3.10065C17.187 3.04332 17.3625 3.12457 17.4199 3.28287L17.8971 4.59381C17.9547 4.75211 17.8731 4.92701 17.7149 4.98463C17.6805 4.99713 17.6453 5.00309 17.6107 5.00309Z" fill="#F2F2F2"/>
<path d="M32.8665 46.9177C32.742 46.9177 32.6251 46.8408 32.5801 46.7171L32.1029 45.4061C32.0453 45.2478 32.127 45.0729 32.2852 45.0153C32.4429 44.9578 32.6184 45.0392 32.6758 45.1975L33.153 46.5085C33.2105 46.6668 33.1289 46.8417 32.9707 46.8993C32.9363 46.9118 32.9012 46.9177 32.8665 46.9177Z" fill="#F2F2F2"/>
<path d="M14.1978 6.59459C14.0925 6.59459 13.99 6.53991 13.9335 6.44205L13.2359 5.23385C13.1518 5.08805 13.2016 4.90163 13.3475 4.81745C13.4932 4.73288 13.6798 4.78317 13.7641 4.92897L14.4616 6.13717C14.5457 6.28297 14.4959 6.4694 14.35 6.55358C14.3021 6.58141 14.2496 6.59459 14.1978 6.59459Z" fill="#F2F2F2"/>
<path d="M36.5001 45.2235C36.3947 45.2235 36.2923 45.1688 36.2357 45.071L35.5382 43.8628C35.4541 43.717 35.5039 43.5305 35.6498 43.4464C35.7954 43.3618 35.9819 43.4121 36.0663 43.5579L36.7638 44.7661C36.8479 44.9119 36.7981 45.0983 36.6522 45.1825C36.6044 45.2103 36.5518 45.2235 36.5001 45.2235Z" fill="#F2F2F2"/>
<path d="M11.1133 8.75458C11.0264 8.75458 10.9399 8.71757 10.8796 8.64569L9.98285 7.57704C9.87455 7.44804 9.89145 7.25575 10.0205 7.14745C10.1494 7.03935 10.3417 7.05605 10.45 7.18505L11.3468 8.2537C11.4551 8.3827 11.4382 8.57499 11.3091 8.68329C11.2521 8.73124 11.1826 8.75458 11.1133 8.75458Z" fill="#F2F2F2"/>
<path d="M39.7838 42.9237C39.6968 42.9237 39.6103 42.8867 39.5501 42.8148L38.6534 41.7461C38.5451 41.6171 38.562 41.4249 38.6911 41.3166C38.8199 41.2087 39.0123 41.2252 39.1206 41.3542L40.0171 42.4228C40.1254 42.5518 40.1086 42.7441 39.9795 42.8524C39.9225 42.9003 39.8529 42.9237 39.7838 42.9237Z" fill="#F2F2F2"/>
<path d="M8.4499 11.4177C8.38076 11.4177 8.31113 11.3944 8.2542 11.3464L7.18555 10.4496C7.05644 10.3413 7.03965 10.1491 7.14785 10.02C7.25615 9.89094 7.44853 9.87434 7.57734 9.98245L8.646 10.8792C8.7751 10.9875 8.79189 11.1797 8.68369 11.3088C8.62334 11.3806 8.53682 11.4177 8.4499 11.4177Z" fill="#F2F2F2"/>
<path d="M42.6189 40.0889C42.5498 40.0889 42.4801 40.0655 42.423 40.0176L41.3545 39.1208C41.2255 39.0125 41.2087 38.8203 41.3169 38.6912C41.4252 38.5621 41.6173 38.5455 41.7464 38.6536L42.815 39.5504C42.9439 39.6587 42.9607 39.8509 42.8526 39.98C42.7922 40.0518 42.7058 40.0889 42.6189 40.0889Z" fill="#F2F2F2"/>
<path d="M6.28932 14.5025C6.23766 14.5025 6.18522 14.4893 6.13717 14.4616L4.92897 13.764C4.78307 13.6798 4.73327 13.4934 4.81735 13.3476C4.90163 13.2019 5.08756 13.1516 5.23385 13.2361L6.44205 13.9336C6.58795 14.0178 6.63775 14.2043 6.55367 14.3501C6.49723 14.4478 6.39479 14.5025 6.28932 14.5025Z" fill="#F2F2F2"/>
<path d="M44.9182 36.8049C44.8666 36.8049 44.8141 36.7917 44.7661 36.7639L43.558 36.0664C43.4121 35.9822 43.3623 35.7958 43.4464 35.65C43.5305 35.5042 43.717 35.4538 43.8629 35.5384L45.071 36.236C45.2169 36.3202 45.2667 36.5066 45.1826 36.6524C45.126 36.7502 45.0236 36.8049 44.9182 36.8049Z" fill="#F2F2F2"/>
<path d="M4.69786 17.9156C4.66319 17.9156 4.62803 17.9097 4.59366 17.8972L3.28262 17.42C3.12432 17.3624 3.04278 17.1875 3.1004 17.0292C3.15782 16.8709 3.33321 16.7897 3.49102 16.847L4.80206 17.3241C4.96036 17.3818 5.0419 17.5567 4.98428 17.715C4.93926 17.8387 4.82237 17.9156 4.69786 17.9156Z" fill="#F2F2F2"/>
<path d="M46.6123 33.1715C46.5777 33.1715 46.5425 33.1655 46.5079 33.153L45.197 32.6759C45.0389 32.6182 44.9573 32.4433 45.015 32.285C45.0724 32.1267 45.2473 32.0456 45.4058 32.1028L46.7167 32.58C46.8748 32.6376 46.9564 32.8125 46.8987 32.9708C46.8537 33.0947 46.7366 33.1715 46.6123 33.1715Z" fill="#F2F2F2"/>
<path d="M3.72376 21.5532C3.70619 21.5532 3.68841 21.5517 3.67054 21.5486L2.29662 21.3063C2.1308 21.277 2.02015 21.1189 2.04935 20.9532C2.07855 20.7874 2.23597 20.6768 2.40257 20.7058L3.7765 20.9481C3.94232 20.9774 4.05296 21.1355 4.02376 21.3012C3.99769 21.4491 3.86908 21.5532 3.72376 21.5532Z" fill="#F2F2F2"/>
<path d="M47.6502 29.2989C47.6326 29.2989 47.6148 29.2973 47.597 29.2942L46.2231 29.0519C46.0573 29.0226 45.9467 28.8645 45.9759 28.6988C46.0051 28.533 46.1623 28.4224 46.3291 28.4514L47.703 28.6937C47.8688 28.723 47.9795 28.8811 47.9503 29.0468C47.9242 29.1948 47.7955 29.2989 47.6502 29.2989Z" fill="#F2F2F2"/>
<path d="M3.39521 25.3048H2.0002C1.83184 25.3048 1.69531 25.1683 1.69531 24.9999C1.69531 24.8316 1.83184 24.6951 2.0002 24.6951H3.39521C3.56357 24.6951 3.7001 24.8316 3.7001 24.9999C3.7001 25.1683 3.56357 25.3048 3.39521 25.3048Z" fill="#F2F2F2"/>
<path d="M47.9999 25.3048H46.6047C46.4363 25.3048 46.2998 25.1683 46.2998 24.9999C46.2998 24.8316 46.4363 24.6951 46.6047 24.6951H47.9999C48.1683 24.6951 48.3048 24.8316 48.3048 24.9999C48.3048 25.1683 48.1683 25.3048 47.9999 25.3048Z" fill="#F2F2F2"/>
<path d="M2.34935 29.2989C2.20404 29.2989 2.07543 29.1948 2.04935 29.0468C2.02015 28.8811 2.1308 28.7228 2.29662 28.6937L3.67054 28.4514C3.83695 28.4224 3.99466 28.5328 4.02376 28.6988C4.05296 28.8645 3.94232 29.0228 3.7765 29.0519L2.40257 29.2942C2.3846 29.2973 2.36683 29.2989 2.34935 29.2989Z" fill="#F2F2F2"/>
<path d="M46.2765 21.5533C46.1312 21.5533 46.0025 21.4492 45.9765 21.3012C45.9473 21.1355 46.0579 20.9772 46.2237 20.9481L47.5977 20.7058C47.7638 20.6768 47.9218 20.7872 47.9509 20.9532C47.9801 21.1189 47.8694 21.2772 47.7036 21.3063L46.3298 21.5486C46.3118 21.5517 46.2941 21.5533 46.2765 21.5533Z" fill="#F2F2F2"/>
<path d="M3.38681 33.1712C3.2623 33.1712 3.14541 33.0943 3.10039 32.9705C3.04277 32.8123 3.12441 32.6374 3.28261 32.5797L4.59365 32.1026C4.75136 32.0453 4.92685 32.1266 4.98427 32.2848C5.04189 32.4431 4.96025 32.618 4.80204 32.6756L3.49101 33.1528C3.45673 33.1654 3.42158 33.1712 3.38681 33.1712Z" fill="#F2F2F2"/>
<path d="M45.3015 17.9159C45.177 17.9159 45.0601 17.8389 45.0151 17.7152C44.9574 17.5569 45.0391 17.382 45.1971 17.3244L46.508 16.8472C46.6666 16.7899 46.8413 16.8712 46.8988 17.0294C46.9565 17.1877 46.8748 17.3626 46.7168 17.4203L45.4059 17.8974C45.3712 17.9099 45.3362 17.9159 45.3015 17.9159Z" fill="#F2F2F2"/>
<path d="M5.0817 36.8049C4.97633 36.8049 4.87389 36.7502 4.81735 36.6524C4.73327 36.5066 4.78307 36.3201 4.92897 36.236L6.13717 35.5384C6.28317 35.4538 6.4693 35.5041 6.55367 35.6499C6.63775 35.7957 6.58795 35.9821 6.44205 36.0663L5.23385 36.7639C5.1858 36.7917 5.13346 36.8049 5.0817 36.8049Z" fill="#F2F2F2"/>
<path d="M43.711 14.5026C43.6056 14.5026 43.5032 14.4479 43.4466 14.3501C43.3625 14.2043 43.4123 14.0178 43.5582 13.9336L44.7663 13.2361C44.912 13.1516 45.0985 13.2019 45.1829 13.3476C45.2669 13.4934 45.2171 13.6798 45.0712 13.764L43.8631 14.4616C43.8152 14.4894 43.7625 14.5026 43.711 14.5026Z" fill="#F2F2F2"/>
<path d="M7.38097 40.0888C7.29406 40.0888 7.20753 40.0518 7.14728 39.9799C7.03898 39.8509 7.05587 39.6586 7.18498 39.5503L8.25363 38.6536C8.38244 38.5455 8.57482 38.5622 8.68312 38.6912C8.79142 38.8202 8.77453 39.0124 8.64543 39.1207L7.57677 40.0175C7.51974 40.0655 7.45021 40.0888 7.38097 40.0888Z" fill="#F2F2F2"/>
<path d="M41.5504 11.4177C41.4635 11.4177 41.377 11.3807 41.3167 11.3088C41.2084 11.1798 41.2253 10.9876 41.3543 10.8792L42.4229 9.98241C42.552 9.87431 42.7443 9.89101 42.8525 10.02C42.9608 10.149 42.9439 10.3412 42.8149 10.4496L41.7463 11.3464C41.6891 11.3942 41.6197 11.4177 41.5504 11.4177Z" fill="#F2F2F2"/>
<path d="M10.2157 42.9238C10.1466 42.9238 10.077 42.9004 10.02 42.8525C9.89092 42.7442 9.87412 42.552 9.98232 42.4229L10.8791 41.3542C10.9875 41.2252 11.1799 41.2085 11.3086 41.3166C11.4377 41.4249 11.4545 41.6171 11.3463 41.7462L10.4495 42.8149C10.3892 42.8867 10.3026 42.9238 10.2157 42.9238Z" fill="#F2F2F2"/>
<path d="M38.8872 8.75458C38.8181 8.75458 38.7485 8.73124 38.6915 8.68329C38.5624 8.57499 38.5456 8.3828 38.6538 8.2537L39.5505 7.18505C39.6588 7.05605 39.8513 7.03935 39.98 7.14745C40.1091 7.25575 40.1259 7.44804 40.0177 7.57704L39.1211 8.64569C39.0608 8.71757 38.9742 8.75458 38.8872 8.75458Z" fill="#F2F2F2"/>
<path d="M13.4997 45.2234C13.448 45.2234 13.3956 45.2102 13.3475 45.1825C13.2016 45.0983 13.1518 44.9119 13.2359 44.7661L13.9335 43.5579C14.0178 43.4121 14.2037 43.3618 14.35 43.4464C14.4959 43.5305 14.5457 43.717 14.4616 43.8628L13.7641 45.071C13.7075 45.1687 13.6051 45.2234 13.4997 45.2234Z" fill="#F2F2F2"/>
<path d="M35.8019 6.59478C35.7503 6.59478 35.6978 6.5816 35.6498 6.55387C35.5039 6.46969 35.4541 6.28326 35.5382 6.13746L36.2357 4.92926C36.32 4.78346 36.5059 4.73307 36.6522 4.81773C36.7981 4.90191 36.8479 5.08834 36.7638 5.23414L36.0663 6.44234C36.0098 6.5401 35.9073 6.59478 35.8019 6.59478Z" fill="#F2F2F2"/>
<path d="M17.1341 46.9175C17.0994 46.9175 17.0642 46.9116 17.0299 46.8991C16.8716 46.8414 16.79 46.6665 16.8475 46.5082L17.3248 45.1973C17.3824 45.0389 17.5574 44.9575 17.7154 45.0151C17.8737 45.0727 17.9552 45.2476 17.8976 45.4059L17.4205 46.7168C17.3755 46.8407 17.2585 46.9175 17.1341 46.9175Z" fill="#F2F2F2"/>
<path d="M32.3893 5.0031C32.3546 5.0031 32.3194 4.99714 32.2851 4.98464C32.1268 4.92702 32.0452 4.75212 32.1028 4.59382L32.58 3.28288C32.6374 3.12449 32.8128 3.04333 32.9706 3.10066C33.1289 3.15827 33.2105 3.33318 33.1529 3.49148L32.6757 4.80241C32.6309 4.92624 32.5138 5.0031 32.3893 5.0031Z" fill="#F2F2F2"/>
<path d="M21.0066 47.9554C20.989 47.9554 20.9712 47.9538 20.9534 47.9507C20.7876 47.9214 20.6769 47.7634 20.7061 47.5975L20.9484 46.2237C20.9776 46.0579 21.135 45.9472 21.3016 45.9764C21.4673 46.0056 21.5781 46.1637 21.5489 46.3295L21.3066 47.7034C21.2804 47.8512 21.1519 47.9554 21.0066 47.9554Z" fill="#F2F2F2"/>
<path d="M28.7516 4.02856C28.734 4.02856 28.7162 4.027 28.6984 4.02388C28.5326 3.99458 28.4219 3.83657 28.4511 3.67075L28.6934 2.29683C28.7226 2.1311 28.88 2.02075 29.0466 2.04946C29.2123 2.07876 29.3231 2.23677 29.2939 2.40259L29.0516 3.77651C29.0254 3.92436 28.8969 4.02856 28.7516 4.02856Z" fill="#F2F2F2"/>
<path d="M23.3138 6.03711C23.1573 6.03711 23.0242 5.91749 23.0105 5.75889L22.6916 2.11426C22.677 1.94649 22.801 1.79864 22.9688 1.78399C23.1367 1.76866 23.2844 1.89346 23.2989 2.06114L23.6178 5.70577C23.6324 5.87354 23.5084 6.02139 23.3406 6.03604C23.3316 6.03672 23.3226 6.03711 23.3138 6.03711Z" fill="#F2F2F2"/>
<path d="M27.004 48.217C26.8475 48.217 26.7144 48.0974 26.7006 47.9388L26.3818 44.2942C26.3671 44.1264 26.4912 43.9786 26.6589 43.9639C26.8279 43.9486 26.9744 44.0734 26.9891 44.2411L27.308 47.8857C27.3226 48.0535 27.1986 48.2013 27.0308 48.216C27.0218 48.2166 27.0128 48.217 27.004 48.217Z" fill="#F2F2F2"/>
<path d="M19.9942 6.62273C19.8596 6.62273 19.7364 6.53288 19.7 6.39675L18.753 2.86286C18.7095 2.70016 18.8058 2.53307 18.9685 2.48952C19.1311 2.44508 19.2984 2.54245 19.3419 2.70505L20.2889 6.23894C20.3324 6.40163 20.236 6.56872 20.0733 6.61228C20.047 6.6194 20.0203 6.62273 19.9942 6.62273Z" fill="#F2F2F2"/>
<path d="M30.9522 47.5208C30.8176 47.5208 30.6944 47.431 30.658 47.2948L29.7111 43.761C29.6676 43.5983 29.764 43.4312 29.9267 43.3876C30.0899 43.3435 30.2564 43.4405 30.3 43.6031L31.2469 47.137C31.2904 47.2997 31.194 47.4668 31.0314 47.5104C31.0047 47.5175 30.9783 47.5208 30.9522 47.5208Z" fill="#F2F2F2"/>
<path d="M16.8259 7.77569C16.711 7.77569 16.6011 7.71045 16.5494 7.59961L15.0032 4.28379C14.9321 4.13125 14.9981 3.94981 15.1506 3.87871C15.303 3.80762 15.4848 3.87354 15.5558 4.02617L17.102 7.342C17.1731 7.49454 17.1071 7.67598 16.9546 7.74708C16.913 7.76651 16.869 7.77569 16.8259 7.77569Z" fill="#F2F2F2"/>
<path d="M34.7205 46.1497C34.6057 46.1497 34.4957 46.0845 34.4441 45.9736L32.898 42.6578C32.8269 42.5053 32.8928 42.3238 33.0454 42.2527C33.1979 42.1816 33.3795 42.2476 33.4505 42.4002L34.9966 45.716C35.0677 45.8685 35.0018 46.05 34.8493 46.1211C34.8076 46.1405 34.7637 46.1497 34.7205 46.1497Z" fill="#F2F2F2"/>
<path d="M13.9063 9.4615C13.8102 9.4615 13.7155 9.41618 13.6562 9.33152L11.5576 6.33455C11.4612 6.19656 11.4946 6.00652 11.6325 5.90994C11.771 5.81316 11.9607 5.84705 12.0572 5.98484L14.1558 8.98181C14.2522 9.1198 14.2188 9.30984 14.0809 9.40642C14.0275 9.44363 13.9665 9.4615 13.9063 9.4615Z" fill="#F2F2F2"/>
<path d="M38.1925 44.1451C38.0964 44.1451 38.0018 44.0998 37.9424 44.0151L35.844 41.0181C35.7476 40.8802 35.781 40.6901 35.9189 40.5935C36.0574 40.4968 36.2471 40.5306 36.3436 40.6684L38.4419 43.6654C38.5383 43.8034 38.5049 43.9935 38.367 44.09C38.3138 44.1272 38.2527 44.1451 38.1925 44.1451Z" fill="#F2F2F2"/>
<path d="M11.324 11.6287C11.246 11.6287 11.1679 11.5989 11.1084 11.5394L8.52141 8.95232C8.40237 8.83337 8.40237 8.64021 8.52141 8.52117C8.64045 8.40212 8.83342 8.40212 8.95256 8.52117L11.5396 11.1082C11.6586 11.2271 11.6586 11.4203 11.5396 11.5393C11.48 11.5988 11.4021 11.6287 11.324 11.6287Z" fill="#F2F2F2"/>
<path d="M41.2637 41.568C41.1857 41.568 41.1076 41.5383 41.0481 41.4788L38.4611 38.8918C38.3421 38.7728 38.3421 38.5797 38.4611 38.4606C38.5802 38.3416 38.7731 38.3416 38.8923 38.4606L41.4793 41.0476C41.5983 41.1666 41.5983 41.3597 41.4793 41.4788C41.4197 41.5383 41.3417 41.568 41.2637 41.568Z" fill="#F2F2F2"/>
<path d="M9.15667 14.2112C9.09632 14.2112 9.03538 14.1933 8.98206 14.156L5.98519 12.0576C5.84729 11.9611 5.8139 11.771 5.91028 11.633C6.00706 11.495 6.19681 11.4615 6.33499 11.5581L9.33186 13.6564C9.46975 13.7529 9.50315 13.9431 9.40676 14.081C9.34739 14.1658 9.25276 14.2112 9.15667 14.2112Z" fill="#F2F2F2"/>
<path d="M43.8403 38.4972C43.78 38.4972 43.7191 38.4793 43.6657 38.442L40.6688 36.3437C40.5309 36.2472 40.4975 36.0571 40.5939 35.9191C40.6907 35.7813 40.8803 35.7476 41.0186 35.8442L44.0155 37.9426C44.1534 38.0391 44.1868 38.2292 44.0904 38.3672C44.0311 38.4518 43.9364 38.4972 43.8403 38.4972Z" fill="#F2F2F2"/>
<path d="M7.47036 17.131C7.4272 17.131 7.38345 17.1218 7.34175 17.1023L4.02603 15.5562C3.87329 15.4851 3.80737 15.3037 3.87847 15.1511C3.94956 14.9986 4.1311 14.9327 4.28354 15.0037L7.59937 16.5498C7.7521 16.6208 7.81802 16.8023 7.74693 16.9548C7.69517 17.0658 7.58521 17.131 7.47036 17.131Z" fill="#F2F2F2"/>
<path d="M45.8447 35.0251C45.8015 35.0251 45.7577 35.0159 45.7159 34.9964L42.4001 33.4503C42.2476 33.3792 42.1816 33.1977 42.2528 33.0452C42.324 32.8927 42.5055 32.8266 42.658 32.8977L45.9737 34.4438C46.1262 34.5149 46.1922 34.6964 46.121 34.8489C46.0695 34.9599 45.9594 35.0251 45.8447 35.0251Z" fill="#F2F2F2"/>
<path d="M6.318 20.2991C6.29202 20.2991 6.26546 20.2958 6.2389 20.2886L2.70491 19.3417C2.54212 19.2981 2.44573 19.1309 2.48938 18.9683C2.53284 18.8057 2.69974 18.7088 2.86272 18.7528L6.39671 19.6997C6.5595 19.7432 6.65589 19.9104 6.61224 20.073C6.57571 20.2092 6.45247 20.2991 6.318 20.2991Z" fill="#F2F2F2"/>
<path d="M47.2164 31.2576C47.1905 31.2576 47.1639 31.2543 47.1373 31.2471L43.6033 30.3001C43.4406 30.2566 43.3442 30.0894 43.3878 29.9268C43.4313 29.7642 43.5982 29.6674 43.7612 29.7112L47.2951 30.6582C47.4579 30.7018 47.5543 30.869 47.5107 31.0316C47.4743 31.1679 47.351 31.2576 47.2164 31.2576Z" fill="#F2F2F2"/>
<path d="M5.73289 23.6192C5.7239 23.6192 5.71502 23.6188 5.70594 23.618L2.06131 23.2991C1.89363 23.2845 1.76961 23.1367 1.78426 22.9688C1.79881 22.8011 1.94715 22.6765 2.11453 22.6917L5.75916 23.0105C5.92683 23.0252 6.05086 23.1729 6.03621 23.3408C6.02254 23.4996 5.88943 23.6192 5.73289 23.6192Z" fill="#F2F2F2"/>
<path d="M47.9122 27.3096C47.9034 27.3096 47.8943 27.3092 47.8853 27.3083L44.2406 26.9895C44.0728 26.9748 43.9487 26.8271 43.9635 26.6592C43.9781 26.4915 44.1247 26.3673 44.2936 26.382L47.9384 26.7009C48.1061 26.7155 48.2303 26.8633 48.2155 27.0312C48.2017 27.1901 48.0685 27.3096 47.9122 27.3096Z" fill="#F2F2F2"/>
<path d="M2.08782 27.3094C1.93138 27.3094 1.79827 27.1897 1.7845 27.0311C1.76985 26.8634 1.89388 26.7155 2.06155 26.7009L5.70618 26.382C5.87659 26.3674 6.0219 26.4916 6.03645 26.6592C6.0511 26.8269 5.92708 26.9748 5.7594 26.9894L2.11477 27.3083C2.10569 27.309 2.09661 27.3094 2.08782 27.3094Z" fill="#F2F2F2"/>
<path d="M44.267 23.6191C44.1106 23.6191 43.9775 23.4995 43.9637 23.3409C43.9491 23.1731 44.0731 23.0253 44.2408 23.0106L47.8856 22.6918C48.0543 22.676 48.201 22.8013 48.2158 22.9689C48.2304 23.1367 48.1064 23.2846 47.9386 23.2992L44.2939 23.618C44.2848 23.6187 44.2757 23.6191 44.267 23.6191Z" fill="#F2F2F2"/>
<path d="M2.78407 31.2577C2.6494 31.2577 2.52626 31.1679 2.48983 31.0317C2.44628 30.869 2.54266 30.7019 2.70536 30.6583L6.23934 29.7114C6.40155 29.6671 6.56903 29.7643 6.61268 29.9269C6.65623 30.0896 6.55985 30.2567 6.39715 30.3002L2.86317 31.2472C2.83681 31.2543 2.81005 31.2577 2.78407 31.2577Z" fill="#F2F2F2"/>
<path d="M43.6817 20.2993C43.547 20.2993 43.4238 20.2094 43.3874 20.0733C43.3439 19.9106 43.4402 19.7435 43.6029 19.6999L47.1369 18.7531C47.2994 18.709 47.4666 18.806 47.5103 18.9686C47.5538 19.1313 47.4574 19.2984 47.2947 19.3419L43.7608 20.2888C43.7343 20.2958 43.7077 20.2993 43.6817 20.2993Z" fill="#F2F2F2"/>
<path d="M4.15481 35.0251C4.03997 35.0251 3.93 34.9599 3.87834 34.8489C3.80725 34.6964 3.87317 34.5149 4.0259 34.4438L7.34172 32.8977C7.49358 32.8266 7.67561 32.8927 7.7468 33.0452C7.81799 33.1977 7.75197 33.3792 7.59924 33.4503L4.28342 34.9964C4.24192 35.0158 4.19797 35.0251 4.15481 35.0251Z" fill="#F2F2F2"/>
<path d="M42.5297 17.1309C42.4148 17.1309 42.3049 17.0657 42.2532 16.9548C42.1821 16.8023 42.2481 16.6208 42.4006 16.5497L45.7163 15.0037C45.8688 14.9327 46.0504 14.9986 46.1215 15.1511C46.1926 15.3037 46.1266 15.4851 45.9741 15.5562L42.6584 17.1023C42.6168 17.1217 42.573 17.1309 42.5297 17.1309Z" fill="#F2F2F2"/>
<path d="M6.16038 38.497C6.06429 38.497 5.96966 38.4517 5.91028 38.3671C5.8139 38.2291 5.84729 38.039 5.98519 37.9425L8.98206 35.844C9.12053 35.7472 9.31028 35.7811 9.40676 35.9189C9.50315 36.0569 9.46975 36.2469 9.33186 36.3435L6.33499 38.4419C6.28177 38.4791 6.22073 38.497 6.16038 38.497Z" fill="#F2F2F2"/>
<path d="M40.844 14.2113C40.7479 14.2113 40.6533 14.166 40.5939 14.0813C40.4975 13.9433 40.5309 13.7533 40.6688 13.6567L43.6657 11.5584C43.8042 11.4616 43.9938 11.4955 44.0905 11.6333C44.1868 11.7713 44.1534 11.9613 44.0156 12.0579L41.0186 14.1562C40.9654 14.1933 40.9043 14.2113 40.844 14.2113Z" fill="#F2F2F2"/>
<path d="M8.73706 41.568C8.65913 41.568 8.58101 41.5383 8.52153 41.4788C8.40249 41.3598 8.40249 41.1667 8.52153 41.0476L11.1085 38.4606C11.2276 38.3416 11.4206 38.3416 11.5397 38.4606C11.6587 38.5796 11.6587 38.7727 11.5397 38.8918L8.95268 41.4788C8.89311 41.5383 8.81499 41.568 8.73706 41.568Z" fill="#F2F2F2"/>
<path d="M38.6768 11.6286C38.5988 11.6286 38.5207 11.5988 38.4612 11.5393C38.3422 11.4204 38.3422 11.2272 38.4612 11.1082L41.0483 8.52117C41.1673 8.40212 41.3603 8.40212 41.4794 8.52117C41.5984 8.64011 41.5984 8.83328 41.4794 8.95232L38.8924 11.5393C38.8326 11.5987 38.7547 11.6286 38.6768 11.6286Z" fill="#F2F2F2"/>
<path d="M11.8071 44.1454C11.7468 44.1454 11.6858 44.1275 11.6325 44.0902C11.4946 43.9937 11.4612 43.8036 11.5576 43.6656L13.6562 40.6686C13.7529 40.5308 13.9427 40.4971 14.0809 40.5937C14.2188 40.6902 14.2522 40.8803 14.1558 41.0183L12.0572 44.0153C11.9978 44.1 11.9033 44.1454 11.8071 44.1454Z" fill="#F2F2F2"/>
<path d="M36.0934 9.46132C36.033 9.46132 35.9721 9.44345 35.9188 9.40614C35.7809 9.30966 35.7475 9.11952 35.8439 8.98154L37.9423 5.98456C38.039 5.84658 38.229 5.81308 38.367 5.90966C38.5049 6.00615 38.5383 6.19628 38.4419 6.33427L36.3436 9.33124C36.2841 9.41601 36.1896 9.46132 36.0934 9.46132Z" fill="#F2F2F2"/>
<path d="M15.2798 46.1498C15.2366 46.1498 15.1928 46.1406 15.151 46.1211C14.9985 46.05 14.9324 45.8685 15.0036 45.716L16.5498 42.4002C16.6208 42.2476 16.8026 42.1816 16.955 42.2527C17.1075 42.3238 17.1736 42.5053 17.1024 42.6578L15.5562 45.9736C15.5046 46.0846 15.3947 46.1498 15.2798 46.1498Z" fill="#F2F2F2"/>
<path d="M33.1737 7.77578C33.1306 7.77578 33.0867 7.7666 33.0449 7.74707C32.8924 7.67598 32.8264 7.49453 32.8976 7.34199L34.4436 4.02617C34.5146 3.87354 34.6964 3.80762 34.8488 3.87871C35.0014 3.94981 35.0674 4.13125 34.9962 4.28379L33.4501 7.59961C33.3983 7.71065 33.2884 7.77578 33.1737 7.77578Z" fill="#F2F2F2"/>
<path d="M19.0473 47.5209C19.0213 47.5209 18.9947 47.5175 18.9682 47.5103C18.8054 47.4668 18.709 47.2996 18.7527 47.137L19.6997 43.6031C19.7432 43.4407 19.9106 43.3435 20.073 43.3876C20.2358 43.4311 20.3322 43.5983 20.2885 43.7609L19.3416 47.2948C19.3051 47.4311 19.1819 47.5209 19.0473 47.5209Z" fill="#F2F2F2"/>
<path d="M30.0063 6.62279C29.9803 6.62279 29.9538 6.61947 29.9272 6.61224C29.7644 6.56869 29.668 6.4015 29.7117 6.2389L30.6586 2.70501C30.7021 2.54241 30.8686 2.44515 31.0319 2.48948C31.1947 2.53304 31.2911 2.70023 31.2474 2.86282L30.3005 6.39671C30.2641 6.53285 30.1409 6.62279 30.0063 6.62279Z" fill="#F2F2F2"/>
<path d="M22.9954 48.2172C22.9866 48.2172 22.9775 48.2168 22.9685 48.216C22.8007 48.2013 22.6766 48.0535 22.6914 47.8857L23.0102 44.2411C23.0248 44.0734 23.1726 43.9486 23.3404 43.9639C23.5082 43.9786 23.6323 44.1263 23.6175 44.2942L23.2987 47.9388C23.2848 48.0976 23.1518 48.2172 22.9954 48.2172Z" fill="#F2F2F2"/>
<path d="M26.6854 6.03732C26.6767 6.03732 26.6676 6.03693 26.6586 6.03605C26.4908 6.02141 26.3667 5.87365 26.3814 5.70578L26.7003 2.06115C26.7148 1.89348 26.8611 1.76857 27.0305 1.784C27.1982 1.79865 27.3224 1.94641 27.3076 2.11428L26.9888 5.75891C26.975 5.91779 26.842 6.03732 26.6854 6.03732Z" fill="#F2F2F2"/>
<path d="M28.0206 28.0203L41.4922 8.50806L21.98 21.9796L8.50842 41.4918L28.0206 28.0203Z" fill="#F2F2F2"/>
<path d="M28.02 28.0203L41.4916 8.50806L8.50781 41.4919L28.02 28.0203Z" fill="#CCCCCC"/>
<path d="M28.0201 28.0203L41.4917 8.50806L21.9795 21.9797L28.0201 28.0203Z" fill="#FF525D"/>
<path d="M28.0203 28.0203L41.4919 8.50806L25 25L28.0203 28.0203Z" fill="#EF4152"/>
</svg>
