<svg width="50" height="50" viewBox="0 0 50 50" fill="none" xmlns="http://www.w3.org/2000/svg">
<path d="M25 50C38.8071 50 50 38.8071 50 25C50 11.1929 38.8071 0 25 0C11.1929 0 0 11.1929 0 25C0 38.8071 11.1929 50 25 50Z" fill="#1DA2F8"/>
<path d="M23.3138 6.0376C23.1573 6.0376 23.0242 5.91797 23.0105 5.75938L22.6916 2.11475C22.677 1.94698 22.801 1.79913 22.9688 1.78448C23.1367 1.76915 23.2844 1.89395 23.2989 2.06163L23.6178 5.70626C23.6324 5.87403 23.5084 6.02188 23.3406 6.03653C23.3316 6.03721 23.3226 6.0376 23.3138 6.0376Z" fill="white"/>
<path d="M27.004 48.2173C26.8475 48.2173 26.7144 48.0977 26.7006 47.9391L26.3818 44.2944C26.3671 44.1267 26.4912 43.9788 26.6589 43.9642C26.8279 43.9488 26.9744 44.0736 26.9891 44.2413L27.308 47.8859C27.3226 48.0537 27.1986 48.2016 27.0308 48.2162C27.0218 48.2168 27.0128 48.2173 27.004 48.2173Z" fill="white"/>
<path d="M16.8259 7.77618C16.711 7.77618 16.6011 7.71094 16.5494 7.6001L15.0032 4.28428C14.9321 4.13174 14.9981 3.95029 15.1506 3.8792C15.303 3.80811 15.4848 3.87403 15.5558 4.02666L17.102 7.34249C17.1731 7.49502 17.1071 7.67647 16.9546 7.74756C16.913 7.767 16.869 7.77618 16.8259 7.77618Z" fill="white"/>
<path d="M34.7205 46.1502C34.6057 46.1502 34.4957 46.085 34.4441 45.9741L32.898 42.6583C32.8269 42.5057 32.8928 42.3243 33.0454 42.2532C33.1979 42.1821 33.3795 42.2481 33.4505 42.4007L34.9966 45.7165C35.0677 45.869 35.0018 46.0505 34.8493 46.1216C34.8076 46.141 34.7637 46.1502 34.7205 46.1502Z" fill="white"/>
<path d="M11.324 11.6284C11.246 11.6284 11.1679 11.5987 11.1084 11.5392L8.52141 8.95207C8.40237 8.83313 8.40237 8.63997 8.52141 8.52092C8.64045 8.40188 8.83342 8.40188 8.95256 8.52092L11.5396 11.1079C11.6586 11.2269 11.6586 11.42 11.5396 11.5391C11.48 11.5986 11.4021 11.6284 11.324 11.6284Z" fill="white"/>
<path d="M41.2637 41.5678C41.1857 41.5678 41.1076 41.538 41.0481 41.4785L38.4611 38.8915C38.3421 38.7726 38.3421 38.5794 38.4611 38.4604C38.5802 38.3413 38.7731 38.3413 38.8923 38.4604L41.4793 41.0474C41.5983 41.1663 41.5983 41.3595 41.4793 41.4785C41.4197 41.538 41.3417 41.5678 41.2637 41.5678Z" fill="white"/>
<path d="M7.47036 17.1305C7.4272 17.1305 7.38345 17.1213 7.34175 17.1018L4.02603 15.5557C3.87329 15.4846 3.80737 15.3032 3.87847 15.1506C3.94956 14.9981 4.1311 14.9322 4.28354 15.0032L7.59937 16.5493C7.7521 16.6204 7.81802 16.8018 7.74693 16.9543C7.69517 17.0653 7.58521 17.1305 7.47036 17.1305Z" fill="white"/>
<path d="M45.8447 35.0251C45.8015 35.0251 45.7577 35.0159 45.7159 34.9964L42.4001 33.4503C42.2476 33.3792 42.1816 33.1977 42.2528 33.0452C42.324 32.8927 42.5055 32.8266 42.658 32.8977L45.9737 34.4438C46.1262 34.5149 46.1922 34.6964 46.121 34.8489C46.0695 34.9599 45.9594 35.0251 45.8447 35.0251Z" fill="white"/>
<path d="M5.73301 23.6192C5.72403 23.6192 5.71514 23.6188 5.70606 23.618L2.06143 23.2991C1.89375 23.2845 1.76973 23.1367 1.78438 22.9688C1.79893 22.8011 1.94727 22.6765 2.11465 22.6917L5.75928 23.0105C5.92696 23.0252 6.05098 23.1729 6.03633 23.3408C6.02266 23.4996 5.88955 23.6192 5.73301 23.6192Z" fill="white"/>
<path d="M47.9123 27.3096C47.9035 27.3096 47.8945 27.3092 47.8855 27.3083L44.2407 26.9895C44.073 26.9748 43.9488 26.8271 43.9636 26.6592C43.9782 26.4915 44.1248 26.3673 44.2938 26.382L47.9385 26.7009C48.1063 26.7155 48.2304 26.8633 48.2156 27.0312C48.2018 27.1901 48.0687 27.3096 47.9123 27.3096Z" fill="white"/>
<path d="M2.78419 31.2582C2.64953 31.2582 2.52638 31.1684 2.48996 31.0322C2.4464 30.8695 2.54279 30.7024 2.70548 30.6588L6.23946 29.7119C6.40167 29.6676 6.56915 29.7648 6.6128 29.9274C6.65636 30.0901 6.55997 30.2572 6.39728 30.3007L2.86329 31.2477C2.83693 31.2548 2.81017 31.2582 2.78419 31.2582Z" fill="white"/>
<path d="M43.6817 20.299C43.547 20.299 43.4238 20.2092 43.3874 20.073C43.3439 19.9103 43.4402 19.7432 43.6029 19.6997L47.1369 18.7528C47.2994 18.7088 47.4666 18.8057 47.5103 18.9683C47.5538 19.131 47.4574 19.2981 47.2947 19.3417L43.7608 20.2886C43.7343 20.2956 43.7077 20.299 43.6817 20.299Z" fill="white"/>
<path d="M6.16038 38.4973C6.06429 38.4973 5.96966 38.452 5.91028 38.3673C5.8139 38.2293 5.84729 38.0393 5.98519 37.9427L8.98206 35.8443C9.12053 35.7475 9.31028 35.7814 9.40676 35.9192C9.50315 36.0572 9.46975 36.2472 9.33186 36.3438L6.33499 38.4421C6.28177 38.4793 6.22073 38.4973 6.16038 38.4973Z" fill="white"/>
<path d="M40.844 14.2111C40.7479 14.2111 40.6533 14.1657 40.5939 14.0811C40.4975 13.9431 40.5309 13.7531 40.6688 13.6565L43.6657 11.5581C43.8042 11.4614 43.9938 11.4952 44.0905 11.633C44.1868 11.771 44.1534 11.9611 44.0156 12.0576L41.0186 14.156C40.9654 14.1931 40.9043 14.2111 40.844 14.2111Z" fill="white"/>
<path d="M11.807 44.1449C11.7467 44.1449 11.6857 44.127 11.6324 44.0897C11.4945 43.9932 11.4611 43.8031 11.5575 43.6651L13.656 40.6681C13.7528 40.5303 13.9426 40.4966 14.0807 40.5932C14.2186 40.6897 14.252 40.8798 14.1556 41.0178L12.0571 44.0148C11.9976 44.0996 11.9032 44.1449 11.807 44.1449Z" fill="white"/>
<path d="M36.0934 9.46132C36.033 9.46132 35.9721 9.44345 35.9188 9.40614C35.7809 9.30966 35.7475 9.11952 35.8439 8.98154L37.9423 5.98456C38.039 5.84658 38.229 5.81308 38.367 5.90966C38.5049 6.00615 38.5383 6.19628 38.4419 6.33427L36.3436 9.33124C36.2841 9.41601 36.1896 9.46132 36.0934 9.46132Z" fill="white"/>
<path d="M19.0473 47.5209C19.0213 47.5209 18.9947 47.5175 18.9682 47.5103C18.8054 47.4668 18.709 47.2996 18.7527 47.137L19.6997 43.6031C19.7432 43.4407 19.9106 43.3435 20.073 43.3876C20.2358 43.4311 20.3322 43.5983 20.2885 43.7609L19.3416 47.2948C19.3051 47.4311 19.1819 47.5209 19.0473 47.5209Z" fill="white"/>
<path d="M30.0063 6.62254C29.9803 6.62254 29.9538 6.61922 29.9272 6.612C29.7644 6.56844 29.668 6.40126 29.7117 6.23866L30.6586 2.70477C30.7021 2.54217 30.8686 2.4449 31.0319 2.48924C31.1947 2.53279 31.2911 2.69998 31.2474 2.86258L30.3005 6.39647C30.2641 6.5326 30.1409 6.62254 30.0063 6.62254Z" fill="white"/>
<path d="M28.0205 28.02L41.4921 8.50781L21.9799 21.9794L8.5083 41.4916L28.0205 28.02Z" fill="white"/>
<path d="M28.0201 28.02L41.4917 8.50781L21.9795 21.9794L28.0201 28.02Z" fill="#FF525D"/>
</svg>
