<svg width="98" height="131" viewBox="0 0 98 131" fill="none" xmlns="http://www.w3.org/2000/svg">
<g clip-path="url(#clip0)">
<path d="M32.3542 60.7196C34.1679 60.7196 35.6381 59.2493 35.6381 57.4357C35.6381 55.622 34.1679 54.1517 32.3542 54.1517C30.5406 54.1517 29.0703 55.622 29.0703 57.4357C29.0703 59.2493 30.5406 60.7196 32.3542 60.7196Z" fill="#7861A2"/>
<path d="M32.3545 46.9043C30.5607 46.9043 28.8743 47.6028 27.6058 48.8713C26.9205 49.5564 26.9205 50.6672 27.6058 51.3526C28.2911 52.0379 29.4019 52.0377 30.0868 51.3526C30.6925 50.7468 31.4978 50.4133 32.3545 50.4133C33.2111 50.4133 34.0164 50.7468 34.6221 51.3526C34.9647 51.6951 35.4136 51.8666 35.8627 51.8664C36.3116 51.8664 36.7608 51.6951 37.1033 51.3526C37.7887 50.6674 37.7887 49.5566 37.1033 48.8713C35.8346 47.603 34.1482 46.9043 32.3545 46.9043Z" fill="#7861A2"/>
<path d="M58.5667 54.1596C57.8814 54.8447 57.8814 55.9555 58.5667 56.6408C59.2519 57.3261 60.3626 57.3259 61.0478 56.6408C62.298 55.3903 64.3328 55.3905 65.583 56.6408C65.9256 56.9834 66.3745 57.1547 66.8236 57.1547C67.2728 57.1547 67.7217 56.9834 68.0643 56.6408C68.7496 55.9557 68.7496 54.8449 68.0643 54.1596C65.4462 51.5415 61.1855 51.5413 58.5667 54.1596Z" fill="#7861A2"/>
<path d="M51.8995 71.3791C50.9968 72.2815 49.797 72.7787 48.5204 72.7787C47.244 72.7787 46.044 72.2817 45.1415 71.3791C44.4564 70.6939 43.3456 70.6939 42.6605 71.3791C41.9752 72.0642 41.9752 73.1749 42.6605 73.8603C44.2257 75.4257 46.3069 76.2875 48.5206 76.2875C50.7343 76.2875 52.8155 75.4255 54.3807 73.8603C55.0661 73.1752 55.0661 72.0644 54.3807 71.3791C53.6954 70.6939 52.5846 70.6939 51.8995 71.3791Z" fill="#7861A2"/>
<path d="M89.9168 55.7431C89.9168 50.9773 86.4715 47.0035 81.9415 46.1747V16.8241C81.9415 13.0165 80.0473 9.48657 76.8746 7.38144C73.8947 5.40439 70.1949 4.95568 66.8498 6.13446L55.8349 2.39571C47.371 -0.477434 38.4616 -0.772182 30.0703 1.54304C19.0847 4.57409 12.7867 10.9836 11.8145 20.0945C10.9541 21.2292 10.2705 22.5035 9.80605 23.8786L8.95163 26.4074C8.49306 27.7652 8.99856 29.192 10.21 29.9578C11.421 30.7236 12.927 30.5688 13.9571 29.572C14.3089 29.2315 14.6935 28.9446 15.0984 28.7047V46.1749C10.5684 47.0037 7.12305 50.9773 7.12305 55.7433C7.12305 60.6998 10.8493 64.7998 15.6471 65.3959C16.852 72.0488 20.0181 78.1856 24.8593 83.0966C31.18 89.5083 39.5825 93.0391 48.5199 93.0391C48.521 93.0391 48.5221 93.0391 48.5232 93.0391C57.4492 93.0382 65.8408 89.5618 72.1525 83.2503C77.0827 78.3201 80.2829 72.1207 81.448 65.3889C86.2191 64.7678 89.9168 60.6803 89.9168 55.7431ZM74.9346 10.3055C77.1577 11.7803 78.4326 14.1563 78.4326 16.8241V39.7832C72.9869 38.9369 68.8056 34.2165 68.8056 28.5373L68.6604 9.24709C70.8029 8.68237 73.0369 9.04642 74.9346 10.3055ZM12.7895 26.0107L13.1305 25.0017C14.0238 22.3579 16.0074 20.2116 18.5726 19.1133C21.1377 18.015 24.0599 18.0606 26.5896 19.2389C31.9026 21.7134 38.3254 20.3756 42.2085 15.986L42.6432 15.4945C43.2853 14.7688 43.2173 13.66 42.4916 13.0181C41.7655 12.3762 40.6569 12.4439 40.015 13.1696L39.5803 13.6611C36.7188 16.8959 31.9859 17.8814 28.0711 16.0581C24.6382 14.4591 20.6725 14.3971 17.1914 15.8877C16.8745 16.0235 16.5664 16.175 16.2631 16.3336C18.3025 10.8967 23.2382 7.06805 31.0039 4.92542C38.7149 2.7977 46.9113 3.07205 54.7075 5.71821L65.1515 9.26332L65.2884 18.3288C60.638 24.6517 53.8557 28.9319 46.1268 30.4037C38.2129 31.9105 30.1391 30.3159 23.3928 25.9136C20.0962 23.7628 15.9403 23.8547 12.7895 26.0107ZM10.632 55.7431C10.632 52.9221 12.52 50.5352 15.0984 49.7757V59.2853C15.0984 60.1068 15.128 60.9238 15.1857 61.7354C12.563 61.0045 10.632 58.5958 10.632 55.7431ZM69.6715 80.7687C64.0225 86.4176 56.5119 89.5289 48.523 89.5298C48.5217 89.5298 48.5215 89.5298 48.5199 89.5298C40.5299 89.5298 33.0138 86.3698 27.3581 80.6329C21.7151 74.9085 18.6073 67.3271 18.6073 59.2851V27.8775C19.601 27.9516 20.587 28.2731 21.4747 28.8523C28.9851 33.7531 37.9728 35.5284 46.7828 33.8507C53.9342 32.4888 60.3586 28.9683 65.2965 23.7762V28.5371C65.2965 36.1539 71.0461 42.4493 78.4323 43.3206V59.6169C78.4326 67.6071 75.3213 75.1191 69.6715 80.7687ZM81.8737 61.7297C81.9171 61.0293 81.9415 60.3251 81.9415 59.6171V49.7757C84.5199 50.5352 86.4079 52.9221 86.4079 55.7431C86.4079 58.5886 84.4868 60.9924 81.8737 61.7297Z" fill="#7861A2"/>
</g>
<path d="M95.0387 128.196C95.0387 112.523 74.1984 99.7919 48.5064 99.7919C22.8145 99.7919 2 112.523 2 128.196" stroke="#7861A2" stroke-width="4" stroke-linecap="round"/>
<line x1="38.7656" y1="98.7919" x2="38.7656" y2="91.1621" stroke="#7861A2" stroke-width="4" stroke-linecap="round"/>
<line x1="58.1494" y1="98.7919" x2="58.1494" y2="91.1621" stroke="#7861A2" stroke-width="4" stroke-linecap="round"/>
<defs>
<clipPath id="clip0">
<rect width="93.0387" height="93.0387" fill="white" transform="translate(2)"/>
</clipPath>
</defs>
</svg>
