<svg width="188" height="189" viewBox="0 0 188 189" fill="none" xmlns="http://www.w3.org/2000/svg">
<path d="M94 0C42.1291 0 0 42.2673 0 94.5C0 146.647 42.0436 189 94 189C145.956 189 188 146.733 188 94.5C188 42.2673 145.871 0 94 0ZM144.845 107.988C138.864 130.668 118.355 147.334 93.9145 147.334C64.86 147.334 41.2745 123.623 41.2745 94.4141C41.2745 65.205 64.86 41.4941 93.9145 41.4941C118.782 41.4941 139.633 58.7618 145.102 82.1291C146.042 86.0809 146.555 90.2046 146.555 94.4141C146.64 99.1391 146.042 103.692 144.845 107.988Z" fill="#E7EBF2"/>
<path opacity="0.5" d="M126.809 125.891C126.809 125.891 131.323 130.249 133.658 142.312C133.658 142.312 118.093 154.297 105.252 156.243C92.4103 158.188 75.9112 160.757 74.666 170.173C73.4208 179.59 68.8291 181.847 68.8291 181.847C68.8291 181.847 65.2491 175.076 66.9613 163.714C68.6735 152.351 73.81 149.472 81.2812 147.215C88.5968 145.036 126.809 125.891 126.809 125.891Z" fill="#B4CBD3"/>
<path d="M137.783 151.884C136.227 145.502 137.472 140.288 137.083 130.949C137.083 130.559 137.083 130.093 137.005 129.703C136.849 127.213 136.538 125.189 136.071 123.477C134.592 118.107 132.18 116.006 132.18 116.006C129.145 114.45 122.296 112.348 111.867 117.718C111.712 117.796 111.556 117.874 111.4 118.03C104.941 121.532 100.66 127.291 98.4035 131.026C97.6252 132.272 97.0804 133.361 96.7691 133.984C96.7691 133.984 96.7691 133.984 96.7691 134.062C96.6135 134.139 96.4578 134.139 96.2243 134.217C93.1892 135.073 89.2979 135.54 85.4066 135.852C83.6944 136.007 81.9044 136.085 80.2701 136.163C80.2701 136.163 80.1144 136.163 79.8031 136.163C78.0131 136.241 71.1645 136.786 66.4171 139.198C68.7519 140.832 71.2423 142.311 73.8884 143.556C77.7018 142.467 81.2818 141.689 82.1379 141.455C81.5931 141.611 79.7253 142.233 75.6006 144.257C74.1997 144.957 72.6432 145.813 70.6975 146.825C61.8254 151.728 63.0706 154.374 62.2924 160.289C61.5919 166.204 64.705 180.913 64.705 180.913C64.705 180.913 64.1602 181.691 63.4597 182.703C61.9811 184.96 63.0706 185.504 63.0706 185.504C63.0706 185.504 66.8841 183.092 68.7519 181.847C68.9076 181.691 69.141 181.613 69.2188 181.535C70.4641 180.679 69.2188 179.745 69.2188 179.745C69.2188 179.59 69.141 179.512 69.141 179.356C69.141 179.278 69.141 179.278 69.141 179.2C69.141 179.045 69.0632 178.967 69.0632 178.811C69.0632 178.734 69.0632 178.578 68.9854 178.5C68.9854 178.422 68.9854 178.267 68.9075 178.189C68.6741 176.243 68.9854 173.986 69.0632 169.317C69.2189 163.48 67.7402 159.511 69.9193 157.487C72.5654 154.452 80.3479 152.195 88.8309 150.249C92.5665 149.393 96.4578 148.537 100.116 147.759C100.66 147.681 101.127 147.525 101.594 147.448C104.63 146.747 107.509 146.047 109.922 145.346C109.922 145.346 109.922 145.346 110 145.346C111.167 145.035 112.334 144.568 113.424 144.101C114.513 143.634 115.603 143.089 116.615 142.467C124.864 137.642 129.456 132.116 129.456 132.116C129.456 132.349 129.612 133.361 129.845 134.918C130.39 138.42 131.635 144.802 133.503 152.117C133.97 153.518 134.982 156.398 134.281 157.487C133.503 158.577 133.036 160.522 134.359 160.678C135.682 160.756 135.371 159.744 136.149 159.744C137.861 159.744 137.55 160.367 137.55 163.168C137.55 165.97 139.729 165.581 140.04 163.168C140.351 160.6 139.418 158.499 137.783 151.884ZM105.33 130.248C107.12 127.991 109.999 125.734 112.256 124.256C113.891 123.166 115.136 122.466 115.214 122.388C115.058 122.543 112.334 126.435 105.33 130.248Z" fill="#EEAB81"/>
<path d="M137.083 130.949C134.359 131.649 131.791 133.283 130.001 134.762C129.768 133.206 129.612 132.194 129.612 131.96C129.612 131.96 125.02 137.486 116.771 142.311C115.759 142.934 114.67 143.479 113.58 143.946C113.269 144.101 112.957 144.257 112.568 144.335C112.179 144.49 111.712 144.646 111.245 144.802C110.856 144.957 110.545 145.035 110.156 145.191C110.156 145.191 110.156 145.191 110.078 145.191C107.665 145.891 104.786 146.592 101.75 147.292C101.284 147.37 100.739 147.526 100.272 147.603C99.4935 142.233 97.7035 137.33 96.2249 133.984C96.3805 133.906 96.614 133.906 96.7696 133.828C96.7696 133.828 96.7696 133.828 96.7696 133.75C97.5479 133.595 99.0266 132.972 100.505 132.35C102.918 131.338 105.33 130.093 105.33 130.093C112.335 126.279 115.059 122.388 115.214 122.232C115.136 122.31 113.891 123.01 112.257 124.1C112.413 121.532 111.479 118.263 111.401 117.796C111.557 117.718 111.712 117.64 111.868 117.485C122.296 112.115 129.067 114.216 132.18 115.773C132.18 115.773 134.671 117.796 136.072 123.244C136.539 124.956 136.928 127.057 137.005 129.47C137.005 130.17 137.083 130.56 137.083 130.949Z" fill="#FAD87C"/>
<path d="M141.83 102.153C141.83 102.153 141.363 105.5 139.496 108.691C138.562 110.325 137.239 111.882 135.371 113.049C135.06 113.282 134.67 113.438 134.281 113.672C133.736 113.905 133.114 114.139 132.491 114.372C132.18 114.45 131.869 114.45 131.635 114.372C131.324 114.294 131.09 114.216 130.857 113.983C128.911 112.426 129.767 106.434 130.468 102.932C130.546 102.698 130.546 102.543 130.623 102.387C131.324 98.9625 133.659 97.3282 136.616 97.0947C136.927 97.3282 137.316 97.4839 137.783 97.6395C138.406 97.7952 139.029 97.7952 139.729 97.6395C141.753 98.9625 141.83 102.153 141.83 102.153Z" fill="#EEAB81"/>
<path d="M145.255 100.13C145.41 105.967 139.574 108.691 139.574 108.691C139.651 108.457 141.13 100.441 138.562 101.453C138.562 101.453 134.67 103.554 130.468 102.932C130.234 102.932 130.079 102.854 129.845 102.854C125.409 101.92 126.032 95.9275 130.312 94.7601C133.97 93.8262 134.67 95.9275 136.538 97.0948C136.85 97.3283 137.239 97.484 137.706 97.6396C138.328 97.7953 138.951 97.7953 139.651 97.6396C142.297 97.1727 145.099 95.4605 145.255 100.13Z" fill="#0D2436"/>
<path d="M134.359 113.672C134.281 113.828 134.281 113.905 134.203 113.983C134.047 114.372 133.814 114.761 133.658 115.151C132.958 116.707 132.179 118.341 131.635 119.197C130.39 121.221 127.743 120.598 128.833 118.264C128.989 117.874 129.222 117.33 129.533 116.863C129.611 116.707 129.689 116.551 129.767 116.474C130.156 115.695 130.623 114.839 131.012 114.061C131.246 114.217 131.479 114.372 131.79 114.45C132.024 114.528 132.335 114.528 132.646 114.45C133.191 114.139 133.736 113.905 134.359 113.672Z" fill="#EEAB81"/>
<path d="M100.193 147.759C96.5355 148.616 92.6442 149.394 88.9086 150.25C80.4256 152.273 72.643 154.452 69.9969 157.488C67.8178 159.511 69.2187 163.558 69.1408 169.317C69.063 173.909 68.7517 176.166 68.9852 178.189C68.9852 178.267 68.9852 178.423 69.063 178.501C69.063 178.578 69.063 178.734 69.1408 178.812V178.89C69.1408 178.968 69.2186 179.045 69.2186 179.201C69.2186 179.279 69.2186 179.279 69.2186 179.357C69.2186 179.512 69.2965 179.59 69.2965 179.746C69.2965 179.746 70.5417 180.68 69.2965 181.536C69.1408 181.614 68.9852 181.691 68.8295 181.847C66.8839 183.092 63.1483 185.505 63.1483 185.505C63.1483 185.505 62.0587 184.96 63.5374 182.703C64.2378 181.691 64.7826 180.913 64.7826 180.913C64.7826 180.913 61.6696 166.204 62.37 160.289C63.0704 154.375 61.903 151.729 70.7752 146.826C72.643 145.814 74.2773 144.958 75.6782 144.257C79.7251 142.156 81.5929 141.611 82.2155 141.456C81.3595 141.611 77.7795 142.467 73.966 143.557C71.3199 142.312 67.8345 140.634 65.4998 139C70.3249 136.587 78.1686 136.241 79.8808 136.163C80.1921 136.163 80.3477 136.163 80.3477 136.163C81.9821 136.086 83.6942 136.008 85.4842 135.852C89.2977 135.541 93.189 135.074 96.302 134.218C97.625 137.486 99.415 142.389 100.193 147.759Z" fill="#5F2C82"/>
<path d="M134.359 113.672C134.359 113.75 134.281 113.828 134.203 113.983C133.814 114.684 132.647 116.24 129.456 116.785C129.534 116.629 129.611 116.474 129.689 116.396C130.078 115.618 130.545 114.761 130.934 113.983C131.168 114.139 131.401 114.294 131.713 114.372C131.946 114.45 132.258 114.45 132.569 114.372C133.191 114.139 133.736 113.905 134.359 113.672Z" fill="#E09A73"/>
<path fill-rule="evenodd" clip-rule="evenodd" d="M71 70C68.7909 70 67 71.7909 67 74V94C67 96.2091 68.7909 98 71 98H112.449C112.971 98.546 113.502 99.0668 114 99.5C115.699 100.977 118.528 102.483 120.745 103.544C121.268 103.795 121.797 102.983 121.411 102.55C120.579 101.614 119.795 100.525 119.5 99.5C118.981 97.6954 118.987 94.8425 118.997 94.1535C118.999 94.1025 119 94.0514 119 94V74C119 71.7909 117.209 70 115 70H71Z" fill="#47DAAE"/>
<path d="M76.9834 78.1357V88H80.75C83.71 88 85.4531 86.1611 85.4531 83.0303C85.4531 79.8994 83.71 78.1357 80.75 78.1357H76.9834ZM79.0479 79.8379H80.5039C82.3223 79.8379 83.3477 80.9727 83.3477 83.0371C83.3477 85.1699 82.3496 86.291 80.5039 86.291H79.0479V79.8379ZM89.9785 88.1572C92.1934 88.1572 93.6084 86.7422 93.6084 84.3291C93.6084 81.9502 92.1729 80.5146 89.9785 80.5146C87.7842 80.5146 86.3486 81.957 86.3486 84.3291C86.3486 86.7354 87.7637 88.1572 89.9785 88.1572ZM89.9785 86.6328C88.9941 86.6328 88.3721 85.8057 88.3721 84.3359C88.3721 82.8799 89.0078 82.0391 89.9785 82.0391C90.9492 82.0391 91.5781 82.8799 91.5781 84.3359C91.5781 85.8057 90.9561 86.6328 89.9785 86.6328ZM94.6406 88H96.6367V83.7959C96.6367 82.8457 97.2041 82.1895 98.0996 82.1895C98.9951 82.1895 99.4463 82.7363 99.4463 83.6934V88H101.442V83.2764C101.442 81.5605 100.526 80.5352 98.8994 80.5352C97.7715 80.5352 96.999 81.0684 96.6094 81.9775H96.5684V80.6719H94.6406V88ZM105.995 81.9912C106.884 81.9912 107.492 82.6338 107.533 83.5703H104.423C104.491 82.6543 105.12 81.9912 105.995 81.9912ZM107.561 85.7578C107.376 86.3184 106.815 86.6807 106.084 86.6807C105.065 86.6807 104.402 85.9629 104.402 84.917V84.7939H109.454V84.1855C109.454 81.957 108.107 80.5146 105.975 80.5146C103.808 80.5146 102.44 82.0322 102.44 84.3701C102.44 86.7148 103.794 88.1572 106.05 88.1572C107.861 88.1572 109.174 87.1934 109.393 85.7578H107.561Z" fill="#F9FBFD"/>
</svg>
