<svg width="51" height="51" viewBox="0 0 51 51" fill="none" xmlns="http://www.w3.org/2000/svg">
<rect x="0.498901" y="0.557617" width="50" height="50" rx="25" fill="#F05A7E"/>
<path fill-rule="evenodd" clip-rule="evenodd" d="M15.8337 33.2308C15.4432 32.8403 15.4432 32.2071 15.8337 31.8166L31.7574 15.8929C32.148 15.5024 32.7811 15.5024 33.1717 15.8929L35.1641 17.8853C35.5546 18.2758 35.5546 18.909 35.1641 19.2995L19.2404 35.2233C18.8498 35.6138 18.2167 35.6138 17.8261 35.2233L15.8337 33.2308Z" fill="white"/>
<path fill-rule="evenodd" clip-rule="evenodd" d="M17.8262 15.8927C18.2167 15.5021 18.8499 15.5021 19.2404 15.8927L35.1642 31.8164C35.5547 32.2069 35.5547 32.8401 35.1642 33.2306L33.1717 35.223C32.7812 35.6136 32.1481 35.6136 31.7575 35.223L15.8338 19.2993C15.4433 18.9088 15.4433 18.2756 15.8338 17.8851L17.8262 15.8927Z" fill="white"/>
</svg>
