<svg id="ejh7cd5ikbse1" xmlns="http://www.w3.org/2000/svg" xmlns:xlink="http://www.w3.org/1999/xlink" viewBox="0 0 342 196" shape-rendering="geometricPrecision" text-rendering="geometricPrecision"><style><![CDATA[#ejh7cd5ikbse4 {animation: ejh7cd5ikbse4_c_o 6000ms linear infinite normal forwards}@keyframes ejh7cd5ikbse4_c_o { 0% {opacity: 0} 3.333333% {opacity: 1} 96.666667% {opacity: 1} 100% {opacity: 0} }#ejh7cd5ikbse5_to {animation: ejh7cd5ikbse5_to__to 6000ms linear infinite normal forwards}@keyframes ejh7cd5ikbse5_to__to { 0% {transform: translate(40.344587px,22.635773px)} 6.666667% {transform: translate(40.344587px,22.635773px)} 16.666667% {transform: translate(40.344587px,22.635773px);animation-timing-function: cubic-bezier(0.420000,0,0.580000,1)} 21.666667% {transform: translate(-119.579356px,-86.189747px)} 100% {transform: translate(-119.579356px,-86.189747px)} }#ejh7cd5ikbse5_ts {animation: ejh7cd5ikbse5_ts__ts 6000ms linear infinite normal forwards}@keyframes ejh7cd5ikbse5_ts__ts { 0% {transform: scale(0.765746,0.765746)} 6.666667% {transform: scale(0.765746,0.765746)} 16.666667% {transform: scale(0.765746,0.765746);animation-timing-function: cubic-bezier(0.420000,0,0.580000,1)} 21.666667% {transform: scale(1.703030,1.703030)} 100% {transform: scale(1.703030,1.703030)} }#ejh7cd5ikbse11 {animation: ejh7cd5ikbse11_f_o 6000ms linear infinite normal forwards}@keyframes ejh7cd5ikbse11_f_o { 0% {fill-opacity: 0.100000} 6.666667% {fill-opacity: 0.100000} 16.666667% {fill-opacity: 0.100000} 21.666667% {fill-opacity: 0} 100% {fill-opacity: 0} }#ejh7cd5ikbse15_to {animation: ejh7cd5ikbse15_to__to 6000ms linear infinite normal forwards}@keyframes ejh7cd5ikbse15_to__to { 0% {transform: translate(123.924770px,3.649034px)} 3.333333% {transform: translate(123.924770px,3.649034px)} 16.666667% {transform: translate(123.924770px,3.649034px)} 23.333333% {transform: translate(70.111060px,-109.681718px)} 100% {transform: translate(70.111060px,-109.681718px)} }#ejh7cd5ikbse15_ts {animation: ejh7cd5ikbse15_ts__ts 6000ms linear infinite normal forwards}@keyframes ejh7cd5ikbse15_ts__ts { 0% {transform: scale(0.523058,0.523058)} 3.333333% {transform: scale(0.523058,0.523058)} 16.666667% {transform: scale(0.523058,0.523058)} 23.333333% {transform: scale(1.126214,1.126214)} 100% {transform: scale(1.126214,1.126214)} }#ejh7cd5ikbse15 {animation: ejh7cd5ikbse15_c_o 6000ms linear infinite normal forwards}@keyframes ejh7cd5ikbse15_c_o { 0% {opacity: 1} 23.333333% {opacity: 1} 30% {opacity: 0} 100% {opacity: 0} }#ejh7cd5ikbse22_to {animation: ejh7cd5ikbse22_to__to 6000ms linear infinite normal forwards}@keyframes ejh7cd5ikbse22_to__to { 0% {transform: translate(0px,0px)} 6.666667% {transform: translate(0px,0px)} 16.666667% {transform: translate(0px,0px)} 21.666667% {transform: translate(-147.419657px,-89.849918px)} 23.333333% {transform: translate(-192.452854px,-119.227477px)} 100% {transform: translate(-192.452854px,-119.227477px)} }#ejh7cd5ikbse22_ts {animation: ejh7cd5ikbse22_ts__ts 6000ms linear infinite normal forwards}@keyframes ejh7cd5ikbse22_ts__ts { 0% {transform: scale(1,1)} 6.666667% {transform: scale(1,1)} 16.666667% {transform: scale(1,1)} 21.666667% {transform: scale(1.859666,1.845697)} 23.333333% {transform: scale(2.122673,2.122673)} 100% {transform: scale(2.122673,2.122673)} }#ejh7cd5ikbse22 {animation: ejh7cd5ikbse22_c_o 6000ms linear infinite normal forwards}@keyframes ejh7cd5ikbse22_c_o { 0% {opacity: 1} 73.333333% {opacity: 1} 77% {opacity: 0} 100% {opacity: 0} }#ejh7cd5ikbse25_to {animation: ejh7cd5ikbse25_to__to 6000ms linear infinite normal forwards}@keyframes ejh7cd5ikbse25_to__to { 0% {transform: translate(170.536855px,39.574505px)} 33.500000% {transform: translate(170.536855px,39.574505px)} 36.666667% {transform: translate(110.223239px,39.656170px);animation-timing-function: cubic-bezier(0.420000,0,0.580000,1)} 40.166667% {transform: translate(110.223239px,40.502144px);animation-timing-function: cubic-bezier(0.420000,0,0.580000,1)} 45% {transform: translate(130.606973px,58.367976px);animation-timing-function: cubic-bezier(0.420000,0,0.580000,1)} 50% {transform: translate(88.165562px,23.403846px)} 55% {transform: translate(96.552077px,35.059622px)} 100% {transform: translate(96.552077px,35.059622px)} }#ejh7cd5ikbse25_tk {animation: ejh7cd5ikbse25_tk__tk 6000ms linear infinite normal forwards}@keyframes ejh7cd5ikbse25_tk__tk { 0% {transform: skewX(0deg) skewY(10deg)} 33.500000% {transform: skewX(0deg) skewY(10deg);animation-timing-function: cubic-bezier(0.420000,0,0.580000,1)} 36.666667% {transform: skewX(0deg) skewY(0deg)} 40.166667% {transform: skewX(0deg) skewY(0deg)} 100% {transform: skewX(0deg) skewY(0deg)} }#ejh7cd5ikbse25_ts {animation: ejh7cd5ikbse25_ts__ts 6000ms linear infinite normal forwards}@keyframes ejh7cd5ikbse25_ts__ts { 0% {transform: scale(0.002243,0.294318)} 33.500000% {transform: scale(0.002243,0.294318);animation-timing-function: cubic-bezier(0.420000,0,0.580000,1)} 36.666667% {transform: scale(0.294318,0.294318);animation-timing-function: cubic-bezier(0.110000,0.660000,0.225000,0.870000)} 40.166667% {transform: scale(0.294318,0.294318);animation-timing-function: cubic-bezier(0.110000,0.660000,0.225000,0.870000)} 45% {transform: scale(0.294318,0.294318);animation-timing-function: cubic-bezier(0.110000,0.660000,0.225000,0.870000)} 50% {transform: scale(0.358499,0.366778)} 55% {transform: scale(0.360050,0.360050)} 100% {transform: scale(0.360050,0.360050)} }#ejh7cd5ikbse25 {animation: ejh7cd5ikbse25_c_o 6000ms linear infinite normal forwards}@keyframes ejh7cd5ikbse25_c_o { 0% {opacity: 0} 33.333333% {opacity: 0} 33.666667% {opacity: 1} 100% {opacity: 1} }#ejh7cd5ikbse39_to {animation: ejh7cd5ikbse39_to__to 6000ms linear infinite normal forwards}@keyframes ejh7cd5ikbse39_to__to { 0% {transform: translate(133.817470px,55.386257px)} 23.333333% {transform: translate(133.817470px,55.386257px);animation-timing-function: cubic-bezier(0.420000,0,0.580000,1)} 28.333333% {transform: translate(110.223239px,41.007324px);animation-timing-function: cubic-bezier(0.420000,0,0.580000,1)} 33.333333% {transform: translate(170.536855px,40.925659px)} 100% {transform: translate(170.536855px,40.925659px)} }#ejh7cd5ikbse39_tk {animation: ejh7cd5ikbse39_tk__tk 6000ms linear infinite normal forwards}@keyframes ejh7cd5ikbse39_tk__tk { 0% {transform: skewX(0deg) skewY(0deg)} 23.333333% {transform: skewX(0deg) skewY(0deg);animation-timing-function: cubic-bezier(0.420000,0,0.580000,1)} 30% {transform: skewX(0deg) skewY(0deg);animation-timing-function: cubic-bezier(0.420000,0,0.580000,1)} 33.333333% {transform: skewX(0deg) skewY(10deg)} 100% {transform: skewX(0deg) skewY(10deg)} }#ejh7cd5ikbse39_ts {animation: ejh7cd5ikbse39_ts__ts 6000ms linear infinite normal forwards}@keyframes ejh7cd5ikbse39_ts__ts { 0% {transform: scale(0.180061,0.180061)} 23.333333% {transform: scale(0.180061,0.180061);animation-timing-function: cubic-bezier(0.420000,0,0.580000,1)} 28.333333% {transform: scale(0.294318,0.294318);animation-timing-function: cubic-bezier(0.420000,0,0.580000,1)} 33.333333% {transform: scale(0.002243,0.294318)} 100% {transform: scale(0.002243,0.294318)} }#ejh7cd5ikbse39 {animation: ejh7cd5ikbse39_c_o 6000ms linear infinite normal forwards}@keyframes ejh7cd5ikbse39_c_o { 0% {opacity: 0} 23.333333% {opacity: 0;animation-timing-function: cubic-bezier(0.420000,0,0.580000,1)} 28.333333% {opacity: 1;animation-timing-function: cubic-bezier(0.420000,0,0.580000,1)} 33.166667% {opacity: 1;animation-timing-function: cubic-bezier(0.420000,0,0.580000,1)} 33.500000% {opacity: 0} 100% {opacity: 0} }#ejh7cd5ikbse89_to {animation: ejh7cd5ikbse89_to__to 6000ms linear infinite normal forwards}@keyframes ejh7cd5ikbse89_to__to { 0% {transform: translate(0px,0px)} 16.666667% {transform: translate(0px,0px)} 21.666667% {transform: translate(-181.956171px,-121.981876px)} 23.333333% {transform: translate(-181.956171px,-121.981876px)} 68% {transform: translate(-181.956171px,-121.981876px)} 72% {transform: translate(-164.137242px,-108.125443px)} 73.666667% {transform: translate(-181.956171px,-121.981876px)} 100% {transform: translate(-181.956171px,-121.981876px)} }#ejh7cd5ikbse89_ts {animation: ejh7cd5ikbse89_ts__ts 6000ms linear infinite normal forwards}@keyframes ejh7cd5ikbse89_ts__ts { 0% {transform: scale(1,1)} 16.666667% {transform: scale(1,1)} 21.666667% {transform: scale(2.057192,2.057192)} 23.333333% {transform: scale(2.057192,2.057192)} 68% {transform: scale(2.057192,2.057192)} 72% {transform: scale(1.957301,1.957301)} 73.666667% {transform: scale(2.057192,2.057192)} 100% {transform: scale(2.057192,2.057192)} }#ejh7cd5ikbse92_to {animation: ejh7cd5ikbse92_to__to 6000ms linear infinite normal forwards}@keyframes ejh7cd5ikbse92_to__to { 0% {transform: translate(159.836857px,116.295778px)} 73.666667% {transform: translate(159.836857px,116.295778px);animation-timing-function: cubic-bezier(0.420000,0,0.580000,1)} 76.500000% {transform: translate(145.216507px,98.613413px);animation-timing-function: cubic-bezier(0.420000,0,0.580000,1)} 78.333333% {transform: translate(150.328422px,103.725328px)} 100% {transform: translate(150.328422px,103.725328px)} }#ejh7cd5ikbse92_ts {animation: ejh7cd5ikbse92_ts__ts 6000ms linear infinite normal forwards}@keyframes ejh7cd5ikbse92_ts__ts { 0% {transform: scale(0.194142,0.194142)} 73.666667% {transform: scale(0.194142,0.194142);animation-timing-function: cubic-bezier(0.420000,0,0.580000,1)} 76.500000% {transform: scale(0.448409,0.448409);animation-timing-function: cubic-bezier(0.420000,0,0.580000,1)} 78.333333% {transform: scale(0.359506,0.359506)} 100% {transform: scale(0.359506,0.359506)} }#ejh7cd5ikbse92 {animation: ejh7cd5ikbse92_c_o 6000ms linear infinite normal forwards}@keyframes ejh7cd5ikbse92_c_o { 0% {opacity: 0} 73.666667% {opacity: 0;animation-timing-function: cubic-bezier(0.420000,0,0.580000,1)} 76.500000% {opacity: 1;animation-timing-function: cubic-bezier(0.420000,0,0.580000,1)} 78.333333% {opacity: 1} 100% {opacity: 1} }#ejh7cd5ikbse96_to {animation: ejh7cd5ikbse96_to__to 6000ms linear infinite normal forwards}@keyframes ejh7cd5ikbse96_to__to { 0% {offset-distance: 0%} 53.666667% {offset-distance: 0%;animation-timing-function: cubic-bezier(0.470000,0,0.745000,0.715000)} 59.833333% {offset-distance: 100%} 100% {offset-distance: 100%} }]]></style><defs><clipPath id="ejh7cd5ikbse2"><rect id="ejh7cd5ikbse3" width="124.500000" height="192" rx="0" ry="0" fill="rgb(255,255,255)" stroke="none" stroke-width="1"/></clipPath></defs><g id="ejh7cd5ikbse4" opacity="0"><g id="ejh7cd5ikbse5_to" transform="translate(40.344587,22.635773)"><g id="ejh7cd5ikbse5_ts" transform="scale(0.765746,0.765746)"><g id="ejh7cd5ikbse5" display="none" transform="translate(0,0)"><path id="ejh7cd5ikbse6" d="M26.312500,8C26.312500,3.857870,29.670400,0.500000,33.812500,0.500000L307.437000,0.500000C311.580000,0.500000,314.937000,3.857860,314.937000,8L314.937000,187.187000L26.312500,187.187000L26.312500,8Z" transform="matrix(1 0 0 1 -0.12474999999997 0.09584607766604)" fill="rgb(255,255,255)" stroke="rgb(156,119,224)" stroke-width="1"/><rect id="ejh7cd5ikbse7" width="279" height="174" rx="0" ry="0" transform="matrix(1 0 0 1 31.12500000000000 8.81258000000000)" fill="none" stroke="rgb(156,119,224)" stroke-width="1"/><path id="ejh7cd5ikbse8" d="M0.514903,187.750000C0.773367,192.074000,4.361540,195.500000,8.750000,195.500000L332.500000,195.500000C336.888000,195.500000,340.477000,192.074000,340.735000,187.750000L0.514903,187.750000Z" fill="rgb(255,255,255)" stroke="rgb(156,119,224)" stroke-width="1"/><path id="ejh7cd5ikbse9" d="M130.907000,187.750000C131.152000,189.654000,132.779000,191.125000,134.750000,191.125000L206.500000,191.125000C208.471000,191.125000,210.098000,189.654000,210.343000,187.750000L130.907000,187.750000Z" fill="none" stroke="rgb(156,119,224)" stroke-width="1"/><circle id="ejh7cd5ikbse10" r="1.687500" transform="matrix(1 0 0 1 169.50000000000000 4.94606500000000)" fill="none" stroke="rgb(156,119,224)" stroke-width="1"/><rect id="ejh7cd5ikbse11" width="127" height="74" rx="0" ry="0" transform="matrix(1 0 0 1 107.50000000000000 58.50000000000000)" fill="rgb(156,119,224)" fill-opacity="0.1" stroke="rgb(156,119,224)" stroke-width="0"/><rect id="ejh7cd5ikbse12" width="74" height="3" rx="1.500000" ry="1.500000" transform="matrix(1 0 0 1 134 34)" fill="rgb(156,119,224)" stroke="none" stroke-width="1"/><rect id="ejh7cd5ikbse13" width="56" height="2" rx="1" ry="1" transform="matrix(1 0 0 1 143 41)" opacity="0.4" fill="rgb(156,119,224)" stroke="none" stroke-width="1"/><rect id="ejh7cd5ikbse14" width="42" height="2" rx="1" ry="1" transform="matrix(1 0 0 1 150 45)" opacity="0.4" fill="rgb(156,119,224)" stroke="none" stroke-width="1"/></g></g></g><g id="ejh7cd5ikbse15_to" transform="translate(123.924770,3.649034)"><g id="ejh7cd5ikbse15_ts" transform="scale(0.523058,0.523058)"><g id="ejh7cd5ikbse15" transform="translate(0,0)"><rect id="ejh7cd5ikbse16" width="168" height="113" rx="0" ry="0" transform="matrix(0.98078582047747 0 0 0.98726537642844 7.21658375858299 118.86734154662592)" fill="rgb(206,211,221)" fill-opacity="0.1" stroke="none" stroke-width="1"/><path id="ejh7cd5ikbse17" d="M30,70.423100C30,69.084800,31.084800,68,32.423100,68L147.115000,68C148.454000,68,149.538000,69.084800,149.538000,70.423100L149.538000,70.423100C149.538000,71.761300,148.454000,72.846200,147.115000,72.846200L32.423100,72.846200C31.084900,72.846200,30,71.761300,30,70.423100L30,70.423100Z" transform="matrix(1 0 0 1 0.23100000394679 0)" fill="rgb(206,211,221)" stroke="none" stroke-width="1"/><path id="ejh7cd5ikbse18" d="M44.538600,80.923100C44.538600,80.030900,45.261800,79.307700,46.154000,79.307700L133.385000,79.307700C134.277000,79.307700,135,80.030900,135,80.923100L135,80.923100C135,81.815200,134.277000,82.538400,133.385000,82.538400L46.154000,82.538400C45.261800,82.538400,44.538600,81.815200,44.538600,80.923100L44.538600,80.923100Z" opacity="0.4" fill="rgb(206,211,221)" stroke="none" stroke-width="1"/><path id="ejh7cd5ikbse19" d="M55.846200,87.384600C55.846200,86.492500,56.569400,85.769200,57.461600,85.769200L122.077000,85.769200C122.969000,85.769200,123.692000,86.492500,123.692000,87.384600L123.692000,87.384600C123.692000,88.276800,122.969000,89,122.077000,89L57.461600,89C56.569400,89,55.846200,88.276800,55.846200,87.384600L55.846200,87.384600Z" opacity="0.4" fill="rgb(206,211,221)" stroke="none" stroke-width="1"/><path id="ejh7cd5ikbse20" d="M160,1L20,1C9.506590,1,1,9.506590,1,20L1,325C1,335.493000,9.506590,344,20,344L160,344C170.493000,344,179,335.493000,179,325L179,20C179,9.506590,170.493000,1,160,1ZM20,0C8.954310,0,0,8.954300,0,20L0,325C0,336.046000,8.954300,345,20,345L160,345C171.046000,345,180,336.046000,180,325L180,20C180,8.954310,171.046000,0,160,0L20,0Z" transform="matrix(1 0 0 1 0.00000000955917 0)" clip-rule="evenodd" fill="rgb(206,211,221)" fill-rule="evenodd" stroke="none" stroke-width="1"/><path id="ejh7cd5ikbse21" d="M158,7L22,7C13.715700,7,7,13.715700,7,22L7,323C7,331.284000,13.715700,338,22,338L158,338C166.284000,338,173,331.284000,173,323L173,22C173,13.715700,166.284000,7,158,7ZM22,6C13.163400,6,6,13.163400,6,22L6,323C6,331.837000,13.163400,339,22,339L158,339C166.837000,339,174,331.837000,174,323L174,22C174,13.163400,166.837000,6,158,6L22,6Z" transform="matrix(1 0 0 1 0.00000000955917 0)" clip-rule="evenodd" fill="rgb(206,211,221)" fill-rule="evenodd" stroke="none" stroke-width="1"/></g></g></g><g id="ejh7cd5ikbse22_to" transform="translate(0,0)"><g id="ejh7cd5ikbse22_ts" transform="scale(1,1)"><g id="ejh7cd5ikbse22" transform="translate(0,0)"><rect id="ejh7cd5ikbse23" display="none" width="25.694900" height="29.720300" rx="5" ry="5" transform="matrix(1 0 0 1 134.88999999999999 79.82200000000000)" fill="none" stroke="rgb(156,119,224)" stroke-width="1"/><rect id="ejh7cd5ikbse24" width="78.237300" height="49" rx="3" ry="3" transform="matrix(1 0 0 1 131.88135000000000 70.50000000000000)" fill="none" stroke="rgb(156,119,224)" stroke-width="1"/></g></g></g><g id="ejh7cd5ikbse25_to" transform="translate(170.536855,39.574505)"><g id="ejh7cd5ikbse25_tk" transform="skewX(0) skewY(10)"><g id="ejh7cd5ikbse25_ts" transform="scale(0.002243,0.294318)"><g id="ejh7cd5ikbse25" transform="translate(0,0)" opacity="0"><rect id="ejh7cd5ikbse26" width="412.634000" height="259" rx="22" ry="22" fill="rgb(243,247,251)" stroke="none" stroke-width="1"/><rect id="ejh7cd5ikbse27" width="413" height="76" rx="0" ry="0" transform="matrix(1 0 0 -1 0 169)" opacity="0.3" fill="rgb(206,211,221)" stroke="none" stroke-width="1"/><rect id="ejh7cd5ikbse28" width="50" height="5" rx="2.500000" ry="2.500000" transform="matrix(1 0 0 1 163 36)" fill="rgb(206,211,221)" stroke="none" stroke-width="1"/><rect id="ejh7cd5ikbse29" width="67" height="5" rx="2.500000" ry="2.500000" transform="matrix(1 0 0 1 163 60)" fill="rgb(206,211,221)" stroke="none" stroke-width="1"/><rect id="ejh7cd5ikbse30" width="41" height="5" rx="2.500000" ry="2.500000" transform="matrix(1 0 0 1 163 112)" fill="rgb(206,211,221)" stroke="none" stroke-width="1"/><rect id="ejh7cd5ikbse31" width="48" height="5" rx="2.500000" ry="2.500000" transform="matrix(1 0 0 1 163 136)" fill="rgb(206,211,221)" stroke="none" stroke-width="1"/><rect id="ejh7cd5ikbse32" width="64" height="10" rx="5" ry="5" transform="matrix(1 0 0 1 163 43)" fill="rgb(206,211,221)" stroke="none" stroke-width="1"/><rect id="ejh7cd5ikbse33" width="370" height="15" rx="7.500000" ry="7.500000" transform="matrix(1 0 0 1 25 229)" fill="rgb(206,211,221)" stroke="none" stroke-width="1"/><rect id="ejh7cd5ikbse34" width="370" height="15" rx="7.500000" ry="7.500000" transform="matrix(1 0 0 1 25 207)" fill="rgb(206,211,221)" stroke="none" stroke-width="1"/><rect id="ejh7cd5ikbse35" width="370" height="15" rx="7.500000" ry="7.500000" transform="matrix(1 0 0 1 25 185)" fill="rgb(206,211,221)" stroke="none" stroke-width="1"/><rect id="ejh7cd5ikbse36" width="67" height="10" rx="5" ry="5" transform="matrix(1 0 0 1 163 67)" fill="rgb(206,211,221)" stroke="none" stroke-width="1"/><rect id="ejh7cd5ikbse37" width="24" height="10" rx="5" ry="5" transform="matrix(1 0 0 1 163 119)" fill="rgb(206,211,221)" stroke="none" stroke-width="1"/><rect id="ejh7cd5ikbse38" width="64" height="10" rx="5" ry="5" transform="matrix(1 0 0 1 163 143)" fill="rgb(206,211,221)" stroke="none" stroke-width="1"/></g></g></g></g><g id="ejh7cd5ikbse39_to" transform="translate(133.817470,55.386257)"><g id="ejh7cd5ikbse39_tk" transform="skewX(0) skewY(0)"><g id="ejh7cd5ikbse39_ts" transform="scale(0.180061,0.180061)"><g id="ejh7cd5ikbse39" transform="translate(0,0)" opacity="0"><rect id="ejh7cd5ikbse40" width="412.634000" height="259" rx="22" ry="22" fill="rgb(243,247,251)" stroke="none" stroke-width="1"/><rect id="ejh7cd5ikbse41" width="413" height="33" rx="0" ry="0" transform="matrix(1 0 0 1 0 20)" opacity="0.3" fill="rgb(206,211,221)" stroke="none" stroke-width="1"/><rect id="ejh7cd5ikbse42" width="413" height="60" rx="0" ry="0" transform="matrix(1 0 0 1 0 169)" opacity="0.3" fill="rgb(206,211,221)" stroke="none" stroke-width="1"/><rect id="ejh7cd5ikbse43" width="413" height="11" rx="0" ry="0" transform="matrix(1 0 0 1 0 60)" opacity="0.3" fill="rgb(206,211,221)" stroke="none" stroke-width="1"/><rect id="ejh7cd5ikbse44" width="126.557000" height="160.698000" rx="20" ry="20" transform="matrix(1 0 0 1 24.13400000000000 47.67960000000000)" fill="rgb(206,211,221)" stroke="none" stroke-width="1"/><path id="ejh7cd5ikbse45" d="M43.373800,79.785100C51.908100,58.589700,75.581100,54.655700,86.707200,55.022500C105.408000,55.022500,123.490000,62.062200,130.626000,79.785100C138.824000,100.145000,133.554000,107.299000,132.969000,122.157000C132.884000,124.304000,135.387000,124.672000,136.482000,126.559000C139.410000,131.603000,138.336000,147.424000,131.212000,150.771000C128.869000,151.872000,125.356000,152.422000,125.356000,156.824000C125.356000,162.877000,119.389000,175.968000,114.815000,179.936000C107.203000,186.539000,115.401000,208,115.401000,208L58.599200,208C58.599200,208,66.797400,186.539000,59.184800,179.936000C54.610700,175.968000,48.644200,162.877000,48.644200,156.824000C48.644200,152.422000,45.130800,151.872000,42.788400,150.771000C35.664300,147.424000,34.590500,131.603000,37.518100,126.559000C38.613000,124.672000,41.116100,124.304000,41.031500,122.157000C40.446100,107.299000,35.175800,100.145000,43.373800,79.785100Z" fill="rgb(137,143,154)" fill-opacity="0" stroke="none" stroke-width="1"/><rect id="ejh7cd5ikbse46" width="33" height="5" rx="2.500000" ry="2.500000" transform="matrix(1 0 0 1 163 49)" fill="rgb(206,211,221)" stroke="none" stroke-width="1"/><rect id="ejh7cd5ikbse47" width="50" height="5" rx="2.500000" ry="2.500000" transform="matrix(1 0 0 1 163 146)" fill="rgb(206,211,221)" stroke="none" stroke-width="1"/><rect id="ejh7cd5ikbse48" width="71" height="5" rx="2.500000" ry="2.500000" transform="matrix(1 0 0 1 25 240)" fill="rgb(206,211,221)" stroke="none" stroke-width="1"/><rect id="ejh7cd5ikbse49" width="67" height="5" rx="2.500000" ry="2.500000" transform="matrix(1 0 0 1 163 170)" fill="rgb(206,211,221)" stroke="none" stroke-width="1"/><rect id="ejh7cd5ikbse50" width="15" height="5" rx="2.500000" ry="2.500000" transform="matrix(1 0 0 1 258 112)" fill="rgb(206,211,221)" stroke="none" stroke-width="1"/><rect id="ejh7cd5ikbse51" width="41" height="5" rx="2.500000" ry="2.500000" transform="matrix(1 0 0 1 308 112)" fill="rgb(206,211,221)" stroke="none" stroke-width="1"/><rect id="ejh7cd5ikbse52" width="48" height="5" rx="2.500000" ry="2.500000" transform="matrix(1 0 0 1 308 136)" fill="rgb(206,211,221)" stroke="none" stroke-width="1"/><rect id="ejh7cd5ikbse53" width="41" height="5" rx="2.500000" ry="5" transform="matrix(1 0 0 1 308 162)" fill="rgb(206,211,221)" stroke="none" stroke-width="1"/><rect id="ejh7cd5ikbse54" width="33" height="5" rx="2.500000" ry="5" transform="matrix(1 0 0 1 163 69)" fill="rgb(206,211,221)" stroke="none" stroke-width="1"/><rect id="ejh7cd5ikbse55" width="40" height="10" rx="5" ry="5" transform="matrix(1 0 0 1 163 56)" fill="rgb(206,211,221)" stroke="none" stroke-width="1"/><rect id="ejh7cd5ikbse56" width="64" height="10" rx="5" ry="5" transform="matrix(1 0 0 1 163 153)" fill="rgb(206,211,221)" stroke="none" stroke-width="1"/><rect id="ejh7cd5ikbse57" width="370" height="15" rx="8" ry="8" transform="matrix(1 0 0 1 25 217)" fill="rgb(206,211,221)" stroke="none" stroke-width="1"/><rect id="ejh7cd5ikbse58" width="67" height="10" rx="5" ry="5" transform="matrix(1 0 0 1 163 177)" fill="rgb(206,211,221)" stroke="none" stroke-width="1"/><rect id="ejh7cd5ikbse59" width="27" height="10" rx="5" ry="5" transform="matrix(1 0 0 1 258 119)" fill="rgb(206,211,221)" stroke="none" stroke-width="1"/><rect id="ejh7cd5ikbse60" width="24" height="10" rx="5" ry="5" transform="matrix(1 0 0 1 308 119)" fill="rgb(206,211,221)" stroke="none" stroke-width="1"/><rect id="ejh7cd5ikbse61" width="64" height="10" rx="5" ry="5" transform="matrix(1 0 0 1 308 143)" fill="rgb(206,211,221)" stroke="none" stroke-width="1"/><rect id="ejh7cd5ikbse62" width="80" height="10" rx="5" ry="5" transform="matrix(1 0 0 1 308 169)" fill="rgb(206,211,221)" stroke="none" stroke-width="1"/><rect id="ejh7cd5ikbse63" width="93" height="10" rx="5" ry="5" transform="matrix(1 0 0 1 163 76)" fill="rgb(206,211,221)" stroke="none" stroke-width="1"/><g id="ejh7cd5ikbse64" transform="matrix(0.77137669946392 0 0 0.77137669946392 38.98196762694327 54.46121267223572)" clip-path="url(#ejh7cd5ikbse2)"><path id="ejh7cd5ikbse65" d="M124.500000,169.800000L124.500000,159.200000C124.500000,147.600000,115,138.100000,103.400000,138.100000L21.100000,138.100000C9.500000,138.100000,0,147.600000,0,159.200000L0,169.800000C17,183.600000,38.600000,192,62.300000,192C85.900000,192,107.500000,183.600000,124.500000,169.800000Z" clip-rule="evenodd" fill="rgb(231,227,231)" fill-rule="evenodd" stroke="none" stroke-width="1"/><path id="ejh7cd5ikbse66" d="M54.299800,191.600000C56.899800,191.800000,59.599800,191.900000,62.299800,191.900000C64.999800,191.900000,67.599800,191.800000,70.199800,191.600000L66.699800,168.400000L62.299800,166.800000L57.899800,168.400000L54.299800,191.600000Z" clip-rule="evenodd" fill="rgb(156,119,224)" fill-rule="evenodd" stroke="none" stroke-width="1"/><path id="ejh7cd5ikbse67" d="M70.399900,158.400000L66.599900,168.500000L62.199900,168.500000L57.799900,168.500000L53.899900,158.400000L55.899900,156.700000L62.199900,155.200000L68.499900,156.700000L70.399900,158.400000Z" clip-rule="evenodd" fill="rgb(48,41,94)" fill-rule="evenodd" stroke="none" stroke-width="1"/><path id="ejh7cd5ikbse68" d="M124.500000,169.800000L124.500000,159.200000C124.500000,147.600000,115,138.100000,103.400000,138.100000L71.900000,138.100000L70.200000,139.100000L76.100000,157.300000L72.300000,191.400000C92,189.500000,110,181.700000,124.500000,169.800000ZM0,169.800000L0,159.200000C0,147.600000,9.500000,138.100000,21.100000,138.100000L52.600000,138.100000L54.300000,139.100000L48.400000,157.300000L52.200000,191.400000C32.500000,189.500000,14.500000,181.700000,0,169.800000Z" clip-rule="evenodd" fill="rgb(76,59,130)" fill-rule="evenodd" stroke="none" stroke-width="1"/><path id="ejh7cd5ikbse69" d="M74.299800,151.900000L76.099800,157.400000L72.299800,191.500000C76.299800,191.100000,80.299800,190.400000,84.099800,189.600000L91.799800,174.700000L82.399800,145C79.499800,145.700000,76.799800,148.300000,74.299800,151.900000Z" clip-rule="evenodd" fill="rgb(48,41,94)" fill-rule="evenodd" stroke="none" stroke-width="1"/><path id="ejh7cd5ikbse70" d="M62.299800,88.500000C71.699800,88.500000,79.299800,96.200000,79.299800,105.500000L79.299800,138.100000C79.299800,147.500000,71.599800,155.100000,62.299800,155.100000C52.899800,155.100000,45.299800,147.400000,45.299800,138.100000L45.299800,105.500000C45.199800,96.100000,52.899800,88.500000,62.299800,88.500000Z" clip-rule="evenodd" fill="rgb(233,186,168)" fill-rule="evenodd" stroke="none" stroke-width="1"/><path id="ejh7cd5ikbse71" d="M62.300200,88.500000C71.700200,88.500000,79.300200,96.200000,79.300200,105.500000L79.300200,133.500000C74.800200,135.600000,69.800200,136.800000,64.600200,136.800000C57.500200,136.800000,50.800200,134.600000,45.200200,130.800000L45.200200,105.500000C45.200200,96.100000,52.900200,88.500000,62.300200,88.500000Z" clip-rule="evenodd" fill="rgb(225,170,149)" fill-rule="evenodd" stroke="none" stroke-width="1"/><path id="ejh7cd5ikbse72" d="M17.199900,83.400000C16.999900,89.400000,21.799900,94.400000,27.799900,94.500000C27.999900,94.500000,28.099900,94.500000,28.299900,94.500000C27.199900,90.600000,26.599900,86.700000,26.599900,83L26.599900,79.700000C26.599900,73,17.499900,73.400000,17.199900,83.400000Z" clip-rule="evenodd" fill="rgb(225,170,149)" fill-rule="evenodd" stroke="none" stroke-width="1"/><path id="ejh7cd5ikbse73" d="M107.300000,83.400000C107.500000,89.400000,102.700000,94.400000,96.699700,94.500000C96.499700,94.500000,96.399700,94.500000,96.199700,94.500000C97.299700,90.600000,97.899700,86.700000,97.899700,83L97.899700,79.700000C97.899700,73,107,73.400000,107.300000,83.400000Z" clip-rule="evenodd" fill="rgb(225,170,149)" fill-rule="evenodd" stroke="none" stroke-width="1"/><path id="ejh7cd5ikbse74" d="M62.300100,20.500000C42.700100,20.500000,26.600100,37.100000,26.600100,57.400000L26.600100,90.900000C26.600100,111.200000,42.700100,127.800000,62.300100,127.800000C81.900100,127.800000,98.000100,111.200000,98.000100,90.900000L98.000100,57.400000C97.900100,37.100000,81.900100,20.500000,62.300100,20.500000Z" clip-rule="evenodd" fill="rgb(233,186,168)" fill-rule="evenodd" stroke="none" stroke-width="1"/><path id="ejh7cd5ikbse75" d="M64.100200,88.200000C64.800200,90.200000,66.000200,93.700000,65.900200,94.300000C65.800200,95.100000,61.600200,95.300000,60.600200,94.100000C59.900200,93.300000,60.800200,90.400000,61.600200,88.400000C62.600200,85.700000,63.200200,85.600000,64.100200,88.200000Z" clip-rule="evenodd" fill="rgb(241,211,200)" fill-rule="evenodd" stroke="none" stroke-width="1"/><path id="ejh7cd5ikbse76" d="M49.899900,66C50.699900,66.400000,50.999900,67.300000,50.699900,68.100000C50.299900,68.900000,49.399900,69.200000,48.599900,68.900000C48.599900,68.900000,43.899900,66.700000,39.399900,69.500000C38.699900,70,37.699900,69.700000,37.199900,69C36.699900,68.300000,36.999900,67.300000,37.699900,66.800000C43.699900,63.100000,49.899900,66,49.899900,66Z" clip-rule="evenodd" fill="rgb(48,41,94)" fill-rule="evenodd" stroke="none" stroke-width="1"/><path id="ejh7cd5ikbse77" d="M86.599900,66.700000C87.399900,67.100000,87.599900,68.100000,87.199900,68.800000C86.799900,69.600000,85.799900,69.800000,85.099900,69.400000C85.099900,69.400000,80.599900,66.800000,75.899900,69.200000C75.099900,69.600000,74.199900,69.300000,73.799900,68.500000C73.399900,67.700000,73.699900,66.800000,74.499900,66.400000C80.699900,63.300000,86.599900,66.700000,86.599900,66.700000Z" clip-rule="evenodd" fill="rgb(48,41,94)" fill-rule="evenodd" stroke="none" stroke-width="1"/><path id="ejh7cd5ikbse78" d="M102.700000,75.300000C102.700000,75.300000,97.900100,75.400000,97.900100,79.700000C97.900100,79.700000,94.500100,75.300000,95.200100,69.700000C95.200100,69.700000,86.100100,59,86.500100,47.100000C86.900100,35.200000,96.200100,32.600000,96.200100,32.600000C118.500000,39.200000,102.700000,55,102.700000,75.300000Z" clip-rule="evenodd" fill="rgb(48,41,94)" fill-rule="evenodd" stroke="none" stroke-width="1"/><path id="ejh7cd5ikbse79" d="M21.799800,75.300000C21.799800,75.300000,26.599800,75.400000,26.599800,79.700000C26.599800,79.700000,29.999800,75.300000,29.299800,69.700000C29.299800,69.700000,38.399800,59,37.999800,47.100000C37.599800,35.200000,28.299800,32.600000,28.299800,32.600000C5.999810,39.200000,21.799800,55,21.799800,75.300000Z" clip-rule="evenodd" fill="rgb(48,41,94)" fill-rule="evenodd" stroke="none" stroke-width="1"/><path id="ejh7cd5ikbse80" d="M74.700000,11.500000C77.600000,10,81,9.100000,84.500000,9.100000C96.100000,9.100000,105.600000,18.500000,105.600000,30.200000C105.600000,41.800000,96.200000,51.300000,84.500000,51.300000C78.900000,51.300000,73.800000,49.100000,70,45.600000C67.900000,49.700000,63.600000,52.500000,58.700000,52.500000C55,52.500000,51.700000,50.900000,49.400000,48.400000C47.100000,51.600000,43.300000,53.600000,39.100000,53.600000C34.200000,53.600000,29.900000,50.800000,27.700000,46.700000C19.600000,44.800000,13.500000,37.600000,13.500000,28.900000C13.500000,18.800000,21.700000,10.600000,31.800000,10.600000C33.800000,10.600000,35.700000,10.900000,37.500000,11.500000C40.900000,4.700000,47.900000,0,56,0C64.200000,0,71.200000,4.700000,74.700000,11.500000Z" clip-rule="evenodd" fill="rgb(48,41,94)" fill-rule="evenodd" stroke="none" stroke-width="1"/><path id="ejh7cd5ikbse81" d="M62.299800,155.200000L74.299800,166.700000C74.299800,166.700000,78.799800,169.300000,80.499800,165.500000C82.299800,161.700000,87.599800,138.100000,87.599800,138.100000L79.199800,135C79.299800,135,78.799800,149.600000,62.299800,155.200000Z" clip-rule="evenodd" fill="rgb(255,255,255)" fill-rule="evenodd" stroke="none" stroke-width="1"/><path id="ejh7cd5ikbse82" d="M109.600000,143.800000C109.800000,143.600000,110.100000,143.600000,110.300000,143.800000C110.500000,144,110.500000,144.300000,110.300000,144.500000C110.300000,144.500000,106,149,106,159.700000L106,181.800000C105.700000,182,105.400000,182.100000,105,182.300000L105,159.700000C105,148.500000,109.600000,143.800000,109.600000,143.800000Z" clip-rule="evenodd" fill="rgb(28,19,65)" fill-rule="evenodd" stroke="none" stroke-width="1"/><path id="ejh7cd5ikbse83" d="M50.200200,151.900000L48.400200,157.400000L52.200200,191.500000C48.200200,191.100000,44.200200,190.400000,40.400200,189.600000L32.700200,174.700000L42.100200,145C45.000200,145.700000,47.700200,148.300000,50.200200,151.900000Z" clip-rule="evenodd" fill="rgb(48,41,94)" fill-rule="evenodd" stroke="none" stroke-width="1"/><path id="ejh7cd5ikbse84" d="M62.300000,155.200000L50.300000,166.700000C50.300000,166.700000,45.800000,169.300000,44.100000,165.500000C42.300000,161.700000,37,138.100000,37,138.100000L45.400000,135C45.200000,135,45.700000,149.600000,62.300000,155.200000Z" clip-rule="evenodd" fill="rgb(255,255,255)" fill-rule="evenodd" stroke="none" stroke-width="1"/><path id="ejh7cd5ikbse85" d="M14.899800,143.800000C14.699800,143.600000,14.399800,143.600000,14.199800,143.800000C13.999800,144,13.999800,144.300000,14.199800,144.500000C14.199800,144.500000,18.499800,149,18.499800,159.700000L18.499800,181.800000C18.799800,182,19.099800,182.100000,19.499800,182.300000L19.499800,159.700000C19.499800,148.500000,14.899800,143.800000,14.899800,143.800000Z" clip-rule="evenodd" fill="rgb(28,19,65)" fill-rule="evenodd" stroke="none" stroke-width="1"/><path id="ejh7cd5ikbse86" d="M44.400000,86.500000C46.800000,86.500000,48.800000,84.500000,48.800000,82.100000C48.800000,79.700000,46.800000,77.700000,44.400000,77.700000C42,77.700000,40,79.700000,40,82.100000C40,84.500000,42,86.500000,44.400000,86.500000Z" clip-rule="evenodd" fill="rgb(48,41,94)" fill-rule="evenodd" stroke="none" stroke-width="1"/><path id="ejh7cd5ikbse87" d="M80.100200,86.500000C82.500200,86.500000,84.500200,84.500000,84.500200,82.100000C84.500200,79.700000,82.500200,77.700000,80.100200,77.700000C77.700200,77.700000,75.700200,79.700000,75.700200,82.100000C75.700200,84.500000,77.600200,86.500000,80.100200,86.500000Z" clip-rule="evenodd" fill="rgb(48,41,94)" fill-rule="evenodd" stroke="none" stroke-width="1"/><path id="ejh7cd5ikbse88" d="M70.100000,102.100000C70.100000,106.400000,66.600000,109.900000,62.300000,109.900000C58,109.900000,54.500000,106.400000,54.500000,102.100000C54.500000,101.300000,55.100000,100.700000,55.900000,100.700000L68.600000,100.700000C69.400000,100.700000,70.100000,101.400000,70.100000,102.100000Z" clip-rule="evenodd" fill="rgb(255,255,255)" fill-rule="evenodd" stroke="none" stroke-width="1"/></g></g></g></g></g><g id="ejh7cd5ikbse89_to" transform="translate(0,0)"><g id="ejh7cd5ikbse89_ts" transform="scale(1,1)"><g id="ejh7cd5ikbse89" transform="translate(0,0)"><path id="ejh7cd5ikbse90" d="M45,245C45,238.373000,50.372600,233,57,233L123.857000,233C130.485000,233,135.857000,238.373000,135.857000,245L135.857000,245C135.857000,251.627000,130.485000,257,123.857000,257L57,257C50.372600,257,45,251.627000,45,245L45,245Z" transform="matrix(0.53506566739649 0 0 0.53506566739649 123.18665580099692 10.63209524743062)" fill="rgb(206,211,221)" stroke="none" stroke-width="1"/><path id="ejh7cd5ikbse91" d="M60.428500,245C60.428500,243.106000,61.963500,241.571000,63.857000,241.571000L117,241.571000C118.893000,241.571000,120.428000,243.106000,120.428000,245L120.428000,245C120.428000,246.894000,118.893000,248.429000,117,248.429000L63.857000,248.429000C61.963500,248.429000,60.428500,246.894000,60.428500,245L60.428500,245Z" transform="matrix(0.53506566739649 0 0 0.53506566739649 122.61494806499999 10.63209524500012)" opacity="0.2" fill="rgb(255,255,255)" stroke="none" stroke-width="1"/></g></g></g><g id="ejh7cd5ikbse92_to" transform="translate(159.836857,116.295778)"><g id="ejh7cd5ikbse92_ts" transform="scale(0.194142,0.194142)"><g id="ejh7cd5ikbse92" transform="translate(0,0)" opacity="0"><rect id="ejh7cd5ikbse93" width="115" height="115" rx="60" ry="60" fill="rgb(71,218,174)" stroke="none" stroke-width="1"/><rect id="ejh7cd5ikbse94" width="6.052630" height="26.170700" rx="3.026320" ry="0" transform="matrix(0.70710700000000 -0.70710700000000 0.70710700000000 0.70710700000000 35.78388788810000 56.92439553350001)" fill="rgb(255,255,255)" stroke="none" stroke-width="1"/><rect id="ejh7cd5ikbse95" width="6.052630" height="42.056300" rx="3.026320" ry="0" transform="matrix(0.70710700000000 0.70710700000000 -0.70710700000000 0.70710700000000 79.74803679480002 41.41160127720002)" fill="rgb(255,255,255)" stroke="none" stroke-width="1"/></g></g></g><g id="ejh7cd5ikbse96_to" style="offset-path:path('M241.367919,198.089065C232.736431,176.545885,206.161123,176.520414,166.766857,171.518244');offset-rotate:0deg"><g id="ejh7cd5ikbse96" display="none" transform="scale(0.449494,0.449494) translate(0,0)"><path id="ejh7cd5ikbse97" d="M9.952560,22.255200C9.434090,21.546900,8.915620,20.307400,7.878680,18.713800C7.360220,17.828500,5.804810,16.057800,5.286340,15.349600C4.940700,14.641300,4.940700,14.287200,5.113520,13.578900C5.286340,12.516500,6.323280,11.631200,7.533040,11.631200C8.397150,11.631200,9.261270,12.339400,9.952560,12.870600C10.298200,13.224800,10.816700,13.933000,11.162300,14.287200C11.508000,14.641300,11.508000,14.818400,11.853600,15.172500C12.199300,15.703700,12.372100,16.057800,12.199300,15.349600C12.026400,14.464200,11.853600,13.047700,11.508000,11.631200C11.335100,10.568800,11.162300,10.391700,10.989500,9.683440C10.816700,8.798110,10.643800,8.266910,10.471000,7.381570C10.298200,6.850370,10.125400,5.433840,9.952560,4.725570C9.779730,3.840240,9.779740,2.246640,10.471000,1.538370C10.989500,1.007170,12.026400,0.830108,12.717700,1.184240C13.581800,1.715440,14.100300,2.954910,14.273100,3.486110C14.618800,4.371440,14.964400,5.610910,15.137200,7.027440C15.482900,8.798110,16.001400,11.454100,16.001400,11.985300C16.001400,11.277000,15.828500,10.037600,16.001400,9.329310C16.174200,8.798110,16.519800,8.089840,17.211100,7.912770C17.729600,7.735710,18.248000,7.735710,18.766500,7.735710C19.285000,7.912770,19.803500,8.266910,20.149100,8.621040C20.840400,9.683440,20.840400,11.985300,20.840400,11.808200C21.013200,11.100000,21.013200,9.683440,21.358900,8.975170C21.531700,8.621040,22.223000,8.266910,22.568600,8.089840C23.087100,7.912770,23.778400,7.912770,24.296800,8.089840C24.642500,8.089840,25.333800,8.621040,25.506600,8.975170C25.852300,9.506370,26.025100,11.277000,26.197900,11.985300C26.197900,12.162400,26.370700,11.277000,26.716400,10.745800C27.407700,9.683440,29.827200,9.329310,30,11.808200C30,13.047700,30,12.870600,30,13.756000C30,14.641300,30,15.172500,30,15.880800C30,16.589000,29.827200,18.182600,29.654400,18.890900C29.481500,19.422100,28.963100,20.661600,28.444600,21.369800C28.444600,21.369800,26.543500,23.494600,26.370700,24.557000C26.197900,25.619400,26.197900,25.619400,26.197900,26.327700C26.197900,27.036000,26.370700,27.921300,26.370700,27.921300C26.370700,27.921300,24.988100,28.098400,24.296800,27.921300C23.605600,27.744200,22.741400,26.504800,22.568600,25.973600C22.223000,25.442400,21.704500,25.442400,21.358900,25.973600C21.013200,26.681800,20.149100,27.921300,19.457800,27.921300C18.248000,28.098400,15.828500,27.921300,14.100300,27.921300C14.100300,27.921300,14.445900,26.150600,13.754700,25.442400C13.236200,24.911200,12.372100,24.025800,11.853600,23.494600L9.952560,22.255200Z" fill="rgb(255,255,255)" stroke="none" stroke-width="1"/><path id="ejh7cd5ikbse98" d="M9.952560,22.255200C9.434090,21.546900,8.915620,20.307400,7.878680,18.713800C7.360220,17.828500,5.804810,16.057800,5.286340,15.349600C4.940700,14.641300,4.940700,14.287200,5.113520,13.578900C5.286340,12.516500,6.323280,11.631200,7.533040,11.631200C8.397150,11.631200,9.261270,12.339400,9.952560,12.870600C10.298200,13.224800,10.816700,13.933000,11.162300,14.287200C11.508000,14.641300,11.508000,14.818400,11.853600,15.172500C12.199300,15.703700,12.372100,16.057800,12.199300,15.349600C12.026400,14.464200,11.853600,13.047700,11.508000,11.631200C11.335100,10.568800,11.162300,10.391700,10.989500,9.683440C10.816700,8.798110,10.643800,8.266910,10.471000,7.381570C10.298200,6.850370,10.125400,5.433840,9.952560,4.725570C9.779730,3.840240,9.779740,2.246640,10.471000,1.538370C10.989500,1.007170,12.026400,0.830108,12.717700,1.184240C13.581800,1.715440,14.100300,2.954910,14.273100,3.486110C14.618800,4.371440,14.964400,5.610910,15.137200,7.027440C15.482900,8.798110,16.001400,11.454100,16.001400,11.985300C16.001400,11.277000,15.828500,10.037600,16.001400,9.329310C16.174200,8.798110,16.519800,8.089840,17.211100,7.912770C17.729600,7.735710,18.248000,7.735710,18.766500,7.735710C19.285000,7.912770,19.803500,8.266910,20.149100,8.621040C20.840400,9.683440,20.840400,11.985300,20.840400,11.808200C21.013200,11.100000,21.013200,9.683440,21.358900,8.975170C21.531700,8.621040,22.223000,8.266910,22.568600,8.089840C23.087100,7.912770,23.778400,7.912770,24.296800,8.089840C24.642500,8.089840,25.333800,8.621040,25.506600,8.975170C25.852300,9.506370,26.025100,11.277000,26.197900,11.985300C26.197900,12.162400,26.370700,11.277000,26.716400,10.745800C27.407700,9.683440,29.827200,9.329310,30,11.808200C30,13.047700,30,12.870600,30,13.756000C30,14.641300,30,15.172500,30,15.880800C30,16.589000,29.827200,18.182600,29.654400,18.890900C29.481500,19.422100,28.963100,20.661600,28.444600,21.369800C28.444600,21.369800,26.543500,23.494600,26.370700,24.557000C26.197900,25.619400,26.197900,25.619400,26.197900,26.327700C26.197900,27.036000,26.370700,27.921300,26.370700,27.921300C26.370700,27.921300,24.988100,28.098400,24.296800,27.921300C23.605600,27.744200,22.741400,26.504800,22.568600,25.973600C22.223000,25.442400,21.704500,25.442400,21.358900,25.973600C21.013200,26.681800,20.149100,27.921300,19.457800,27.921300C18.248000,28.098400,15.828500,27.921300,14.100300,27.921300C14.100300,27.921300,14.445900,26.150600,13.754700,25.442400C13.236200,24.911200,12.372100,24.025800,11.853600,23.494600L9.952560,22.255200Z" fill="none" stroke="rgb(0,0,0)" stroke-width="0.750000" stroke-linecap="round" stroke-linejoin="round"/><path id="ejh7cd5ikbse99" d="M24.010500,22.956300L24.010500,16.936000" fill="none" stroke="rgb(0,0,0)" stroke-width="0.750000" stroke-linecap="round"/><path id="ejh7cd5ikbse100" d="M20.726900,22.956300L20.554100,16.936000" fill="none" stroke="rgb(0,0,0)" stroke-width="0.750000" stroke-linecap="round"/><path id="ejh7cd5ikbse101" d="M17.097500,16.936000L17.097500,22.956300" fill="none" stroke="rgb(0,0,0)" stroke-width="0.750000" stroke-linecap="round"/></g></g></g></svg>