<svg id="etq0mvwe26gk1" xmlns="http://www.w3.org/2000/svg" xmlns:xlink="http://www.w3.org/1999/xlink" viewBox="0 0 342 196" shape-rendering="geometricPrecision" text-rendering="geometricPrecision"><style><![CDATA[#etq0mvwe26gk4 {animation: etq0mvwe26gk4_c_o 6000ms linear infinite normal forwards}@keyframes etq0mvwe26gk4_c_o { 0% {opacity: 0} 3.333333% {opacity: 1} 96.666667% {opacity: 1} 100% {opacity: 0} }#etq0mvwe26gk5_to {animation: etq0mvwe26gk5_to__to 6000ms linear infinite normal forwards}@keyframes etq0mvwe26gk5_to__to { 0% {transform: translate(40.344587px,22.635773px)} 6.666667% {transform: translate(40.344587px,22.635773px)} 16.666667% {transform: translate(40.344587px,22.635773px);animation-timing-function: cubic-bezier(0.420000,0,0.580000,1)} 21.666667% {transform: translate(-119.579356px,-86.189747px)} 100% {transform: translate(-119.579356px,-86.189747px)} }#etq0mvwe26gk5_ts {animation: etq0mvwe26gk5_ts__ts 6000ms linear infinite normal forwards}@keyframes etq0mvwe26gk5_ts__ts { 0% {transform: scale(0.765746,0.765746)} 6.666667% {transform: scale(0.765746,0.765746)} 16.666667% {transform: scale(0.765746,0.765746);animation-timing-function: cubic-bezier(0.420000,0,0.580000,1)} 21.666667% {transform: scale(1.703030,1.703030)} 100% {transform: scale(1.703030,1.703030)} }#etq0mvwe26gk11 {animation: etq0mvwe26gk11_f_o 6000ms linear infinite normal forwards}@keyframes etq0mvwe26gk11_f_o { 0% {fill-opacity: 0.100000} 6.666667% {fill-opacity: 0.100000} 16.666667% {fill-opacity: 0.100000} 21.666667% {fill-opacity: 0} 100% {fill-opacity: 0} }#etq0mvwe26gk15_to {animation: etq0mvwe26gk15_to__to 6000ms linear infinite normal forwards}@keyframes etq0mvwe26gk15_to__to { 0% {transform: translate(122.930771px,9.696299px)} 6.666667% {transform: translate(122.930771px,9.696299px)} 16.666667% {transform: translate(122.930771px,9.696299px)} 21.666667% {transform: translate(72.449379px,-105.691893px)} 100% {transform: translate(72.449379px,-105.691893px)} }#etq0mvwe26gk15_ts {animation: etq0mvwe26gk15_ts__ts 6000ms linear infinite normal forwards}@keyframes etq0mvwe26gk15_ts__ts { 0% {transform: scale(0.516486,0.511906)} 6.666667% {transform: scale(0.516486,0.511906)} 16.666667% {transform: scale(0.516486,0.511906)} 21.666667% {transform: scale(1.123075,1.123075)} 100% {transform: scale(1.123075,1.123075)} }#etq0mvwe26gk15 {animation: etq0mvwe26gk15_c_o 6000ms linear infinite normal forwards}@keyframes etq0mvwe26gk15_c_o { 0% {opacity: 1} 25% {opacity: 1} 30% {opacity: 0} 100% {opacity: 0} }#etq0mvwe26gk22_to {animation: etq0mvwe26gk22_to__to 6000ms linear infinite normal forwards}@keyframes etq0mvwe26gk22_to__to { 0% {transform: translate(133.334041px,61.537931px)} 23.333333% {transform: translate(133.334041px,61.537931px);animation-timing-function: cubic-bezier(0.445000,0.050000,0.550000,0.950000)} 27.833333% {transform: translate(110.693580px,43.185919px);animation-timing-function: cubic-bezier(0.445000,0.050000,0.550000,0.950000)} 31.666667% {transform: translate(108.723239px,60.250640px);animation-timing-function: cubic-bezier(0.110000,0.660000,0.225000,0.870000)} 38.333333% {transform: translate(100.394456px,67.771520px);animation-timing-function: cubic-bezier(0.110000,0.660000,0.225000,0.870000)} 46.666667% {transform: translate(113.580301px,43.185919px);animation-timing-function: cubic-bezier(0.110000,0.660000,0.225000,0.870000)} 56.666667% {transform: translate(102.659741px,39.445391px)} 100% {transform: translate(102.659741px,39.445391px)} }#etq0mvwe26gk22_ts {animation: etq0mvwe26gk22_ts__ts 6000ms linear infinite normal forwards}@keyframes etq0mvwe26gk22_ts__ts { 0% {transform: scale(0.180061,0.180061)} 23.333333% {transform: scale(0.180061,0.180061);animation-timing-function: cubic-bezier(0.445000,0.050000,0.550000,0.950000)} 27.833333% {transform: scale(0.294318,0.294318);animation-timing-function: cubic-bezier(0.445000,0.050000,0.550000,0.950000)} 31.666667% {transform: scale(0.294318,0.294318);animation-timing-function: cubic-bezier(0.110000,0.660000,0.225000,0.870000)} 38.333333% {transform: scale(0.294318,0.294318);animation-timing-function: cubic-bezier(0.110000,0.660000,0.225000,0.870000)} 46.666667% {transform: scale(0.294318,0.294318);animation-timing-function: cubic-bezier(0.110000,0.660000,0.225000,0.870000)} 56.666667% {transform: scale(0.327556,0.327556)} 100% {transform: scale(0.327556,0.327556)} }#etq0mvwe26gk22 {animation: etq0mvwe26gk22_c_o 6000ms linear infinite normal forwards}@keyframes etq0mvwe26gk22_c_o { 0% {opacity: 0} 23.333333% {opacity: 0;animation-timing-function: cubic-bezier(0.445000,0.050000,0.550000,0.950000)} 27.833333% {opacity: 1;animation-timing-function: cubic-bezier(0.445000,0.050000,0.550000,0.950000)} 31.666667% {opacity: 1} 100% {opacity: 1} }#etq0mvwe26gk47_to {animation: etq0mvwe26gk47_to__to 6000ms linear infinite normal forwards}@keyframes etq0mvwe26gk47_to__to { 0% {transform: translate(135.946467px,35.953592px)} 23.333333% {transform: translate(135.946467px,35.953592px);animation-timing-function: cubic-bezier(0.445000,0.050000,0.550000,0.950000)} 27.833333% {transform: translate(114.615348px,-0px);animation-timing-function: cubic-bezier(0.445000,0.050000,0.550000,0.950000)} 31.666667% {transform: translate(104.313187px,-12.995048px);animation-timing-function: cubic-bezier(0.110000,0.660000,0.225000,0.870000)} 38.333333% {transform: translate(109.309053px,-72.502318px);animation-timing-function: cubic-bezier(0.110000,0.660000,0.225000,0.870000)} 46.666667% {transform: translate(112.819006px,-29.005378px);animation-timing-function: cubic-bezier(0.110000,0.660000,0.225000,0.870000)} 56.666667% {transform: translate(102.063310px,-58.159351px)} 100% {transform: translate(102.063310px,-58.159351px)} }#etq0mvwe26gk47_ts {animation: etq0mvwe26gk47_ts__ts 6000ms linear infinite normal forwards}@keyframes etq0mvwe26gk47_ts__ts { 0% {transform: scale(0.180061,0.180061)} 23.333333% {transform: scale(0.180061,0.180061);animation-timing-function: cubic-bezier(0.445000,0.050000,0.550000,0.950000)} 27.833333% {transform: scale(0.294318,0.294318);animation-timing-function: cubic-bezier(0.445000,0.050000,0.550000,0.950000)} 31.666667% {transform: scale(0.294318,0.294318);animation-timing-function: cubic-bezier(0.110000,0.660000,0.225000,0.870000)} 38.333333% {transform: scale(0.391039,0.391039);animation-timing-function: cubic-bezier(0.110000,0.660000,0.225000,0.870000)} 46.666667% {transform: scale(0.294318,0.294318);animation-timing-function: cubic-bezier(0.110000,0.660000,0.225000,0.870000)} 56.666667% {transform: scale(0.356173,0.356173)} 100% {transform: scale(0.356173,0.356173)} }#etq0mvwe26gk47 {animation: etq0mvwe26gk47_c_o 6000ms linear infinite normal forwards}@keyframes etq0mvwe26gk47_c_o { 0% {opacity: 0} 23.333333% {opacity: 0;animation-timing-function: cubic-bezier(0.445000,0.050000,0.550000,0.950000)} 27.833333% {opacity: 1;animation-timing-function: cubic-bezier(0.445000,0.050000,0.550000,0.950000)} 31.666667% {opacity: 1} 100% {opacity: 1} }#etq0mvwe26gk122_to {animation: etq0mvwe26gk122_to__to 6000ms linear infinite normal forwards}@keyframes etq0mvwe26gk122_to__to { 0% {transform: translate(14.398488px,-3.680645px)} 6.666667% {transform: translate(14.398488px,-3.680645px)} 16.666667% {transform: translate(14.398488px,-3.680645px)} 21.666667% {transform: translate(-148.905040px,-118.148127px)} 66% {transform: translate(-148.905040px,-118.148127px);animation-timing-function: cubic-bezier(0.420000,0,0.580000,1)} 69.666667% {transform: translate(-128.974542px,-101.041792px);animation-timing-function: cubic-bezier(0.420000,0,0.580000,1)} 71.333333% {transform: translate(-148.905040px,-118.148127px)} 100% {transform: translate(-148.905040px,-118.148127px)} }#etq0mvwe26gk122_ts {animation: etq0mvwe26gk122_ts__ts 6000ms linear infinite normal forwards}@keyframes etq0mvwe26gk122_ts__ts { 0% {transform: scale(0.919164,0.919164)} 6.666667% {transform: scale(0.919164,0.919164)} 16.666667% {transform: scale(0.919164,0.919164)} 21.666667% {transform: scale(1.904700,1.904700)} 66% {transform: scale(1.904700,1.904700);animation-timing-function: cubic-bezier(0.420000,0,0.580000,1)} 69.666667% {transform: scale(1.781808,1.781808);animation-timing-function: cubic-bezier(0.420000,0,0.580000,1)} 71.333333% {transform: scale(1.904700,1.904700)} 100% {transform: scale(1.904700,1.904700)} }#etq0mvwe26gk125_to {animation: etq0mvwe26gk125_to__to 6000ms linear infinite normal forwards}@keyframes etq0mvwe26gk125_to__to { 0% {transform: translate(0px,0px)} 6.666667% {transform: translate(0px,0px)} 16.666667% {transform: translate(0px,0px)} 21.666667% {transform: translate(-142.028534px,-94.255386px)} 100% {transform: translate(-142.028534px,-94.255386px)} }#etq0mvwe26gk125_ts {animation: etq0mvwe26gk125_ts__ts 6000ms linear infinite normal forwards}@keyframes etq0mvwe26gk125_ts__ts { 0% {transform: scale(1,1)} 6.666667% {transform: scale(1,1)} 16.666667% {transform: scale(1,1)} 21.666667% {transform: scale(1.847953,1.847953)} 100% {transform: scale(1.847953,1.847953)} }#etq0mvwe26gk125 {animation: etq0mvwe26gk125_c_o 6000ms linear infinite normal forwards}@keyframes etq0mvwe26gk125_c_o { 0% {opacity: 1} 73.333333% {opacity: 1} 77% {opacity: 0} 100% {opacity: 0} }#etq0mvwe26gk128_to {animation: etq0mvwe26gk128_to__to 6000ms linear infinite normal forwards}@keyframes etq0mvwe26gk128_to__to { 0% {transform: translate(161.671239px,115.411867px)} 71.166667% {transform: translate(161.671239px,115.411867px);animation-timing-function: cubic-bezier(0.420000,0,0.580000,1)} 73.666667% {transform: translate(147.742670px,100.791516px);animation-timing-function: cubic-bezier(0.420000,0,0.580000,1)} 75.166667% {transform: translate(152.595155px,105.903431px)} 100% {transform: translate(152.595155px,105.903431px)} }#etq0mvwe26gk128_ts {animation: etq0mvwe26gk128_ts__ts 6000ms linear infinite normal forwards}@keyframes etq0mvwe26gk128_ts__ts { 0% {transform: scale(0.194142,0.194142)} 71.166667% {transform: scale(0.194142,0.194142);animation-timing-function: cubic-bezier(0.420000,0,0.580000,1)} 73.666667% {transform: scale(0.448409,0.448409);animation-timing-function: cubic-bezier(0.420000,0,0.580000,1)} 75.166667% {transform: scale(0.359506,0.359506)} 100% {transform: scale(0.359506,0.359506)} }#etq0mvwe26gk128 {animation: etq0mvwe26gk128_c_o 6000ms linear infinite normal forwards}@keyframes etq0mvwe26gk128_c_o { 0% {opacity: 0} 71.166667% {opacity: 0;animation-timing-function: cubic-bezier(0.420000,0,0.580000,1)} 73.666667% {opacity: 1;animation-timing-function: cubic-bezier(0.420000,0,0.580000,1)} 75.166667% {opacity: 1} 100% {opacity: 1} }#etq0mvwe26gk132_to {animation: etq0mvwe26gk132_to__to 6000ms linear infinite normal forwards}@keyframes etq0mvwe26gk132_to__to { 0% {offset-distance: 0%} 53.666667% {offset-distance: 0%;animation-timing-function: cubic-bezier(0.470000,0,0.745000,0.715000)} 59.833333% {offset-distance: 100%} 100% {offset-distance: 100%} }]]></style><defs><clipPath id="etq0mvwe26gk2"><rect id="etq0mvwe26gk3" width="124.500000" height="192" rx="0" ry="0" fill="rgb(255,255,255)" stroke="none" stroke-width="1"/></clipPath></defs><g id="etq0mvwe26gk4" opacity="0"><g id="etq0mvwe26gk5_to" transform="translate(40.344587,22.635773)"><g id="etq0mvwe26gk5_ts" transform="scale(0.765746,0.765746)"><g id="etq0mvwe26gk5" display="none" transform="translate(0,0)"><path id="etq0mvwe26gk6" d="M26.312500,8C26.312500,3.857870,29.670400,0.500000,33.812500,0.500000L307.437000,0.500000C311.580000,0.500000,314.937000,3.857860,314.937000,8L314.937000,187.187000L26.312500,187.187000L26.312500,8Z" transform="matrix(1 0 0 1 -0.12474999999997 0.09584607766604)" fill="rgb(255,255,255)" stroke="rgb(156,119,224)" stroke-width="1"/><rect id="etq0mvwe26gk7" width="279" height="174" rx="0" ry="0" transform="matrix(1 0 0 1 31.12500000000000 8.81258000000000)" fill="none" stroke="rgb(156,119,224)" stroke-width="1"/><path id="etq0mvwe26gk8" d="M0.514903,187.750000C0.773367,192.074000,4.361540,195.500000,8.750000,195.500000L332.500000,195.500000C336.888000,195.500000,340.477000,192.074000,340.735000,187.750000L0.514903,187.750000Z" fill="rgb(255,255,255)" stroke="rgb(156,119,224)" stroke-width="1"/><path id="etq0mvwe26gk9" d="M130.907000,187.750000C131.152000,189.654000,132.779000,191.125000,134.750000,191.125000L206.500000,191.125000C208.471000,191.125000,210.098000,189.654000,210.343000,187.750000L130.907000,187.750000Z" fill="none" stroke="rgb(156,119,224)" stroke-width="1"/><circle id="etq0mvwe26gk10" r="1.687500" transform="matrix(1 0 0 1 169.50000000000000 4.94606500000000)" fill="none" stroke="rgb(156,119,224)" stroke-width="1"/><rect id="etq0mvwe26gk11" width="127" height="74" rx="0" ry="0" transform="matrix(1 0 0 1 107.50000000000000 58.50000000000000)" fill="rgb(156,119,224)" fill-opacity="0.1" stroke="rgb(156,119,224)" stroke-width="0"/><rect id="etq0mvwe26gk12" width="74" height="3" rx="1.500000" ry="1.500000" transform="matrix(1 0 0 1 134 34)" fill="rgb(156,119,224)" stroke="none" stroke-width="1"/><rect id="etq0mvwe26gk13" width="56" height="2" rx="1" ry="1" transform="matrix(1 0 0 1 143 41)" opacity="0.4" fill="rgb(156,119,224)" stroke="none" stroke-width="1"/><rect id="etq0mvwe26gk14" width="42" height="2" rx="1" ry="1" transform="matrix(1 0 0 1 150 45)" opacity="0.4" fill="rgb(156,119,224)" stroke="none" stroke-width="1"/></g></g></g><g id="etq0mvwe26gk15_to" transform="translate(122.930771,9.696299)"><g id="etq0mvwe26gk15_ts" transform="scale(0.516486,0.511906)"><g id="etq0mvwe26gk15" transform="translate(0,0)"><rect id="etq0mvwe26gk16" width="327.744825" height="215.861515" rx="0" ry="0" transform="matrix(0.51259390530977 0 0 0.53523042123050 9.06983167530719 108.30679403588265)" fill="rgb(206,211,221)" fill-opacity="0.1" stroke="none" stroke-width="1"/><path id="etq0mvwe26gk17" d="M30,70.423100C30,69.084800,31.084800,68,32.423100,68L147.115000,68C148.454000,68,149.538000,69.084800,149.538000,70.423100L149.538000,70.423100C149.538000,71.761300,148.454000,72.846200,147.115000,72.846200L32.423100,72.846200C31.084900,72.846200,30,71.761300,30,70.423100L30,70.423100Z" transform="matrix(1 0 0 1 3.30083166861824 0)" fill="rgb(206,211,221)" stroke="none" stroke-width="1"/><path id="etq0mvwe26gk18" d="M44.538600,80.923100C44.538600,80.030900,45.261800,79.307700,46.154000,79.307700L133.385000,79.307700C134.277000,79.307700,135,80.030900,135,80.923100L135,80.923100C135,81.815200,134.277000,82.538400,133.385000,82.538400L46.154000,82.538400C45.261800,82.538400,44.538600,81.815200,44.538600,80.923100L44.538600,80.923100Z" transform="matrix(1 0 0 1 3.30053166994185 0)" opacity="0.4" fill="rgb(206,211,221)" stroke="none" stroke-width="1"/><path id="etq0mvwe26gk19" d="M55.846200,87.384600C55.846200,86.492500,56.569400,85.769200,57.461600,85.769200L122.077000,85.769200C122.969000,85.769200,123.692000,86.492500,123.692000,87.384600L123.692000,87.384600C123.692000,88.276800,122.969000,89,122.077000,89L57.461600,89C56.569400,89,55.846200,88.276800,55.846200,87.384600L55.846200,87.384600Z" transform="matrix(1 0 0 1 3.30073167551336 0)" opacity="0.4" fill="rgb(206,211,221)" stroke="none" stroke-width="1"/><path id="etq0mvwe26gk20" d="M160,1L20,1C9.506590,1,1,9.506590,1,20L1,325C1,335.493000,9.506590,344,20,344L160,344C170.493000,344,179,335.493000,179,325L179,20C179,9.506590,170.493000,1,160,1ZM20,0C8.954310,0,0,8.954300,0,20L0,325C0,336.046000,8.954300,345,20,345L160,345C171.046000,345,180,336.046000,180,325L180,20C180,8.954310,171.046000,0,160,0L20,0Z" transform="matrix(1 0 0 1 3.06983167134572 0)" clip-rule="evenodd" fill="rgb(206,211,221)" fill-rule="evenodd" stroke="none" stroke-width="1"/><path id="etq0mvwe26gk21" d="M158,7L22,7C13.715700,7,7,13.715700,7,22L7,323C7,331.284000,13.715700,338,22,338L158,338C166.284000,338,173,331.284000,173,323L173,22C173,13.715700,166.284000,7,158,7ZM22,6C13.163400,6,6,13.163400,6,22L6,323C6,331.837000,13.163400,339,22,339L158,339C166.837000,339,174,331.837000,174,323L174,22C174,13.163400,166.837000,6,158,6L22,6Z" transform="matrix(1 0 0 1 3.06983167134572 0)" clip-rule="evenodd" fill="rgb(206,211,221)" fill-rule="evenodd" stroke="none" stroke-width="1"/></g></g></g><g id="etq0mvwe26gk22_to" transform="translate(133.334041,61.537931)"><g id="etq0mvwe26gk22_ts" transform="scale(0.180061,0.180061)"><g id="etq0mvwe26gk22" display="none" transform="translate(0,0)" opacity="0"><rect id="etq0mvwe26gk23" width="412.634000" height="259" rx="22" ry="22" fill="rgb(243,247,251)" stroke="none" stroke-width="1"/><rect id="etq0mvwe26gk24" width="413" height="33" rx="0" ry="0" transform="matrix(1 0 0 1 0 20)" opacity="0.3" fill="rgb(206,211,221)" stroke="none" stroke-width="1"/><rect id="etq0mvwe26gk25" width="413" height="60" rx="0" ry="0" transform="matrix(1 0 0 1 0 169)" opacity="0.3" fill="rgb(206,211,221)" stroke="none" stroke-width="1"/><rect id="etq0mvwe26gk26" width="413" height="11" rx="0" ry="0" transform="matrix(1 0 0 1 0 60)" opacity="0.3" fill="rgb(206,211,221)" stroke="none" stroke-width="1"/><rect id="etq0mvwe26gk27" width="126.557000" height="160.698000" rx="20" ry="20" transform="matrix(1 0 0 1 24.13400000000000 47.67960000000000)" fill="rgb(206,211,221)" stroke="none" stroke-width="1"/><path id="etq0mvwe26gk28" d="M43.373800,79.785100C51.908100,58.589700,75.581100,54.655700,86.707200,55.022500C105.408000,55.022500,123.490000,62.062200,130.626000,79.785100C138.824000,100.145000,133.554000,107.299000,132.969000,122.157000C132.884000,124.304000,135.387000,124.672000,136.482000,126.559000C139.410000,131.603000,138.336000,147.424000,131.212000,150.771000C128.869000,151.872000,125.356000,152.422000,125.356000,156.824000C125.356000,162.877000,119.389000,175.968000,114.815000,179.936000C107.203000,186.539000,115.401000,208,115.401000,208L58.599200,208C58.599200,208,66.797400,186.539000,59.184800,179.936000C54.610700,175.968000,48.644200,162.877000,48.644200,156.824000C48.644200,152.422000,45.130800,151.872000,42.788400,150.771000C35.664300,147.424000,34.590500,131.603000,37.518100,126.559000C38.613000,124.672000,41.116100,124.304000,41.031500,122.157000C40.446100,107.299000,35.175800,100.145000,43.373800,79.785100Z" fill="rgb(137,143,154)" stroke="none" stroke-width="1"/><rect id="etq0mvwe26gk29" width="33" height="5" rx="2.500000" ry="2.500000" transform="matrix(1 0 0 1 163 49)" fill="rgb(206,211,221)" stroke="none" stroke-width="1"/><rect id="etq0mvwe26gk30" width="50" height="5" rx="2.500000" ry="2.500000" transform="matrix(1 0 0 1 163 146)" fill="rgb(206,211,221)" stroke="none" stroke-width="1"/><rect id="etq0mvwe26gk31" width="71" height="5" rx="2.500000" ry="2.500000" transform="matrix(1 0 0 1 25 240)" fill="rgb(206,211,221)" stroke="none" stroke-width="1"/><rect id="etq0mvwe26gk32" width="67" height="5" rx="2.500000" ry="2.500000" transform="matrix(1 0 0 1 163 170)" fill="rgb(206,211,221)" stroke="none" stroke-width="1"/><rect id="etq0mvwe26gk33" width="15" height="5" rx="2.500000" ry="2.500000" transform="matrix(1 0 0 1 258 112)" fill="rgb(206,211,221)" stroke="none" stroke-width="1"/><rect id="etq0mvwe26gk34" width="41" height="5" rx="2.500000" ry="2.500000" transform="matrix(1 0 0 1 308 112)" fill="rgb(206,211,221)" stroke="none" stroke-width="1"/><rect id="etq0mvwe26gk35" width="48" height="5" rx="2.500000" ry="2.500000" transform="matrix(1 0 0 1 308 136)" fill="rgb(206,211,221)" stroke="none" stroke-width="1"/><rect id="etq0mvwe26gk36" width="41" height="5" rx="2.500000" ry="5" transform="matrix(1 0 0 1 308 162)" fill="rgb(206,211,221)" stroke="none" stroke-width="1"/><rect id="etq0mvwe26gk37" width="33" height="5" rx="2.500000" ry="5" transform="matrix(1 0 0 1 163 69)" fill="rgb(206,211,221)" stroke="none" stroke-width="1"/><rect id="etq0mvwe26gk38" width="40" height="10" rx="5" ry="5" transform="matrix(1 0 0 1 163 56)" fill="rgb(206,211,221)" stroke="none" stroke-width="1"/><rect id="etq0mvwe26gk39" width="64" height="10" rx="5" ry="5" transform="matrix(1 0 0 1 163 153)" fill="rgb(206,211,221)" stroke="none" stroke-width="1"/><rect id="etq0mvwe26gk40" width="370" height="15" rx="8" ry="8" transform="matrix(1 0 0 1 25 217)" fill="rgb(206,211,221)" stroke="none" stroke-width="1"/><rect id="etq0mvwe26gk41" width="67" height="10" rx="5" ry="5" transform="matrix(1 0 0 1 163 177)" fill="rgb(206,211,221)" stroke="none" stroke-width="1"/><rect id="etq0mvwe26gk42" width="27" height="10" rx="5" ry="5" transform="matrix(1 0 0 1 258 119)" fill="rgb(206,211,221)" stroke="none" stroke-width="1"/><rect id="etq0mvwe26gk43" width="24" height="10" rx="5" ry="5" transform="matrix(1 0 0 1 308 119)" fill="rgb(206,211,221)" stroke="none" stroke-width="1"/><rect id="etq0mvwe26gk44" width="64" height="10" rx="5" ry="5" transform="matrix(1 0 0 1 308 143)" fill="rgb(206,211,221)" stroke="none" stroke-width="1"/><rect id="etq0mvwe26gk45" width="80" height="10" rx="5" ry="5" transform="matrix(1 0 0 1 308 169)" fill="rgb(206,211,221)" stroke="none" stroke-width="1"/><rect id="etq0mvwe26gk46" width="93" height="10" rx="5" ry="5" transform="matrix(1 0 0 1 163 76)" fill="rgb(206,211,221)" stroke="none" stroke-width="1"/></g></g></g><g id="etq0mvwe26gk47_to" transform="translate(135.946467,35.953592)"><g id="etq0mvwe26gk47_ts" transform="scale(0.180061,0.180061)"><g id="etq0mvwe26gk47" transform="translate(0,0)" opacity="0"><path id="etq0mvwe26gk48" d="M0,259L382,259L382,514C382,516.209000,380.209000,518,378,518L4.000010,518C1.790870,518,0,516.209000,0,514L0,259Z" fill="rgb(243,247,251)" stroke="none" stroke-width="1"/><path id="etq0mvwe26gk49" d="M0,4.000010C0,1.790870,1.790860,0,4,0L378,0C380.209000,0,382,1.790860,382,4L382,259L0,259L0,4.000010Z" transform="matrix(1 0 0 1 0.42578374141186 0.50000000007560)" fill="rgb(232,236,242)" stroke="none" stroke-width="1"/><path id="etq0mvwe26gk50" d="M17,343C17,331.954000,25.954300,323,37,323L90,323C101.046000,323,110,331.954000,110,343L110,421.088000C110,432.134000,101.046000,441.088000,90,441.088000L37,441.088000C25.954300,441.088000,17,432.134000,17,421.088000L17,343Z" fill="rgb(206,211,221)" stroke="none" stroke-width="1"/><path id="etq0mvwe26gk51" d="M31.138400,346.593000C37.409800,331.017000,54.805800,328.126000,62.981800,328.396000C76.724000,328.396000,90.011600,333.569000,95.255600,346.593000C101.280000,361.554000,97.407000,366.811000,96.976800,377.729000C96.914600,379.307000,98.754100,379.578000,99.558600,380.964000C101.710000,384.671000,100.921000,396.297000,95.685800,398.757000C93.964400,399.565000,91.382600,399.970000,91.382600,403.205000C91.382600,407.653000,86.998200,417.273000,83.636900,420.188000C78.042800,425.041000,84.067200,440.811000,84.067200,440.811000L42.326700,440.811000C42.326700,440.811000,48.351100,425.041000,42.757000,420.188000C39.395800,417.273000,35.011300,407.653000,35.011300,403.205000C35.011300,399.970000,32.429500,399.565000,30.708200,398.757000C25.473000,396.297000,24.683900,384.671000,26.835300,380.964000C27.639900,379.578000,29.479300,379.307000,29.417100,377.729000C28.986900,366.811000,25.114100,361.554000,31.138400,346.593000Z" fill="rgb(137,143,154)" fill-opacity="0" stroke="none" stroke-width="1"/><path id="etq0mvwe26gk52" d="M116,314.500000C116,313.119000,117.119000,312,118.500000,312L146.500000,312C147.881000,312,149,313.119000,149,314.500000C149,315.881000,147.881000,317,146.500000,317L118.500000,317C117.119000,317,116,315.881000,116,314.500000Z" fill="rgb(206,211,221)" stroke="none" stroke-width="1"/><path id="etq0mvwe26gk53" d="M116,354.500000C116,353.119000,117.119000,352,118.500000,352L146.500000,352C147.881000,352,149,353.119000,149,354.500000C149,355.881000,147.881000,357,146.500000,357L118.500000,357C117.119000,357,116,355.881000,116,354.500000Z" fill="rgb(206,211,221)" stroke="none" stroke-width="1"/><path id="etq0mvwe26gk54" d="M116,378.500000C116,377.119000,117.119000,376,118.500000,376L192.500000,376C193.881000,376,195,377.119000,195,378.500000C195,379.881000,193.881000,381,192.500000,381L118.500000,381C117.119000,381,116,379.881000,116,378.500000Z" fill="rgb(206,211,221)" stroke="none" stroke-width="1"/><path id="etq0mvwe26gk55" d="M20,281.500000C20,280.119000,21.119300,279,22.500000,279L182.500000,279C183.881000,279,185,280.119000,185,281.500000C185,282.881000,183.881000,284,182.500000,284L22.500000,284C21.119300,284,20,282.881000,20,281.500000Z" fill="rgb(206,211,221)" stroke="none" stroke-width="1"/><path id="etq0mvwe26gk56" d="M116,405.500000C116,404.119000,117.119000,403,118.500000,403L163.500000,403C164.881000,403,166,404.119000,166,405.500000C166,406.881000,164.881000,408,163.500000,408L118.500000,408C117.119000,408,116,406.881000,116,405.500000Z" fill="rgb(206,211,221)" stroke="none" stroke-width="1"/><path id="etq0mvwe26gk57" d="M116,429.500000C116,428.119000,117.119000,427,118.500000,427L180.500000,427C181.881000,427,183,428.119000,183,429.500000C183,430.881000,181.881000,432,180.500000,432L118.500000,432C117.119000,432,116,430.881000,116,429.500000Z" fill="rgb(206,211,221)" stroke="none" stroke-width="1"/><path id="etq0mvwe26gk58" d="M224,351.500000C224,350.119000,225.119000,349,226.500000,349L236.500000,349C237.881000,349,239,350.119000,239,351.500000C239,352.881000,237.881000,354,236.500000,354L226.500000,354C225.119000,354,224,352.881000,224,351.500000Z" fill="rgb(206,211,221)" stroke="none" stroke-width="1"/><path id="etq0mvwe26gk59" d="M266,351.500000C266,350.119000,267.119000,349,268.500000,349L297.500000,349C298.881000,349,300,350.119000,300,351.500000C300,352.881000,298.881000,354,297.500000,354L268.500000,354C267.119000,354,266,352.881000,266,351.500000Z" fill="rgb(206,211,221)" stroke="none" stroke-width="1"/><path id="etq0mvwe26gk60" d="M266,387.500000C266,386.119000,267.119000,385,268.500000,385L304.500000,385C305.881000,385,307,386.119000,307,387.500000C307,388.881000,305.881000,390,304.500000,390L268.500000,390C267.119000,390,266,388.881000,266,387.500000Z" fill="rgb(206,211,221)" stroke="none" stroke-width="1"/><path id="etq0mvwe26gk61" d="M266,427.500000C266,426.119000,267.119000,425,268.500000,425L358.500000,425C359.881000,425,361,426.119000,361,427.500000C361,428.881000,359.881000,430,358.500000,430L268.500000,430C267.119000,430,266,428.881000,266,427.500000Z" fill="rgb(206,211,221)" stroke="none" stroke-width="1"/><path id="etq0mvwe26gk62" d="M116,334.500000C116,333.119000,117.119000,332,118.500000,332L146.500000,332C147.881000,332,149,333.119000,149,334.500000C149,335.881000,147.881000,337,146.500000,337L118.500000,337C117.119000,337,116,335.881000,116,334.500000Z" fill="rgb(206,211,221)" stroke="none" stroke-width="1"/><path id="etq0mvwe26gk63" d="M116,324C116,321.239000,118.239000,319,121,319L151,319C153.761000,319,156,321.239000,156,324C156,326.761000,153.761000,329,151,329L121,329C118.239000,329,116,326.761000,116,324Z" fill="rgb(206,211,221)" stroke="none" stroke-width="1"/><path id="etq0mvwe26gk64" d="M116,364C116,361.239000,118.239000,359,121,359L172,359C174.761000,359,177,361.239000,177,364C177,366.761000,174.761000,369,172,369L121,369C118.239000,369,116,366.761000,116,364Z" fill="rgb(206,211,221)" stroke="none" stroke-width="1"/><path id="etq0mvwe26gk65" d="M116,388C116,385.239000,118.239000,383,121,383L147,383C149.761000,383,152,385.239000,152,388C152,390.761000,149.761000,393,147,393L121,393C118.239000,393,116,390.761000,116,388Z" fill="rgb(206,211,221)" stroke="none" stroke-width="1"/><path id="etq0mvwe26gk66" d="M20,270C20,267.239000,22.238600,265,25,265L265,265C267.761000,265,270,267.239000,270,270C270,272.761000,267.761000,275,265,275L25,275C22.238600,275,20,272.761000,20,270Z" fill="rgb(206,211,221)" stroke="none" stroke-width="1"/><path id="etq0mvwe26gk67" d="M20,132C20,125.373000,25.372600,120,32,120L159,120C165.627000,120,171,125.373000,171,132L171,227C171,233.627000,165.627000,239,159,239L32,239C25.372600,239,20,233.627000,20,227L20,132Z" opacity="0.2" fill="rgb(206,211,221)" stroke="none" stroke-width="1"/><path id="etq0mvwe26gk68" d="M20,29C20,22.372600,25.372600,17,32,17L159,17C165.627000,17,171,22.372600,171,29L171,97C171,103.627000,165.627000,109,159,109L32,109C25.372600,109,20,103.627000,20,97L20,29Z" opacity="0.2" fill="rgb(206,211,221)" stroke="none" stroke-width="1"/><g id="etq0mvwe26gk69" opacity="0.56"><path id="etq0mvwe26gk70" d="M183,96.500000C183,95.119300,184.119000,94,185.500000,94L362.500000,94C363.881000,94,365,95.119300,365,96.500000C365,97.880700,363.881000,99,362.500000,99L185.500000,99C184.119000,99,183,97.880700,183,96.500000Z" opacity="0.5" fill="rgb(206,211,221)" stroke="none" stroke-width="1"/><path id="etq0mvwe26gk71" d="M183,19.500000C183,18.119300,184.119000,17,185.500000,17L362.500000,17C363.881000,17,365,18.119300,365,19.500000C365,20.880700,363.881000,22,362.500000,22L185.500000,22C184.119000,22,183,20.880700,183,19.500000Z" opacity="0.5" fill="rgb(206,211,221)" stroke="none" stroke-width="1"/><path id="etq0mvwe26gk72" d="M183,132.500000C183,131.119000,184.119000,130,185.500000,130L362.500000,130C363.881000,130,365,131.119000,365,132.500000C365,133.881000,363.881000,135,362.500000,135L185.500000,135C184.119000,135,183,133.881000,183,132.500000Z" opacity="0.5" fill="rgb(206,211,221)" stroke="none" stroke-width="1"/><path id="etq0mvwe26gk73" d="M183,55.500000C183,54.119300,184.119000,53,185.500000,53L362.500000,53C363.881000,53,365,54.119300,365,55.500000C365,56.880700,363.881000,58,362.500000,58L185.500000,58C184.119000,58,183,56.880700,183,55.500000Z" opacity="0.5" fill="rgb(206,211,221)" stroke="none" stroke-width="1"/><path id="etq0mvwe26gk74" d="M183,188.500000C183,187.119000,184.119000,186,185.500000,186L362.500000,186C363.881000,186,365,187.119000,365,188.500000C365,189.881000,363.881000,191,362.500000,191L185.500000,191C184.119000,191,183,189.881000,183,188.500000Z" opacity="0.5" fill="rgb(206,211,221)" stroke="none" stroke-width="1"/><path id="etq0mvwe26gk75" d="M183,114.500000C183,113.119000,184.119000,112,185.500000,112L362.500000,112C363.881000,112,365,113.119000,365,114.500000C365,115.881000,363.881000,117,362.500000,117L185.500000,117C184.119000,117,183,115.881000,183,114.500000Z" opacity="0.5" fill="rgb(206,211,221)" stroke="none" stroke-width="1"/><path id="etq0mvwe26gk76" d="M183,37.500000C183,36.119300,184.119000,35,185.500000,35L362.500000,35C363.881000,35,365,36.119300,365,37.500000C365,38.880700,363.881000,40,362.500000,40L185.500000,40C184.119000,40,183,38.880700,183,37.500000Z" opacity="0.5" fill="rgb(206,211,221)" stroke="none" stroke-width="1"/><path id="etq0mvwe26gk77" d="M183,170.500000C183,169.119000,184.119000,168,185.500000,168L362.500000,168C363.881000,168,365,169.119000,365,170.500000C365,171.881000,363.881000,173,362.500000,173L185.500000,173C184.119000,173,183,171.881000,183,170.500000Z" opacity="0.5" fill="rgb(206,211,221)" stroke="none" stroke-width="1"/><path id="etq0mvwe26gk78" d="M183,206.500000C183,205.119000,184.119000,204,185.500000,204L362.500000,204C363.881000,204,365,205.119000,365,206.500000C365,207.881000,363.881000,209,362.500000,209L185.500000,209C184.119000,209,183,207.881000,183,206.500000Z" opacity="0.5" fill="rgb(206,211,221)" stroke="none" stroke-width="1"/><path id="etq0mvwe26gk79" d="M183,105.500000C183,104.119000,184.119000,103,185.500000,103L362.500000,103C363.881000,103,365,104.119000,365,105.500000C365,106.881000,363.881000,108,362.500000,108L185.500000,108C184.119000,108,183,106.881000,183,105.500000Z" opacity="0.5" fill="rgb(206,211,221)" stroke="none" stroke-width="1"/><path id="etq0mvwe26gk80" d="M183,28.500000C183,27.119300,184.119000,26,185.500000,26L362.500000,26C363.881000,26,365,27.119300,365,28.500000C365,29.880700,363.881000,31,362.500000,31L185.500000,31C184.119000,31,183,29.880700,183,28.500000Z" opacity="0.5" fill="rgb(206,211,221)" stroke="none" stroke-width="1"/><path id="etq0mvwe26gk81" d="M183,141.500000C183,140.119000,184.119000,139,185.500000,139L337.500000,139C338.881000,139,340,140.119000,340,141.500000C340,142.881000,338.881000,144,337.500000,144L185.500000,144C184.119000,144,183,142.881000,183,141.500000Z" opacity="0.5" fill="rgb(206,211,221)" stroke="none" stroke-width="1"/><path id="etq0mvwe26gk82" d="M183,64.500000C183,63.119300,184.119000,62,185.500000,62L245.500000,62C246.881000,62,248,63.119300,248,64.500000C248,65.880700,246.881000,67,245.500000,67L185.500000,67C184.119000,67,183,65.880700,183,64.500000Z" opacity="0.5" fill="rgb(206,211,221)" stroke="none" stroke-width="1"/><path id="etq0mvwe26gk83" d="M183,197.500000C183,196.119000,184.119000,195,185.500000,195L362.500000,195C363.881000,195,365,196.119000,365,197.500000C365,198.881000,363.881000,200,362.500000,200L185.500000,200C184.119000,200,183,198.881000,183,197.500000Z" opacity="0.5" fill="rgb(206,211,221)" stroke="none" stroke-width="1"/><path id="etq0mvwe26gk84" d="M183,123.500000C183,122.119000,184.119000,121,185.500000,121L362.500000,121C363.881000,121,365,122.119000,365,123.500000C365,124.881000,363.881000,126,362.500000,126L185.500000,126C184.119000,126,183,124.881000,183,123.500000Z" opacity="0.5" fill="rgb(206,211,221)" stroke="none" stroke-width="1"/><path id="etq0mvwe26gk85" d="M183,46.500000C183,45.119300,184.119000,44,185.500000,44L362.500000,44C363.881000,44,365,45.119300,365,46.500000C365,47.880700,363.881000,49,362.500000,49L185.500000,49C184.119000,49,183,47.880700,183,46.500000Z" transform="matrix(1 0 0 1 0 0.99666901195274)" opacity="0.5" fill="rgb(206,211,221)" stroke="none" stroke-width="1"/><path id="etq0mvwe26gk86" d="M183,179.500000C183,178.119000,184.119000,177,185.500000,177L362.500000,177C363.881000,177,365,178.119000,365,179.500000C365,180.881000,363.881000,182,362.500000,182L185.500000,182C184.119000,182,183,180.881000,183,179.500000Z" opacity="0.5" fill="rgb(206,211,221)" stroke="none" stroke-width="1"/><path id="etq0mvwe26gk87" d="M183,215.500000C183,214.119000,184.119000,213,185.500000,213L277.500000,213C278.881000,213,280,214.119000,280,215.500000C280,216.881000,278.881000,218,277.500000,218L185.500000,218C184.119000,218,183,216.881000,183,215.500000Z" opacity="0.5" fill="rgb(206,211,221)" stroke="none" stroke-width="1"/></g><path id="etq0mvwe26gk88" d="M332,272C332,268.134000,335.134000,265,339,265L354,265C357.866000,265,361,268.134000,361,272C361,275.866000,357.866000,279,354,279L339,279C335.134000,279,332,275.866000,332,272Z" fill="rgb(206,211,221)" stroke="none" stroke-width="1"/><path id="etq0mvwe26gk89" d="M116,415C116,412.239000,118.239000,410,121,410L175,410C177.761000,410,180,412.239000,180,415C180,417.761000,177.761000,420,175,420L121,420C118.239000,420,116,417.761000,116,415Z" fill="rgb(206,211,221)" stroke="none" stroke-width="1"/><path id="etq0mvwe26gk90" d="M17,472.500000C17,468.358000,20.357900,465,24.500000,465L353.500000,465C357.642000,465,361,468.358000,361,472.500000C361,476.642000,357.642000,480,353.500000,480L24.500000,480C20.357900,480,17,476.642000,17,472.500000Z" fill="rgb(206,211,221)" stroke="none" stroke-width="1"/><path id="etq0mvwe26gk91" d="M17,492.500000C17,488.358000,20.357900,485,24.500000,485L353.500000,485C357.642000,485,361,488.358000,361,492.500000C361,496.642000,357.642000,500,353.500000,500L24.500000,500C20.357900,500,17,496.642000,17,492.500000Z" fill="rgb(206,211,221)" stroke="none" stroke-width="1"/><path id="etq0mvwe26gk92" d="M116,439C116,436.239000,118.239000,434,121,434L178,434C180.761000,434,183,436.239000,183,439C183,441.761000,180.761000,444,178,444L121,444C118.239000,444,116,441.761000,116,439Z" fill="rgb(206,211,221)" stroke="none" stroke-width="1"/><path id="etq0mvwe26gk93" d="M224,361C224,358.239000,226.239000,356,229,356L246,356C248.761000,356,251,358.239000,251,361C251,363.761000,248.761000,366,246,366L229,366C226.239000,366,224,363.761000,224,361Z" fill="rgb(206,211,221)" stroke="none" stroke-width="1"/><path id="etq0mvwe26gk94" d="M266,361C266,358.239000,268.239000,356,271,356L288,356C290.761000,356,293,358.239000,293,361C293,363.761000,290.761000,366,288,366L271,366C268.239000,366,266,363.761000,266,361Z" fill="rgb(206,211,221)" stroke="none" stroke-width="1"/><path id="etq0mvwe26gk95" d="M266,397C266,394.239000,268.239000,392,271,392L285,392C287.761000,392,290,394.239000,290,397C290,399.761000,287.761000,402,285,402L271,402C268.239000,402,266,399.761000,266,397Z" fill="rgb(206,211,221)" stroke="none" stroke-width="1"/><path id="etq0mvwe26gk96" d="M116,344C116,341.239000,118.239000,339,121,339L204,339C206.761000,339,209,341.239000,209,344C209,346.761000,206.761000,349,204,349L121,349C118.239000,349,116,346.761000,116,344Z" fill="rgb(206,211,221)" stroke="none" stroke-width="1"/><g id="etq0mvwe26gk97" transform="matrix(0.53043643554309 0 0 0.53043643554309 30.17729507602501 332.15620436531691)" clip-path="url(#etq0mvwe26gk2)"><path id="etq0mvwe26gk98" d="M124.500000,169.800000L124.500000,159.200000C124.500000,147.600000,115,138.100000,103.400000,138.100000L21.100000,138.100000C9.500000,138.100000,0,147.600000,0,159.200000L0,169.800000C17,183.600000,38.600000,192,62.300000,192C85.900000,192,107.500000,183.600000,124.500000,169.800000Z" clip-rule="evenodd" fill="rgb(231,227,231)" fill-rule="evenodd" stroke="none" stroke-width="1"/><path id="etq0mvwe26gk99" d="M54.299800,191.600000C56.899800,191.800000,59.599800,191.900000,62.299800,191.900000C64.999800,191.900000,67.599800,191.800000,70.199800,191.600000L66.699800,168.400000L62.299800,166.800000L57.899800,168.400000L54.299800,191.600000Z" clip-rule="evenodd" fill="rgb(156,119,224)" fill-rule="evenodd" stroke="none" stroke-width="1"/><path id="etq0mvwe26gk100" d="M70.399900,158.400000L66.599900,168.500000L62.199900,168.500000L57.799900,168.500000L53.899900,158.400000L55.899900,156.700000L62.199900,155.200000L68.499900,156.700000L70.399900,158.400000Z" clip-rule="evenodd" fill="rgb(48,41,94)" fill-rule="evenodd" stroke="none" stroke-width="1"/><path id="etq0mvwe26gk101" d="M124.500000,169.800000L124.500000,159.200000C124.500000,147.600000,115,138.100000,103.400000,138.100000L71.900000,138.100000L70.200000,139.100000L76.100000,157.300000L72.300000,191.400000C92,189.500000,110,181.700000,124.500000,169.800000ZM0,169.800000L0,159.200000C0,147.600000,9.500000,138.100000,21.100000,138.100000L52.600000,138.100000L54.300000,139.100000L48.400000,157.300000L52.200000,191.400000C32.500000,189.500000,14.500000,181.700000,0,169.800000Z" clip-rule="evenodd" fill="rgb(76,59,130)" fill-rule="evenodd" stroke="none" stroke-width="1"/><path id="etq0mvwe26gk102" d="M74.299800,151.900000L76.099800,157.400000L72.299800,191.500000C76.299800,191.100000,80.299800,190.400000,84.099800,189.600000L91.799800,174.700000L82.399800,145C79.499800,145.700000,76.799800,148.300000,74.299800,151.900000Z" clip-rule="evenodd" fill="rgb(48,41,94)" fill-rule="evenodd" stroke="none" stroke-width="1"/><path id="etq0mvwe26gk103" d="M62.299800,88.500000C71.699800,88.500000,79.299800,96.200000,79.299800,105.500000L79.299800,138.100000C79.299800,147.500000,71.599800,155.100000,62.299800,155.100000C52.899800,155.100000,45.299800,147.400000,45.299800,138.100000L45.299800,105.500000C45.199800,96.100000,52.899800,88.500000,62.299800,88.500000Z" clip-rule="evenodd" fill="rgb(233,186,168)" fill-rule="evenodd" stroke="none" stroke-width="1"/><path id="etq0mvwe26gk104" d="M62.300200,88.500000C71.700200,88.500000,79.300200,96.200000,79.300200,105.500000L79.300200,133.500000C74.800200,135.600000,69.800200,136.800000,64.600200,136.800000C57.500200,136.800000,50.800200,134.600000,45.200200,130.800000L45.200200,105.500000C45.200200,96.100000,52.900200,88.500000,62.300200,88.500000Z" clip-rule="evenodd" fill="rgb(225,170,149)" fill-rule="evenodd" stroke="none" stroke-width="1"/><path id="etq0mvwe26gk105" d="M17.199900,83.400000C16.999900,89.400000,21.799900,94.400000,27.799900,94.500000C27.999900,94.500000,28.099900,94.500000,28.299900,94.500000C27.199900,90.600000,26.599900,86.700000,26.599900,83L26.599900,79.700000C26.599900,73,17.499900,73.400000,17.199900,83.400000Z" clip-rule="evenodd" fill="rgb(225,170,149)" fill-rule="evenodd" stroke="none" stroke-width="1"/><path id="etq0mvwe26gk106" d="M107.300000,83.400000C107.500000,89.400000,102.700000,94.400000,96.699700,94.500000C96.499700,94.500000,96.399700,94.500000,96.199700,94.500000C97.299700,90.600000,97.899700,86.700000,97.899700,83L97.899700,79.700000C97.899700,73,107,73.400000,107.300000,83.400000Z" clip-rule="evenodd" fill="rgb(225,170,149)" fill-rule="evenodd" stroke="none" stroke-width="1"/><path id="etq0mvwe26gk107" d="M62.300100,20.500000C42.700100,20.500000,26.600100,37.100000,26.600100,57.400000L26.600100,90.900000C26.600100,111.200000,42.700100,127.800000,62.300100,127.800000C81.900100,127.800000,98.000100,111.200000,98.000100,90.900000L98.000100,57.400000C97.900100,37.100000,81.900100,20.500000,62.300100,20.500000Z" clip-rule="evenodd" fill="rgb(233,186,168)" fill-rule="evenodd" stroke="none" stroke-width="1"/><path id="etq0mvwe26gk108" d="M64.100200,88.200000C64.800200,90.200000,66.000200,93.700000,65.900200,94.300000C65.800200,95.100000,61.600200,95.300000,60.600200,94.100000C59.900200,93.300000,60.800200,90.400000,61.600200,88.400000C62.600200,85.700000,63.200200,85.600000,64.100200,88.200000Z" clip-rule="evenodd" fill="rgb(241,211,200)" fill-rule="evenodd" stroke="none" stroke-width="1"/><path id="etq0mvwe26gk109" d="M49.899900,66C50.699900,66.400000,50.999900,67.300000,50.699900,68.100000C50.299900,68.900000,49.399900,69.200000,48.599900,68.900000C48.599900,68.900000,43.899900,66.700000,39.399900,69.500000C38.699900,70,37.699900,69.700000,37.199900,69C36.699900,68.300000,36.999900,67.300000,37.699900,66.800000C43.699900,63.100000,49.899900,66,49.899900,66Z" clip-rule="evenodd" fill="rgb(48,41,94)" fill-rule="evenodd" stroke="none" stroke-width="1"/><path id="etq0mvwe26gk110" d="M86.599900,66.700000C87.399900,67.100000,87.599900,68.100000,87.199900,68.800000C86.799900,69.600000,85.799900,69.800000,85.099900,69.400000C85.099900,69.400000,80.599900,66.800000,75.899900,69.200000C75.099900,69.600000,74.199900,69.300000,73.799900,68.500000C73.399900,67.700000,73.699900,66.800000,74.499900,66.400000C80.699900,63.300000,86.599900,66.700000,86.599900,66.700000Z" clip-rule="evenodd" fill="rgb(48,41,94)" fill-rule="evenodd" stroke="none" stroke-width="1"/><path id="etq0mvwe26gk111" d="M102.700000,75.300000C102.700000,75.300000,97.900100,75.400000,97.900100,79.700000C97.900100,79.700000,94.500100,75.300000,95.200100,69.700000C95.200100,69.700000,86.100100,59,86.500100,47.100000C86.900100,35.200000,96.200100,32.600000,96.200100,32.600000C118.500000,39.200000,102.700000,55,102.700000,75.300000Z" clip-rule="evenodd" fill="rgb(48,41,94)" fill-rule="evenodd" stroke="none" stroke-width="1"/><path id="etq0mvwe26gk112" d="M21.799800,75.300000C21.799800,75.300000,26.599800,75.400000,26.599800,79.700000C26.599800,79.700000,29.999800,75.300000,29.299800,69.700000C29.299800,69.700000,38.399800,59,37.999800,47.100000C37.599800,35.200000,28.299800,32.600000,28.299800,32.600000C5.999810,39.200000,21.799800,55,21.799800,75.300000Z" clip-rule="evenodd" fill="rgb(48,41,94)" fill-rule="evenodd" stroke="none" stroke-width="1"/><path id="etq0mvwe26gk113" d="M74.700000,11.500000C77.600000,10,81,9.100000,84.500000,9.100000C96.100000,9.100000,105.600000,18.500000,105.600000,30.200000C105.600000,41.800000,96.200000,51.300000,84.500000,51.300000C78.900000,51.300000,73.800000,49.100000,70,45.600000C67.900000,49.700000,63.600000,52.500000,58.700000,52.500000C55,52.500000,51.700000,50.900000,49.400000,48.400000C47.100000,51.600000,43.300000,53.600000,39.100000,53.600000C34.200000,53.600000,29.900000,50.800000,27.700000,46.700000C19.600000,44.800000,13.500000,37.600000,13.500000,28.900000C13.500000,18.800000,21.700000,10.600000,31.800000,10.600000C33.800000,10.600000,35.700000,10.900000,37.500000,11.500000C40.900000,4.700000,47.900000,0,56,0C64.200000,0,71.200000,4.700000,74.700000,11.500000Z" clip-rule="evenodd" fill="rgb(48,41,94)" fill-rule="evenodd" stroke="none" stroke-width="1"/><path id="etq0mvwe26gk114" d="M62.299800,155.200000L74.299800,166.700000C74.299800,166.700000,78.799800,169.300000,80.499800,165.500000C82.299800,161.700000,87.599800,138.100000,87.599800,138.100000L79.199800,135C79.299800,135,78.799800,149.600000,62.299800,155.200000Z" clip-rule="evenodd" fill="rgb(255,255,255)" fill-rule="evenodd" stroke="none" stroke-width="1"/><path id="etq0mvwe26gk115" d="M109.600000,143.800000C109.800000,143.600000,110.100000,143.600000,110.300000,143.800000C110.500000,144,110.500000,144.300000,110.300000,144.500000C110.300000,144.500000,106,149,106,159.700000L106,181.800000C105.700000,182,105.400000,182.100000,105,182.300000L105,159.700000C105,148.500000,109.600000,143.800000,109.600000,143.800000Z" clip-rule="evenodd" fill="rgb(28,19,65)" fill-rule="evenodd" stroke="none" stroke-width="1"/><path id="etq0mvwe26gk116" d="M50.200200,151.900000L48.400200,157.400000L52.200200,191.500000C48.200200,191.100000,44.200200,190.400000,40.400200,189.600000L32.700200,174.700000L42.100200,145C45.000200,145.700000,47.700200,148.300000,50.200200,151.900000Z" clip-rule="evenodd" fill="rgb(48,41,94)" fill-rule="evenodd" stroke="none" stroke-width="1"/><path id="etq0mvwe26gk117" d="M62.300000,155.200000L50.300000,166.700000C50.300000,166.700000,45.800000,169.300000,44.100000,165.500000C42.300000,161.700000,37,138.100000,37,138.100000L45.400000,135C45.200000,135,45.700000,149.600000,62.300000,155.200000Z" clip-rule="evenodd" fill="rgb(255,255,255)" fill-rule="evenodd" stroke="none" stroke-width="1"/><path id="etq0mvwe26gk118" d="M14.899800,143.800000C14.699800,143.600000,14.399800,143.600000,14.199800,143.800000C13.999800,144,13.999800,144.300000,14.199800,144.500000C14.199800,144.500000,18.499800,149,18.499800,159.700000L18.499800,181.800000C18.799800,182,19.099800,182.100000,19.499800,182.300000L19.499800,159.700000C19.499800,148.500000,14.899800,143.800000,14.899800,143.800000Z" clip-rule="evenodd" fill="rgb(28,19,65)" fill-rule="evenodd" stroke="none" stroke-width="1"/><path id="etq0mvwe26gk119" d="M44.400000,86.500000C46.800000,86.500000,48.800000,84.500000,48.800000,82.100000C48.800000,79.700000,46.800000,77.700000,44.400000,77.700000C42,77.700000,40,79.700000,40,82.100000C40,84.500000,42,86.500000,44.400000,86.500000Z" clip-rule="evenodd" fill="rgb(48,41,94)" fill-rule="evenodd" stroke="none" stroke-width="1"/><path id="etq0mvwe26gk120" d="M80.100200,86.500000C82.500200,86.500000,84.500200,84.500000,84.500200,82.100000C84.500200,79.700000,82.500200,77.700000,80.100200,77.700000C77.700200,77.700000,75.700200,79.700000,75.700200,82.100000C75.700200,84.500000,77.600200,86.500000,80.100200,86.500000Z" clip-rule="evenodd" fill="rgb(48,41,94)" fill-rule="evenodd" stroke="none" stroke-width="1"/><path id="etq0mvwe26gk121" d="M70.100000,102.100000C70.100000,106.400000,66.600000,109.900000,62.300000,109.900000C58,109.900000,54.500000,106.400000,54.500000,102.100000C54.500000,101.300000,55.100000,100.700000,55.900000,100.700000L68.600000,100.700000C69.400000,100.700000,70.100000,101.400000,70.100000,102.100000Z" clip-rule="evenodd" fill="rgb(255,255,255)" fill-rule="evenodd" stroke="none" stroke-width="1"/></g></g></g></g><g id="etq0mvwe26gk122_to" transform="translate(14.398488,-3.680645)"><g id="etq0mvwe26gk122_ts" transform="scale(0.919164,0.919164)"><g id="etq0mvwe26gk122" transform="translate(0,0)"><rect id="etq0mvwe26gk123" width="53" height="14" rx="7" ry="7" transform="matrix(1 0 0 1 143.87381493792756 143.99999999706407)" fill="rgb(206,211,221)" stroke="none" stroke-width="1"/><rect id="etq0mvwe26gk124" width="35" height="4" rx="2" ry="2" transform="matrix(1 0 0 1 152.87381493792753 148.99999999891014)" opacity="0.2" fill="rgb(255,255,255)" stroke="none" stroke-width="1"/></g></g></g><g id="etq0mvwe26gk125_to" transform="translate(0,0)"><g id="etq0mvwe26gk125_ts" transform="scale(1,1)"><g id="etq0mvwe26gk125" transform="translate(0,0)"><rect id="etq0mvwe26gk126" width="25.694900" height="29.720300" rx="5" ry="5" transform="matrix(1 0 0 1 133.30518031500003 79.82200000000000)" fill="none" stroke="rgb(156,119,224)" stroke-width="0"/><rect id="etq0mvwe26gk127" width="78.237300" height="49" rx="3" ry="3" transform="matrix(1 0 0 1 131.88134999500005 70.50000000000000)" fill="none" stroke="rgb(156,119,224)" stroke-width="1"/></g></g></g><g id="etq0mvwe26gk128_to" transform="translate(161.671239,115.411867)"><g id="etq0mvwe26gk128_ts" transform="scale(0.194142,0.194142)"><g id="etq0mvwe26gk128" transform="translate(0,0)" opacity="0"><rect id="etq0mvwe26gk129" width="115" height="115" rx="60" ry="60" fill="rgb(71,218,174)" stroke="none" stroke-width="1"/><rect id="etq0mvwe26gk130" width="6.052630" height="26.170700" rx="3.026320" ry="0" transform="matrix(0.70710700000000 -0.70710700000000 0.70710700000000 0.70710700000000 35.78388788810000 56.92439553350001)" fill="rgb(255,255,255)" stroke="none" stroke-width="1"/><rect id="etq0mvwe26gk131" width="6.052630" height="42.056300" rx="3.026320" ry="0" transform="matrix(0.70710700000000 0.70710700000000 -0.70710700000000 0.70710700000000 79.74803679480002 41.41160127720002)" fill="rgb(255,255,255)" stroke="none" stroke-width="1"/></g></g></g><g id="etq0mvwe26gk132_to" style="offset-path:path('M241.367919,198.089065C232.736431,176.545885,206.161123,176.520414,166.766857,171.518244');offset-rotate:0deg"><g id="etq0mvwe26gk132" display="none" transform="scale(0.449494,0.449494) translate(0,0)"><path id="etq0mvwe26gk133" d="M9.952560,22.255200C9.434090,21.546900,8.915620,20.307400,7.878680,18.713800C7.360220,17.828500,5.804810,16.057800,5.286340,15.349600C4.940700,14.641300,4.940700,14.287200,5.113520,13.578900C5.286340,12.516500,6.323280,11.631200,7.533040,11.631200C8.397150,11.631200,9.261270,12.339400,9.952560,12.870600C10.298200,13.224800,10.816700,13.933000,11.162300,14.287200C11.508000,14.641300,11.508000,14.818400,11.853600,15.172500C12.199300,15.703700,12.372100,16.057800,12.199300,15.349600C12.026400,14.464200,11.853600,13.047700,11.508000,11.631200C11.335100,10.568800,11.162300,10.391700,10.989500,9.683440C10.816700,8.798110,10.643800,8.266910,10.471000,7.381570C10.298200,6.850370,10.125400,5.433840,9.952560,4.725570C9.779730,3.840240,9.779740,2.246640,10.471000,1.538370C10.989500,1.007170,12.026400,0.830108,12.717700,1.184240C13.581800,1.715440,14.100300,2.954910,14.273100,3.486110C14.618800,4.371440,14.964400,5.610910,15.137200,7.027440C15.482900,8.798110,16.001400,11.454100,16.001400,11.985300C16.001400,11.277000,15.828500,10.037600,16.001400,9.329310C16.174200,8.798110,16.519800,8.089840,17.211100,7.912770C17.729600,7.735710,18.248000,7.735710,18.766500,7.735710C19.285000,7.912770,19.803500,8.266910,20.149100,8.621040C20.840400,9.683440,20.840400,11.985300,20.840400,11.808200C21.013200,11.100000,21.013200,9.683440,21.358900,8.975170C21.531700,8.621040,22.223000,8.266910,22.568600,8.089840C23.087100,7.912770,23.778400,7.912770,24.296800,8.089840C24.642500,8.089840,25.333800,8.621040,25.506600,8.975170C25.852300,9.506370,26.025100,11.277000,26.197900,11.985300C26.197900,12.162400,26.370700,11.277000,26.716400,10.745800C27.407700,9.683440,29.827200,9.329310,30,11.808200C30,13.047700,30,12.870600,30,13.756000C30,14.641300,30,15.172500,30,15.880800C30,16.589000,29.827200,18.182600,29.654400,18.890900C29.481500,19.422100,28.963100,20.661600,28.444600,21.369800C28.444600,21.369800,26.543500,23.494600,26.370700,24.557000C26.197900,25.619400,26.197900,25.619400,26.197900,26.327700C26.197900,27.036000,26.370700,27.921300,26.370700,27.921300C26.370700,27.921300,24.988100,28.098400,24.296800,27.921300C23.605600,27.744200,22.741400,26.504800,22.568600,25.973600C22.223000,25.442400,21.704500,25.442400,21.358900,25.973600C21.013200,26.681800,20.149100,27.921300,19.457800,27.921300C18.248000,28.098400,15.828500,27.921300,14.100300,27.921300C14.100300,27.921300,14.445900,26.150600,13.754700,25.442400C13.236200,24.911200,12.372100,24.025800,11.853600,23.494600L9.952560,22.255200Z" fill="rgb(255,255,255)" stroke="none" stroke-width="1"/><path id="etq0mvwe26gk134" d="M9.952560,22.255200C9.434090,21.546900,8.915620,20.307400,7.878680,18.713800C7.360220,17.828500,5.804810,16.057800,5.286340,15.349600C4.940700,14.641300,4.940700,14.287200,5.113520,13.578900C5.286340,12.516500,6.323280,11.631200,7.533040,11.631200C8.397150,11.631200,9.261270,12.339400,9.952560,12.870600C10.298200,13.224800,10.816700,13.933000,11.162300,14.287200C11.508000,14.641300,11.508000,14.818400,11.853600,15.172500C12.199300,15.703700,12.372100,16.057800,12.199300,15.349600C12.026400,14.464200,11.853600,13.047700,11.508000,11.631200C11.335100,10.568800,11.162300,10.391700,10.989500,9.683440C10.816700,8.798110,10.643800,8.266910,10.471000,7.381570C10.298200,6.850370,10.125400,5.433840,9.952560,4.725570C9.779730,3.840240,9.779740,2.246640,10.471000,1.538370C10.989500,1.007170,12.026400,0.830108,12.717700,1.184240C13.581800,1.715440,14.100300,2.954910,14.273100,3.486110C14.618800,4.371440,14.964400,5.610910,15.137200,7.027440C15.482900,8.798110,16.001400,11.454100,16.001400,11.985300C16.001400,11.277000,15.828500,10.037600,16.001400,9.329310C16.174200,8.798110,16.519800,8.089840,17.211100,7.912770C17.729600,7.735710,18.248000,7.735710,18.766500,7.735710C19.285000,7.912770,19.803500,8.266910,20.149100,8.621040C20.840400,9.683440,20.840400,11.985300,20.840400,11.808200C21.013200,11.100000,21.013200,9.683440,21.358900,8.975170C21.531700,8.621040,22.223000,8.266910,22.568600,8.089840C23.087100,7.912770,23.778400,7.912770,24.296800,8.089840C24.642500,8.089840,25.333800,8.621040,25.506600,8.975170C25.852300,9.506370,26.025100,11.277000,26.197900,11.985300C26.197900,12.162400,26.370700,11.277000,26.716400,10.745800C27.407700,9.683440,29.827200,9.329310,30,11.808200C30,13.047700,30,12.870600,30,13.756000C30,14.641300,30,15.172500,30,15.880800C30,16.589000,29.827200,18.182600,29.654400,18.890900C29.481500,19.422100,28.963100,20.661600,28.444600,21.369800C28.444600,21.369800,26.543500,23.494600,26.370700,24.557000C26.197900,25.619400,26.197900,25.619400,26.197900,26.327700C26.197900,27.036000,26.370700,27.921300,26.370700,27.921300C26.370700,27.921300,24.988100,28.098400,24.296800,27.921300C23.605600,27.744200,22.741400,26.504800,22.568600,25.973600C22.223000,25.442400,21.704500,25.442400,21.358900,25.973600C21.013200,26.681800,20.149100,27.921300,19.457800,27.921300C18.248000,28.098400,15.828500,27.921300,14.100300,27.921300C14.100300,27.921300,14.445900,26.150600,13.754700,25.442400C13.236200,24.911200,12.372100,24.025800,11.853600,23.494600L9.952560,22.255200Z" fill="none" stroke="rgb(0,0,0)" stroke-width="0.750000" stroke-linecap="round" stroke-linejoin="round"/><path id="etq0mvwe26gk135" d="M24.010500,22.956300L24.010500,16.936000" fill="none" stroke="rgb(0,0,0)" stroke-width="0.750000" stroke-linecap="round"/><path id="etq0mvwe26gk136" d="M20.726900,22.956300L20.554100,16.936000" fill="none" stroke="rgb(0,0,0)" stroke-width="0.750000" stroke-linecap="round"/><path id="etq0mvwe26gk137" d="M17.097500,16.936000L17.097500,22.956300" fill="none" stroke="rgb(0,0,0)" stroke-width="0.750000" stroke-linecap="round"/></g></g></g></svg>