<svg id="ejmew89oo0m1" xmlns="http://www.w3.org/2000/svg" xmlns:xlink="http://www.w3.org/1999/xlink" viewBox="0 0 342 196" shape-rendering="geometricPrecision" text-rendering="geometricPrecision"><style><![CDATA[#ejmew89oo0m4 {animation: ejmew89oo0m4_c_o 8000ms linear infinite normal forwards}@keyframes ejmew89oo0m4_c_o { 0% {opacity: 0} 2.500000% {opacity: 1} 92.500000% {opacity: 1} 95% {opacity: 0} 100% {opacity: 0} }#ejmew89oo0m5 {animation: ejmew89oo0m5_c_o 8000ms linear infinite normal forwards}@keyframes ejmew89oo0m5_c_o { 0% {opacity: 1} 22.500000% {opacity: 1} 25% {opacity: 0} 65% {opacity: 0} 67.500000% {opacity: 1} 100% {opacity: 1} }#ejmew89oo0m44 {animation: ejmew89oo0m44_c_o 8000ms linear infinite normal forwards}@keyframes ejmew89oo0m44_c_o { 0% {opacity: 0} 5% {opacity: 0} 6.250000% {opacity: 1} 100% {opacity: 1} }#ejmew89oo0m45 {animation: ejmew89oo0m45_c_o 8000ms linear infinite normal forwards}@keyframes ejmew89oo0m45_c_o { 0% {opacity: 0} 7.500000% {opacity: 0} 8.750000% {opacity: 1} 100% {opacity: 1} }#ejmew89oo0m46 {animation: ejmew89oo0m46_c_o 8000ms linear infinite normal forwards}@keyframes ejmew89oo0m46_c_o { 0% {opacity: 1} 71.250000% {opacity: 1;animation-timing-function: cubic-bezier(0.420000,0,0.580000,1)} 73.750000% {opacity: 0} 100% {opacity: 0} }#ejmew89oo0m50_to {animation: ejmew89oo0m50_to__to 8000ms linear infinite normal forwards}@keyframes ejmew89oo0m50_to__to { 0% {transform: translate(158.043751px,123.545061px)} 77.750000% {transform: translate(158.043751px,123.545061px);animation-timing-function: cubic-bezier(0.420000,0,0.580000,1)} 79.875000% {transform: translate(144.073956px,109.618884px);animation-timing-function: cubic-bezier(0.420000,0,0.580000,1)} 81.250000% {transform: translate(148.412600px,114.730799px)} 100% {transform: translate(148.412600px,114.730799px)} }#ejmew89oo0m50_ts {animation: ejmew89oo0m50_ts__ts 8000ms linear infinite normal forwards}@keyframes ejmew89oo0m50_ts__ts { 0% {transform: scale(0.194142,0.194142)} 77.750000% {transform: scale(0.194142,0.194142);animation-timing-function: cubic-bezier(0.420000,0,0.580000,1)} 79.875000% {transform: scale(0.448409,0.448409);animation-timing-function: cubic-bezier(0.420000,0,0.580000,1)} 81.250000% {transform: scale(0.359506,0.359506)} 100% {transform: scale(0.359506,0.359506)} }#ejmew89oo0m50 {animation: ejmew89oo0m50_c_o 8000ms linear infinite normal forwards}@keyframes ejmew89oo0m50_c_o { 0% {opacity: 0} 77.750000% {opacity: 0;animation-timing-function: cubic-bezier(0.420000,0,0.580000,1)} 79.875000% {opacity: 1;animation-timing-function: cubic-bezier(0.420000,0,0.580000,1)} 81.250000% {opacity: 1} 100% {opacity: 1} }#ejmew89oo0m54_to {animation: ejmew89oo0m54_to__to 8000ms linear infinite normal forwards}@keyframes ejmew89oo0m54_to__to { 0% {transform: translate(165.335168px,99.680366px)} 31.250000% {transform: translate(165.335168px,99.680366px);animation-timing-function: cubic-bezier(0.420000,0,0.580000,1)} 36.250000% {transform: translate(126.825658px,98.522391px)} 100% {transform: translate(126.825658px,98.522391px)} }#ejmew89oo0m54 {animation: ejmew89oo0m54_c_o 8000ms linear infinite normal forwards}@keyframes ejmew89oo0m54_c_o { 0% {opacity: 0} 23.750000% {opacity: 0;animation-timing-function: cubic-bezier(0.420000,0,0.580000,1)} 26.250000% {opacity: 1;animation-timing-function: cubic-bezier(0.420000,0,0.580000,1)} 58.750000% {opacity: 1;animation-timing-function: cubic-bezier(0.420000,0,0.580000,1)} 61.250000% {opacity: 0} 100% {opacity: 0} }#ejmew89oo0m79_to {animation: ejmew89oo0m79_to__to 8000ms linear infinite normal forwards}@keyframes ejmew89oo0m79_to__to { 0% {offset-distance: 0%} 40% {offset-distance: 0%;animation-timing-function: cubic-bezier(0.420000,0,1,1)} 46.250000% {offset-distance: 100%} 100% {offset-distance: 100%} }#ejmew89oo0m85 {animation: ejmew89oo0m85_c_o 8000ms linear infinite normal forwards}@keyframes ejmew89oo0m85_c_o { 0% {opacity: 1} 58.750000% {opacity: 1} 61.250000% {opacity: 0} 100% {opacity: 0} }#ejmew89oo0m86 {animation: ejmew89oo0m86_c_o 8000ms linear infinite normal forwards}@keyframes ejmew89oo0m86_c_o { 0% {opacity: 0} 36.250000% {opacity: 0;animation-timing-function: cubic-bezier(0.420000,0,0.580000,1)} 38.750000% {opacity: 1} 100% {opacity: 1} }#ejmew89oo0m87 {animation: ejmew89oo0m87_c_o 8000ms linear infinite normal forwards}@keyframes ejmew89oo0m87_c_o { 0% {opacity: 0} 38.750000% {opacity: 0;animation-timing-function: cubic-bezier(0.420000,0,0.580000,1)} 43.750000% {opacity: 1} 100% {opacity: 1} }]]></style><defs><clipPath id="ejmew89oo0m2"><rect id="ejmew89oo0m3" width="124.500000" height="192" rx="0" ry="0" fill="rgb(255,255,255)" stroke="none" stroke-width="1"/></clipPath></defs><g id="ejmew89oo0m4" opacity="0"><g id="ejmew89oo0m5" transform="matrix(0.76574623863671 0 0 0.76574623863671 40.34458682999991 22.63577345000006)"><path id="ejmew89oo0m6" d="M26.312500,8C26.312500,3.857870,29.670400,0.500000,33.812500,0.500000L307.437000,0.500000C311.580000,0.500000,314.937000,3.857860,314.937000,8L314.937000,187.187000L26.312500,187.187000L26.312500,8Z" transform="matrix(1 0 0 0.98110286122929 0.00019933722478 -0.74291566557605)" fill="rgb(255,255,255)" stroke="rgb(206,211,221)" stroke-width="1"/><rect id="ejmew89oo0m7" width="279" height="174" rx="0" ry="0" transform="matrix(1.03624531810402 0 0 1 26.08584634102596 8.81258000000000)" fill="none" stroke="rgb(206,211,221)" stroke-width="1"/><g id="ejmew89oo0m8" transform="matrix(1 0 0 1 -135.03799560817453 -0.88964930629350)"><circle id="ejmew89oo0m9" r="1.687500" transform="matrix(1 0 0 1 176.15394775437784 4.94606500000000)" fill="none" stroke="rgb(206,211,221)" stroke-width="1"/><circle id="ejmew89oo0m10" r="1.687500" transform="matrix(1 0 0 1 170.62494933247552 4.94606500000000)" fill="none" stroke="rgb(206,211,221)" stroke-width="1"/><circle id="ejmew89oo0m11" r="1.687500" transform="matrix(1 0 0 1 181.58126735492715 4.94606500000001)" fill="none" stroke="rgb(206,211,221)" stroke-width="1"/></g><g id="ejmew89oo0m12" display="none" transform="matrix(0.18006067997277 0 0 0.18006067997277 132.31746654890443 75.04702150799282)"><rect id="ejmew89oo0m13" width="412.634000" height="259" rx="22" ry="22" fill="rgb(243,247,251)" stroke="none" stroke-width="1"/><rect id="ejmew89oo0m14" width="413" height="33" rx="0" ry="0" transform="matrix(1 0 0 1 0 20)" opacity="0.3" fill="rgb(206,211,221)" stroke="none" stroke-width="1"/><rect id="ejmew89oo0m15" width="413" height="60" rx="0" ry="0" transform="matrix(1 0 0 1 0 169)" opacity="0.3" fill="rgb(206,211,221)" stroke="none" stroke-width="1"/><rect id="ejmew89oo0m16" width="413" height="11" rx="0" ry="0" transform="matrix(1 0 0 1 0 60)" opacity="0.3" fill="rgb(206,211,221)" stroke="none" stroke-width="1"/><rect id="ejmew89oo0m17" width="126.557000" height="160.698000" rx="20" ry="20" transform="matrix(1 0 0 1 24.13400000000000 47.67960000000000)" fill="rgb(206,211,221)" stroke="none" stroke-width="1"/><rect id="ejmew89oo0m18" width="33" height="5" rx="2.500000" ry="2.500000" transform="matrix(1 0 0 1 163 49)" fill="rgb(206,211,221)" stroke="none" stroke-width="1"/><rect id="ejmew89oo0m19" width="50" height="5" rx="2.500000" ry="2.500000" transform="matrix(1 0 0 1 163 146)" fill="rgb(206,211,221)" stroke="none" stroke-width="1"/><rect id="ejmew89oo0m20" width="71" height="5" rx="2.500000" ry="2.500000" transform="matrix(1 0 0 1 25 240)" fill="rgb(206,211,221)" stroke="none" stroke-width="1"/><rect id="ejmew89oo0m21" width="67" height="5" rx="2.500000" ry="2.500000" transform="matrix(1 0 0 1 163 170)" fill="rgb(206,211,221)" stroke="none" stroke-width="1"/><rect id="ejmew89oo0m22" width="15" height="5" rx="2.500000" ry="2.500000" transform="matrix(1 0 0 1 258 112)" fill="rgb(206,211,221)" stroke="none" stroke-width="1"/><rect id="ejmew89oo0m23" width="41" height="5" rx="2.500000" ry="2.500000" transform="matrix(1 0 0 1 308 112)" fill="rgb(206,211,221)" stroke="none" stroke-width="1"/><rect id="ejmew89oo0m24" width="48" height="5" rx="2.500000" ry="2.500000" transform="matrix(1 0 0 1 308 136)" fill="rgb(206,211,221)" stroke="none" stroke-width="1"/><rect id="ejmew89oo0m25" width="41" height="5" rx="2.500000" ry="5" transform="matrix(1 0 0 1 308 162)" fill="rgb(206,211,221)" stroke="none" stroke-width="1"/><rect id="ejmew89oo0m26" width="33" height="5" rx="2.500000" ry="5" transform="matrix(1 0 0 1 163 69)" fill="rgb(206,211,221)" stroke="none" stroke-width="1"/><rect id="ejmew89oo0m27" width="40" height="10" rx="5" ry="5" transform="matrix(1 0 0 1 163 56)" fill="rgb(206,211,221)" stroke="none" stroke-width="1"/><rect id="ejmew89oo0m28" width="64" height="10" rx="5" ry="5" transform="matrix(1 0 0 1 163 153)" fill="rgb(206,211,221)" stroke="none" stroke-width="1"/><rect id="ejmew89oo0m29" width="370" height="15" rx="8" ry="8" transform="matrix(1 0 0 1 25 217)" fill="rgb(206,211,221)" stroke="none" stroke-width="1"/><rect id="ejmew89oo0m30" width="67" height="10" rx="5" ry="5" transform="matrix(1 0 0 1 163 177)" fill="rgb(206,211,221)" stroke="none" stroke-width="1"/><rect id="ejmew89oo0m31" width="27" height="10" rx="5" ry="5" transform="matrix(1 0 0 1 258 121.75417198679996)" fill="rgb(206,211,221)" stroke="none" stroke-width="1"/><rect id="ejmew89oo0m32" width="24" height="10" rx="5" ry="5" transform="matrix(1 0 0 1 308 119)" fill="rgb(206,211,221)" stroke="none" stroke-width="1"/><rect id="ejmew89oo0m33" width="64" height="10" rx="5" ry="5" transform="matrix(1 0 0 1 308 143)" fill="rgb(206,211,221)" stroke="none" stroke-width="1"/><rect id="ejmew89oo0m34" width="80" height="10" rx="5" ry="5" transform="matrix(1 0 0 1 308 169)" fill="rgb(206,211,221)" stroke="none" stroke-width="1"/><rect id="ejmew89oo0m35" width="93" height="10" rx="5" ry="5" transform="matrix(1 0 0 1 163 76)" fill="rgb(206,211,221)" stroke="none" stroke-width="1"/></g><rect id="ejmew89oo0m36" width="127" height="74" rx="0" ry="0" transform="matrix(1 0 0 1.01479045893747 105.43744933333099 61.55427454092002)" fill="rgb(156,119,224)" stroke="rgb(147,169,202)" stroke-width="0"/><g id="ejmew89oo0m37" transform="matrix(0.93437891097548 0 0 0.93437891097548 11.23930858653100 10.48798599418630)"><rect id="ejmew89oo0m38" width="53" height="14" rx="7" ry="7" transform="matrix(1 0 0 1 144.12494933247552 143.99999999706407)" fill="rgb(206,211,221)" stroke="none" stroke-width="1"/><rect id="ejmew89oo0m39" width="35" height="4" rx="2" ry="2" transform="matrix(1 0 0 1 153.12494933247552 148.99999999347042)" opacity="0.2" fill="rgb(255,255,255)" stroke="none" stroke-width="1"/></g><rect id="ejmew89oo0m40" width="74" height="3" rx="1.500000" ry="1.500000" transform="matrix(1 0 0 1 133.62494932980499 34)" fill="rgb(206,211,221)" stroke="none" stroke-width="1"/><rect id="ejmew89oo0m41" width="56" height="2" rx="1" ry="1" transform="matrix(1 0 0 1 143 41)" opacity="0.4" fill="rgb(206,211,221)" stroke="none" stroke-width="1"/><rect id="ejmew89oo0m42" width="42" height="2" rx="1" ry="1" transform="matrix(1 0 0 1 150 45)" opacity="0.4" fill="rgb(206,211,221)" stroke="none" stroke-width="1"/><g id="ejmew89oo0m43" transform="matrix(0.46969477282105 0 0 0.46969477282105 115.36939588500007 77.39387982999996)"><path id="ejmew89oo0m44" d="M72.109900,11.268600L72.109900,16L70.516100,16L70.516100,3.914060L74.973600,3.914060C76.296200,3.914060,77.331100,4.251630,78.078100,4.926760C78.830700,5.601890,79.207000,6.495610,79.207000,7.607910C79.207000,8.781090,78.839000,9.685870,78.103000,10.322300C77.372600,10.953100,76.323900,11.268600,74.957000,11.268600L72.109900,11.268600ZM72.109900,9.965330L74.973600,9.965330C75.825800,9.965330,76.478800,9.766110,76.932600,9.367680C77.386400,8.963700,77.613300,8.382650,77.613300,7.624510C77.613300,6.905110,77.386400,6.329590,76.932600,5.897950C76.478800,5.466310,75.856300,5.242190,75.064900,5.225590L72.109900,5.225590L72.109900,9.965330ZM82.668500,16L81.132800,16L81.132800,3.250000L82.668500,3.250000L82.668500,16ZM88.860800,16.166000C87.643400,16.166000,86.652800,15.767600,85.889200,14.970700C85.125500,14.168300,84.743700,13.097500,84.743700,11.758300L84.743700,11.476100C84.743700,10.585100,84.912400,9.791020,85.250000,9.093750C85.593100,8.390950,86.069000,7.843100,86.677700,7.450200C87.292000,7.051760,87.956100,6.852540,88.669900,6.852540C89.837600,6.852540,90.745100,7.237140,91.392600,8.006350C92.040000,8.775550,92.363800,9.876790,92.363800,11.310100L92.363800,11.949200L86.279300,11.949200C86.301400,12.834600,86.558800,13.551300,87.051300,14.099100C87.549300,14.641400,88.180200,14.912600,88.943800,14.912600C89.486200,14.912600,89.945500,14.801900,90.321800,14.580600C90.698100,14.359200,91.027300,14.065900,91.309600,13.700700L92.247600,14.431200C91.495000,15.587700,90.366000,16.166000,88.860800,16.166000ZM88.669900,8.114260C88.050100,8.114260,87.529900,8.341150,87.109400,8.794920C86.688800,9.243160,86.428700,9.874020,86.329100,10.687500L90.828100,10.687500L90.828100,10.571300C90.783900,9.791020,90.573600,9.187830,90.197300,8.761720C89.821000,8.330080,89.311800,8.114260,88.669900,8.114260ZM99.693400,16C99.604800,15.822900,99.532900,15.507500,99.477500,15.053700C98.763700,15.795200,97.911500,16.166000,96.920900,16.166000C96.035500,16.166000,95.307800,15.917000,94.737800,15.418900C94.173300,14.915400,93.891100,14.279000,93.891100,13.509800C93.891100,12.574500,94.245300,11.849600,94.953600,11.335000C95.667500,10.814800,96.669100,10.554700,97.958500,10.554700L99.452600,10.554700L99.452600,9.849120C99.452600,9.312340,99.292200,8.886230,98.971200,8.570800C98.650200,8.249840,98.177100,8.089360,97.551800,8.089360C97.003900,8.089360,96.544600,8.227700,96.173800,8.504390C95.803100,8.781090,95.617700,9.115890,95.617700,9.508790L94.073700,9.508790C94.073700,9.060550,94.231400,8.628910,94.546900,8.213870C94.867800,7.793290,95.299500,7.461260,95.841800,7.217770C96.389600,6.974280,96.990100,6.852540,97.643100,6.852540C98.677900,6.852540,99.488600,7.112630,100.075000,7.632810C100.662000,8.147460,100.966000,8.858560,100.988000,9.766110L100.988000,13.899900C100.988000,14.724400,101.093000,15.380200,101.304000,15.867200L101.304000,16L99.693400,16ZM97.145000,14.829600C97.626500,14.829600,98.083000,14.705100,98.514600,14.456100C98.946300,14.207000,99.259000,13.883300,99.452600,13.484900L99.452600,11.642100L98.249000,11.642100C96.367500,11.642100,95.426800,12.192700,95.426800,13.293900C95.426800,13.775400,95.587200,14.151700,95.908200,14.422900C96.229200,14.694000,96.641400,14.829600,97.145000,14.829600ZM108.625000,13.617700C108.625000,13.202600,108.467000,12.881700,108.152000,12.654800C107.842000,12.422400,107.297000,12.223100,106.517000,12.057100C105.742000,11.891100,105.125000,11.691900,104.666000,11.459500C104.212000,11.227100,103.874000,10.950400,103.653000,10.629400C103.437000,10.308400,103.329000,9.926600,103.329000,9.483890C103.329000,8.747880,103.639000,8.125330,104.259000,7.616210C104.884000,7.107100,105.681000,6.852540,106.649000,6.852540C107.668000,6.852540,108.492000,7.115400,109.123000,7.641110C109.759000,8.166830,110.078000,8.839190,110.078000,9.658200L108.534000,9.658200C108.534000,9.237630,108.354000,8.875160,107.994000,8.570800C107.640000,8.266440,107.192000,8.114260,106.649000,8.114260C106.090000,8.114260,105.653000,8.236000,105.338000,8.479490C105.022000,8.722980,104.865000,9.041180,104.865000,9.434080C104.865000,9.804850,105.011000,10.084300,105.305000,10.272500C105.598000,10.460600,106.126000,10.640500,106.890000,10.812000C107.659000,10.983600,108.282000,11.188300,108.758000,11.426300C109.234000,11.664200,109.585000,11.952000,109.812000,12.289600C110.044000,12.621600,110.161000,13.028300,110.161000,13.509800C110.161000,14.312200,109.840000,14.956900,109.198000,15.443800C108.556000,15.925300,107.723000,16.166000,106.699000,16.166000C105.980000,16.166000,105.343000,16.038700,104.790000,15.784200C104.237000,15.529600,103.802000,15.175500,103.487000,14.721700C103.177000,14.262400,103.022000,13.767100,103.022000,13.235800L104.558000,13.235800C104.585000,13.750500,104.790000,14.160000,105.172000,14.464400C105.559000,14.763200,106.068000,14.912600,106.699000,14.912600C107.280000,14.912600,107.745000,14.796400,108.094000,14.564000C108.448000,14.326000,108.625000,14.010600,108.625000,13.617700ZM115.888000,16.166000C114.671000,16.166000,113.680000,15.767600,112.917000,14.970700C112.153000,14.168300,111.771000,13.097500,111.771000,11.758300L111.771000,11.476100C111.771000,10.585100,111.940000,9.791020,112.277000,9.093750C112.620000,8.390950,113.096000,7.843100,113.705000,7.450200C114.319000,7.051760,114.983000,6.852540,115.697000,6.852540C116.865000,6.852540,117.772000,7.237140,118.420000,8.006350C119.067000,8.775550,119.391000,9.876790,119.391000,11.310100L119.391000,11.949200L113.307000,11.949200C113.329000,12.834600,113.586000,13.551300,114.079000,14.099100C114.577000,14.641400,115.208000,14.912600,115.971000,14.912600C116.514000,14.912600,116.973000,14.801900,117.349000,14.580600C117.725000,14.359200,118.055000,14.065900,118.337000,13.700700L119.275000,14.431200C118.522000,15.587700,117.393000,16.166000,115.888000,16.166000ZM115.697000,8.114260C115.077000,8.114260,114.557000,8.341150,114.137000,8.794920C113.716000,9.243160,113.456000,9.874020,113.356000,10.687500L117.855000,10.687500L117.855000,10.571300C117.811000,9.791020,117.601000,9.187830,117.225000,8.761720C116.848000,8.330080,116.339000,8.114260,115.697000,8.114260ZM130.622000,13.617700C130.622000,13.202600,130.464000,12.881700,130.149000,12.654800C129.839000,12.422400,129.294000,12.223100,128.514000,12.057100C127.739000,11.891100,127.122000,11.691900,126.663000,11.459500C126.209000,11.227100,125.871000,10.950400,125.650000,10.629400C125.434000,10.308400,125.326000,9.926600,125.326000,9.483890C125.326000,8.747880,125.636000,8.125330,126.256000,7.616210C126.881000,7.107100,127.678000,6.852540,128.646000,6.852540C129.665000,6.852540,130.489000,7.115400,131.120000,7.641110C131.757000,8.166830,132.075000,8.839190,132.075000,9.658200L130.531000,9.658200C130.531000,9.237630,130.351000,8.875160,129.991000,8.570800C129.637000,8.266440,129.189000,8.114260,128.646000,8.114260C128.088000,8.114260,127.650000,8.236000,127.335000,8.479490C127.020000,8.722980,126.862000,9.041180,126.862000,9.434080C126.862000,9.804850,127.008000,10.084300,127.302000,10.272500C127.595000,10.460600,128.124000,10.640500,128.887000,10.812000C129.656000,10.983600,130.279000,11.188300,130.755000,11.426300C131.231000,11.664200,131.582000,11.952000,131.809000,12.289600C132.042000,12.621600,132.158000,13.028300,132.158000,13.509800C132.158000,14.312200,131.837000,14.956900,131.195000,15.443800C130.553000,15.925300,129.720000,16.166000,128.696000,16.166000C127.977000,16.166000,127.340000,16.038700,126.787000,15.784200C126.234000,15.529600,125.799000,15.175500,125.484000,14.721700C125.174000,14.262400,125.019000,13.767100,125.019000,13.235800L126.555000,13.235800C126.582000,13.750500,126.787000,14.160000,127.169000,14.464400C127.556000,14.763200,128.065000,14.912600,128.696000,14.912600C129.277000,14.912600,129.742000,14.796400,130.091000,14.564000C130.445000,14.326000,130.622000,14.010600,130.622000,13.617700ZM139.703000,16C139.615000,15.822900,139.543000,15.507500,139.487000,15.053700C138.773000,15.795200,137.921000,16.166000,136.931000,16.166000C136.045000,16.166000,135.318000,15.917000,134.748000,15.418900C134.183000,14.915400,133.901000,14.279000,133.901000,13.509800C133.901000,12.574500,134.255000,11.849600,134.963000,11.335000C135.677000,10.814800,136.679000,10.554700,137.968000,10.554700L139.462000,10.554700L139.462000,9.849120C139.462000,9.312340,139.302000,8.886230,138.981000,8.570800C138.660000,8.249840,138.187000,8.089360,137.562000,8.089360C137.014000,8.089360,136.554000,8.227700,136.184000,8.504390C135.813000,8.781090,135.627000,9.115890,135.627000,9.508790L134.083000,9.508790C134.083000,9.060550,134.241000,8.628910,134.557000,8.213870C134.878000,7.793290,135.309000,7.461260,135.852000,7.217770C136.399000,6.974280,137,6.852540,137.653000,6.852540C138.688000,6.852540,139.498000,7.112630,140.085000,7.632810C140.672000,8.147460,140.976000,8.858560,140.998000,9.766110L140.998000,13.899900C140.998000,14.724400,141.103000,15.380200,141.313000,15.867200L141.313000,16L139.703000,16ZM137.155000,14.829600C137.636000,14.829600,138.093000,14.705100,138.524000,14.456100C138.956000,14.207000,139.269000,13.883300,139.462000,13.484900L139.462000,11.642100L138.259000,11.642100C136.377000,11.642100,135.437000,12.192700,135.437000,13.293900C135.437000,13.775400,135.597000,14.151700,135.918000,14.422900C136.239000,14.694000,136.651000,14.829600,137.155000,14.829600ZM146.211000,13.750500L148.303000,7.018550L149.946000,7.018550L146.335000,17.386200C145.777000,18.880400,144.888000,19.627400,143.671000,19.627400L143.380000,19.602500L142.808000,19.494600L142.808000,18.249500L143.223000,18.282700C143.743000,18.282700,144.147000,18.177600,144.435000,17.967300C144.728000,17.757000,144.969000,17.372400,145.157000,16.813500L145.497000,15.900400L142.293000,7.018550L143.970000,7.018550L146.211000,13.750500ZM151.274000,15.194800C151.274000,14.929200,151.352000,14.707800,151.507000,14.530800C151.667000,14.353700,151.905000,14.265100,152.221000,14.265100C152.536000,14.265100,152.774000,14.353700,152.935000,14.530800C153.101000,14.707800,153.184000,14.929200,153.184000,15.194800C153.184000,15.449400,153.101000,15.662400,152.935000,15.834000C152.774000,16.005500,152.536000,16.091300,152.221000,16.091300C151.905000,16.091300,151.667000,16.005500,151.507000,15.834000C151.352000,15.662400,151.274000,15.449400,151.274000,15.194800ZM151.283000,7.865230C151.283000,7.599610,151.360000,7.378260,151.515000,7.201170C151.676000,7.024090,151.914000,6.935550,152.229000,6.935550C152.544000,6.935550,152.782000,7.024090,152.943000,7.201170C153.109000,7.378260,153.192000,7.599610,153.192000,7.865230C153.192000,8.119790,153.109000,8.332850,152.943000,8.504390C152.782000,8.675940,152.544000,8.761720,152.229000,8.761720C151.914000,8.761720,151.676000,8.675940,151.515000,8.504390C151.360000,8.332850,151.283000,8.119790,151.283000,7.865230Z" opacity="0" fill="rgb(255,255,255)" stroke="none" stroke-width="1"/><path id="ejmew89oo0m45" d="M40.412400,41.881200L44.702900,32.592200L49.347400,32.592200L42.578900,45.732800L42.578900,53.209400L38.260000,53.209400L38.260000,45.732800L31.491500,32.592200L36.150200,32.592200L40.412400,41.881200ZM49.389900,45.407100C49.389900,43.887200,49.682600,42.532600,50.267800,41.343100C50.853100,40.153700,51.693300,39.233300,52.788300,38.581900C53.892800,37.930500,55.172000,37.604900,56.625700,37.604900C58.693100,37.604900,60.378200,38.237300,61.680900,39.502300C62.993100,40.767300,63.724700,42.485400,63.875700,44.656600L63.904100,45.704500C63.904100,48.055100,63.248000,49.943100,61.935800,51.368500C60.623600,52.784500,58.863100,53.492600,56.654100,53.492600C54.445100,53.492600,52.679800,52.784500,51.358200,51.368500C50.046000,49.952500,49.389900,48.026700,49.389900,45.591200L49.389900,45.407100ZM53.482200,45.704500C53.482200,47.158200,53.756000,48.272200,54.303500,49.046300C54.851000,49.810900,55.634500,50.193200,56.654100,50.193200C57.645300,50.193200,58.419400,49.815600,58.976300,49.060400C59.533300,48.295800,59.811800,47.078000,59.811800,45.407100C59.811800,43.981600,59.533300,42.877200,58.976300,42.093600C58.419400,41.310100,57.635800,40.918300,56.625700,40.918300C55.625100,40.918300,54.851000,41.310100,54.303500,42.093600C53.756000,42.867700,53.482200,44.071300,53.482200,45.704500ZM75.600400,51.651700C74.590300,52.878900,73.193100,53.492600,71.409000,53.492600C69.766400,53.492600,68.510800,53.020500,67.642300,52.076500C66.783300,51.132500,66.344300,49.749600,66.325500,47.927600L66.325500,37.888100L70.417700,37.888100L70.417700,47.786000C70.417700,49.381400,71.144600,50.179100,72.598400,50.179100C73.986100,50.179100,74.939500,49.697600,75.458800,48.734700L75.458800,37.888100L79.565200,37.888100L79.565200,53.209400L75.713600,53.209400L75.600400,51.651700ZM93.867000,39.559000C94.952600,38.256200,96.316700,37.604900,97.959200,37.604900C101.282000,37.604900,102.967000,39.535400,103.014000,43.396400L103.014000,53.209400L98.922100,53.209400L98.922100,43.509600C98.922100,42.631700,98.733300,41.985100,98.355700,41.569700C97.978100,41.144900,97.350400,40.932500,96.472400,40.932500C95.273500,40.932500,94.405000,41.395100,93.867000,42.320200L93.867000,53.209400L89.774700,53.209400L89.774700,31.459400L93.867000,31.459400L93.867000,39.559000ZM114.980000,53.209400C114.791000,52.841200,114.654000,52.383300,114.569000,51.835800C113.578000,52.940300,112.289000,53.492600,110.703000,53.492600C109.202000,53.492600,107.956000,53.058300,106.965000,52.189800C105.983000,51.321300,105.492000,50.226300,105.492000,48.904700C105.492000,47.281000,106.092000,46.034900,107.291000,45.166400C108.499000,44.297900,110.241000,43.858900,112.516000,43.849500L114.399000,43.849500L114.399000,42.971600C114.399000,42.263500,114.215000,41.697100,113.847000,41.272300C113.488000,40.847500,112.917000,40.635100,112.134000,40.635100C111.444000,40.635100,110.902000,40.800300,110.505000,41.130700C110.118000,41.461100,109.925000,41.914300,109.925000,42.490100L105.832000,42.490100C105.832000,41.602700,106.106000,40.781500,106.654000,40.026200C107.201000,39.271000,107.975000,38.681000,108.976000,38.256200C109.976000,37.822000,111.100000,37.604900,112.346000,37.604900C114.234000,37.604900,115.730000,38.081600,116.835000,39.035000C117.949000,39.979000,118.506000,41.310100,118.506000,43.028200L118.506000,49.669300C118.515000,51.123100,118.718000,52.222900,119.115000,52.968600L119.115000,53.209400L114.980000,53.209400ZM111.595000,50.363200C112.200000,50.363200,112.757000,50.231000,113.266000,49.966700C113.776000,49.692900,114.154000,49.329500,114.399000,48.876300L114.399000,46.242600L112.870000,46.242600C110.821000,46.242600,109.731000,46.950600,109.599000,48.366600L109.585000,48.607300C109.585000,49.117100,109.764000,49.537200,110.123000,49.867600C110.482000,50.198000,110.972000,50.363200,111.595000,50.363200ZM127.157000,48.210800L130.004000,37.888100L134.280000,37.888100L129.112000,53.209400L125.203000,53.209400L120.035000,37.888100L124.311000,37.888100L127.157000,48.210800ZM142.946000,53.492600C140.699000,53.492600,138.868000,52.803400,137.452000,51.425200C136.045000,50.046900,135.342000,48.210800,135.342000,45.916900L135.342000,45.520400C135.342000,43.981600,135.639000,42.608100,136.234000,41.399800C136.829000,40.182000,137.669000,39.247400,138.755000,38.596100C139.850000,37.935300,141.096000,37.604900,142.493000,37.604900C144.589000,37.604900,146.236000,38.265700,147.435000,39.587300C148.643000,40.908900,149.247000,42.782800,149.247000,45.208900L149.247000,46.879800L139.491000,46.879800C139.623000,47.880400,140.020000,48.682800,140.680000,49.287000C141.351000,49.891200,142.196000,50.193200,143.215000,50.193200C144.792000,50.193200,146.024000,49.622100,146.911000,48.479900L148.922000,50.731300C148.308000,51.599800,147.477000,52.279500,146.429000,52.770400C145.382000,53.251800,144.220000,53.492600,142.946000,53.492600ZM142.479000,40.918300C141.667000,40.918300,141.006000,41.192100,140.496000,41.739600C139.996000,42.287200,139.675000,43.070700,139.533000,44.090200L145.226000,44.090200L145.226000,43.764500C145.207000,42.858300,144.962000,42.159700,144.490000,41.668800C144.018000,41.168500,143.347000,40.918300,142.479000,40.918300ZM162.643000,37.888100L162.770000,39.601400C163.856000,38.270400,165.324000,37.604900,167.174000,37.604900C169.147000,37.604900,170.502000,38.383700,171.238000,39.941300C172.314000,38.383700,173.848000,37.604900,175.840000,37.604900C177.502000,37.604900,178.738000,38.091000,179.550000,39.063400C180.362000,40.026200,180.768000,41.480000,180.768000,43.424700L180.768000,53.209400L176.661000,53.209400L176.661000,43.438800C176.661000,42.570400,176.491000,41.937900,176.152000,41.541400C175.812000,41.135500,175.212000,40.932500,174.353000,40.932500C173.126000,40.932500,172.276000,41.517800,171.804000,42.688400L171.819000,53.209400L167.726000,53.209400L167.726000,43.453000C167.726000,42.565600,167.552000,41.923700,167.202000,41.527200C166.853000,41.130700,166.258000,40.932500,165.418000,40.932500C164.257000,40.932500,163.417000,41.413900,162.898000,42.376800L162.898000,53.209400L158.805000,53.209400L158.805000,37.888100L162.643000,37.888100ZM189.646000,47.417800L192.478000,37.888100L196.868000,37.888100L190.708000,55.588300L190.368000,56.395400C189.453000,58.396700,187.942000,59.397300,185.837000,59.397300C185.242000,59.397300,184.638000,59.307700,184.025000,59.128300L184.025000,56.027200L184.648000,56.041400C185.422000,56.041400,185.998000,55.923400,186.375000,55.687400C186.762000,55.451400,187.064000,55.059600,187.282000,54.512100L187.763000,53.251800L182.396000,37.888100L186.800000,37.888100L189.646000,47.417800ZM65.957300,81.193200C66.712500,81.193200,67.326100,80.985600,67.798100,80.570200C68.270100,80.154800,68.515600,79.602600,68.534400,78.913500L72.371800,78.913500C72.362400,79.951900,72.079200,80.905300,71.522200,81.773800C70.965300,82.632900,70.200600,83.303100,69.228300,83.784500C68.265400,84.256600,67.198700,84.492600,66.028100,84.492600C63.838000,84.492600,62.110400,83.798700,60.845500,82.411000C59.580500,81.013900,58.948000,79.088100,58.948000,76.633700L58.948000,76.364600C58.948000,74.004600,59.575800,72.121300,60.831300,70.714700C62.086800,69.308100,63.809700,68.604900,65.999800,68.604900C67.916100,68.604900,69.450100,69.152400,70.601800,70.247400C71.763000,71.333000,72.353000,72.782100,72.371800,74.594600L68.534400,74.594600C68.515600,73.801600,68.270100,73.159700,67.798100,72.668800C67.326100,72.168500,66.703100,71.918300,65.929000,71.918300C64.975500,71.918300,64.253400,72.267600,63.762500,72.966200C63.281000,73.655300,63.040300,74.778700,63.040300,76.336300L63.040300,76.761100C63.040300,78.337600,63.281000,79.470400,63.762500,80.159500C64.243900,80.848700,64.975500,81.193200,65.957300,81.193200ZM74.071100,76.407100C74.071100,74.887200,74.363700,73.532600,74.949000,72.343100C75.534300,71.153700,76.374400,70.233300,77.469500,69.581900C78.574000,68.930500,79.853100,68.604900,81.306900,68.604900C83.374300,68.604900,85.059300,69.237300,86.362100,70.502300C87.674300,71.767300,88.405900,73.485400,88.556900,75.656600L88.585200,76.704500C88.585200,79.055100,87.929100,80.943100,86.617000,82.368500C85.304800,83.784500,83.544200,84.492600,81.335200,84.492600C79.126200,84.492600,77.360900,83.784500,76.039300,82.368500C74.727100,80.952500,74.071100,79.026700,74.071100,76.591200L74.071100,76.407100ZM78.163300,76.704500C78.163300,78.158200,78.437100,79.272200,78.984600,80.046300C79.532200,80.810900,80.315700,81.193200,81.335200,81.193200C82.326400,81.193200,83.100500,80.815600,83.657500,80.060400C84.214500,79.295800,84.492900,78.078000,84.492900,76.407100C84.492900,74.981600,84.214500,73.877200,83.657500,73.093600C83.100500,72.310100,82.317000,71.918300,81.306900,71.918300C80.306200,71.918300,79.532200,72.310100,78.984600,73.093600C78.437100,73.867700,78.163300,75.071300,78.163300,76.704500ZM94.872300,68.888100L94.999800,70.658100C96.094800,69.289300,97.562800,68.604900,99.403600,68.604900C101.027000,68.604900,102.236000,69.081600,103.029000,70.035000C103.822000,70.988500,104.227000,72.413900,104.246000,74.311400L104.246000,84.209400L100.154000,84.209400L100.154000,74.410500C100.154000,73.542000,99.965300,72.914300,99.587700,72.527200C99.210100,72.130700,98.582300,71.932500,97.704400,71.932500C96.552700,71.932500,95.688900,72.423400,95.113100,73.405200L95.113100,84.209400L91.020800,84.209400L91.020800,68.888100L94.872300,68.888100ZM115.659000,79.975500C115.659000,79.475100,115.409000,79.083400,114.909000,78.800200C114.418000,78.507500,113.625000,78.247900,112.530000,78.021400C108.886000,77.256700,107.064000,75.708500,107.064000,73.376800C107.064000,72.017500,107.626000,70.884600,108.749000,69.978400C109.882000,69.062700,111.359000,68.604900,113.181000,68.604900C115.126000,68.604900,116.679000,69.062700,117.840000,69.978400C119.011000,70.894100,119.596000,72.083500,119.596000,73.546800L115.504000,73.546800C115.504000,72.961500,115.315000,72.480000,114.937000,72.102400C114.560000,71.715400,113.970000,71.521900,113.167000,71.521900C112.478000,71.521900,111.945000,71.677600,111.567000,71.989100C111.190000,72.300700,111.001000,72.697100,111.001000,73.178600C111.001000,73.631700,111.213000,73.999900,111.638000,74.283100C112.072000,74.556800,112.799000,74.797600,113.819000,75.005200C114.838000,75.203500,115.697000,75.430100,116.396000,75.684900C118.558000,76.477900,119.638000,77.851400,119.638000,79.805500C119.638000,81.202700,119.039000,82.335500,117.840000,83.204000C116.641000,84.063000,115.093000,84.492600,113.196000,84.492600C111.912000,84.492600,110.769000,84.266000,109.769000,83.812900C108.778000,83.350300,107.999000,82.722500,107.432000,81.929600C106.866000,81.127200,106.583000,80.263400,106.583000,79.338300L110.463000,79.338300C110.500000,80.065100,110.769000,80.622100,111.270000,81.009200C111.770000,81.396200,112.440000,81.589700,113.281000,81.589700C114.064000,81.589700,114.654000,81.443400,115.051000,81.150800C115.456000,80.848700,115.659000,80.456900,115.659000,79.975500ZM129.338000,84.492600C127.091000,84.492600,125.260000,83.803400,123.844000,82.425200C122.437000,81.046900,121.734000,79.210800,121.734000,76.916900L121.734000,76.520400C121.734000,74.981600,122.032000,73.608100,122.626000,72.399800C123.221000,71.182000,124.061000,70.247400,125.147000,69.596100C126.242000,68.935300,127.488000,68.604900,128.885000,68.604900C130.981000,68.604900,132.628000,69.265700,133.827000,70.587300C135.035000,71.908900,135.639000,73.782800,135.639000,76.208900L135.639000,77.879800L125.883000,77.879800C126.015000,78.880400,126.412000,79.682800,127.073000,80.287000C127.743000,80.891200,128.588000,81.193200,129.607000,81.193200C131.184000,81.193200,132.416000,80.622100,133.303000,79.479900L135.314000,81.731300C134.700000,82.599800,133.869000,83.279500,132.822000,83.770400C131.774000,84.251800,130.613000,84.492600,129.338000,84.492600ZM128.871000,71.918300C128.059000,71.918300,127.398000,72.192100,126.888000,72.739600C126.388000,73.287200,126.067000,74.070700,125.926000,75.090200L131.618000,75.090200L131.618000,74.764500C131.599000,73.858300,131.354000,73.159700,130.882000,72.668800C130.410000,72.168500,129.739000,71.918300,128.871000,71.918300ZM141.742000,68.888100L141.870000,70.658100C142.965000,69.289300,144.433000,68.604900,146.274000,68.604900C147.897000,68.604900,149.106000,69.081600,149.899000,70.035000C150.692000,70.988500,151.098000,72.413900,151.116000,74.311400L151.116000,84.209400L147.024000,84.209400L147.024000,74.410500C147.024000,73.542000,146.835000,72.914300,146.458000,72.527200C146.080000,72.130700,145.452000,71.932500,144.574000,71.932500C143.423000,71.932500,142.559000,72.423400,141.983000,73.405200L141.983000,84.209400L137.891000,84.209400L137.891000,68.888100L141.742000,68.888100ZM159.131000,65.121500L159.131000,68.888100L161.751000,68.888100L161.751000,71.890000L159.131000,71.890000L159.131000,79.536500C159.131000,80.102900,159.240000,80.508800,159.457000,80.754300C159.674000,80.999700,160.089000,81.122400,160.703000,81.122400C161.156000,81.122400,161.557000,81.089400,161.907000,81.023300L161.907000,84.124400C161.104000,84.369800,160.278000,84.492600,159.428000,84.492600C156.559000,84.492600,155.095000,83.043500,155.039000,80.145400L155.039000,71.890000L152.802000,71.890000L152.802000,68.888100L155.039000,68.888100L155.039000,65.121500L159.131000,65.121500ZM168.194000,77.879800L164.795000,77.879800L164.314000,63.592200L168.675000,63.592200L168.194000,77.879800ZM166.494000,80.117100C167.184000,80.117100,167.736000,80.320000,168.151000,80.726000C168.576000,81.131900,168.788000,81.651100,168.788000,82.283600C168.788000,82.906600,168.576000,83.421100,168.151000,83.827000C167.736000,84.233000,167.184000,84.435900,166.494000,84.435900C165.815000,84.435900,165.262000,84.233000,164.838000,83.827000C164.422000,83.421100,164.215000,82.906600,164.215000,82.283600C164.215000,81.660500,164.422000,81.146000,164.838000,80.740100C165.262000,80.324700,165.815000,80.117100,166.494000,80.117100Z" opacity="0" fill="rgb(255,255,255)" stroke="none" stroke-width="1"/></g><g id="ejmew89oo0m46" transform="matrix(0.44069380371315 0 0 0.44069380371315 94.92022710860566 55.01825073936164)"><rect id="ejmew89oo0m47" width="100" height="42" rx="21" ry="21" transform="matrix(1 0 0 1 0 0.50097697973251)" fill="rgb(240,90,126)" stroke="none" stroke-width="1"/><path id="ejmew89oo0m48" d="M49.268600,22.385700C49.268600,23.762000,48.983700,24.814800,48.414100,25.543900C47.844400,26.273100,47.010400,26.637700,45.912100,26.637700C44.827500,26.637700,43.998000,26.279900,43.423800,25.564500C42.849600,24.849000,42.555700,23.823600,42.542000,22.488300L42.542000,20.656200C42.542000,19.266300,42.829100,18.211300,43.403300,17.491200C43.982100,16.771200,44.813800,16.411100,45.898400,16.411100C46.983100,16.411100,47.812500,16.768900,48.386700,17.484400C48.960900,18.195300,49.254900,19.218400,49.268600,20.553700L49.268600,22.385700ZM47.293000,20.376000C47.293000,19.551100,47.179000,18.951800,46.951200,18.578100C46.727900,18.199900,46.377000,18.010700,45.898400,18.010700C45.433600,18.010700,45.089500,18.190800,44.866200,18.550800C44.647500,18.906200,44.531200,19.464500,44.517600,20.225600L44.517600,22.645500C44.517600,23.456700,44.627000,24.060500,44.845700,24.457000C45.069000,24.849000,45.424500,25.044900,45.912100,25.044900C46.395200,25.044900,46.743800,24.855800,46.958000,24.477500C47.172200,24.099300,47.283900,23.520500,47.293000,22.741200L47.293000,20.376000ZM58.307600,22.385700C58.307600,23.762000,58.022800,24.814800,57.453100,25.543900C56.883500,26.273100,56.049500,26.637700,54.951200,26.637700C53.866500,26.637700,53.037100,26.279900,52.462900,25.564500C51.888700,24.849000,51.594700,23.823600,51.581100,22.488300L51.581100,20.656200C51.581100,19.266300,51.868200,18.211300,52.442400,17.491200C53.021200,16.771200,53.852900,16.411100,54.937500,16.411100C56.022100,16.411100,56.851600,16.768900,57.425800,17.484400C58,18.195300,58.293900,19.218400,58.307600,20.553700L58.307600,22.385700ZM56.332000,20.376000C56.332000,19.551100,56.218100,18.951800,55.990200,18.578100C55.766900,18.199900,55.416000,18.010700,54.937500,18.010700C54.472700,18.010700,54.128600,18.190800,53.905300,18.550800C53.686500,18.906200,53.570300,19.464500,53.556600,20.225600L53.556600,22.645500C53.556600,23.456700,53.666000,24.060500,53.884800,24.457000C54.108100,24.849000,54.463500,25.044900,54.951200,25.044900C55.434200,25.044900,55.782900,24.855800,55.997100,24.477500C56.211300,24.099300,56.322900,23.520500,56.332000,22.741200L56.332000,20.376000ZM60.825200,25.530300C60.825200,25.215800,60.930000,24.960600,61.139600,24.764600C61.353800,24.568700,61.620400,24.470700,61.939500,24.470700C62.263000,24.470700,62.529600,24.568700,62.739300,24.764600C62.953500,24.960600,63.060500,25.215800,63.060500,25.530300C63.060500,25.840200,62.955700,26.093100,62.746100,26.289100C62.536500,26.480500,62.267600,26.576200,61.939500,26.576200C61.615900,26.576200,61.349300,26.480500,61.139600,26.289100C60.930000,26.093100,60.825200,25.840200,60.825200,25.530300ZM60.825200,19.931600C60.825200,19.617200,60.930000,19.362000,61.139600,19.166000C61.353800,18.970100,61.620400,18.872100,61.939500,18.872100C62.263000,18.872100,62.529600,18.970100,62.739300,19.166000C62.953500,19.362000,63.060500,19.617200,63.060500,19.931600C63.060500,20.241500,62.955700,20.494500,62.746100,20.690400C62.536500,20.881800,62.267600,20.977500,61.939500,20.977500C61.615900,20.977500,61.349300,20.881800,61.139600,20.690400C60.930000,20.494500,60.825200,20.241500,60.825200,19.931600ZM72.420900,26.501000L65.598600,26.501000L65.598600,25.147500L68.818400,21.715800C69.260400,21.232700,69.586300,20.811200,69.795900,20.451200C70.010100,20.091100,70.117200,19.749300,70.117200,19.425800C70.117200,18.983700,70.005500,18.637400,69.782200,18.386700C69.558900,18.131500,69.239900,18.003900,68.825200,18.003900C68.378600,18.003900,68.025400,18.158900,67.765600,18.468800C67.510400,18.774100,67.382800,19.177400,67.382800,19.678700L65.400400,19.678700C65.400400,19.072600,65.543900,18.518900,65.831100,18.017600C66.122700,17.516300,66.532900,17.124300,67.061500,16.841800C67.590200,16.554700,68.189500,16.411100,68.859400,16.411100C69.884800,16.411100,70.680000,16.657200,71.245100,17.149400C71.814800,17.641600,72.099600,18.336600,72.099600,19.234400C72.099600,19.726600,71.972000,20.227900,71.716800,20.738300C71.461600,21.248700,71.024100,21.843400,70.404300,22.522500L68.141600,24.908200L72.420900,24.908200L72.420900,26.501000ZM76.647500,20.649400L77.700200,20.649400C78.201500,20.649400,78.572900,20.524100,78.814500,20.273400C79.056000,20.022800,79.176800,19.690100,79.176800,19.275400C79.176800,18.874300,79.056000,18.562200,78.814500,18.338900C78.577500,18.115600,78.249300,18.003900,77.830100,18.003900C77.451800,18.003900,77.135100,18.108700,76.879900,18.318400C76.624700,18.523400,76.497100,18.792300,76.497100,19.125000L74.521500,19.125000C74.521500,18.605500,74.660500,18.140600,74.938500,17.730500C75.221000,17.315800,75.613000,16.992200,76.114300,16.759800C76.620100,16.527300,77.176100,16.411100,77.782200,16.411100C78.835000,16.411100,79.659800,16.664100,80.256800,17.169900C80.853800,17.671200,81.152300,18.363900,81.152300,19.248000C81.152300,19.703800,81.013300,20.123000,80.735400,20.505900C80.457400,20.888700,80.092800,21.182600,79.641600,21.387700C80.202100,21.588200,80.619100,21.889000,80.892600,22.290000C81.170600,22.691100,81.309600,23.165000,81.309600,23.711900C81.309600,24.596000,80.986000,25.304700,80.338900,25.837900C79.696300,26.371100,78.844100,26.637700,77.782200,26.637700C76.788700,26.637700,75.975300,26.375700,75.341800,25.851600C74.712900,25.327500,74.398400,24.634800,74.398400,23.773400L76.374000,23.773400C76.374000,24.147100,76.513000,24.452500,76.791000,24.689500C77.073600,24.926400,77.419900,25.044900,77.830100,25.044900C78.299500,25.044900,78.666300,24.921900,78.930700,24.675800C79.199500,24.425100,79.334000,24.094700,79.334000,23.684600C79.334000,22.691100,78.787100,22.194300,77.693400,22.194300L76.647500,22.194300L76.647500,20.649400Z" fill="rgb(255,255,255)" stroke="none" stroke-width="1"/><rect id="ejmew89oo0m49" width="16" height="16" rx="8" ry="0" transform="matrix(1 0 0 1 15 13.50100040435791)" fill="rgb(255,255,255)" stroke="none" stroke-width="1"/></g></g><g id="ejmew89oo0m50_to" transform="translate(158.043751,123.545061)"><g id="ejmew89oo0m50_ts" transform="scale(0.194142,0.194142)"><g id="ejmew89oo0m50" transform="translate(0,0)" opacity="0"><rect id="ejmew89oo0m51" width="115" height="115" rx="60" ry="60" transform="matrix(1 0 0 1 5.32904514072417 0)" fill="rgb(71,218,174)" stroke="none" stroke-width="1"/><rect id="ejmew89oo0m52" width="6.052630" height="26.170700" rx="3.026320" ry="0" transform="matrix(0.70710700000000 -0.70710700000000 0.70710700000000 0.70710700000000 35.78388788810000 56.92439553350001)" fill="rgb(255,255,255)" stroke="none" stroke-width="1"/><rect id="ejmew89oo0m53" width="6.052630" height="42.056300" rx="3.026320" ry="0" transform="matrix(0.70710700000000 0.70710700000000 -0.70710700000000 0.70710700000000 79.74803679480002 41.41160127720002)" fill="rgb(255,255,255)" stroke="none" stroke-width="1"/></g></g></g><g id="ejmew89oo0m54_to" transform="translate(165.335168,99.680366)"><g id="ejmew89oo0m54" transform="scale(0.764172,0.783652) translate(-62.300100,-96)" opacity="0" clip-path="url(#ejmew89oo0m2)"><path id="ejmew89oo0m55" d="M124.500000,169.800000L124.500000,159.200000C124.500000,147.600000,115,138.100000,103.400000,138.100000L21.100000,138.100000C9.500000,138.100000,0,147.600000,0,159.200000L0,169.800000C17,183.600000,38.600000,192,62.300000,192C85.900000,192,107.500000,183.600000,124.500000,169.800000Z" clip-rule="evenodd" fill="rgb(231,227,231)" fill-rule="evenodd" stroke="none" stroke-width="1"/><path id="ejmew89oo0m56" d="M54.299800,191.600000C56.899800,191.800000,59.599800,191.900000,62.299800,191.900000C64.999800,191.900000,67.599800,191.800000,70.199800,191.600000L66.699800,168.400000L62.299800,166.800000L57.899800,168.400000L54.299800,191.600000Z" clip-rule="evenodd" fill="rgb(156,119,224)" fill-rule="evenodd" stroke="none" stroke-width="1"/><path id="ejmew89oo0m57" d="M70.399900,158.400000L66.599900,168.500000L62.199900,168.500000L57.799900,168.500000L53.899900,158.400000L55.899900,156.700000L62.199900,155.200000L68.499900,156.700000L70.399900,158.400000Z" clip-rule="evenodd" fill="rgb(48,41,94)" fill-rule="evenodd" stroke="none" stroke-width="1"/><path id="ejmew89oo0m58" d="M124.500000,169.800000L124.500000,159.200000C124.500000,147.600000,115,138.100000,103.400000,138.100000L71.900000,138.100000L70.200000,139.100000L76.100000,157.300000L72.300000,191.400000C92,189.500000,110,181.700000,124.500000,169.800000ZM0,169.800000L0,159.200000C0,147.600000,9.500000,138.100000,21.100000,138.100000L52.600000,138.100000L54.300000,139.100000L48.400000,157.300000L52.200000,191.400000C32.500000,189.500000,14.500000,181.700000,0,169.800000Z" clip-rule="evenodd" fill="rgb(76,59,130)" fill-rule="evenodd" stroke="none" stroke-width="1"/><path id="ejmew89oo0m59" d="M74.299800,151.900000L76.099800,157.400000L72.299800,191.500000C76.299800,191.100000,80.299800,190.400000,84.099800,189.600000L91.799800,174.700000L82.399800,145C79.499800,145.700000,76.799800,148.300000,74.299800,151.900000Z" clip-rule="evenodd" fill="rgb(48,41,94)" fill-rule="evenodd" stroke="none" stroke-width="1"/><path id="ejmew89oo0m60" d="M62.299800,88.500000C71.699800,88.500000,79.299800,96.200000,79.299800,105.500000L79.299800,138.100000C79.299800,147.500000,71.599800,155.100000,62.299800,155.100000C52.899800,155.100000,45.299800,147.400000,45.299800,138.100000L45.299800,105.500000C45.199800,96.100000,52.899800,88.500000,62.299800,88.500000Z" clip-rule="evenodd" fill="rgb(233,186,168)" fill-rule="evenodd" stroke="none" stroke-width="1"/><path id="ejmew89oo0m61" d="M62.300200,88.500000C71.700200,88.500000,79.300200,96.200000,79.300200,105.500000L79.300200,133.500000C74.800200,135.600000,69.800200,136.800000,64.600200,136.800000C57.500200,136.800000,50.800200,134.600000,45.200200,130.800000L45.200200,105.500000C45.200200,96.100000,52.900200,88.500000,62.300200,88.500000Z" clip-rule="evenodd" fill="rgb(225,170,149)" fill-rule="evenodd" stroke="none" stroke-width="1"/><path id="ejmew89oo0m62" d="M17.199900,83.400000C16.999900,89.400000,21.799900,94.400000,27.799900,94.500000C27.999900,94.500000,28.099900,94.500000,28.299900,94.500000C27.199900,90.600000,26.599900,86.700000,26.599900,83L26.599900,79.700000C26.599900,73,17.499900,73.400000,17.199900,83.400000Z" clip-rule="evenodd" fill="rgb(225,170,149)" fill-rule="evenodd" stroke="none" stroke-width="1"/><path id="ejmew89oo0m63" d="M107.300000,83.400000C107.500000,89.400000,102.700000,94.400000,96.699700,94.500000C96.499700,94.500000,96.399700,94.500000,96.199700,94.500000C97.299700,90.600000,97.899700,86.700000,97.899700,83L97.899700,79.700000C97.899700,73,107,73.400000,107.300000,83.400000Z" clip-rule="evenodd" fill="rgb(225,170,149)" fill-rule="evenodd" stroke="none" stroke-width="1"/><path id="ejmew89oo0m64" d="M62.300100,20.500000C42.700100,20.500000,26.600100,37.100000,26.600100,57.400000L26.600100,90.900000C26.600100,111.200000,42.700100,127.800000,62.300100,127.800000C81.900100,127.800000,98.000100,111.200000,98.000100,90.900000L98.000100,57.400000C97.900100,37.100000,81.900100,20.500000,62.300100,20.500000Z" clip-rule="evenodd" fill="rgb(233,186,168)" fill-rule="evenodd" stroke="none" stroke-width="1"/><path id="ejmew89oo0m65" d="M64.100200,88.200000C64.800200,90.200000,66.000200,93.700000,65.900200,94.300000C65.800200,95.100000,61.600200,95.300000,60.600200,94.100000C59.900200,93.300000,60.800200,90.400000,61.600200,88.400000C62.600200,85.700000,63.200200,85.600000,64.100200,88.200000Z" clip-rule="evenodd" fill="rgb(241,211,200)" fill-rule="evenodd" stroke="none" stroke-width="1"/><path id="ejmew89oo0m66" d="M49.899900,66C50.699900,66.400000,50.999900,67.300000,50.699900,68.100000C50.299900,68.900000,49.399900,69.200000,48.599900,68.900000C48.599900,68.900000,43.899900,66.700000,39.399900,69.500000C38.699900,70,37.699900,69.700000,37.199900,69C36.699900,68.300000,36.999900,67.300000,37.699900,66.800000C43.699900,63.100000,49.899900,66,49.899900,66Z" clip-rule="evenodd" fill="rgb(48,41,94)" fill-rule="evenodd" stroke="none" stroke-width="1"/><path id="ejmew89oo0m67" d="M86.599900,66.700000C87.399900,67.100000,87.599900,68.100000,87.199900,68.800000C86.799900,69.600000,85.799900,69.800000,85.099900,69.400000C85.099900,69.400000,80.599900,66.800000,75.899900,69.200000C75.099900,69.600000,74.199900,69.300000,73.799900,68.500000C73.399900,67.700000,73.699900,66.800000,74.499900,66.400000C80.699900,63.300000,86.599900,66.700000,86.599900,66.700000Z" clip-rule="evenodd" fill="rgb(48,41,94)" fill-rule="evenodd" stroke="none" stroke-width="1"/><path id="ejmew89oo0m68" d="M102.700000,75.300000C102.700000,75.300000,97.900100,75.400000,97.900100,79.700000C97.900100,79.700000,94.500100,75.300000,95.200100,69.700000C95.200100,69.700000,86.100100,59,86.500100,47.100000C86.900100,35.200000,96.200100,32.600000,96.200100,32.600000C118.500000,39.200000,102.700000,55,102.700000,75.300000Z" clip-rule="evenodd" fill="rgb(48,41,94)" fill-rule="evenodd" stroke="none" stroke-width="1"/><path id="ejmew89oo0m69" d="M21.799800,75.300000C21.799800,75.300000,26.599800,75.400000,26.599800,79.700000C26.599800,79.700000,29.999800,75.300000,29.299800,69.700000C29.299800,69.700000,38.399800,59,37.999800,47.100000C37.599800,35.200000,28.299800,32.600000,28.299800,32.600000C5.999810,39.200000,21.799800,55,21.799800,75.300000Z" clip-rule="evenodd" fill="rgb(48,41,94)" fill-rule="evenodd" stroke="none" stroke-width="1"/><path id="ejmew89oo0m70" d="M74.700000,11.500000C77.600000,10,81,9.100000,84.500000,9.100000C96.100000,9.100000,105.600000,18.500000,105.600000,30.200000C105.600000,41.800000,96.200000,51.300000,84.500000,51.300000C78.900000,51.300000,73.800000,49.100000,70,45.600000C67.900000,49.700000,63.600000,52.500000,58.700000,52.500000C55,52.500000,51.700000,50.900000,49.400000,48.400000C47.100000,51.600000,43.300000,53.600000,39.100000,53.600000C34.200000,53.600000,29.900000,50.800000,27.700000,46.700000C19.600000,44.800000,13.500000,37.600000,13.500000,28.900000C13.500000,18.800000,21.700000,10.600000,31.800000,10.600000C33.800000,10.600000,35.700000,10.900000,37.500000,11.500000C40.900000,4.700000,47.900000,0,56,0C64.200000,0,71.200000,4.700000,74.700000,11.500000Z" clip-rule="evenodd" fill="rgb(48,41,94)" fill-rule="evenodd" stroke="none" stroke-width="1"/><path id="ejmew89oo0m71" d="M62.299800,155.200000L74.299800,166.700000C74.299800,166.700000,78.799800,169.300000,80.499800,165.500000C82.299800,161.700000,87.599800,138.100000,87.599800,138.100000L79.199800,135C79.299800,135,78.799800,149.600000,62.299800,155.200000Z" clip-rule="evenodd" fill="rgb(255,255,255)" fill-rule="evenodd" stroke="none" stroke-width="1"/><path id="ejmew89oo0m72" d="M109.600000,143.800000C109.800000,143.600000,110.100000,143.600000,110.300000,143.800000C110.500000,144,110.500000,144.300000,110.300000,144.500000C110.300000,144.500000,106,149,106,159.700000L106,181.800000C105.700000,182,105.400000,182.100000,105,182.300000L105,159.700000C105,148.500000,109.600000,143.800000,109.600000,143.800000Z" clip-rule="evenodd" fill="rgb(28,19,65)" fill-rule="evenodd" stroke="none" stroke-width="1"/><path id="ejmew89oo0m73" d="M50.200200,151.900000L48.400200,157.400000L52.200200,191.500000C48.200200,191.100000,44.200200,190.400000,40.400200,189.600000L32.700200,174.700000L42.100200,145C45.000200,145.700000,47.700200,148.300000,50.200200,151.900000Z" clip-rule="evenodd" fill="rgb(48,41,94)" fill-rule="evenodd" stroke="none" stroke-width="1"/><path id="ejmew89oo0m74" d="M62.300000,155.200000L50.300000,166.700000C50.300000,166.700000,45.800000,169.300000,44.100000,165.500000C42.300000,161.700000,37,138.100000,37,138.100000L45.400000,135C45.200000,135,45.700000,149.600000,62.300000,155.200000Z" clip-rule="evenodd" fill="rgb(255,255,255)" fill-rule="evenodd" stroke="none" stroke-width="1"/><path id="ejmew89oo0m75" d="M14.899800,143.800000C14.699800,143.600000,14.399800,143.600000,14.199800,143.800000C13.999800,144,13.999800,144.300000,14.199800,144.500000C14.199800,144.500000,18.499800,149,18.499800,159.700000L18.499800,181.800000C18.799800,182,19.099800,182.100000,19.499800,182.300000L19.499800,159.700000C19.499800,148.500000,14.899800,143.800000,14.899800,143.800000Z" clip-rule="evenodd" fill="rgb(28,19,65)" fill-rule="evenodd" stroke="none" stroke-width="1"/><path id="ejmew89oo0m76" d="M44.400000,86.500000C46.800000,86.500000,48.800000,84.500000,48.800000,82.100000C48.800000,79.700000,46.800000,77.700000,44.400000,77.700000C42,77.700000,40,79.700000,40,82.100000C40,84.500000,42,86.500000,44.400000,86.500000Z" clip-rule="evenodd" fill="rgb(48,41,94)" fill-rule="evenodd" stroke="none" stroke-width="1"/><path id="ejmew89oo0m77" d="M80.100200,86.500000C82.500200,86.500000,84.500200,84.500000,84.500200,82.100000C84.500200,79.700000,82.500200,77.700000,80.100200,77.700000C77.700200,77.700000,75.700200,79.700000,75.700200,82.100000C75.700200,84.500000,77.600200,86.500000,80.100200,86.500000Z" clip-rule="evenodd" fill="rgb(48,41,94)" fill-rule="evenodd" stroke="none" stroke-width="1"/><path id="ejmew89oo0m78" d="M70.100000,102.100000C70.100000,106.400000,66.600000,109.900000,62.300000,109.900000C58,109.900000,54.500000,106.400000,54.500000,102.100000C54.500000,101.300000,55.100000,100.700000,55.900000,100.700000L68.600000,100.700000C69.400000,100.700000,70.100000,101.400000,70.100000,102.100000Z" clip-rule="evenodd" fill="rgb(255,255,255)" fill-rule="evenodd" stroke="none" stroke-width="1"/></g></g></g><g id="ejmew89oo0m79_to" style="offset-path:path('M236.264238,198.342396C235.993746,178.819108,195.912517,165.307325,168.678196,169.579449');offset-rotate:0deg"><g id="ejmew89oo0m79" display="none" transform="scale(0.475339,0.475339) translate(0,0)"><path id="ejmew89oo0m80" d="M9.952560,22.255200C9.434090,21.546900,8.915620,20.307400,7.878680,18.713800C7.360220,17.828500,5.804810,16.057800,5.286340,15.349600C4.940700,14.641300,4.940700,14.287200,5.113520,13.578900C5.286340,12.516500,6.323280,11.631200,7.533040,11.631200C8.397150,11.631200,9.261270,12.339400,9.952560,12.870600C10.298200,13.224800,10.816700,13.933000,11.162300,14.287200C11.508000,14.641300,11.508000,14.818400,11.853600,15.172500C12.199300,15.703700,12.372100,16.057800,12.199300,15.349600C12.026400,14.464200,11.853600,13.047700,11.508000,11.631200C11.335100,10.568800,11.162300,10.391700,10.989500,9.683440C10.816700,8.798110,10.643800,8.266910,10.471000,7.381570C10.298200,6.850370,10.125400,5.433840,9.952560,4.725570C9.779730,3.840240,9.779740,2.246640,10.471000,1.538370C10.989500,1.007170,12.026400,0.830108,12.717700,1.184240C13.581800,1.715440,14.100300,2.954910,14.273100,3.486110C14.618800,4.371440,14.964400,5.610910,15.137200,7.027440C15.482900,8.798110,16.001400,11.454100,16.001400,11.985300C16.001400,11.277000,15.828500,10.037600,16.001400,9.329310C16.174200,8.798110,16.519800,8.089840,17.211100,7.912770C17.729600,7.735710,18.248000,7.735710,18.766500,7.735710C19.285000,7.912770,19.803500,8.266910,20.149100,8.621040C20.840400,9.683440,20.840400,11.985300,20.840400,11.808200C21.013200,11.100000,21.013200,9.683440,21.358900,8.975170C21.531700,8.621040,22.223000,8.266910,22.568600,8.089840C23.087100,7.912770,23.778400,7.912770,24.296800,8.089840C24.642500,8.089840,25.333800,8.621040,25.506600,8.975170C25.852300,9.506370,26.025100,11.277000,26.197900,11.985300C26.197900,12.162400,26.370700,11.277000,26.716400,10.745800C27.407700,9.683440,29.827200,9.329310,30,11.808200C30,13.047700,30,12.870600,30,13.756000C30,14.641300,30,15.172500,30,15.880800C30,16.589000,29.827200,18.182600,29.654400,18.890900C29.481500,19.422100,28.963100,20.661600,28.444600,21.369800C28.444600,21.369800,26.543500,23.494600,26.370700,24.557000C26.197900,25.619400,26.197900,25.619400,26.197900,26.327700C26.197900,27.036000,26.370700,27.921300,26.370700,27.921300C26.370700,27.921300,24.988100,28.098400,24.296800,27.921300C23.605600,27.744200,22.741400,26.504800,22.568600,25.973600C22.223000,25.442400,21.704500,25.442400,21.358900,25.973600C21.013200,26.681800,20.149100,27.921300,19.457800,27.921300C18.248000,28.098400,15.828500,27.921300,14.100300,27.921300C14.100300,27.921300,14.445900,26.150600,13.754700,25.442400C13.236200,24.911200,12.372100,24.025800,11.853600,23.494600L9.952560,22.255200Z" fill="none" stroke="rgb(0,0,0)" stroke-width="0.750000" stroke-linecap="round" stroke-linejoin="round"/><path id="ejmew89oo0m81" d="M9.952560,22.255200C9.434090,21.546900,8.915620,20.307400,7.878680,18.713800C7.360220,17.828500,5.804810,16.057800,5.286340,15.349600C4.940700,14.641300,4.940700,14.287200,5.113520,13.578900C5.286340,12.516500,6.323280,11.631200,7.533040,11.631200C8.397150,11.631200,9.261270,12.339400,9.952560,12.870600C10.298200,13.224800,10.816700,13.933000,11.162300,14.287200C11.508000,14.641300,11.508000,14.818400,11.853600,15.172500C12.199300,15.703700,12.372100,16.057800,12.199300,15.349600C12.026400,14.464200,11.853600,13.047700,11.508000,11.631200C11.335100,10.568800,11.162300,10.391700,10.989500,9.683440C10.816700,8.798110,10.643800,8.266910,10.471000,7.381570C10.298200,6.850370,10.125400,5.433840,9.952560,4.725570C9.779730,3.840240,9.779740,2.246640,10.471000,1.538370C10.989500,1.007170,12.026400,0.830108,12.717700,1.184240C13.581800,1.715440,14.100300,2.954910,14.273100,3.486110C14.618800,4.371440,14.964400,5.610910,15.137200,7.027440C15.482900,8.798110,16.001400,11.454100,16.001400,11.985300C16.001400,11.277000,15.828500,10.037600,16.001400,9.329310C16.174200,8.798110,16.519800,8.089840,17.211100,7.912770C17.729600,7.735710,18.248000,7.735710,18.766500,7.735710C19.285000,7.912770,19.803500,8.266910,20.149100,8.621040C20.840400,9.683440,20.840400,11.985300,20.840400,11.808200C21.013200,11.100000,21.013200,9.683440,21.358900,8.975170C21.531700,8.621040,22.223000,8.266910,22.568600,8.089840C23.087100,7.912770,23.778400,7.912770,24.296800,8.089840C24.642500,8.089840,25.333800,8.621040,25.506600,8.975170C25.852300,9.506370,26.025100,11.277000,26.197900,11.985300C26.197900,12.162400,26.370700,11.277000,26.716400,10.745800C27.407700,9.683440,29.827200,9.329310,30,11.808200C30,13.047700,30,12.870600,30,13.756000C30,14.641300,30,15.172500,30,15.880800C30,16.589000,29.827200,18.182600,29.654400,18.890900C29.481500,19.422100,28.963100,20.661600,28.444600,21.369800C28.444600,21.369800,26.543500,23.494600,26.370700,24.557000C26.197900,25.619400,26.197900,25.619400,26.197900,26.327700C26.197900,27.036000,26.370700,27.921300,26.370700,27.921300C26.370700,27.921300,24.988100,28.098400,24.296800,27.921300C23.605600,27.744200,22.741400,26.504800,22.568600,25.973600C22.223000,25.442400,21.704500,25.442400,21.358900,25.973600C21.013200,26.681800,20.149100,27.921300,19.457800,27.921300C18.248000,28.098400,15.828500,27.921300,14.100300,27.921300C14.100300,27.921300,14.445900,26.150600,13.754700,25.442400C13.236200,24.911200,12.372100,24.025800,11.853600,23.494600L9.952560,22.255200Z" fill="rgb(255,255,255)" stroke="none" stroke-width="1"/><path id="ejmew89oo0m82" d="M17.097500,16.936000L17.097500,22.956300" fill="none" stroke="rgb(0,0,0)" stroke-width="0.750000" stroke-linecap="round"/><path id="ejmew89oo0m83" d="M24.010500,22.956300L24.010500,16.936000" fill="none" stroke="rgb(0,0,0)" stroke-width="0.750000" stroke-linecap="round"/><path id="ejmew89oo0m84" d="M20.726900,22.956300L20.554100,16.936000" fill="none" stroke="rgb(0,0,0)" stroke-width="0.750000" stroke-linecap="round"/></g></g><g id="ejmew89oo0m85" transform="matrix(0.71105741081558 0 0 0.71105741081558 46.05349642056922 31.38820799915591)"><path id="ejmew89oo0m86" d="M52.426700,0.200073C37.617100,0.200073,25.611500,12.422700,25.611500,27.500000C25.611500,31.878400,26.623900,36.016000,28.423400,39.683500C29.711000,42.307700,28.561000,45.775000,25.729000,46.499200L0.966194,52.831200C-0.173221,53.122500,0.037849,54.800000,1.213920,54.800000L52.426700,54.800000L57.955900,54.800000L125.372000,54.800000C140.181000,54.800000,152.187000,42.577400,152.187000,27.500000C152.187000,12.422700,140.181000,0.200073,125.372000,0.200073L52.426700,0.200073Z" transform="matrix(1 0 0 1 142.81983750560951 52.89911487801184)" opacity="0" clip-rule="evenodd" fill="rgb(156,119,224)" fill-rule="evenodd" stroke="none" stroke-width="1"/><g id="ejmew89oo0m87" transform="matrix(1 0 0 1 183.16387184216268 64.61419979987588)" opacity="0"><path id="ejmew89oo0m88" d="M5.269800,6.755200L7.761350,1.360960L10.458500,1.360960L6.527910,8.991840L6.527910,13.333500L4.019910,13.333500L4.019910,8.991840L0.089356,1.360960L2.794700,1.360960L5.269800,6.755200Z" fill="rgb(255,255,255)" stroke="none" stroke-width="1"/><path id="ejmew89oo0m89" d="M10.483100,8.802710C10.483100,7.920110,10.653100,7.133450,10.993000,6.442730C11.332800,5.752000,11.820700,5.217510,12.456600,4.839260C13.098000,4.461000,13.840800,4.271880,14.685100,4.271880C15.885600,4.271880,16.864100,4.639170,17.620600,5.373750C18.382600,6.108330,18.807500,7.106040,18.895200,8.366890L18.911600,8.975390C18.911600,10.340400,18.530600,11.436800,17.768600,12.264600C17.006700,13.086900,15.984300,13.498000,14.701500,13.498000C13.418700,13.498000,12.393600,13.086900,11.626100,12.264600C10.864100,11.442300,10.483100,10.324000,10.483100,8.909610L10.483100,8.802710ZM12.859600,8.975390C12.859600,9.819610,13.018500,10.466500,13.336500,10.916000C13.654400,11.360000,14.109400,11.582100,14.701500,11.582100C15.277100,11.582100,15.726600,11.362800,16.050100,10.924200C16.373500,10.480200,16.535200,9.773010,16.535200,8.802710C16.535200,7.974930,16.373500,7.333550,16.050100,6.878540C15.726600,6.423540,15.271600,6.196040,14.685100,6.196040C14.104000,6.196040,13.654400,6.423540,13.336500,6.878540C13.018500,7.328060,12.859600,8.027010,12.859600,8.975390Z" fill="rgb(255,255,255)" stroke="none" stroke-width="1"/><path id="ejmew89oo0m90" d="M25.703800,12.429000C25.117200,13.141700,24.305900,13.498000,23.269800,13.498000C22.315900,13.498000,21.586800,13.223900,21.082500,12.675700C20.583600,12.127500,20.328700,11.324400,20.317800,10.266400L20.317800,4.436330L22.694200,4.436330L22.694200,10.184200C22.694200,11.110600,23.116300,11.573800,23.960500,11.573800C24.766400,11.573800,25.320000,11.294300,25.621500,10.735100L25.621500,4.436330L28.006200,4.436330L28.006200,13.333500L25.769600,13.333500L25.703800,12.429000Z" fill="rgb(255,255,255)" stroke="none" stroke-width="1"/><path id="ejmew89oo0m91" d="M36.311300,5.406640C36.941800,4.650130,37.733900,4.271880,38.687800,4.271880C40.617400,4.271880,41.595900,5.392930,41.623400,7.635050L41.623400,13.333500L39.246900,13.333500L39.246900,7.700840C39.246900,7.191010,39.137300,6.815500,38.918000,6.574300C38.698700,6.327610,38.334200,6.204260,37.824400,6.204260C37.128200,6.204260,36.623800,6.472880,36.311300,7.010110L36.311300,13.333500L33.934900,13.333500L33.934900,0.703125L36.311300,0.703125L36.311300,5.406640Z" fill="rgb(255,255,255)" stroke="none" stroke-width="1"/><path id="ejmew89oo0m92" d="M48.571700,13.333500C48.462100,13.119700,48.382600,12.853900,48.333300,12.535900C47.757700,13.177300,47.009400,13.498000,46.088400,13.498000C45.216800,13.498000,44.493200,13.245800,43.917600,12.741500C43.347400,12.237200,43.062400,11.601200,43.062400,10.833800C43.062400,9.890880,43.410500,9.167260,44.106700,8.662920C44.808400,8.158580,45.819800,7.903670,47.140900,7.898190L48.234600,7.898190L48.234600,7.388360C48.234600,6.977220,48.127700,6.648300,47.913900,6.401610C47.705600,6.154930,47.373900,6.031580,46.918900,6.031580C46.518700,6.031580,46.203500,6.127520,45.973300,6.319380C45.748500,6.511250,45.636100,6.774390,45.636100,7.108790L43.259700,7.108790C43.259700,6.593480,43.418700,6.116550,43.736600,5.678000C44.054600,5.239440,44.504100,4.896820,45.085200,4.650130C45.666300,4.397960,46.318600,4.271880,47.042300,4.271880C48.138700,4.271880,49.007500,4.548710,49.648900,5.102390C50.295800,5.650590,50.619200,6.423540,50.619200,7.421260L50.619200,11.277800C50.624700,12.122000,50.742600,12.760700,50.972800,13.193800L50.972800,13.333500L48.571700,13.333500ZM46.606500,11.680700C46.957300,11.680700,47.280700,11.604000,47.576800,11.450500C47.872800,11.291500,48.092100,11.080500,48.234600,10.817300L48.234600,9.287860L47.346500,9.287860C46.156900,9.287860,45.523800,9.699010,45.447000,10.521300L45.438800,10.661100C45.438800,10.957100,45.543000,11.201100,45.751300,11.392900C45.959600,11.584800,46.244600,11.680700,46.606500,11.680700Z" fill="rgb(255,255,255)" stroke="none" stroke-width="1"/><path id="ejmew89oo0m93" d="M55.643400,10.430800L57.296300,4.436330L59.779600,4.436330L56.778200,13.333500L54.508700,13.333500L51.507300,4.436330L53.990600,4.436330L55.643400,10.430800Z" fill="rgb(255,255,255)" stroke="none" stroke-width="1"/><path id="ejmew89oo0m94" d="M64.812000,13.498000C63.507300,13.498000,62.443800,13.097800,61.621500,12.297500C60.804700,11.497100,60.396300,10.430800,60.396300,9.098730L60.396300,8.868490C60.396300,7.974930,60.569000,7.177310,60.914300,6.475620C61.259700,5.768450,61.747600,5.225740,62.378000,4.847480C63.013900,4.463740,63.737500,4.271880,64.548900,4.271880C65.765900,4.271880,66.722500,4.655610,67.418700,5.423090C68.120400,6.190560,68.471200,7.278730,68.471200,8.687590L68.471200,9.657890L62.805600,9.657890C62.882400,10.239000,63.112600,10.704900,63.496300,11.055800C63.885600,11.406600,64.376200,11.582100,64.968200,11.582100C65.883700,11.582100,66.599100,11.250400,67.114400,10.587100L68.282100,11.894500C67.925800,12.398900,67.443300,12.793600,66.834900,13.078600C66.226400,13.358200,65.552100,13.498000,64.812000,13.498000ZM64.540700,6.196040C64.069200,6.196040,63.685500,6.355020,63.389400,6.672970C63.098900,6.990920,62.912500,7.445930,62.830300,8.037980L66.135900,8.037980L66.135900,7.848850C66.124900,7.322580,65.982400,6.916920,65.708300,6.631860C65.434200,6.341310,65.045000,6.196040,64.540700,6.196040Z" fill="rgb(255,255,255)" stroke="none" stroke-width="1"/><path id="ejmew89oo0m95" d="M76.250100,4.436330L76.324100,5.431310C76.954500,4.658350,77.807000,4.271880,78.881400,4.271880C80.027200,4.271880,80.813800,4.724140,81.241400,5.628660C81.866400,4.724140,82.757200,4.271880,83.913900,4.271880C84.878700,4.271880,85.596800,4.554200,86.068300,5.118840C86.539700,5.678000,86.775400,6.522220,86.775400,7.651500L86.775400,13.333500L84.390800,13.333500L84.390800,7.659720C84.390800,7.155380,84.292100,6.788090,84.094800,6.557850C83.897400,6.322130,83.549300,6.204260,83.050500,6.204260C82.337800,6.204260,81.844400,6.544140,81.570300,7.223910L81.578600,13.333500L79.202100,13.333500L79.202100,7.667940C79.202100,7.152640,79.100700,6.779870,78.897900,6.549630C78.695100,6.319380,78.349700,6.204260,77.861800,6.204260C77.187500,6.204260,76.699600,6.483840,76.398100,7.043000L76.398100,13.333500L74.021700,13.333500L74.021700,4.436330L76.250100,4.436330Z" fill="rgb(255,255,255)" stroke="none" stroke-width="1"/><path id="ejmew89oo0m96" d="M91.931200,9.970360L93.575800,4.436330L96.124900,4.436330L92.547900,14.715000L92.350600,15.183700C91.818800,16.345900,90.941700,16.927000,89.719300,16.927000C89.373900,16.927000,89.023000,16.874900,88.666700,16.770700L88.666700,14.969900L89.028500,14.978100C89.478000,14.978100,89.812400,14.909600,90.031700,14.772600C90.256500,14.635500,90.431900,14.408000,90.558000,14.090100L90.837600,13.358200L87.721100,4.436330L90.278400,4.436330L91.931200,9.970360Z" fill="rgb(255,255,255)" stroke="none" stroke-width="1"/><path id="ejmew89oo0m97" d="M20.104000,29.584000C20.542500,29.584000,20.898800,29.463400,21.172900,29.222200C21.447000,28.981000,21.589600,28.660300,21.600500,28.260100L23.828900,28.260100C23.823500,28.863200,23.659000,29.416800,23.335600,29.921200C23.012100,30.420000,22.568100,30.809200,22.003500,31.088800C21.444300,31.362900,20.824800,31.500000,20.145100,31.500000C18.873300,31.500000,17.870100,31.097000,17.135500,30.291200C16.400900,29.479900,16.033600,28.361600,16.033600,26.936200L16.033600,26.780000C16.033600,25.409500,16.398200,24.315900,17.127300,23.499100C17.856400,22.682300,18.856800,22.273800,20.128600,22.273800C21.241500,22.273800,22.132300,22.591800,22.801100,23.227700C23.475400,23.858100,23.818000,24.699600,23.828900,25.752100L21.600500,25.752100C21.589600,25.291700,21.447000,24.918900,21.172900,24.633800C20.898800,24.343300,20.537000,24.198000,20.087500,24.198000C19.533800,24.198000,19.114500,24.400800,18.829400,24.806500C18.549800,25.206700,18.410000,25.859000,18.410000,26.763600L18.410000,27.010300C18.410000,27.925700,18.549800,28.583600,18.829400,28.983800C19.109000,29.383900,19.533800,29.584000,20.104000,29.584000Z" fill="rgb(255,255,255)" stroke="none" stroke-width="1"/><path id="ejmew89oo0m98" d="M24.815700,26.804700C24.815700,25.922100,24.985600,25.135400,25.325500,24.444700C25.665400,23.754000,26.153300,23.219500,26.789200,22.841200C27.430600,22.463000,28.173400,22.273800,29.017600,22.273800C30.218200,22.273800,31.196700,22.641100,31.953200,23.375700C32.715200,24.110300,33.140000,25.108000,33.227700,26.368900L33.244200,26.977400C33.244200,28.342400,32.863200,29.438800,32.101200,30.266500C31.339200,31.088800,30.316800,31.500000,29.034100,31.500000C27.751300,31.500000,26.726200,31.088800,25.958700,30.266500C25.196700,29.444200,24.815700,28.325900,24.815700,26.911600L24.815700,26.804700ZM27.192100,26.977400C27.192100,27.821600,27.351100,28.468500,27.669100,28.918000C27.987000,29.362000,28.442000,29.584000,29.034100,29.584000C29.609700,29.584000,30.059200,29.364800,30.382600,28.926200C30.706100,28.482200,30.867800,27.775000,30.867800,26.804700C30.867800,25.976900,30.706100,25.335500,30.382600,24.880500C30.059200,24.425500,29.604200,24.198000,29.017600,24.198000C28.436500,24.198000,27.987000,24.425500,27.669100,24.880500C27.351100,25.330000,27.192100,26.029000,27.192100,26.977400Z" fill="rgb(255,255,255)" stroke="none" stroke-width="1"/><path id="ejmew89oo0m99" d="M36.895200,22.438300L36.969200,23.466200C37.605100,22.671300,38.457500,22.273800,39.526500,22.273800C40.469400,22.273800,41.171100,22.550700,41.631600,23.104400C42.092100,23.658000,42.327800,24.485800,42.338800,25.587700L42.338800,31.335500L39.962300,31.335500L39.962300,25.645200C39.962300,25.140900,39.852700,24.776400,39.633400,24.551600C39.414100,24.321400,39.049600,24.206200,38.539800,24.206200C37.871000,24.206200,37.369400,24.491300,37.035000,25.061400L37.035000,31.335500L34.658500,31.335500L34.658500,22.438300L36.895200,22.438300Z" fill="rgb(255,255,255)" stroke="none" stroke-width="1"/><path id="ejmew89oo0m100" d="M48.966400,28.876900C48.966400,28.586300,48.821200,28.358800,48.530600,28.194400C48.245600,28.024400,47.785100,27.873700,47.149200,27.742100C45.033100,27.298100,43.975100,26.399000,43.975100,25.045000C43.975100,24.255600,44.301300,23.597700,44.953600,23.071500C45.611500,22.539700,46.469400,22.273800,47.527400,22.273800C48.656700,22.273800,49.558500,22.539700,50.232800,23.071500C50.912500,23.603200,51.252400,24.293900,51.252400,25.143600L48.876000,25.143600C48.876000,24.803800,48.766300,24.524200,48.547100,24.304900C48.327800,24.080200,47.985200,23.967800,47.519200,23.967800C47.119000,23.967800,46.809300,24.058200,46.590000,24.239100C46.370700,24.420000,46.261100,24.650300,46.261100,24.929900C46.261100,25.193000,46.384400,25.406800,46.631100,25.571200C46.883300,25.730200,47.305400,25.870000,47.897500,25.990600C48.489500,26.105700,48.988400,26.237300,49.394000,26.385300C50.649400,26.845800,51.277100,27.643400,51.277100,28.778200C51.277100,29.589500,50.929000,30.247300,50.232800,30.751700C49.536600,31.250500,48.637500,31.500000,47.535600,31.500000C46.790100,31.500000,46.126800,31.368400,45.545700,31.105300C44.970100,30.836700,44.517800,30.472100,44.188900,30.011600C43.860000,29.545700,43.695500,29.044100,43.695500,28.506800L45.948600,28.506800C45.970500,28.928900,46.126800,29.252400,46.417300,29.477100C46.707900,29.701900,47.097100,29.814300,47.585000,29.814300C48.040000,29.814300,48.382600,29.729300,48.612800,29.559400C48.848600,29.383900,48.966400,29.156400,48.966400,28.876900Z" fill="rgb(255,255,255)" stroke="none" stroke-width="1"/><path id="ejmew89oo0m101" d="M56.909800,31.500000C55.605100,31.500000,54.541600,31.099800,53.719300,30.299400C52.902500,29.499100,52.494100,28.432800,52.494100,27.100700L52.494100,26.870500C52.494100,25.976900,52.666700,25.179300,53.012100,24.477600C53.357500,23.770400,53.845400,23.227700,54.475800,22.849500C55.111700,22.465700,55.835300,22.273800,56.646600,22.273800C57.863600,22.273800,58.820200,22.657600,59.516400,23.425100C60.218100,24.192500,60.569000,25.280700,60.569000,26.689600L60.569000,27.659900L54.903400,27.659900C54.980100,28.241000,55.210400,28.706900,55.594100,29.057800C55.983300,29.408600,56.474000,29.584000,57.066000,29.584000C57.981500,29.584000,58.696900,29.252400,59.212200,28.589100L60.379900,29.896500C60.023500,30.400800,59.541100,30.795500,58.932600,31.080600C58.324100,31.360200,57.649800,31.500000,56.909800,31.500000ZM56.638400,24.198000C56.167000,24.198000,55.783200,24.357000,55.487200,24.674900C55.196700,24.992900,55.010300,25.447900,54.928100,26.039900L58.233700,26.039900L58.233700,25.850800C58.222700,25.324600,58.080200,24.918900,57.806100,24.633800C57.532000,24.343300,57.142800,24.198000,56.638400,24.198000Z" fill="rgb(255,255,255)" stroke="none" stroke-width="1"/><path id="ejmew89oo0m102" d="M64.113100,22.438300L64.187100,23.466200C64.823000,22.671300,65.675400,22.273800,66.744400,22.273800C67.687300,22.273800,68.389000,22.550700,68.849500,23.104400C69.310000,23.658000,69.545700,24.485800,69.556600,25.587700L69.556600,31.335500L67.180200,31.335500L67.180200,25.645200C67.180200,25.140900,67.070600,24.776400,66.851300,24.551600C66.632000,24.321400,66.267500,24.206200,65.757600,24.206200C65.088800,24.206200,64.587300,24.491300,64.252900,25.061400L64.252900,31.335500L61.876400,31.335500L61.876400,22.438300L64.113100,22.438300Z" fill="rgb(255,255,255)" stroke="none" stroke-width="1"/><path id="ejmew89oo0m103" d="M74.210800,20.251000L74.210800,22.438300L75.732100,22.438300L75.732100,24.181600L74.210800,24.181600L74.210800,28.621900C74.210800,28.950900,74.273900,29.186600,74.399900,29.329100C74.526000,29.471700,74.767200,29.542900,75.123600,29.542900C75.386700,29.542900,75.619700,29.523700,75.822500,29.485400L75.822500,31.286200C75.356500,31.428700,74.876900,31.500000,74.383500,31.500000C72.717000,31.500000,71.867300,30.658500,71.834400,28.975500L71.834400,24.181600L70.535200,24.181600L70.535200,22.438300L71.834400,22.438300L71.834400,20.251000L74.210800,20.251000Z" fill="rgb(255,255,255)" stroke="none" stroke-width="1"/><path id="ejmew89oo0m104" d="M79.473500,27.659900L77.500000,27.659900L77.220400,19.362900L79.753100,19.362900L79.473500,27.659900ZM78.486700,28.959100C78.886900,28.959100,79.207600,29.077000,79.448800,29.312700C79.695500,29.548400,79.818900,29.849900,79.818900,30.217200C79.818900,30.579000,79.695500,30.877800,79.448800,31.113500C79.207600,31.349200,78.886900,31.467100,78.486700,31.467100C78.092000,31.467100,77.771300,31.349200,77.524700,31.113500C77.283400,30.877800,77.162800,30.579000,77.162800,30.217200C77.162800,29.855400,77.283400,29.556600,77.524700,29.320900C77.771300,29.079700,78.092000,28.959100,78.486700,28.959100Z" fill="rgb(255,255,255)" stroke="none" stroke-width="1"/></g></g></svg>