<svg id="etnur96bi35c1" xmlns="http://www.w3.org/2000/svg" xmlns:xlink="http://www.w3.org/1999/xlink" viewBox="0 0 342 196" shape-rendering="geometricPrecision" text-rendering="geometricPrecision"><style><![CDATA[#etnur96bi35c2 {animation: etnur96bi35c2_c_o 6000ms linear infinite normal forwards}@keyframes etnur96bi35c2_c_o { 0% {opacity: 0} 3.333333% {opacity: 1} 96.666667% {opacity: 1} 100% {opacity: 0} }#etnur96bi35c3_to {animation: etnur96bi35c3_to__to 6000ms linear infinite normal forwards}@keyframes etnur96bi35c3_to__to { 0% {transform: translate(40.344587px,22.635773px)} 6.666667% {transform: translate(40.344587px,22.635773px)} 16.666667% {transform: translate(40.344587px,22.635773px);animation-timing-function: cubic-bezier(0.420000,0,0.580000,1)} 21.666667% {transform: translate(-119.579356px,-86.189747px)} 100% {transform: translate(-119.579356px,-86.189747px)} }#etnur96bi35c3_ts {animation: etnur96bi35c3_ts__ts 6000ms linear infinite normal forwards}@keyframes etnur96bi35c3_ts__ts { 0% {transform: scale(0.765746,0.765746)} 6.666667% {transform: scale(0.765746,0.765746)} 16.666667% {transform: scale(0.765746,0.765746);animation-timing-function: cubic-bezier(0.420000,0,0.580000,1)} 21.666667% {transform: scale(1.703030,1.703030)} 100% {transform: scale(1.703030,1.703030)} }#etnur96bi35c9_to {animation: etnur96bi35c9_to__to 6000ms linear infinite normal forwards}@keyframes etnur96bi35c9_to__to { 0% {transform: translate(132.317467px,75.047022px)} 23.333333% {transform: translate(132.317467px,75.047022px);animation-timing-function: cubic-bezier(0.420000,0,0.580000,1)} 28.333333% {transform: translate(108.723239px,60.250640px);animation-timing-function: cubic-bezier(0.420000,0,0.580000,1)} 33.333333% {transform: translate(167.932063px,60.218254px)} 100% {transform: translate(167.932063px,60.218254px)} }#etnur96bi35c9_tk {animation: etnur96bi35c9_tk__tk 6000ms linear infinite normal forwards}@keyframes etnur96bi35c9_tk__tk { 0% {transform: skewX(0deg) skewY(0deg)} 23.333333% {transform: skewX(0deg) skewY(0deg);animation-timing-function: cubic-bezier(0.420000,0,0.580000,1)} 30% {transform: skewX(0deg) skewY(0deg);animation-timing-function: cubic-bezier(0.420000,0,0.580000,1)} 33.333333% {transform: skewX(0deg) skewY(10deg)} 100% {transform: skewX(0deg) skewY(10deg)} }#etnur96bi35c9_ts {animation: etnur96bi35c9_ts__ts 6000ms linear infinite normal forwards}@keyframes etnur96bi35c9_ts__ts { 0% {transform: scale(0.180061,0.180061)} 23.333333% {transform: scale(0.180061,0.180061);animation-timing-function: cubic-bezier(0.420000,0,0.580000,1)} 28.333333% {transform: scale(0.294318,0.294318);animation-timing-function: cubic-bezier(0.420000,0,0.580000,1)} 33.333333% {transform: scale(0.002243,0.294318)} 100% {transform: scale(0.002243,0.294318)} }#etnur96bi35c9 {animation: etnur96bi35c9_c_o 6000ms linear infinite normal forwards}@keyframes etnur96bi35c9_c_o { 0% {opacity: 0} 23.333333% {opacity: 0;animation-timing-function: cubic-bezier(0.420000,0,0.580000,1)} 28.333333% {opacity: 1;animation-timing-function: cubic-bezier(0.420000,0,0.580000,1)} 33.166667% {opacity: 1;animation-timing-function: cubic-bezier(0.420000,0,0.580000,1)} 33.500000% {opacity: 0} 100% {opacity: 0} }#etnur96bi35c34_to {animation: etnur96bi35c34_to__to 6000ms linear infinite normal forwards}@keyframes etnur96bi35c34_to__to { 0% {transform: translate(167.932063px,60.218254px)} 33.500000% {transform: translate(167.932063px,60.218254px);animation-timing-function: cubic-bezier(0.420000,0,0.580000,1)} 36.666667% {transform: translate(110.124368px,59.794738px);animation-timing-function: cubic-bezier(0.420000,0,0.580000,1)} 40.166667% {transform: translate(110.124368px,59.794738px);animation-timing-function: cubic-bezier(0.420000,0,0.580000,1)} 45% {transform: translate(118.802964px,56.271520px);animation-timing-function: cubic-bezier(0.110000,0.660000,0.225000,0.870000)} 50% {transform: translate(126.076904px,71.587289px)} 55% {transform: translate(118.723059px,67.168048px);animation-timing-function: cubic-bezier(0.965000,-0.005000,0.550000,0.950000)} 61.666667% {transform: translate(121.219033px,69.192541px)} 100% {transform: translate(121.219033px,69.192541px)} }#etnur96bi35c34_tk {animation: etnur96bi35c34_tk__tk 6000ms linear infinite normal forwards}@keyframes etnur96bi35c34_tk__tk { 0% {transform: skewX(0deg) skewY(10deg)} 33.500000% {transform: skewX(0deg) skewY(10deg);animation-timing-function: cubic-bezier(0.420000,0,0.580000,1)} 36.666667% {transform: skewX(0deg) skewY(0deg)} 40.166667% {transform: skewX(0deg) skewY(0deg)} 100% {transform: skewX(0deg) skewY(0deg)} }#etnur96bi35c34_ts {animation: etnur96bi35c34_ts__ts 6000ms linear infinite normal forwards}@keyframes etnur96bi35c34_ts__ts { 0% {transform: scale(0.002243,0.294318)} 33.500000% {transform: scale(0.002243,0.294318);animation-timing-function: cubic-bezier(0.420000,0,0.580000,1)} 36.666667% {transform: scale(0.294318,0.294318);animation-timing-function: cubic-bezier(0.110000,0.660000,0.225000,0.870000)} 40.166667% {transform: scale(0.294318,0.294318);animation-timing-function: cubic-bezier(0.110000,0.660000,0.225000,0.870000)} 45% {transform: scale(0.294318,0.294318);animation-timing-function: cubic-bezier(0.110000,0.660000,0.225000,0.870000)} 50% {transform: scale(0.202109,0.206777)} 55% {transform: scale(0.244480,0.244480);animation-timing-function: cubic-bezier(0.965000,-0.005000,0.550000,0.950000)} 61.666667% {transform: scale(0.228456,0.228456)} 100% {transform: scale(0.228456,0.228456)} }#etnur96bi35c34 {animation: etnur96bi35c34_c_o 6000ms linear infinite normal forwards}@keyframes etnur96bi35c34_c_o { 0% {opacity: 0} 33.333333% {opacity: 0} 33.666667% {opacity: 1} 100% {opacity: 1} }#etnur96bi35c48_to {animation: etnur96bi35c48_to__to 6000ms linear infinite normal forwards}@keyframes etnur96bi35c48_to__to { 0% {transform: translate(0px,0px)} 6.666667% {transform: translate(0px,0px)} 16.666667% {transform: translate(0px,0px)} 21.666667% {transform: translate(-51.618559px,-24.753331px)} 100% {transform: translate(-51.618559px,-24.753331px)} }#etnur96bi35c48_ts {animation: etnur96bi35c48_ts__ts 6000ms linear infinite normal forwards}@keyframes etnur96bi35c48_ts__ts { 0% {transform: scale(1,1)} 6.666667% {transform: scale(1,1)} 16.666667% {transform: scale(1,1)} 21.666667% {transform: scale(1.295981,1.295981)} 100% {transform: scale(1.295981,1.295981)} }#etnur96bi35c48 {animation: etnur96bi35c48_c_o 6000ms linear infinite normal forwards}@keyframes etnur96bi35c48_c_o { 0% {opacity: 1} 73.333333% {opacity: 1} 77% {opacity: 0} 100% {opacity: 0} }#etnur96bi35c51 {animation: etnur96bi35c51_f_o 6000ms linear infinite normal forwards}@keyframes etnur96bi35c51_f_o { 0% {fill-opacity: 0.100000} 6.666667% {fill-opacity: 0.100000} 16.666667% {fill-opacity: 0.100000} 21.666667% {fill-opacity: 0} 100% {fill-opacity: 0} }#etnur96bi35c52_to {animation: etnur96bi35c52_to__to 6000ms linear infinite normal forwards}@keyframes etnur96bi35c52_to__to { 0% {transform: translate(0px,0px)} 68% {transform: translate(0px,0px);animation-timing-function: cubic-bezier(0.420000,0,0.580000,1)} 72% {transform: translate(11.394300px,10.632617px);animation-timing-function: cubic-bezier(0.420000,0,0.580000,1)} 73.666667% {transform: translate(0px,0px)} 100% {transform: translate(0px,0px)} }#etnur96bi35c52_ts {animation: etnur96bi35c52_ts__ts 6000ms linear infinite normal forwards}@keyframes etnur96bi35c52_ts__ts { 0% {transform: scale(1,1)} 68% {transform: scale(1,1);animation-timing-function: cubic-bezier(0.420000,0,0.580000,1)} 72% {transform: scale(0.933474,0.933474);animation-timing-function: cubic-bezier(0.420000,0,0.580000,1)} 73.666667% {transform: scale(1,1)} 100% {transform: scale(1,1)} }#etnur96bi35c58_to {animation: etnur96bi35c58_to__to 6000ms linear infinite normal forwards}@keyframes etnur96bi35c58_to__to { 0% {transform: translate(158.043751px,123.545061px)} 73.666667% {transform: translate(158.043751px,123.545061px);animation-timing-function: cubic-bezier(0.420000,0,0.580000,1)} 76.500000% {transform: translate(144.073956px,109.618884px);animation-timing-function: cubic-bezier(0.420000,0,0.580000,1)} 78.333333% {transform: translate(148.412600px,114.730799px)} 100% {transform: translate(148.412600px,114.730799px)} }#etnur96bi35c58_ts {animation: etnur96bi35c58_ts__ts 6000ms linear infinite normal forwards}@keyframes etnur96bi35c58_ts__ts { 0% {transform: scale(0.194142,0.194142)} 73.666667% {transform: scale(0.194142,0.194142);animation-timing-function: cubic-bezier(0.420000,0,0.580000,1)} 76.500000% {transform: scale(0.448409,0.448409);animation-timing-function: cubic-bezier(0.420000,0,0.580000,1)} 78.333333% {transform: scale(0.359506,0.359506)} 100% {transform: scale(0.359506,0.359506)} }#etnur96bi35c58 {animation: etnur96bi35c58_c_o 6000ms linear infinite normal forwards}@keyframes etnur96bi35c58_c_o { 0% {opacity: 0} 73.666667% {opacity: 0;animation-timing-function: cubic-bezier(0.420000,0,0.580000,1)} 76.500000% {opacity: 1;animation-timing-function: cubic-bezier(0.420000,0,0.580000,1)} 78.333333% {opacity: 1} 100% {opacity: 1} }#etnur96bi35c62_to {animation: etnur96bi35c62_to__to 6000ms linear infinite normal forwards}@keyframes etnur96bi35c62_to__to { 0% {offset-distance: 0%} 53.666667% {offset-distance: 0%;animation-timing-function: cubic-bezier(0.470000,0,0.745000,0.715000)} 59.833333% {offset-distance: 100%} 100% {offset-distance: 100%} }]]></style><g id="etnur96bi35c2" opacity="0"><g id="etnur96bi35c3_to" transform="translate(40.344587,22.635773)"><g id="etnur96bi35c3_ts" transform="scale(0.765746,0.765746)"><g id="etnur96bi35c3" transform="translate(0,0)"><path id="etnur96bi35c4" d="M26.312500,8C26.312500,3.857870,29.670400,0.500000,33.812500,0.500000L307.437000,0.500000C311.580000,0.500000,314.937000,3.857860,314.937000,8L314.937000,187.187000L26.312500,187.187000L26.312500,8Z" transform="matrix(1 0 0 1 -0.12474999999997 0.09584607766604)" fill="rgb(255,255,255)" stroke="rgb(156,119,224)" stroke-width="1"/><rect id="etnur96bi35c5" width="279" height="174" rx="0" ry="0" transform="matrix(1 0 0 1 31.12500000000000 8.81258000000000)" fill="none" stroke="rgb(156,119,224)" stroke-width="1"/><path id="etnur96bi35c6" d="M0.514903,187.750000C0.773367,192.074000,4.361540,195.500000,8.750000,195.500000L332.500000,195.500000C336.888000,195.500000,340.477000,192.074000,340.735000,187.750000L0.514903,187.750000Z" fill="rgb(255,255,255)" stroke="rgb(156,119,224)" stroke-width="1"/><path id="etnur96bi35c7" d="M130.907000,187.750000C131.152000,189.654000,132.779000,191.125000,134.750000,191.125000L206.500000,191.125000C208.471000,191.125000,210.098000,189.654000,210.343000,187.750000L130.907000,187.750000Z" fill="none" stroke="rgb(156,119,224)" stroke-width="1"/><circle id="etnur96bi35c8" r="1.687500" transform="matrix(1 0 0 1 169.50000000000000 4.94606500000000)" fill="none" stroke="rgb(156,119,224)" stroke-width="1"/><g id="etnur96bi35c9_to" transform="translate(132.317467,75.047022)"><g id="etnur96bi35c9_tk" transform="skewX(0) skewY(0)"><g id="etnur96bi35c9_ts" transform="scale(0.180061,0.180061)"><g id="etnur96bi35c9" transform="translate(0,0)" opacity="0"><rect id="etnur96bi35c10" width="412.634000" height="259" rx="22" ry="22" fill="rgb(243,247,251)" stroke="none" stroke-width="1"/><rect id="etnur96bi35c11" width="413" height="33" rx="0" ry="0" transform="matrix(1 0 0 1 0 20)" opacity="0.3" fill="rgb(206,211,221)" stroke="none" stroke-width="1"/><rect id="etnur96bi35c12" width="413" height="60" rx="0" ry="0" transform="matrix(1 0 0 1 0 169)" opacity="0.3" fill="rgb(206,211,221)" stroke="none" stroke-width="1"/><rect id="etnur96bi35c13" width="413" height="11" rx="0" ry="0" transform="matrix(1 0 0 1 0 60)" opacity="0.3" fill="rgb(206,211,221)" stroke="none" stroke-width="1"/><rect id="etnur96bi35c14" width="126.557000" height="160.698000" rx="20" ry="20" transform="matrix(1 0 0 1 24.13400000000000 47.67960000000000)" fill="rgb(206,211,221)" stroke="none" stroke-width="1"/><path id="etnur96bi35c15" d="M43.373800,79.785100C51.908100,58.589700,75.581100,54.655700,86.707200,55.022500C105.408000,55.022500,123.490000,62.062200,130.626000,79.785100C138.824000,100.145000,133.554000,107.299000,132.969000,122.157000C132.884000,124.304000,135.387000,124.672000,136.482000,126.559000C139.410000,131.603000,138.336000,147.424000,131.212000,150.771000C128.869000,151.872000,125.356000,152.422000,125.356000,156.824000C125.356000,162.877000,119.389000,175.968000,114.815000,179.936000C107.203000,186.539000,115.401000,208,115.401000,208L58.599200,208C58.599200,208,66.797400,186.539000,59.184800,179.936000C54.610700,175.968000,48.644200,162.877000,48.644200,156.824000C48.644200,152.422000,45.130800,151.872000,42.788400,150.771000C35.664300,147.424000,34.590500,131.603000,37.518100,126.559000C38.613000,124.672000,41.116100,124.304000,41.031500,122.157000C40.446100,107.299000,35.175800,100.145000,43.373800,79.785100Z" fill="rgb(137,143,154)" stroke="none" stroke-width="1"/><rect id="etnur96bi35c16" width="33" height="5" rx="2.500000" ry="2.500000" transform="matrix(1 0 0 1 163 49)" fill="rgb(206,211,221)" stroke="none" stroke-width="1"/><rect id="etnur96bi35c17" width="50" height="5" rx="2.500000" ry="2.500000" transform="matrix(1 0 0 1 163 146)" fill="rgb(206,211,221)" stroke="none" stroke-width="1"/><rect id="etnur96bi35c18" width="71" height="5" rx="2.500000" ry="2.500000" transform="matrix(1 0 0 1 25 240)" fill="rgb(206,211,221)" stroke="none" stroke-width="1"/><rect id="etnur96bi35c19" width="67" height="5" rx="2.500000" ry="2.500000" transform="matrix(1 0 0 1 163 170)" fill="rgb(206,211,221)" stroke="none" stroke-width="1"/><rect id="etnur96bi35c20" width="15" height="5" rx="2.500000" ry="2.500000" transform="matrix(1 0 0 1 258 112)" fill="rgb(206,211,221)" stroke="none" stroke-width="1"/><rect id="etnur96bi35c21" width="41" height="5" rx="2.500000" ry="2.500000" transform="matrix(1 0 0 1 308 112)" fill="rgb(206,211,221)" stroke="none" stroke-width="1"/><rect id="etnur96bi35c22" width="48" height="5" rx="2.500000" ry="2.500000" transform="matrix(1 0 0 1 308 136)" fill="rgb(206,211,221)" stroke="none" stroke-width="1"/><rect id="etnur96bi35c23" width="41" height="5" rx="2.500000" ry="5" transform="matrix(1 0 0 1 308 162)" fill="rgb(206,211,221)" stroke="none" stroke-width="1"/><rect id="etnur96bi35c24" width="33" height="5" rx="2.500000" ry="5" transform="matrix(1 0 0 1 163 69)" fill="rgb(206,211,221)" stroke="none" stroke-width="1"/><rect id="etnur96bi35c25" width="40" height="10" rx="5" ry="5" transform="matrix(1 0 0 1 163 56)" fill="rgb(206,211,221)" stroke="none" stroke-width="1"/><rect id="etnur96bi35c26" width="64" height="10" rx="5" ry="5" transform="matrix(1 0 0 1 163 153)" fill="rgb(206,211,221)" stroke="none" stroke-width="1"/><rect id="etnur96bi35c27" width="370" height="15" rx="8" ry="8" transform="matrix(1 0 0 1 25 217)" fill="rgb(206,211,221)" stroke="none" stroke-width="1"/><rect id="etnur96bi35c28" width="67" height="10" rx="5" ry="5" transform="matrix(1 0 0 1 163 177)" fill="rgb(206,211,221)" stroke="none" stroke-width="1"/><rect id="etnur96bi35c29" width="27" height="10" rx="5" ry="5" transform="matrix(1 0 0 1 258 119)" fill="rgb(206,211,221)" stroke="none" stroke-width="1"/><rect id="etnur96bi35c30" width="24" height="10" rx="5" ry="5" transform="matrix(1 0 0 1 308 119)" fill="rgb(206,211,221)" stroke="none" stroke-width="1"/><rect id="etnur96bi35c31" width="64" height="10" rx="5" ry="5" transform="matrix(1 0 0 1 308 143)" fill="rgb(206,211,221)" stroke="none" stroke-width="1"/><rect id="etnur96bi35c32" width="80" height="10" rx="5" ry="5" transform="matrix(1 0 0 1 308 169)" fill="rgb(206,211,221)" stroke="none" stroke-width="1"/><rect id="etnur96bi35c33" width="93" height="10" rx="5" ry="5" transform="matrix(1 0 0 1 163 76)" fill="rgb(206,211,221)" stroke="none" stroke-width="1"/></g></g></g></g><g id="etnur96bi35c34_to" transform="translate(167.932063,60.218254)"><g id="etnur96bi35c34_tk" transform="skewX(0) skewY(10)"><g id="etnur96bi35c34_ts" transform="scale(0.002243,0.294318)"><g id="etnur96bi35c34" transform="translate(0,0)" opacity="0"><rect id="etnur96bi35c35" width="412.634000" height="259" rx="22" ry="22" fill="rgb(243,247,251)" stroke="none" stroke-width="1"/><rect id="etnur96bi35c36" width="413" height="76" rx="0" ry="0" transform="matrix(1 0 0 -1 0 169)" opacity="0.3" fill="rgb(206,211,221)" stroke="none" stroke-width="1"/><rect id="etnur96bi35c37" width="50" height="5" rx="2.500000" ry="2.500000" transform="matrix(1 0 0 1 163 36)" fill="rgb(206,211,221)" stroke="none" stroke-width="1"/><rect id="etnur96bi35c38" width="67" height="5" rx="2.500000" ry="2.500000" transform="matrix(1 0 0 1 163 60)" fill="rgb(206,211,221)" stroke="none" stroke-width="1"/><rect id="etnur96bi35c39" width="41" height="5" rx="2.500000" ry="2.500000" transform="matrix(1 0 0 1 163 112)" fill="rgb(206,211,221)" stroke="none" stroke-width="1"/><rect id="etnur96bi35c40" width="48" height="5" rx="2.500000" ry="2.500000" transform="matrix(1 0 0 1 163 136)" fill="rgb(206,211,221)" stroke="none" stroke-width="1"/><rect id="etnur96bi35c41" width="64" height="10" rx="5" ry="5" transform="matrix(1 0 0 1 163 43)" fill="rgb(206,211,221)" stroke="none" stroke-width="1"/><rect id="etnur96bi35c42" width="370" height="15" rx="7.500000" ry="7.500000" transform="matrix(1 0 0 1 25 229)" fill="rgb(206,211,221)" stroke="none" stroke-width="1"/><rect id="etnur96bi35c43" width="370" height="15" rx="7.500000" ry="7.500000" transform="matrix(1 0 0 1 25 207)" fill="rgb(206,211,221)" stroke="none" stroke-width="1"/><rect id="etnur96bi35c44" width="370" height="15" rx="7.500000" ry="7.500000" transform="matrix(1 0 0 1 25 185)" fill="rgb(206,211,221)" stroke="none" stroke-width="1"/><rect id="etnur96bi35c45" width="67" height="10" rx="5" ry="5" transform="matrix(1 0 0 1 163 67)" fill="rgb(206,211,221)" stroke="none" stroke-width="1"/><rect id="etnur96bi35c46" width="24" height="10" rx="5" ry="5" transform="matrix(1 0 0 1 163 119)" fill="rgb(206,211,221)" stroke="none" stroke-width="1"/><rect id="etnur96bi35c47" width="64" height="10" rx="5" ry="5" transform="matrix(1 0 0 1 163 143)" fill="rgb(206,211,221)" stroke="none" stroke-width="1"/></g></g></g></g><g id="etnur96bi35c48_to" transform="translate(0,0)"><g id="etnur96bi35c48_ts" transform="scale(1,1)"><g id="etnur96bi35c48" transform="translate(0,0)"><rect id="etnur96bi35c49" display="none" width="25.694900" height="29.720300" rx="5" ry="5" transform="matrix(1 0 0 1 134.88999999999999 79.82200000000000)" fill="none" stroke="rgb(156,119,224)" stroke-width="1"/><rect id="etnur96bi35c50" width="78.237300" height="49" rx="3" ry="3" transform="matrix(1 0 0 1 131.50000000000000 70.50000000000000)" fill="none" stroke="rgb(156,119,224)" stroke-width="1"/></g></g></g><rect id="etnur96bi35c51" width="127" height="74" rx="0" ry="0" transform="matrix(1 0 0 1 107.50000000000000 58.50000000000000)" fill="rgb(156,119,224)" fill-opacity="0.1" stroke="rgb(156,119,224)" stroke-width="0"/><g id="etnur96bi35c52_to" transform="translate(0,0)"><g id="etnur96bi35c52_ts" transform="scale(1,1)"><g id="etnur96bi35c52" transform="translate(0,0)"><rect id="etnur96bi35c53" width="53" height="14" rx="7" ry="7" transform="matrix(1 0 0 1 143 143.99999999706407)" fill="rgb(156,119,224)" stroke="none" stroke-width="1"/><rect id="etnur96bi35c54" width="35" height="4" rx="2" ry="2" transform="matrix(1 0 0 1 152 148.99999999347042)" opacity="0.2" fill="rgb(255,255,255)" stroke="none" stroke-width="1"/></g></g></g><rect id="etnur96bi35c55" width="74" height="3" rx="1.500000" ry="1.500000" transform="matrix(1 0 0 1 134 34)" fill="rgb(156,119,224)" stroke="none" stroke-width="1"/><rect id="etnur96bi35c56" width="56" height="2" rx="1" ry="1" transform="matrix(1 0 0 1 143 41)" opacity="0.4" fill="rgb(156,119,224)" stroke="none" stroke-width="1"/><rect id="etnur96bi35c57" width="42" height="2" rx="1" ry="1" transform="matrix(1 0 0 1 150 45)" opacity="0.4" fill="rgb(156,119,224)" stroke="none" stroke-width="1"/></g></g></g><g id="etnur96bi35c58_to" transform="translate(158.043751,123.545061)"><g id="etnur96bi35c58_ts" transform="scale(0.194142,0.194142)"><g id="etnur96bi35c58" transform="translate(0,0)" opacity="0"><rect id="etnur96bi35c59" width="115" height="115" rx="60" ry="60" fill="rgb(71,218,174)" stroke="none" stroke-width="1"/><rect id="etnur96bi35c60" width="6.052630" height="26.170700" rx="3.026320" ry="0" transform="matrix(0.70710700000000 -0.70710700000000 0.70710700000000 0.70710700000000 35.78388788810000 56.92439553350001)" fill="rgb(255,255,255)" stroke="none" stroke-width="1"/><rect id="etnur96bi35c61" width="6.052630" height="42.056300" rx="3.026320" ry="0" transform="matrix(0.70710700000000 0.70710700000000 -0.70710700000000 0.70710700000000 79.74803679480002 41.41160127720002)" fill="rgb(255,255,255)" stroke="none" stroke-width="1"/></g></g></g><g id="etnur96bi35c62_to" style="offset-path:path('M241.367919,198.089065C232.736431,176.545885,206.161123,176.520414,166.766857,171.518244');offset-rotate:0deg"><g id="etnur96bi35c62" transform="scale(0.449494,0.449494) translate(0,0)"><path id="etnur96bi35c63" d="M9.952560,22.255200C9.434090,21.546900,8.915620,20.307400,7.878680,18.713800C7.360220,17.828500,5.804810,16.057800,5.286340,15.349600C4.940700,14.641300,4.940700,14.287200,5.113520,13.578900C5.286340,12.516500,6.323280,11.631200,7.533040,11.631200C8.397150,11.631200,9.261270,12.339400,9.952560,12.870600C10.298200,13.224800,10.816700,13.933000,11.162300,14.287200C11.508000,14.641300,11.508000,14.818400,11.853600,15.172500C12.199300,15.703700,12.372100,16.057800,12.199300,15.349600C12.026400,14.464200,11.853600,13.047700,11.508000,11.631200C11.335100,10.568800,11.162300,10.391700,10.989500,9.683440C10.816700,8.798110,10.643800,8.266910,10.471000,7.381570C10.298200,6.850370,10.125400,5.433840,9.952560,4.725570C9.779730,3.840240,9.779740,2.246640,10.471000,1.538370C10.989500,1.007170,12.026400,0.830108,12.717700,1.184240C13.581800,1.715440,14.100300,2.954910,14.273100,3.486110C14.618800,4.371440,14.964400,5.610910,15.137200,7.027440C15.482900,8.798110,16.001400,11.454100,16.001400,11.985300C16.001400,11.277000,15.828500,10.037600,16.001400,9.329310C16.174200,8.798110,16.519800,8.089840,17.211100,7.912770C17.729600,7.735710,18.248000,7.735710,18.766500,7.735710C19.285000,7.912770,19.803500,8.266910,20.149100,8.621040C20.840400,9.683440,20.840400,11.985300,20.840400,11.808200C21.013200,11.100000,21.013200,9.683440,21.358900,8.975170C21.531700,8.621040,22.223000,8.266910,22.568600,8.089840C23.087100,7.912770,23.778400,7.912770,24.296800,8.089840C24.642500,8.089840,25.333800,8.621040,25.506600,8.975170C25.852300,9.506370,26.025100,11.277000,26.197900,11.985300C26.197900,12.162400,26.370700,11.277000,26.716400,10.745800C27.407700,9.683440,29.827200,9.329310,30,11.808200C30,13.047700,30,12.870600,30,13.756000C30,14.641300,30,15.172500,30,15.880800C30,16.589000,29.827200,18.182600,29.654400,18.890900C29.481500,19.422100,28.963100,20.661600,28.444600,21.369800C28.444600,21.369800,26.543500,23.494600,26.370700,24.557000C26.197900,25.619400,26.197900,25.619400,26.197900,26.327700C26.197900,27.036000,26.370700,27.921300,26.370700,27.921300C26.370700,27.921300,24.988100,28.098400,24.296800,27.921300C23.605600,27.744200,22.741400,26.504800,22.568600,25.973600C22.223000,25.442400,21.704500,25.442400,21.358900,25.973600C21.013200,26.681800,20.149100,27.921300,19.457800,27.921300C18.248000,28.098400,15.828500,27.921300,14.100300,27.921300C14.100300,27.921300,14.445900,26.150600,13.754700,25.442400C13.236200,24.911200,12.372100,24.025800,11.853600,23.494600L9.952560,22.255200Z" fill="rgb(255,255,255)" stroke="none" stroke-width="1"/><path id="etnur96bi35c64" d="M9.952560,22.255200C9.434090,21.546900,8.915620,20.307400,7.878680,18.713800C7.360220,17.828500,5.804810,16.057800,5.286340,15.349600C4.940700,14.641300,4.940700,14.287200,5.113520,13.578900C5.286340,12.516500,6.323280,11.631200,7.533040,11.631200C8.397150,11.631200,9.261270,12.339400,9.952560,12.870600C10.298200,13.224800,10.816700,13.933000,11.162300,14.287200C11.508000,14.641300,11.508000,14.818400,11.853600,15.172500C12.199300,15.703700,12.372100,16.057800,12.199300,15.349600C12.026400,14.464200,11.853600,13.047700,11.508000,11.631200C11.335100,10.568800,11.162300,10.391700,10.989500,9.683440C10.816700,8.798110,10.643800,8.266910,10.471000,7.381570C10.298200,6.850370,10.125400,5.433840,9.952560,4.725570C9.779730,3.840240,9.779740,2.246640,10.471000,1.538370C10.989500,1.007170,12.026400,0.830108,12.717700,1.184240C13.581800,1.715440,14.100300,2.954910,14.273100,3.486110C14.618800,4.371440,14.964400,5.610910,15.137200,7.027440C15.482900,8.798110,16.001400,11.454100,16.001400,11.985300C16.001400,11.277000,15.828500,10.037600,16.001400,9.329310C16.174200,8.798110,16.519800,8.089840,17.211100,7.912770C17.729600,7.735710,18.248000,7.735710,18.766500,7.735710C19.285000,7.912770,19.803500,8.266910,20.149100,8.621040C20.840400,9.683440,20.840400,11.985300,20.840400,11.808200C21.013200,11.100000,21.013200,9.683440,21.358900,8.975170C21.531700,8.621040,22.223000,8.266910,22.568600,8.089840C23.087100,7.912770,23.778400,7.912770,24.296800,8.089840C24.642500,8.089840,25.333800,8.621040,25.506600,8.975170C25.852300,9.506370,26.025100,11.277000,26.197900,11.985300C26.197900,12.162400,26.370700,11.277000,26.716400,10.745800C27.407700,9.683440,29.827200,9.329310,30,11.808200C30,13.047700,30,12.870600,30,13.756000C30,14.641300,30,15.172500,30,15.880800C30,16.589000,29.827200,18.182600,29.654400,18.890900C29.481500,19.422100,28.963100,20.661600,28.444600,21.369800C28.444600,21.369800,26.543500,23.494600,26.370700,24.557000C26.197900,25.619400,26.197900,25.619400,26.197900,26.327700C26.197900,27.036000,26.370700,27.921300,26.370700,27.921300C26.370700,27.921300,24.988100,28.098400,24.296800,27.921300C23.605600,27.744200,22.741400,26.504800,22.568600,25.973600C22.223000,25.442400,21.704500,25.442400,21.358900,25.973600C21.013200,26.681800,20.149100,27.921300,19.457800,27.921300C18.248000,28.098400,15.828500,27.921300,14.100300,27.921300C14.100300,27.921300,14.445900,26.150600,13.754700,25.442400C13.236200,24.911200,12.372100,24.025800,11.853600,23.494600L9.952560,22.255200Z" fill="none" stroke="rgb(0,0,0)" stroke-width="0.750000" stroke-linecap="round" stroke-linejoin="round"/><path id="etnur96bi35c65" d="M24.010500,22.956300L24.010500,16.936000" fill="none" stroke="rgb(0,0,0)" stroke-width="0.750000" stroke-linecap="round"/><path id="etnur96bi35c66" d="M20.726900,22.956300L20.554100,16.936000" fill="none" stroke="rgb(0,0,0)" stroke-width="0.750000" stroke-linecap="round"/><path id="etnur96bi35c67" d="M17.097500,16.936000L17.097500,22.956300" fill="none" stroke="rgb(0,0,0)" stroke-width="0.750000" stroke-linecap="round"/></g></g></g></svg>