<svg id="elo6xpdttruc1" xmlns="http://www.w3.org/2000/svg" xmlns:xlink="http://www.w3.org/1999/xlink" viewBox="0 0 342 196" shape-rendering="geometricPrecision" text-rendering="geometricPrecision"><style><![CDATA[#elo6xpdttruc4 {animation: elo6xpdttruc4_c_o 6000ms linear infinite normal forwards}@keyframes elo6xpdttruc4_c_o { 0% {opacity: 0} 3.333333% {opacity: 1} 96.666667% {opacity: 1} 100% {opacity: 0} }#elo6xpdttruc5_to {animation: elo6xpdttruc5_to__to 6000ms linear infinite normal forwards}@keyframes elo6xpdttruc5_to__to { 0% {transform: translate(40.344587px,22.635773px)} 6.666667% {transform: translate(40.344587px,22.635773px)} 16.666667% {transform: translate(40.344587px,22.635773px);animation-timing-function: cubic-bezier(0.420000,0,0.580000,1)} 21.666667% {transform: translate(-119.579356px,-86.189747px)} 100% {transform: translate(-119.579356px,-86.189747px)} }#elo6xpdttruc5_ts {animation: elo6xpdttruc5_ts__ts 6000ms linear infinite normal forwards}@keyframes elo6xpdttruc5_ts__ts { 0% {transform: scale(0.765746,0.765746)} 6.666667% {transform: scale(0.765746,0.765746)} 16.666667% {transform: scale(0.765746,0.765746);animation-timing-function: cubic-bezier(0.420000,0,0.580000,1)} 21.666667% {transform: scale(1.703030,1.703030)} 100% {transform: scale(1.703030,1.703030)} }#elo6xpdttruc11_to {animation: elo6xpdttruc11_to__to 6000ms linear infinite normal forwards}@keyframes elo6xpdttruc11_to__to { 0% {transform: translate(132.317467px,75.047022px)} 23.333333% {transform: translate(132.317467px,75.047022px);animation-timing-function: cubic-bezier(0.420000,0,0.580000,1)} 28.333333% {transform: translate(108.723239px,60.250640px);animation-timing-function: cubic-bezier(0.420000,0,0.580000,1)} 33.333333% {transform: translate(167.932063px,60.218254px)} 100% {transform: translate(167.932063px,60.218254px)} }#elo6xpdttruc11_tk {animation: elo6xpdttruc11_tk__tk 6000ms linear infinite normal forwards}@keyframes elo6xpdttruc11_tk__tk { 0% {transform: skewX(0deg) skewY(0deg)} 23.333333% {transform: skewX(0deg) skewY(0deg);animation-timing-function: cubic-bezier(0.420000,0,0.580000,1)} 30% {transform: skewX(0deg) skewY(0deg);animation-timing-function: cubic-bezier(0.420000,0,0.580000,1)} 33.333333% {transform: skewX(0deg) skewY(10deg)} 100% {transform: skewX(0deg) skewY(10deg)} }#elo6xpdttruc11_ts {animation: elo6xpdttruc11_ts__ts 6000ms linear infinite normal forwards}@keyframes elo6xpdttruc11_ts__ts { 0% {transform: scale(0.180061,0.180061)} 23.333333% {transform: scale(0.180061,0.180061);animation-timing-function: cubic-bezier(0.420000,0,0.580000,1)} 28.333333% {transform: scale(0.294318,0.294318);animation-timing-function: cubic-bezier(0.420000,0,0.580000,1)} 33.333333% {transform: scale(0.002243,0.294318)} 100% {transform: scale(0.002243,0.294318)} }#elo6xpdttruc11 {animation: elo6xpdttruc11_c_o 6000ms linear infinite normal forwards}@keyframes elo6xpdttruc11_c_o { 0% {opacity: 0} 23.333333% {opacity: 0;animation-timing-function: cubic-bezier(0.420000,0,0.580000,1)} 28.333333% {opacity: 1;animation-timing-function: cubic-bezier(0.420000,0,0.580000,1)} 33.166667% {opacity: 1;animation-timing-function: cubic-bezier(0.420000,0,0.580000,1)} 33.500000% {opacity: 0} 100% {opacity: 0} }#elo6xpdttruc61_to {animation: elo6xpdttruc61_to__to 6000ms linear infinite normal forwards}@keyframes elo6xpdttruc61_to__to { 0% {transform: translate(167.932063px,60.218254px)} 33.500000% {transform: translate(167.932063px,60.218254px);animation-timing-function: cubic-bezier(0.420000,0,0.580000,1)} 36.666667% {transform: translate(110.124368px,59.794738px);animation-timing-function: cubic-bezier(0.420000,0,0.580000,1)} 40.166667% {transform: translate(110.124368px,59.794738px);animation-timing-function: cubic-bezier(0.420000,0,0.580000,1)} 45% {transform: translate(118.802964px,56.271520px);animation-timing-function: cubic-bezier(0.110000,0.660000,0.225000,0.870000)} 50% {transform: translate(126.076904px,71.587289px)} 55% {transform: translate(118.723059px,67.168048px);animation-timing-function: cubic-bezier(0.965000,-0.005000,0.550000,0.950000)} 61.666667% {transform: translate(121.219033px,69.192541px)} 100% {transform: translate(121.219033px,69.192541px)} }#elo6xpdttruc61_tk {animation: elo6xpdttruc61_tk__tk 6000ms linear infinite normal forwards}@keyframes elo6xpdttruc61_tk__tk { 0% {transform: skewX(0deg) skewY(10deg)} 33.500000% {transform: skewX(0deg) skewY(10deg);animation-timing-function: cubic-bezier(0.420000,0,0.580000,1)} 36.666667% {transform: skewX(0deg) skewY(0deg)} 40.166667% {transform: skewX(0deg) skewY(0deg)} 100% {transform: skewX(0deg) skewY(0deg)} }#elo6xpdttruc61_ts {animation: elo6xpdttruc61_ts__ts 6000ms linear infinite normal forwards}@keyframes elo6xpdttruc61_ts__ts { 0% {transform: scale(0.002243,0.294318)} 33.500000% {transform: scale(0.002243,0.294318);animation-timing-function: cubic-bezier(0.420000,0,0.580000,1)} 36.666667% {transform: scale(0.294318,0.294318);animation-timing-function: cubic-bezier(0.110000,0.660000,0.225000,0.870000)} 40.166667% {transform: scale(0.294318,0.294318);animation-timing-function: cubic-bezier(0.110000,0.660000,0.225000,0.870000)} 45% {transform: scale(0.294318,0.294318);animation-timing-function: cubic-bezier(0.110000,0.660000,0.225000,0.870000)} 50% {transform: scale(0.202109,0.206777)} 55% {transform: scale(0.244480,0.244480);animation-timing-function: cubic-bezier(0.965000,-0.005000,0.550000,0.950000)} 61.666667% {transform: scale(0.228456,0.228456)} 100% {transform: scale(0.228456,0.228456)} }#elo6xpdttruc61 {animation: elo6xpdttruc61_c_o 6000ms linear infinite normal forwards}@keyframes elo6xpdttruc61_c_o { 0% {opacity: 0} 33.333333% {opacity: 0} 33.666667% {opacity: 1} 100% {opacity: 1} }#elo6xpdttruc75_to {animation: elo6xpdttruc75_to__to 6000ms linear infinite normal forwards}@keyframes elo6xpdttruc75_to__to { 0% {transform: translate(0px,0px)} 6.666667% {transform: translate(0px,0px)} 16.666667% {transform: translate(0px,0px)} 21.666667% {transform: translate(-51.618559px,-24.753331px)} 100% {transform: translate(-51.618559px,-24.753331px)} }#elo6xpdttruc75_ts {animation: elo6xpdttruc75_ts__ts 6000ms linear infinite normal forwards}@keyframes elo6xpdttruc75_ts__ts { 0% {transform: scale(1,1)} 6.666667% {transform: scale(1,1)} 16.666667% {transform: scale(1,1)} 21.666667% {transform: scale(1.295981,1.295981)} 100% {transform: scale(1.295981,1.295981)} }#elo6xpdttruc75 {animation: elo6xpdttruc75_c_o 6000ms linear infinite normal forwards}@keyframes elo6xpdttruc75_c_o { 0% {opacity: 1} 73.333333% {opacity: 1} 77% {opacity: 0} 100% {opacity: 0} }#elo6xpdttruc78 {animation: elo6xpdttruc78_f_o 6000ms linear infinite normal forwards}@keyframes elo6xpdttruc78_f_o { 0% {fill-opacity: 0.100000} 6.666667% {fill-opacity: 0.100000} 16.666667% {fill-opacity: 0.100000} 21.666667% {fill-opacity: 0} 100% {fill-opacity: 0} }#elo6xpdttruc79_to {animation: elo6xpdttruc79_to__to 6000ms linear infinite normal forwards}@keyframes elo6xpdttruc79_to__to { 0% {transform: translate(0px,0px)} 68% {transform: translate(0px,0px);animation-timing-function: cubic-bezier(0.420000,0,0.580000,1)} 72% {transform: translate(11.394300px,10.632617px);animation-timing-function: cubic-bezier(0.420000,0,0.580000,1)} 73.666667% {transform: translate(0px,0px)} 100% {transform: translate(0px,0px)} }#elo6xpdttruc79_ts {animation: elo6xpdttruc79_ts__ts 6000ms linear infinite normal forwards}@keyframes elo6xpdttruc79_ts__ts { 0% {transform: scale(1,1)} 68% {transform: scale(1,1);animation-timing-function: cubic-bezier(0.420000,0,0.580000,1)} 72% {transform: scale(0.933474,0.933474);animation-timing-function: cubic-bezier(0.420000,0,0.580000,1)} 73.666667% {transform: scale(1,1)} 100% {transform: scale(1,1)} }#elo6xpdttruc85_to {animation: elo6xpdttruc85_to__to 6000ms linear infinite normal forwards}@keyframes elo6xpdttruc85_to__to { 0% {transform: translate(158.043751px,123.545061px)} 73.666667% {transform: translate(158.043751px,123.545061px);animation-timing-function: cubic-bezier(0.420000,0,0.580000,1)} 76.500000% {transform: translate(144.073956px,109.618884px);animation-timing-function: cubic-bezier(0.420000,0,0.580000,1)} 78.333333% {transform: translate(148.412600px,114.730799px)} 100% {transform: translate(148.412600px,114.730799px)} }#elo6xpdttruc85_ts {animation: elo6xpdttruc85_ts__ts 6000ms linear infinite normal forwards}@keyframes elo6xpdttruc85_ts__ts { 0% {transform: scale(0.194142,0.194142)} 73.666667% {transform: scale(0.194142,0.194142);animation-timing-function: cubic-bezier(0.420000,0,0.580000,1)} 76.500000% {transform: scale(0.448409,0.448409);animation-timing-function: cubic-bezier(0.420000,0,0.580000,1)} 78.333333% {transform: scale(0.359506,0.359506)} 100% {transform: scale(0.359506,0.359506)} }#elo6xpdttruc85 {animation: elo6xpdttruc85_c_o 6000ms linear infinite normal forwards}@keyframes elo6xpdttruc85_c_o { 0% {opacity: 0} 73.666667% {opacity: 0;animation-timing-function: cubic-bezier(0.420000,0,0.580000,1)} 76.500000% {opacity: 1;animation-timing-function: cubic-bezier(0.420000,0,0.580000,1)} 78.333333% {opacity: 1} 100% {opacity: 1} }#elo6xpdttruc89_to {animation: elo6xpdttruc89_to__to 6000ms linear infinite normal forwards}@keyframes elo6xpdttruc89_to__to { 0% {offset-distance: 0%} 53.666667% {offset-distance: 0%;animation-timing-function: cubic-bezier(0.470000,0,0.745000,0.715000)} 59.833333% {offset-distance: 100%} 100% {offset-distance: 100%} }]]></style><defs><clipPath id="elo6xpdttruc2"><rect id="elo6xpdttruc3" width="124.500000" height="192" rx="0" ry="0" fill="rgb(255,255,255)" stroke="none" stroke-width="1"/></clipPath></defs><g id="elo6xpdttruc4" opacity="0"><g id="elo6xpdttruc5_to" transform="translate(40.344587,22.635773)"><g id="elo6xpdttruc5_ts" transform="scale(0.765746,0.765746)"><g id="elo6xpdttruc5" transform="translate(0,0)"><path id="elo6xpdttruc6" d="M26.312500,8C26.312500,3.857870,29.670400,0.500000,33.812500,0.500000L307.437000,0.500000C311.580000,0.500000,314.937000,3.857860,314.937000,8L314.937000,187.187000L26.312500,187.187000L26.312500,8Z" transform="matrix(1 0 0 1 -0.12474999999997 0.09584607766604)" fill="rgb(255,255,255)" stroke="rgb(206,211,221)" stroke-width="1"/><rect id="elo6xpdttruc7" width="279" height="174" rx="0" ry="0" transform="matrix(1 0 0 1 31.12500000000000 8.81258000000000)" fill="none" stroke="rgb(206,211,221)" stroke-width="1"/><path id="elo6xpdttruc8" d="M0.514903,187.750000C0.773367,192.074000,4.361540,195.500000,8.750000,195.500000L332.500000,195.500000C336.888000,195.500000,340.477000,192.074000,340.735000,187.750000L0.514903,187.750000Z" transform="matrix(1 0 0 1 -0.00000216781996 -1.30591565396435)" fill="rgb(255,255,255)" stroke="rgb(206,211,221)" stroke-width="1"/><path id="elo6xpdttruc9" d="M130.907000,187.750000C131.152000,189.654000,132.779000,191.125000,134.750000,191.125000L206.500000,191.125000C208.471000,191.125000,210.098000,189.654000,210.343000,187.750000L130.907000,187.750000Z" transform="matrix(1 0 0 1 0 -1.30591565396435)" fill="none" stroke="rgb(206,211,221)" stroke-width="1"/><circle id="elo6xpdttruc10" r="1.687500" transform="matrix(1 0 0 1 170.62494933247552 4.94606500000000)" fill="none" stroke="rgb(206,211,221)" stroke-width="1"/><g id="elo6xpdttruc11_to" transform="translate(132.317467,75.047022)"><g id="elo6xpdttruc11_tk" transform="skewX(0) skewY(0)"><g id="elo6xpdttruc11_ts" transform="scale(0.180061,0.180061)"><g id="elo6xpdttruc11" transform="translate(0,0)" opacity="0"><rect id="elo6xpdttruc12" width="412.634000" height="259" rx="22" ry="22" fill="rgb(243,247,251)" stroke="none" stroke-width="1"/><rect id="elo6xpdttruc13" width="413" height="33" rx="0" ry="0" transform="matrix(1 0 0 1 0 20)" opacity="0.3" fill="rgb(206,211,221)" stroke="none" stroke-width="1"/><rect id="elo6xpdttruc14" width="413" height="60" rx="0" ry="0" transform="matrix(1 0 0 1 0 169)" opacity="0.3" fill="rgb(206,211,221)" stroke="none" stroke-width="1"/><rect id="elo6xpdttruc15" width="413" height="11" rx="0" ry="0" transform="matrix(1 0 0 1 0 60)" opacity="0.3" fill="rgb(206,211,221)" stroke="none" stroke-width="1"/><rect id="elo6xpdttruc16" width="126.557000" height="160.698000" rx="20" ry="20" transform="matrix(1 0 0 1 24.13400000000000 47.67960000000000)" fill="rgb(206,211,221)" stroke="none" stroke-width="1"/><path id="elo6xpdttruc17" d="M43.373800,79.785100C51.908100,58.589700,75.581100,54.655700,86.707200,55.022500C105.408000,55.022500,123.490000,62.062200,130.626000,79.785100C138.824000,100.145000,133.554000,107.299000,132.969000,122.157000C132.884000,124.304000,135.387000,124.672000,136.482000,126.559000C139.410000,131.603000,138.336000,147.424000,131.212000,150.771000C128.869000,151.872000,125.356000,152.422000,125.356000,156.824000C125.356000,162.877000,119.389000,175.968000,114.815000,179.936000C107.203000,186.539000,115.401000,208,115.401000,208L58.599200,208C58.599200,208,66.797400,186.539000,59.184800,179.936000C54.610700,175.968000,48.644200,162.877000,48.644200,156.824000C48.644200,152.422000,45.130800,151.872000,42.788400,150.771000C35.664300,147.424000,34.590500,131.603000,37.518100,126.559000C38.613000,124.672000,41.116100,124.304000,41.031500,122.157000C40.446100,107.299000,35.175800,100.145000,43.373800,79.785100Z" fill="rgb(137,143,154)" fill-opacity="0" stroke="none" stroke-width="1"/><rect id="elo6xpdttruc18" width="33" height="5" rx="2.500000" ry="2.500000" transform="matrix(1 0 0 1 163 49)" fill="rgb(206,211,221)" stroke="none" stroke-width="1"/><rect id="elo6xpdttruc19" width="50" height="5" rx="2.500000" ry="2.500000" transform="matrix(1 0 0 1 163 146)" fill="rgb(206,211,221)" stroke="none" stroke-width="1"/><rect id="elo6xpdttruc20" width="71" height="5" rx="2.500000" ry="2.500000" transform="matrix(1 0 0 1 25 240)" fill="rgb(206,211,221)" stroke="none" stroke-width="1"/><rect id="elo6xpdttruc21" width="67" height="5" rx="2.500000" ry="2.500000" transform="matrix(1 0 0 1 163 170)" fill="rgb(206,211,221)" stroke="none" stroke-width="1"/><rect id="elo6xpdttruc22" width="15" height="5" rx="2.500000" ry="2.500000" transform="matrix(1 0 0 1 258 112)" fill="rgb(206,211,221)" stroke="none" stroke-width="1"/><rect id="elo6xpdttruc23" width="41" height="5" rx="2.500000" ry="2.500000" transform="matrix(1 0 0 1 308 112)" fill="rgb(206,211,221)" stroke="none" stroke-width="1"/><rect id="elo6xpdttruc24" width="48" height="5" rx="2.500000" ry="2.500000" transform="matrix(1 0 0 1 308 136)" fill="rgb(206,211,221)" stroke="none" stroke-width="1"/><rect id="elo6xpdttruc25" width="41" height="5" rx="2.500000" ry="5" transform="matrix(1 0 0 1 308 162)" fill="rgb(206,211,221)" stroke="none" stroke-width="1"/><rect id="elo6xpdttruc26" width="33" height="5" rx="2.500000" ry="5" transform="matrix(1 0 0 1 163 69)" fill="rgb(206,211,221)" stroke="none" stroke-width="1"/><rect id="elo6xpdttruc27" width="40" height="10" rx="5" ry="5" transform="matrix(1 0 0 1 163 56)" fill="rgb(206,211,221)" stroke="none" stroke-width="1"/><rect id="elo6xpdttruc28" width="64" height="10" rx="5" ry="5" transform="matrix(1 0 0 1 163 153)" fill="rgb(206,211,221)" stroke="none" stroke-width="1"/><rect id="elo6xpdttruc29" width="370" height="15" rx="8" ry="8" transform="matrix(1 0 0 1 25 217)" fill="rgb(206,211,221)" stroke="none" stroke-width="1"/><rect id="elo6xpdttruc30" width="67" height="10" rx="5" ry="5" transform="matrix(1 0 0 1 163 177)" fill="rgb(206,211,221)" stroke="none" stroke-width="1"/><rect id="elo6xpdttruc31" width="27" height="10" rx="5" ry="5" transform="matrix(1 0 0 1 258 119)" fill="rgb(206,211,221)" stroke="none" stroke-width="1"/><rect id="elo6xpdttruc32" width="24" height="10" rx="5" ry="5" transform="matrix(1 0 0 1 308 119)" fill="rgb(206,211,221)" stroke="none" stroke-width="1"/><rect id="elo6xpdttruc33" width="64" height="10" rx="5" ry="5" transform="matrix(1 0 0 1 308 143)" fill="rgb(206,211,221)" stroke="none" stroke-width="1"/><rect id="elo6xpdttruc34" width="80" height="10" rx="5" ry="5" transform="matrix(1 0 0 1 308 169)" fill="rgb(206,211,221)" stroke="none" stroke-width="1"/><rect id="elo6xpdttruc35" width="93" height="10" rx="5" ry="5" transform="matrix(1 0 0 1 163 76)" fill="rgb(206,211,221)" stroke="none" stroke-width="1"/><g id="elo6xpdttruc36" transform="matrix(0.75139425912533 0 0 0.75139425912533 40.63820737264756 57.24523295942082)" clip-path="url(#elo6xpdttruc2)"><path id="elo6xpdttruc37" d="M124.500000,169.800000L124.500000,159.200000C124.500000,147.600000,115,138.100000,103.400000,138.100000L21.100000,138.100000C9.500000,138.100000,0,147.600000,0,159.200000L0,169.800000C17,183.600000,38.600000,192,62.300000,192C85.900000,192,107.500000,183.600000,124.500000,169.800000Z" clip-rule="evenodd" fill="rgb(231,227,231)" fill-rule="evenodd" stroke="none" stroke-width="1"/><path id="elo6xpdttruc38" d="M54.299800,191.600000C56.899800,191.800000,59.599800,191.900000,62.299800,191.900000C64.999800,191.900000,67.599800,191.800000,70.199800,191.600000L66.699800,168.400000L62.299800,166.800000L57.899800,168.400000L54.299800,191.600000Z" clip-rule="evenodd" fill="rgb(156,119,224)" fill-rule="evenodd" stroke="none" stroke-width="1"/><path id="elo6xpdttruc39" d="M70.399900,158.400000L66.599900,168.500000L62.199900,168.500000L57.799900,168.500000L53.899900,158.400000L55.899900,156.700000L62.199900,155.200000L68.499900,156.700000L70.399900,158.400000Z" clip-rule="evenodd" fill="rgb(48,41,94)" fill-rule="evenodd" stroke="none" stroke-width="1"/><path id="elo6xpdttruc40" d="M124.500000,169.800000L124.500000,159.200000C124.500000,147.600000,115,138.100000,103.400000,138.100000L71.900000,138.100000L70.200000,139.100000L76.100000,157.300000L72.300000,191.400000C92,189.500000,110,181.700000,124.500000,169.800000ZM0,169.800000L0,159.200000C0,147.600000,9.500000,138.100000,21.100000,138.100000L52.600000,138.100000L54.300000,139.100000L48.400000,157.300000L52.200000,191.400000C32.500000,189.500000,14.500000,181.700000,0,169.800000Z" clip-rule="evenodd" fill="rgb(76,59,130)" fill-rule="evenodd" stroke="none" stroke-width="1"/><path id="elo6xpdttruc41" d="M74.299800,151.900000L76.099800,157.400000L72.299800,191.500000C76.299800,191.100000,80.299800,190.400000,84.099800,189.600000L91.799800,174.700000L82.399800,145C79.499800,145.700000,76.799800,148.300000,74.299800,151.900000Z" clip-rule="evenodd" fill="rgb(48,41,94)" fill-rule="evenodd" stroke="none" stroke-width="1"/><path id="elo6xpdttruc42" d="M62.299800,88.500000C71.699800,88.500000,79.299800,96.200000,79.299800,105.500000L79.299800,138.100000C79.299800,147.500000,71.599800,155.100000,62.299800,155.100000C52.899800,155.100000,45.299800,147.400000,45.299800,138.100000L45.299800,105.500000C45.199800,96.100000,52.899800,88.500000,62.299800,88.500000Z" clip-rule="evenodd" fill="rgb(233,186,168)" fill-rule="evenodd" stroke="none" stroke-width="1"/><path id="elo6xpdttruc43" d="M62.300200,88.500000C71.700200,88.500000,79.300200,96.200000,79.300200,105.500000L79.300200,133.500000C74.800200,135.600000,69.800200,136.800000,64.600200,136.800000C57.500200,136.800000,50.800200,134.600000,45.200200,130.800000L45.200200,105.500000C45.200200,96.100000,52.900200,88.500000,62.300200,88.500000Z" clip-rule="evenodd" fill="rgb(225,170,149)" fill-rule="evenodd" stroke="none" stroke-width="1"/><path id="elo6xpdttruc44" d="M17.199900,83.400000C16.999900,89.400000,21.799900,94.400000,27.799900,94.500000C27.999900,94.500000,28.099900,94.500000,28.299900,94.500000C27.199900,90.600000,26.599900,86.700000,26.599900,83L26.599900,79.700000C26.599900,73,17.499900,73.400000,17.199900,83.400000Z" clip-rule="evenodd" fill="rgb(225,170,149)" fill-rule="evenodd" stroke="none" stroke-width="1"/><path id="elo6xpdttruc45" d="M107.300000,83.400000C107.500000,89.400000,102.700000,94.400000,96.699700,94.500000C96.499700,94.500000,96.399700,94.500000,96.199700,94.500000C97.299700,90.600000,97.899700,86.700000,97.899700,83L97.899700,79.700000C97.899700,73,107,73.400000,107.300000,83.400000Z" clip-rule="evenodd" fill="rgb(225,170,149)" fill-rule="evenodd" stroke="none" stroke-width="1"/><path id="elo6xpdttruc46" d="M62.300100,20.500000C42.700100,20.500000,26.600100,37.100000,26.600100,57.400000L26.600100,90.900000C26.600100,111.200000,42.700100,127.800000,62.300100,127.800000C81.900100,127.800000,98.000100,111.200000,98.000100,90.900000L98.000100,57.400000C97.900100,37.100000,81.900100,20.500000,62.300100,20.500000Z" clip-rule="evenodd" fill="rgb(233,186,168)" fill-rule="evenodd" stroke="none" stroke-width="1"/><path id="elo6xpdttruc47" d="M64.100200,88.200000C64.800200,90.200000,66.000200,93.700000,65.900200,94.300000C65.800200,95.100000,61.600200,95.300000,60.600200,94.100000C59.900200,93.300000,60.800200,90.400000,61.600200,88.400000C62.600200,85.700000,63.200200,85.600000,64.100200,88.200000Z" clip-rule="evenodd" fill="rgb(241,211,200)" fill-rule="evenodd" stroke="none" stroke-width="1"/><path id="elo6xpdttruc48" d="M49.899900,66C50.699900,66.400000,50.999900,67.300000,50.699900,68.100000C50.299900,68.900000,49.399900,69.200000,48.599900,68.900000C48.599900,68.900000,43.899900,66.700000,39.399900,69.500000C38.699900,70,37.699900,69.700000,37.199900,69C36.699900,68.300000,36.999900,67.300000,37.699900,66.800000C43.699900,63.100000,49.899900,66,49.899900,66Z" clip-rule="evenodd" fill="rgb(48,41,94)" fill-rule="evenodd" stroke="none" stroke-width="1"/><path id="elo6xpdttruc49" d="M86.599900,66.700000C87.399900,67.100000,87.599900,68.100000,87.199900,68.800000C86.799900,69.600000,85.799900,69.800000,85.099900,69.400000C85.099900,69.400000,80.599900,66.800000,75.899900,69.200000C75.099900,69.600000,74.199900,69.300000,73.799900,68.500000C73.399900,67.700000,73.699900,66.800000,74.499900,66.400000C80.699900,63.300000,86.599900,66.700000,86.599900,66.700000Z" clip-rule="evenodd" fill="rgb(48,41,94)" fill-rule="evenodd" stroke="none" stroke-width="1"/><path id="elo6xpdttruc50" d="M102.700000,75.300000C102.700000,75.300000,97.900100,75.400000,97.900100,79.700000C97.900100,79.700000,94.500100,75.300000,95.200100,69.700000C95.200100,69.700000,86.100100,59,86.500100,47.100000C86.900100,35.200000,96.200100,32.600000,96.200100,32.600000C118.500000,39.200000,102.700000,55,102.700000,75.300000Z" clip-rule="evenodd" fill="rgb(48,41,94)" fill-rule="evenodd" stroke="none" stroke-width="1"/><path id="elo6xpdttruc51" d="M21.799800,75.300000C21.799800,75.300000,26.599800,75.400000,26.599800,79.700000C26.599800,79.700000,29.999800,75.300000,29.299800,69.700000C29.299800,69.700000,38.399800,59,37.999800,47.100000C37.599800,35.200000,28.299800,32.600000,28.299800,32.600000C5.999810,39.200000,21.799800,55,21.799800,75.300000Z" clip-rule="evenodd" fill="rgb(48,41,94)" fill-rule="evenodd" stroke="none" stroke-width="1"/><path id="elo6xpdttruc52" d="M74.700000,11.500000C77.600000,10,81,9.100000,84.500000,9.100000C96.100000,9.100000,105.600000,18.500000,105.600000,30.200000C105.600000,41.800000,96.200000,51.300000,84.500000,51.300000C78.900000,51.300000,73.800000,49.100000,70,45.600000C67.900000,49.700000,63.600000,52.500000,58.700000,52.500000C55,52.500000,51.700000,50.900000,49.400000,48.400000C47.100000,51.600000,43.300000,53.600000,39.100000,53.600000C34.200000,53.600000,29.900000,50.800000,27.700000,46.700000C19.600000,44.800000,13.500000,37.600000,13.500000,28.900000C13.500000,18.800000,21.700000,10.600000,31.800000,10.600000C33.800000,10.600000,35.700000,10.900000,37.500000,11.500000C40.900000,4.700000,47.900000,0,56,0C64.200000,0,71.200000,4.700000,74.700000,11.500000Z" clip-rule="evenodd" fill="rgb(48,41,94)" fill-rule="evenodd" stroke="none" stroke-width="1"/><path id="elo6xpdttruc53" d="M62.299800,155.200000L74.299800,166.700000C74.299800,166.700000,78.799800,169.300000,80.499800,165.500000C82.299800,161.700000,87.599800,138.100000,87.599800,138.100000L79.199800,135C79.299800,135,78.799800,149.600000,62.299800,155.200000Z" clip-rule="evenodd" fill="rgb(255,255,255)" fill-rule="evenodd" stroke="none" stroke-width="1"/><path id="elo6xpdttruc54" d="M109.600000,143.800000C109.800000,143.600000,110.100000,143.600000,110.300000,143.800000C110.500000,144,110.500000,144.300000,110.300000,144.500000C110.300000,144.500000,106,149,106,159.700000L106,181.800000C105.700000,182,105.400000,182.100000,105,182.300000L105,159.700000C105,148.500000,109.600000,143.800000,109.600000,143.800000Z" clip-rule="evenodd" fill="rgb(28,19,65)" fill-rule="evenodd" stroke="none" stroke-width="1"/><path id="elo6xpdttruc55" d="M50.200200,151.900000L48.400200,157.400000L52.200200,191.500000C48.200200,191.100000,44.200200,190.400000,40.400200,189.600000L32.700200,174.700000L42.100200,145C45.000200,145.700000,47.700200,148.300000,50.200200,151.900000Z" clip-rule="evenodd" fill="rgb(48,41,94)" fill-rule="evenodd" stroke="none" stroke-width="1"/><path id="elo6xpdttruc56" d="M62.300000,155.200000L50.300000,166.700000C50.300000,166.700000,45.800000,169.300000,44.100000,165.500000C42.300000,161.700000,37,138.100000,37,138.100000L45.400000,135C45.200000,135,45.700000,149.600000,62.300000,155.200000Z" clip-rule="evenodd" fill="rgb(255,255,255)" fill-rule="evenodd" stroke="none" stroke-width="1"/><path id="elo6xpdttruc57" d="M14.899800,143.800000C14.699800,143.600000,14.399800,143.600000,14.199800,143.800000C13.999800,144,13.999800,144.300000,14.199800,144.500000C14.199800,144.500000,18.499800,149,18.499800,159.700000L18.499800,181.800000C18.799800,182,19.099800,182.100000,19.499800,182.300000L19.499800,159.700000C19.499800,148.500000,14.899800,143.800000,14.899800,143.800000Z" clip-rule="evenodd" fill="rgb(28,19,65)" fill-rule="evenodd" stroke="none" stroke-width="1"/><path id="elo6xpdttruc58" d="M44.400000,86.500000C46.800000,86.500000,48.800000,84.500000,48.800000,82.100000C48.800000,79.700000,46.800000,77.700000,44.400000,77.700000C42,77.700000,40,79.700000,40,82.100000C40,84.500000,42,86.500000,44.400000,86.500000Z" clip-rule="evenodd" fill="rgb(48,41,94)" fill-rule="evenodd" stroke="none" stroke-width="1"/><path id="elo6xpdttruc59" d="M80.100200,86.500000C82.500200,86.500000,84.500200,84.500000,84.500200,82.100000C84.500200,79.700000,82.500200,77.700000,80.100200,77.700000C77.700200,77.700000,75.700200,79.700000,75.700200,82.100000C75.700200,84.500000,77.600200,86.500000,80.100200,86.500000Z" clip-rule="evenodd" fill="rgb(48,41,94)" fill-rule="evenodd" stroke="none" stroke-width="1"/><path id="elo6xpdttruc60" d="M70.100000,102.100000C70.100000,106.400000,66.600000,109.900000,62.300000,109.900000C58,109.900000,54.500000,106.400000,54.500000,102.100000C54.500000,101.300000,55.100000,100.700000,55.900000,100.700000L68.600000,100.700000C69.400000,100.700000,70.100000,101.400000,70.100000,102.100000Z" clip-rule="evenodd" fill="rgb(255,255,255)" fill-rule="evenodd" stroke="none" stroke-width="1"/></g></g></g></g></g><g id="elo6xpdttruc61_to" transform="translate(167.932063,60.218254)"><g id="elo6xpdttruc61_tk" transform="skewX(0) skewY(10)"><g id="elo6xpdttruc61_ts" transform="scale(0.002243,0.294318)"><g id="elo6xpdttruc61" transform="translate(0,0)" opacity="0"><rect id="elo6xpdttruc62" width="412.634000" height="259" rx="22" ry="22" fill="rgb(243,247,251)" stroke="none" stroke-width="1"/><rect id="elo6xpdttruc63" width="413" height="76" rx="0" ry="0" transform="matrix(1 0 0 -1 0 169)" opacity="0.3" fill="rgb(206,211,221)" stroke="none" stroke-width="1"/><rect id="elo6xpdttruc64" width="50" height="5" rx="2.500000" ry="2.500000" transform="matrix(1 0 0 1 163 36)" fill="rgb(206,211,221)" stroke="none" stroke-width="1"/><rect id="elo6xpdttruc65" width="67" height="5" rx="2.500000" ry="2.500000" transform="matrix(1 0 0 1 163 60)" fill="rgb(206,211,221)" stroke="none" stroke-width="1"/><rect id="elo6xpdttruc66" width="41" height="5" rx="2.500000" ry="2.500000" transform="matrix(1 0 0 1 163 112)" fill="rgb(206,211,221)" stroke="none" stroke-width="1"/><rect id="elo6xpdttruc67" width="48" height="5" rx="2.500000" ry="2.500000" transform="matrix(1 0 0 1 163 136)" fill="rgb(206,211,221)" stroke="none" stroke-width="1"/><rect id="elo6xpdttruc68" width="64" height="10" rx="5" ry="5" transform="matrix(1 0 0 1 163 43)" fill="rgb(206,211,221)" stroke="none" stroke-width="1"/><rect id="elo6xpdttruc69" width="370" height="15" rx="7.500000" ry="7.500000" transform="matrix(1 0 0 1 25 229)" fill="rgb(206,211,221)" stroke="none" stroke-width="1"/><rect id="elo6xpdttruc70" width="370" height="15" rx="7.500000" ry="7.500000" transform="matrix(1 0 0 1 25 207)" fill="rgb(206,211,221)" stroke="none" stroke-width="1"/><rect id="elo6xpdttruc71" width="370" height="15" rx="7.500000" ry="7.500000" transform="matrix(1 0 0 1 25 185)" fill="rgb(206,211,221)" stroke="none" stroke-width="1"/><rect id="elo6xpdttruc72" width="67" height="10" rx="5" ry="5" transform="matrix(1 0 0 1 163 67)" fill="rgb(206,211,221)" stroke="none" stroke-width="1"/><rect id="elo6xpdttruc73" width="24" height="10" rx="5" ry="5" transform="matrix(1 0 0 1 163 119)" fill="rgb(206,211,221)" stroke="none" stroke-width="1"/><rect id="elo6xpdttruc74" width="64" height="10" rx="5" ry="5" transform="matrix(1 0 0 1 163 143)" fill="rgb(206,211,221)" stroke="none" stroke-width="1"/></g></g></g></g><g id="elo6xpdttruc75_to" transform="translate(0,0)"><g id="elo6xpdttruc75_ts" transform="scale(1,1)"><g id="elo6xpdttruc75" transform="translate(0,0)"><rect id="elo6xpdttruc76" display="none" width="25.694900" height="29.720300" rx="5" ry="5" transform="matrix(1 0 0 1 134.88999999999999 79.82200000000000)" fill="none" stroke="rgb(156,119,224)" stroke-width="1"/><rect id="elo6xpdttruc77" width="78.237300" height="49" rx="3" ry="3" transform="matrix(1 0 0 1 131.50629933228086 70.50000000000000)" fill="none" stroke="rgb(156,119,224)" stroke-width="1"/></g></g></g><rect id="elo6xpdttruc78" width="127" height="74" rx="0" ry="0" transform="matrix(1 0 0 1 107.12494933633458 58.50000000000000)" fill="rgb(206,211,221)" fill-opacity="0.1" stroke="rgb(156,119,224)" stroke-width="0"/><g id="elo6xpdttruc79_to" transform="translate(0,0)"><g id="elo6xpdttruc79_ts" transform="scale(1,1)"><g id="elo6xpdttruc79" transform="translate(0,0)"><rect id="elo6xpdttruc80" width="53" height="14" rx="7" ry="7" transform="matrix(1 0 0 1 144.12494933541146 143.99999999706407)" fill="rgb(206,211,221)" stroke="rgb(206,211,221)" stroke-width="1"/><rect id="elo6xpdttruc81" width="35" height="4" rx="2" ry="2" transform="matrix(1 0 0 1 153.12494933541146 148.99999999347042)" opacity="0.2" fill="rgb(255,255,255)" stroke="none" stroke-width="1"/></g></g></g><rect id="elo6xpdttruc82" width="74" height="3" rx="1.500000" ry="1.500000" transform="matrix(1 0 0 1 133.62494932980499 34)" fill="rgb(206,211,221)" stroke="none" stroke-width="1"/><rect id="elo6xpdttruc83" width="56" height="2" rx="1" ry="1" transform="matrix(1 0 0 1 142.62494932980499 41)" opacity="0.4" fill="rgb(206,211,221)" stroke="none" stroke-width="1"/><rect id="elo6xpdttruc84" width="42" height="2" rx="1" ry="1" transform="matrix(1 0 0 1 149.62494932980499 45)" opacity="0.4" fill="rgb(206,211,221)" stroke="none" stroke-width="1"/></g></g></g><g id="elo6xpdttruc85_to" transform="translate(158.043751,123.545061)"><g id="elo6xpdttruc85_ts" transform="scale(0.194142,0.194142)"><g id="elo6xpdttruc85" transform="translate(0,0)" opacity="0"><rect id="elo6xpdttruc86" width="115" height="115" rx="60" ry="60" fill="rgb(71,218,174)" stroke="none" stroke-width="1"/><rect id="elo6xpdttruc87" width="6.052630" height="26.170700" rx="3.026320" ry="0" transform="matrix(0.70710700000000 -0.70710700000000 0.70710700000000 0.70710700000000 35.78388788810000 56.92439553350001)" fill="rgb(255,255,255)" stroke="none" stroke-width="1"/><rect id="elo6xpdttruc88" width="6.052630" height="42.056300" rx="3.026320" ry="0" transform="matrix(0.70710700000000 0.70710700000000 -0.70710700000000 0.70710700000000 79.74803679480002 41.41160127720002)" fill="rgb(255,255,255)" stroke="none" stroke-width="1"/></g></g></g><g id="elo6xpdttruc89_to" style="offset-path:path('M241.367919,198.089065C232.736431,176.545885,206.161123,176.520414,166.766857,171.518244');offset-rotate:0deg"><g id="elo6xpdttruc89" transform="scale(0.449494,0.449494) translate(0,0)"><path id="elo6xpdttruc90" d="M9.952560,22.255200C9.434090,21.546900,8.915620,20.307400,7.878680,18.713800C7.360220,17.828500,5.804810,16.057800,5.286340,15.349600C4.940700,14.641300,4.940700,14.287200,5.113520,13.578900C5.286340,12.516500,6.323280,11.631200,7.533040,11.631200C8.397150,11.631200,9.261270,12.339400,9.952560,12.870600C10.298200,13.224800,10.816700,13.933000,11.162300,14.287200C11.508000,14.641300,11.508000,14.818400,11.853600,15.172500C12.199300,15.703700,12.372100,16.057800,12.199300,15.349600C12.026400,14.464200,11.853600,13.047700,11.508000,11.631200C11.335100,10.568800,11.162300,10.391700,10.989500,9.683440C10.816700,8.798110,10.643800,8.266910,10.471000,7.381570C10.298200,6.850370,10.125400,5.433840,9.952560,4.725570C9.779730,3.840240,9.779740,2.246640,10.471000,1.538370C10.989500,1.007170,12.026400,0.830108,12.717700,1.184240C13.581800,1.715440,14.100300,2.954910,14.273100,3.486110C14.618800,4.371440,14.964400,5.610910,15.137200,7.027440C15.482900,8.798110,16.001400,11.454100,16.001400,11.985300C16.001400,11.277000,15.828500,10.037600,16.001400,9.329310C16.174200,8.798110,16.519800,8.089840,17.211100,7.912770C17.729600,7.735710,18.248000,7.735710,18.766500,7.735710C19.285000,7.912770,19.803500,8.266910,20.149100,8.621040C20.840400,9.683440,20.840400,11.985300,20.840400,11.808200C21.013200,11.100000,21.013200,9.683440,21.358900,8.975170C21.531700,8.621040,22.223000,8.266910,22.568600,8.089840C23.087100,7.912770,23.778400,7.912770,24.296800,8.089840C24.642500,8.089840,25.333800,8.621040,25.506600,8.975170C25.852300,9.506370,26.025100,11.277000,26.197900,11.985300C26.197900,12.162400,26.370700,11.277000,26.716400,10.745800C27.407700,9.683440,29.827200,9.329310,30,11.808200C30,13.047700,30,12.870600,30,13.756000C30,14.641300,30,15.172500,30,15.880800C30,16.589000,29.827200,18.182600,29.654400,18.890900C29.481500,19.422100,28.963100,20.661600,28.444600,21.369800C28.444600,21.369800,26.543500,23.494600,26.370700,24.557000C26.197900,25.619400,26.197900,25.619400,26.197900,26.327700C26.197900,27.036000,26.370700,27.921300,26.370700,27.921300C26.370700,27.921300,24.988100,28.098400,24.296800,27.921300C23.605600,27.744200,22.741400,26.504800,22.568600,25.973600C22.223000,25.442400,21.704500,25.442400,21.358900,25.973600C21.013200,26.681800,20.149100,27.921300,19.457800,27.921300C18.248000,28.098400,15.828500,27.921300,14.100300,27.921300C14.100300,27.921300,14.445900,26.150600,13.754700,25.442400C13.236200,24.911200,12.372100,24.025800,11.853600,23.494600L9.952560,22.255200Z" fill="rgb(255,255,255)" stroke="none" stroke-width="1"/><path id="elo6xpdttruc91" d="M9.952560,22.255200C9.434090,21.546900,8.915620,20.307400,7.878680,18.713800C7.360220,17.828500,5.804810,16.057800,5.286340,15.349600C4.940700,14.641300,4.940700,14.287200,5.113520,13.578900C5.286340,12.516500,6.323280,11.631200,7.533040,11.631200C8.397150,11.631200,9.261270,12.339400,9.952560,12.870600C10.298200,13.224800,10.816700,13.933000,11.162300,14.287200C11.508000,14.641300,11.508000,14.818400,11.853600,15.172500C12.199300,15.703700,12.372100,16.057800,12.199300,15.349600C12.026400,14.464200,11.853600,13.047700,11.508000,11.631200C11.335100,10.568800,11.162300,10.391700,10.989500,9.683440C10.816700,8.798110,10.643800,8.266910,10.471000,7.381570C10.298200,6.850370,10.125400,5.433840,9.952560,4.725570C9.779730,3.840240,9.779740,2.246640,10.471000,1.538370C10.989500,1.007170,12.026400,0.830108,12.717700,1.184240C13.581800,1.715440,14.100300,2.954910,14.273100,3.486110C14.618800,4.371440,14.964400,5.610910,15.137200,7.027440C15.482900,8.798110,16.001400,11.454100,16.001400,11.985300C16.001400,11.277000,15.828500,10.037600,16.001400,9.329310C16.174200,8.798110,16.519800,8.089840,17.211100,7.912770C17.729600,7.735710,18.248000,7.735710,18.766500,7.735710C19.285000,7.912770,19.803500,8.266910,20.149100,8.621040C20.840400,9.683440,20.840400,11.985300,20.840400,11.808200C21.013200,11.100000,21.013200,9.683440,21.358900,8.975170C21.531700,8.621040,22.223000,8.266910,22.568600,8.089840C23.087100,7.912770,23.778400,7.912770,24.296800,8.089840C24.642500,8.089840,25.333800,8.621040,25.506600,8.975170C25.852300,9.506370,26.025100,11.277000,26.197900,11.985300C26.197900,12.162400,26.370700,11.277000,26.716400,10.745800C27.407700,9.683440,29.827200,9.329310,30,11.808200C30,13.047700,30,12.870600,30,13.756000C30,14.641300,30,15.172500,30,15.880800C30,16.589000,29.827200,18.182600,29.654400,18.890900C29.481500,19.422100,28.963100,20.661600,28.444600,21.369800C28.444600,21.369800,26.543500,23.494600,26.370700,24.557000C26.197900,25.619400,26.197900,25.619400,26.197900,26.327700C26.197900,27.036000,26.370700,27.921300,26.370700,27.921300C26.370700,27.921300,24.988100,28.098400,24.296800,27.921300C23.605600,27.744200,22.741400,26.504800,22.568600,25.973600C22.223000,25.442400,21.704500,25.442400,21.358900,25.973600C21.013200,26.681800,20.149100,27.921300,19.457800,27.921300C18.248000,28.098400,15.828500,27.921300,14.100300,27.921300C14.100300,27.921300,14.445900,26.150600,13.754700,25.442400C13.236200,24.911200,12.372100,24.025800,11.853600,23.494600L9.952560,22.255200Z" fill="none" stroke="rgb(0,0,0)" stroke-width="0.750000" stroke-linecap="round" stroke-linejoin="round"/><path id="elo6xpdttruc92" d="M24.010500,22.956300L24.010500,16.936000" fill="none" stroke="rgb(0,0,0)" stroke-width="0.750000" stroke-linecap="round"/><path id="elo6xpdttruc93" d="M20.726900,22.956300L20.554100,16.936000" fill="none" stroke="rgb(0,0,0)" stroke-width="0.750000" stroke-linecap="round"/><path id="elo6xpdttruc94" d="M17.097500,16.936000L17.097500,22.956300" fill="none" stroke="rgb(0,0,0)" stroke-width="0.750000" stroke-linecap="round"/></g></g></g></svg>