<svg id="eyapwn4gqww91" xmlns="http://www.w3.org/2000/svg" xmlns:xlink="http://www.w3.org/1999/xlink" viewBox="0 0 342 196" shape-rendering="geometricPrecision" text-rendering="geometricPrecision"><style><![CDATA[#eyapwn4gqww92 {animation: eyapwn4gqww92_c_o 6000ms linear infinite normal forwards}@keyframes eyapwn4gqww92_c_o { 0% {opacity: 0} 3.333333% {opacity: 1} 96.666667% {opacity: 1} 100% {opacity: 0} }#eyapwn4gqww93_to {animation: eyapwn4gqww93_to__to 6000ms linear infinite normal forwards}@keyframes eyapwn4gqww93_to__to { 0% {transform: translate(40.344587px,22.635773px)} 6.666667% {transform: translate(40.344587px,22.635773px)} 16.666667% {transform: translate(40.344587px,22.635773px);animation-timing-function: cubic-bezier(0.420000,0,0.580000,1)} 21.666667% {transform: translate(-119.579356px,-86.189747px)} 100% {transform: translate(-119.579356px,-86.189747px)} }#eyapwn4gqww93_ts {animation: eyapwn4gqww93_ts__ts 6000ms linear infinite normal forwards}@keyframes eyapwn4gqww93_ts__ts { 0% {transform: scale(0.765746,0.765746)} 6.666667% {transform: scale(0.765746,0.765746)} 16.666667% {transform: scale(0.765746,0.765746);animation-timing-function: cubic-bezier(0.420000,0,0.580000,1)} 21.666667% {transform: scale(1.703030,1.703030)} 100% {transform: scale(1.703030,1.703030)} }#eyapwn4gqww99_to {animation: eyapwn4gqww99_to__to 6000ms linear infinite normal forwards}@keyframes eyapwn4gqww99_to__to { 0% {transform: translate(132.317467px,75.047022px)} 23.333333% {transform: translate(132.317467px,75.047022px);animation-timing-function: cubic-bezier(0.445000,0.050000,0.550000,0.950000)} 27.833333% {transform: translate(108.723239px,60.250640px);animation-timing-function: cubic-bezier(0.445000,0.050000,0.550000,0.950000)} 31.666667% {transform: translate(108.723239px,60.250640px);animation-timing-function: cubic-bezier(0.110000,0.660000,0.225000,0.870000)} 38.333333% {transform: translate(100.394456px,67.771520px);animation-timing-function: cubic-bezier(0.110000,0.660000,0.225000,0.870000)} 46.666667% {transform: translate(118.802964px,56.271520px);animation-timing-function: cubic-bezier(0.110000,0.660000,0.225000,0.870000)} 51.666667% {transform: translate(126.076904px,71.587289px)} 56.666667% {transform: translate(118.723059px,67.168048px);animation-timing-function: cubic-bezier(0.965000,-0.005000,0.550000,0.950000)} 63.333333% {transform: translate(121.219033px,69.192541px)} 100% {transform: translate(121.219033px,69.192541px)} }#eyapwn4gqww99_ts {animation: eyapwn4gqww99_ts__ts 6000ms linear infinite normal forwards}@keyframes eyapwn4gqww99_ts__ts { 0% {transform: scale(0.180061,0.180061)} 23.333333% {transform: scale(0.180061,0.180061);animation-timing-function: cubic-bezier(0.445000,0.050000,0.550000,0.950000)} 27.833333% {transform: scale(0.294318,0.294318);animation-timing-function: cubic-bezier(0.445000,0.050000,0.550000,0.950000)} 31.666667% {transform: scale(0.294318,0.294318);animation-timing-function: cubic-bezier(0.110000,0.660000,0.225000,0.870000)} 38.333333% {transform: scale(0.294318,0.294318);animation-timing-function: cubic-bezier(0.110000,0.660000,0.225000,0.870000)} 46.666667% {transform: scale(0.294318,0.294318);animation-timing-function: cubic-bezier(0.110000,0.660000,0.225000,0.870000)} 51.666667% {transform: scale(0.202109,0.206777)} 56.666667% {transform: scale(0.244480,0.244480);animation-timing-function: cubic-bezier(0.965000,-0.005000,0.550000,0.950000)} 63.333333% {transform: scale(0.228456,0.228456)} 100% {transform: scale(0.228456,0.228456)} }#eyapwn4gqww99 {animation: eyapwn4gqww99_c_o 6000ms linear infinite normal forwards}@keyframes eyapwn4gqww99_c_o { 0% {opacity: 0} 23.333333% {opacity: 0;animation-timing-function: cubic-bezier(0.445000,0.050000,0.550000,0.950000)} 27.833333% {opacity: 1;animation-timing-function: cubic-bezier(0.445000,0.050000,0.550000,0.950000)} 31.666667% {opacity: 1} 100% {opacity: 1} }#eyapwn4gqww934_to {animation: eyapwn4gqww934_to__to 6000ms linear infinite normal forwards}@keyframes eyapwn4gqww934_to__to { 0% {transform: translate(132.317467px,75.047022px)} 23.333333% {transform: translate(132.317467px,75.047022px);animation-timing-function: cubic-bezier(0.445000,0.050000,0.550000,0.950000)} 27.833333% {transform: translate(113.235176px,27.482382px);animation-timing-function: cubic-bezier(0.445000,0.050000,0.550000,0.950000)} 31.666667% {transform: translate(113.235176px,-12.885223px)} 38.333333% {transform: translate(107.432690px,-8.456959px)} 46.666667% {transform: translate(119.912105px,-17.728480px)} 56.666667% {transform: translate(122.780184px,3.165738px)} 100% {transform: translate(122.780184px,3.165738px)} }#eyapwn4gqww934_ts {animation: eyapwn4gqww934_ts__ts 6000ms linear infinite normal forwards}@keyframes eyapwn4gqww934_ts__ts { 0% {transform: scale(0.180061,0.180061)} 23.333333% {transform: scale(0.180061,0.180061);animation-timing-function: cubic-bezier(0.445000,0.050000,0.550000,0.950000)} 27.833333% {transform: scale(0.294318,0.294318);animation-timing-function: cubic-bezier(0.445000,0.050000,0.550000,0.950000)} 31.666667% {transform: scale(0.294318,0.294318);animation-timing-function: cubic-bezier(0.110000,0.660000,0.225000,0.870000)} 38.333333% {transform: scale(0.294318,0.294318);animation-timing-function: cubic-bezier(0.110000,0.660000,0.225000,0.870000)} 46.666667% {transform: scale(0.294318,0.294318);animation-timing-function: cubic-bezier(0.110000,0.660000,0.225000,0.870000)} 56.666667% {transform: scale(0.244480,0.244480)} 100% {transform: scale(0.244480,0.244480)} }#eyapwn4gqww934 {animation: eyapwn4gqww934_c_o 6000ms linear infinite normal forwards}@keyframes eyapwn4gqww934_c_o { 0% {opacity: 0} 23.333333% {opacity: 0;animation-timing-function: cubic-bezier(0.445000,0.050000,0.550000,0.950000)} 27.833333% {opacity: 1;animation-timing-function: cubic-bezier(0.445000,0.050000,0.550000,0.950000)} 31.666667% {opacity: 1} 100% {opacity: 1} }#eyapwn4gqww953 {animation: eyapwn4gqww953_c_o 6000ms linear infinite normal forwards}@keyframes eyapwn4gqww953_c_o { 0% {opacity: 1} 74.666667% {opacity: 1} 78.500000% {opacity: 1} 100% {opacity: 1} }#eyapwn4gqww986_to {animation: eyapwn4gqww986_to__to 6000ms linear infinite normal forwards}@keyframes eyapwn4gqww986_to__to { 0% {transform: translate(0px,0px)} 6.666667% {transform: translate(0px,0px)} 16.666667% {transform: translate(0px,0px)} 21.666667% {transform: translate(-51.618559px,-24.753331px)} 100% {transform: translate(-51.618559px,-24.753331px)} }#eyapwn4gqww986_ts {animation: eyapwn4gqww986_ts__ts 6000ms linear infinite normal forwards}@keyframes eyapwn4gqww986_ts__ts { 0% {transform: scale(1,1)} 6.666667% {transform: scale(1,1)} 16.666667% {transform: scale(1,1)} 21.666667% {transform: scale(1.295981,1.295981)} 100% {transform: scale(1.295981,1.295981)} }#eyapwn4gqww986 {animation: eyapwn4gqww986_c_o 6000ms linear infinite normal forwards}@keyframes eyapwn4gqww986_c_o { 0% {opacity: 1} 73.333333% {opacity: 1} 77% {opacity: 0} 100% {opacity: 0} }#eyapwn4gqww989 {animation: eyapwn4gqww989_f_o 6000ms linear infinite normal forwards}@keyframes eyapwn4gqww989_f_o { 0% {fill-opacity: 0.100000} 6.666667% {fill-opacity: 0.100000} 16.666667% {fill-opacity: 0.100000} 21.666667% {fill-opacity: 0} 100% {fill-opacity: 0} }#eyapwn4gqww990_to {animation: eyapwn4gqww990_to__to 6000ms linear infinite normal forwards}@keyframes eyapwn4gqww990_to__to { 0% {transform: translate(0px,0px)} 68% {transform: translate(0px,0px);animation-timing-function: cubic-bezier(0.420000,0,0.580000,1)} 72% {transform: translate(11.394300px,10.632617px);animation-timing-function: cubic-bezier(0.420000,0,0.580000,1)} 73.666667% {transform: translate(0px,0px)} 100% {transform: translate(0px,0px)} }#eyapwn4gqww990_ts {animation: eyapwn4gqww990_ts__ts 6000ms linear infinite normal forwards}@keyframes eyapwn4gqww990_ts__ts { 0% {transform: scale(1,1)} 68% {transform: scale(1,1);animation-timing-function: cubic-bezier(0.420000,0,0.580000,1)} 72% {transform: scale(0.933474,0.933474);animation-timing-function: cubic-bezier(0.420000,0,0.580000,1)} 73.666667% {transform: scale(1,1)} 100% {transform: scale(1,1)} }#eyapwn4gqww996_to {animation: eyapwn4gqww996_to__to 6000ms linear infinite normal forwards}@keyframes eyapwn4gqww996_to__to { 0% {transform: translate(158.043751px,123.545061px)} 73.666667% {transform: translate(158.043751px,123.545061px);animation-timing-function: cubic-bezier(0.420000,0,0.580000,1)} 76.500000% {transform: translate(144.073956px,109.618884px);animation-timing-function: cubic-bezier(0.420000,0,0.580000,1)} 78.333333% {transform: translate(148.412600px,114.730799px)} 100% {transform: translate(148.412600px,114.730799px)} }#eyapwn4gqww996_ts {animation: eyapwn4gqww996_ts__ts 6000ms linear infinite normal forwards}@keyframes eyapwn4gqww996_ts__ts { 0% {transform: scale(0.194142,0.194142)} 73.666667% {transform: scale(0.194142,0.194142);animation-timing-function: cubic-bezier(0.420000,0,0.580000,1)} 76.500000% {transform: scale(0.448409,0.448409);animation-timing-function: cubic-bezier(0.420000,0,0.580000,1)} 78.333333% {transform: scale(0.359506,0.359506)} 100% {transform: scale(0.359506,0.359506)} }#eyapwn4gqww996 {animation: eyapwn4gqww996_c_o 6000ms linear infinite normal forwards}@keyframes eyapwn4gqww996_c_o { 0% {opacity: 0} 73.666667% {opacity: 0;animation-timing-function: cubic-bezier(0.420000,0,0.580000,1)} 76.500000% {opacity: 1;animation-timing-function: cubic-bezier(0.420000,0,0.580000,1)} 78.333333% {opacity: 1} 100% {opacity: 1} }#eyapwn4gqww9100_to {animation: eyapwn4gqww9100_to__to 6000ms linear infinite normal forwards}@keyframes eyapwn4gqww9100_to__to { 0% {offset-distance: 0%} 53.666667% {offset-distance: 0%;animation-timing-function: cubic-bezier(0.470000,0,0.745000,0.715000)} 59.833333% {offset-distance: 100%} 100% {offset-distance: 100%} }]]></style><g id="eyapwn4gqww92" opacity="0"><g id="eyapwn4gqww93_to" transform="translate(40.344587,22.635773)"><g id="eyapwn4gqww93_ts" transform="scale(0.765746,0.765746)"><g id="eyapwn4gqww93" transform="translate(0,0)"><path id="eyapwn4gqww94" d="M26.312500,8C26.312500,3.857870,29.670400,0.500000,33.812500,0.500000L307.437000,0.500000C311.580000,0.500000,314.937000,3.857860,314.937000,8L314.937000,187.187000L26.312500,187.187000L26.312500,8Z" transform="matrix(1 0 0 1 -0.12474999999997 0.09584607766604)" fill="rgb(255,255,255)" stroke="rgb(156,119,224)" stroke-width="1"/><rect id="eyapwn4gqww95" width="279" height="174" rx="0" ry="0" transform="matrix(1 0 0 1 31.12500000000000 8.81258000000000)" fill="none" stroke="rgb(156,119,224)" stroke-width="1"/><path id="eyapwn4gqww96" d="M0.514903,187.750000C0.773367,192.074000,4.361540,195.500000,8.750000,195.500000L332.500000,195.500000C336.888000,195.500000,340.477000,192.074000,340.735000,187.750000L0.514903,187.750000Z" fill="rgb(255,255,255)" stroke="rgb(156,119,224)" stroke-width="1"/><path id="eyapwn4gqww97" d="M130.907000,187.750000C131.152000,189.654000,132.779000,191.125000,134.750000,191.125000L206.500000,191.125000C208.471000,191.125000,210.098000,189.654000,210.343000,187.750000L130.907000,187.750000Z" fill="none" stroke="rgb(156,119,224)" stroke-width="1"/><circle id="eyapwn4gqww98" r="1.687500" transform="matrix(1 0 0 1 169.50000000000000 4.94606500000000)" fill="none" stroke="rgb(156,119,224)" stroke-width="1"/><g id="eyapwn4gqww99_to" transform="translate(132.317467,75.047022)"><g id="eyapwn4gqww99_ts" transform="scale(0.180061,0.180061)"><g id="eyapwn4gqww99" display="none" transform="translate(0,0)" opacity="0"><rect id="eyapwn4gqww910" width="412.634000" height="259" rx="22" ry="22" fill="rgb(243,247,251)" stroke="none" stroke-width="1"/><rect id="eyapwn4gqww911" width="413" height="33" rx="0" ry="0" transform="matrix(1 0 0 1 0 20)" opacity="0.3" fill="rgb(206,211,221)" stroke="none" stroke-width="1"/><rect id="eyapwn4gqww912" width="413" height="60" rx="0" ry="0" transform="matrix(1 0 0 1 0 169)" opacity="0.3" fill="rgb(206,211,221)" stroke="none" stroke-width="1"/><rect id="eyapwn4gqww913" width="413" height="11" rx="0" ry="0" transform="matrix(1 0 0 1 0 60)" opacity="0.3" fill="rgb(206,211,221)" stroke="none" stroke-width="1"/><rect id="eyapwn4gqww914" width="126.557000" height="160.698000" rx="20" ry="20" transform="matrix(1 0 0 1 24.13400000000000 47.67960000000000)" fill="rgb(206,211,221)" stroke="none" stroke-width="1"/><path id="eyapwn4gqww915" d="M43.373800,79.785100C51.908100,58.589700,75.581100,54.655700,86.707200,55.022500C105.408000,55.022500,123.490000,62.062200,130.626000,79.785100C138.824000,100.145000,133.554000,107.299000,132.969000,122.157000C132.884000,124.304000,135.387000,124.672000,136.482000,126.559000C139.410000,131.603000,138.336000,147.424000,131.212000,150.771000C128.869000,151.872000,125.356000,152.422000,125.356000,156.824000C125.356000,162.877000,119.389000,175.968000,114.815000,179.936000C107.203000,186.539000,115.401000,208,115.401000,208L58.599200,208C58.599200,208,66.797400,186.539000,59.184800,179.936000C54.610700,175.968000,48.644200,162.877000,48.644200,156.824000C48.644200,152.422000,45.130800,151.872000,42.788400,150.771000C35.664300,147.424000,34.590500,131.603000,37.518100,126.559000C38.613000,124.672000,41.116100,124.304000,41.031500,122.157000C40.446100,107.299000,35.175800,100.145000,43.373800,79.785100Z" fill="rgb(137,143,154)" stroke="none" stroke-width="1"/><rect id="eyapwn4gqww916" width="33" height="5" rx="2.500000" ry="2.500000" transform="matrix(1 0 0 1 163 49)" fill="rgb(206,211,221)" stroke="none" stroke-width="1"/><rect id="eyapwn4gqww917" width="50" height="5" rx="2.500000" ry="2.500000" transform="matrix(1 0 0 1 163 146)" fill="rgb(206,211,221)" stroke="none" stroke-width="1"/><rect id="eyapwn4gqww918" width="71" height="5" rx="2.500000" ry="2.500000" transform="matrix(1 0 0 1 25 240)" fill="rgb(206,211,221)" stroke="none" stroke-width="1"/><rect id="eyapwn4gqww919" width="67" height="5" rx="2.500000" ry="2.500000" transform="matrix(1 0 0 1 163 170)" fill="rgb(206,211,221)" stroke="none" stroke-width="1"/><rect id="eyapwn4gqww920" width="15" height="5" rx="2.500000" ry="2.500000" transform="matrix(1 0 0 1 258 112)" fill="rgb(206,211,221)" stroke="none" stroke-width="1"/><rect id="eyapwn4gqww921" width="41" height="5" rx="2.500000" ry="2.500000" transform="matrix(1 0 0 1 308 112)" fill="rgb(206,211,221)" stroke="none" stroke-width="1"/><rect id="eyapwn4gqww922" width="48" height="5" rx="2.500000" ry="2.500000" transform="matrix(1 0 0 1 308 136)" fill="rgb(206,211,221)" stroke="none" stroke-width="1"/><rect id="eyapwn4gqww923" width="41" height="5" rx="2.500000" ry="5" transform="matrix(1 0 0 1 308 162)" fill="rgb(206,211,221)" stroke="none" stroke-width="1"/><rect id="eyapwn4gqww924" width="33" height="5" rx="2.500000" ry="5" transform="matrix(1 0 0 1 163 69)" fill="rgb(206,211,221)" stroke="none" stroke-width="1"/><rect id="eyapwn4gqww925" width="40" height="10" rx="5" ry="5" transform="matrix(1 0 0 1 163 56)" fill="rgb(206,211,221)" stroke="none" stroke-width="1"/><rect id="eyapwn4gqww926" width="64" height="10" rx="5" ry="5" transform="matrix(1 0 0 1 163 153)" fill="rgb(206,211,221)" stroke="none" stroke-width="1"/><rect id="eyapwn4gqww927" width="370" height="15" rx="8" ry="8" transform="matrix(1 0 0 1 25 217)" fill="rgb(206,211,221)" stroke="none" stroke-width="1"/><rect id="eyapwn4gqww928" width="67" height="10" rx="5" ry="5" transform="matrix(1 0 0 1 163 177)" fill="rgb(206,211,221)" stroke="none" stroke-width="1"/><rect id="eyapwn4gqww929" width="27" height="10" rx="5" ry="5" transform="matrix(1 0 0 1 258 119)" fill="rgb(206,211,221)" stroke="none" stroke-width="1"/><rect id="eyapwn4gqww930" width="24" height="10" rx="5" ry="5" transform="matrix(1 0 0 1 308 119)" fill="rgb(206,211,221)" stroke="none" stroke-width="1"/><rect id="eyapwn4gqww931" width="64" height="10" rx="5" ry="5" transform="matrix(1 0 0 1 308 143)" fill="rgb(206,211,221)" stroke="none" stroke-width="1"/><rect id="eyapwn4gqww932" width="80" height="10" rx="5" ry="5" transform="matrix(1 0 0 1 308 169)" fill="rgb(206,211,221)" stroke="none" stroke-width="1"/><rect id="eyapwn4gqww933" width="93" height="10" rx="5" ry="5" transform="matrix(1 0 0 1 163 76)" fill="rgb(206,211,221)" stroke="none" stroke-width="1"/></g></g></g><g id="eyapwn4gqww934_to" transform="translate(132.317467,75.047022)"><g id="eyapwn4gqww934_ts" transform="scale(0.180061,0.180061)"><g id="eyapwn4gqww934" transform="translate(0,0)" opacity="0"><path id="eyapwn4gqww935" d="M0,259L382,259L382,514C382,516.209000,380.209000,518,378,518L4.000010,518C1.790870,518,0,516.209000,0,514L0,259Z" fill="rgb(243,247,251)" stroke="none" stroke-width="1"/><rect id="eyapwn4gqww936" width="93" height="118.088000" rx="20" ry="20" transform="matrix(1 0 0 1 17 323)" fill="rgb(206,211,221)" stroke="none" stroke-width="1"/><path id="eyapwn4gqww937" d="M31.138400,346.593000C37.409800,331.017000,54.805800,328.126000,62.981800,328.396000C76.724000,328.396000,90.011600,333.569000,95.255600,346.593000C101.280000,361.554000,97.407000,366.811000,96.976800,377.729000C96.914600,379.307000,98.754100,379.578000,99.558600,380.964000C101.710000,384.671000,100.921000,396.297000,95.685800,398.757000C93.964400,399.565000,91.382600,399.970000,91.382600,403.205000C91.382600,407.653000,86.998200,417.273000,83.636900,420.188000C78.042800,425.041000,84.067200,440.811000,84.067200,440.811000L42.326700,440.811000C42.326700,440.811000,48.351100,425.041000,42.757000,420.188000C39.395800,417.273000,35.011300,407.653000,35.011300,403.205000C35.011300,399.970000,32.429500,399.565000,30.708200,398.757000C25.473000,396.297000,24.683900,384.671000,26.835300,380.964000C27.639900,379.578000,29.479300,379.307000,29.417100,377.729000C28.986900,366.811000,25.114100,361.554000,31.138400,346.593000Z" fill="rgb(137,143,154)" stroke="none" stroke-width="1"/><rect id="eyapwn4gqww938" width="33" height="5" rx="2.500000" ry="2.500000" transform="matrix(1 0 0 1 116 312)" fill="rgb(206,211,221)" stroke="none" stroke-width="1"/><rect id="eyapwn4gqww939" width="33" height="5" rx="2.500000" ry="2.500000" transform="matrix(1 0 0 1 116 352)" fill="rgb(206,211,221)" stroke="none" stroke-width="1"/><rect id="eyapwn4gqww940" width="79" height="5" rx="2.500000" ry="2.500000" transform="matrix(1 0 0 1 116 376)" fill="rgb(206,211,221)" stroke="none" stroke-width="1"/><rect id="eyapwn4gqww941" width="165" height="5" rx="2.500000" ry="2.500000" transform="matrix(1 0 0 1 20 279)" fill="rgb(206,211,221)" stroke="none" stroke-width="1"/><rect id="eyapwn4gqww942" width="50" height="5" rx="2.500000" ry="2.500000" transform="matrix(1 0 0 1 116 403)" fill="rgb(206,211,221)" stroke="none" stroke-width="1"/><rect id="eyapwn4gqww943" width="67" height="5" rx="2.500000" ry="2.500000" transform="matrix(1 0 0 1 116 427)" fill="rgb(206,211,221)" stroke="none" stroke-width="1"/><rect id="eyapwn4gqww944" width="15" height="5" rx="2.500000" ry="2.500000" transform="matrix(1 0 0 1 224 349)" fill="rgb(206,211,221)" stroke="none" stroke-width="1"/><rect id="eyapwn4gqww945" width="34" height="5" rx="2.500000" ry="2.500000" transform="matrix(1 0 0 1 266 349)" fill="rgb(206,211,221)" stroke="none" stroke-width="1"/><rect id="eyapwn4gqww946" width="41" height="5" rx="2.500000" ry="2.500000" transform="matrix(1 0 0 1 266 385)" fill="rgb(206,211,221)" stroke="none" stroke-width="1"/><rect id="eyapwn4gqww947" width="95" height="5" rx="2.500000" ry="2.500000" transform="matrix(1 0 0 1 266 425)" fill="rgb(206,211,221)" stroke="none" stroke-width="1"/><rect id="eyapwn4gqww948" width="33" height="5" rx="2.500000" ry="2.500000" transform="matrix(1 0 0 1 116 332)" fill="rgb(206,211,221)" stroke="none" stroke-width="1"/><rect id="eyapwn4gqww949" width="40" height="10" rx="5" ry="5" transform="matrix(1 0 0 1 116 319)" fill="rgb(206,211,221)" stroke="none" stroke-width="1"/><rect id="eyapwn4gqww950" width="61" height="10" rx="5" ry="5" transform="matrix(1 0 0 1 116 359)" fill="rgb(206,211,221)" stroke="none" stroke-width="1"/><rect id="eyapwn4gqww951" width="36" height="10" rx="5" ry="5" transform="matrix(1 0 0 1 116 383)" fill="rgb(206,211,221)" stroke="none" stroke-width="1"/><rect id="eyapwn4gqww952" width="250" height="10" rx="5" ry="5" transform="matrix(1 0 0 1 20 265)" fill="rgb(206,211,221)" stroke="none" stroke-width="1"/><g id="eyapwn4gqww953"><path id="eyapwn4gqww954" d="M0,4.000010C0,1.790870,1.790860,0,4,0L378,0C380.209000,0,382,1.790860,382,4L382,259L0,259L0,4.000010Z" fill="rgb(232,236,242)" stroke="none" stroke-width="1"/><g id="eyapwn4gqww955" opacity="0.56"><rect id="eyapwn4gqww956" width="182" height="5" rx="2.500000" ry="2.500000" transform="matrix(1 0 0 1 183 94)" opacity="0.5" fill="rgb(206,211,221)" stroke="none" stroke-width="1"/><rect id="eyapwn4gqww957" width="182" height="5" rx="2.500000" ry="2.500000" transform="matrix(1 0 0 1 183 17)" opacity="0.5" fill="rgb(206,211,221)" stroke="none" stroke-width="1"/><rect id="eyapwn4gqww958" width="182" height="5" rx="2.500000" ry="2.500000" transform="matrix(1 0 0 1 183 130)" opacity="0.5" fill="rgb(206,211,221)" stroke="none" stroke-width="1"/><rect id="eyapwn4gqww959" width="182" height="5" rx="2.500000" ry="2.500000" transform="matrix(1 0 0 1 183 53)" opacity="0.5" fill="rgb(206,211,221)" stroke="none" stroke-width="1"/><rect id="eyapwn4gqww960" width="182" height="5" rx="2.500000" ry="2.500000" transform="matrix(1 0 0 1 183 186)" opacity="0.5" fill="rgb(206,211,221)" stroke="none" stroke-width="1"/><rect id="eyapwn4gqww961" width="182" height="5" rx="2.500000" ry="2.500000" transform="matrix(1 0 0 1 183 112)" opacity="0.5" fill="rgb(206,211,221)" stroke="none" stroke-width="1"/><rect id="eyapwn4gqww962" width="182" height="5" rx="2.500000" ry="2.500000" transform="matrix(1 0 0 1 183 35)" opacity="0.5" fill="rgb(206,211,221)" stroke="none" stroke-width="1"/><rect id="eyapwn4gqww963" width="182" height="5" rx="2.500000" ry="2.500000" transform="matrix(1 0 0 1 183 168)" opacity="0.5" fill="rgb(206,211,221)" stroke="none" stroke-width="1"/><rect id="eyapwn4gqww964" width="182" height="5" rx="2.500000" ry="2.500000" transform="matrix(1 0 0 1 183 204)" opacity="0.5" fill="rgb(206,211,221)" stroke="none" stroke-width="1"/><rect id="eyapwn4gqww965" width="182" height="5" rx="2.500000" ry="2.500000" transform="matrix(1 0 0 1 183 103)" opacity="0.5" fill="rgb(206,211,221)" stroke="none" stroke-width="1"/><rect id="eyapwn4gqww966" width="182" height="5" rx="2.500000" ry="2.500000" transform="matrix(1 0 0 1 183 26)" opacity="0.5" fill="rgb(206,211,221)" stroke="none" stroke-width="1"/><rect id="eyapwn4gqww967" width="157" height="5" rx="2.500000" ry="2.500000" transform="matrix(1 0 0 1 183 139)" opacity="0.5" fill="rgb(206,211,221)" stroke="none" stroke-width="1"/><rect id="eyapwn4gqww968" width="65" height="5" rx="2.500000" ry="2.500000" transform="matrix(1 0 0 1 183 62)" opacity="0.5" fill="rgb(206,211,221)" stroke="none" stroke-width="1"/><rect id="eyapwn4gqww969" width="182" height="5" rx="2.500000" ry="2.500000" transform="matrix(1 0 0 1 183 195)" opacity="0.5" fill="rgb(206,211,221)" stroke="none" stroke-width="1"/><rect id="eyapwn4gqww970" width="182" height="5" rx="2.500000" ry="2.500000" transform="matrix(1 0 0 1 183 121)" opacity="0.5" fill="rgb(206,211,221)" stroke="none" stroke-width="1"/><rect id="eyapwn4gqww971" width="182" height="5" rx="2.500000" ry="2.500000" transform="matrix(1 0 0 1 183 44)" opacity="0.5" fill="rgb(206,211,221)" stroke="none" stroke-width="1"/><rect id="eyapwn4gqww972" width="182" height="5" rx="2.500000" ry="2.500000" transform="matrix(1 0 0 1 183 177)" opacity="0.5" fill="rgb(206,211,221)" stroke="none" stroke-width="1"/><rect id="eyapwn4gqww973" width="97" height="5" rx="2.500000" ry="2.500000" transform="matrix(1 0 0 1 183 213)" opacity="0.5" fill="rgb(206,211,221)" stroke="none" stroke-width="1"/></g><g id="eyapwn4gqww974"><rect id="eyapwn4gqww975" width="151" height="92" rx="12" ry="12" transform="matrix(1 0 0 1 20 17)" opacity="0.2" fill="rgb(206,211,221)" stroke="none" stroke-width="1"/><rect id="eyapwn4gqww976" width="151" height="119" rx="12" ry="12" transform="matrix(1 0 0 1 20 120)" opacity="0.2" fill="rgb(206,211,221)" stroke="none" stroke-width="1"/></g></g><rect id="eyapwn4gqww977" width="29" height="14" rx="7" ry="7" transform="matrix(1 0 0 1 332 265)" fill="rgb(206,211,221)" stroke="none" stroke-width="1"/><rect id="eyapwn4gqww978" width="64" height="10" rx="5" ry="5" transform="matrix(1 0 0 1 116 410)" fill="rgb(206,211,221)" stroke="none" stroke-width="1"/><rect id="eyapwn4gqww979" width="344" height="15" rx="7.500000" ry="7.500000" transform="matrix(1 0 0 1 17 465)" fill="rgb(206,211,221)" stroke="none" stroke-width="1"/><rect id="eyapwn4gqww980" width="344" height="15" rx="7.500000" ry="7.500000" transform="matrix(1 0 0 1 17 485)" fill="rgb(206,211,221)" stroke="none" stroke-width="1"/><rect id="eyapwn4gqww981" width="67" height="10" rx="5" ry="5" transform="matrix(1 0 0 1 116 434)" fill="rgb(206,211,221)" stroke="none" stroke-width="1"/><rect id="eyapwn4gqww982" width="27" height="10" rx="5" ry="5" transform="matrix(1 0 0 1 224 356)" fill="rgb(206,211,221)" stroke="none" stroke-width="1"/><rect id="eyapwn4gqww983" width="27" height="10" rx="5" ry="5" transform="matrix(1 0 0 1 266 356)" fill="rgb(206,211,221)" stroke="none" stroke-width="1"/><rect id="eyapwn4gqww984" width="24" height="10" rx="5" ry="5" transform="matrix(1 0 0 1 266 392)" fill="rgb(206,211,221)" stroke="none" stroke-width="1"/><rect id="eyapwn4gqww985" width="93" height="10" rx="5" ry="5" transform="matrix(1 0 0 1 116 339)" fill="rgb(206,211,221)" stroke="none" stroke-width="1"/></g></g></g><g id="eyapwn4gqww986_to" transform="translate(0,0)"><g id="eyapwn4gqww986_ts" transform="scale(1,1)"><g id="eyapwn4gqww986" transform="translate(0,0)"><rect id="eyapwn4gqww987" width="25.694900" height="29.720300" rx="5" ry="5" transform="matrix(1 0 0 1 134.88999999999999 79.82200000000000)" fill="none" stroke="rgb(156,119,224)" stroke-width="1"/><rect id="eyapwn4gqww988" width="78.237300" height="49" rx="3" ry="3" transform="matrix(1 0 0 1 131.50000000000000 70.50000000000000)" fill="none" stroke="rgb(156,119,224)" stroke-width="1"/></g></g></g><rect id="eyapwn4gqww989" width="127" height="74" rx="0" ry="0" transform="matrix(1 0 0 1 107.50000000000000 58.50000000000000)" fill="rgb(156,119,224)" fill-opacity="0.1" stroke="rgb(156,119,224)" stroke-width="0"/><g id="eyapwn4gqww990_to" transform="translate(0,0)"><g id="eyapwn4gqww990_ts" transform="scale(1,1)"><g id="eyapwn4gqww990" transform="translate(0,0)"><rect id="eyapwn4gqww991" width="53" height="14" rx="7" ry="7" transform="matrix(1 0 0 1 143 143.99999999706407)" fill="rgb(156,119,224)" stroke="none" stroke-width="1"/><rect id="eyapwn4gqww992" width="35" height="4" rx="2" ry="2" transform="matrix(1 0 0 1 152 148.99999999347042)" opacity="0.2" fill="rgb(255,255,255)" stroke="none" stroke-width="1"/></g></g></g><rect id="eyapwn4gqww993" width="74" height="3" rx="1.500000" ry="1.500000" transform="matrix(1 0 0 1 134 34)" fill="rgb(156,119,224)" stroke="none" stroke-width="1"/><rect id="eyapwn4gqww994" width="56" height="2" rx="1" ry="1" transform="matrix(1 0 0 1 143 41)" opacity="0.4" fill="rgb(156,119,224)" stroke="none" stroke-width="1"/><rect id="eyapwn4gqww995" width="42" height="2" rx="1" ry="1" transform="matrix(1 0 0 1 150 45)" opacity="0.4" fill="rgb(156,119,224)" stroke="none" stroke-width="1"/></g></g></g><g id="eyapwn4gqww996_to" transform="translate(158.043751,123.545061)"><g id="eyapwn4gqww996_ts" transform="scale(0.194142,0.194142)"><g id="eyapwn4gqww996" transform="translate(0,0)" opacity="0"><rect id="eyapwn4gqww997" width="115" height="115" rx="60" ry="60" fill="rgb(71,218,174)" stroke="none" stroke-width="1"/><rect id="eyapwn4gqww998" width="6.052630" height="26.170700" rx="3.026320" ry="0" transform="matrix(0.70710700000000 -0.70710700000000 0.70710700000000 0.70710700000000 35.78388788810000 56.92439553350001)" fill="rgb(255,255,255)" stroke="none" stroke-width="1"/><rect id="eyapwn4gqww999" width="6.052630" height="42.056300" rx="3.026320" ry="0" transform="matrix(0.70710700000000 0.70710700000000 -0.70710700000000 0.70710700000000 79.74803679480002 41.41160127720002)" fill="rgb(255,255,255)" stroke="none" stroke-width="1"/></g></g></g><g id="eyapwn4gqww9100_to" style="offset-path:path('M241.367919,198.089065C232.736431,176.545885,206.161123,176.520414,166.766857,171.518244');offset-rotate:0deg"><g id="eyapwn4gqww9100" transform="scale(0.449494,0.449494) translate(0,0)"><path id="eyapwn4gqww9101" d="M9.952560,22.255200C9.434090,21.546900,8.915620,20.307400,7.878680,18.713800C7.360220,17.828500,5.804810,16.057800,5.286340,15.349600C4.940700,14.641300,4.940700,14.287200,5.113520,13.578900C5.286340,12.516500,6.323280,11.631200,7.533040,11.631200C8.397150,11.631200,9.261270,12.339400,9.952560,12.870600C10.298200,13.224800,10.816700,13.933000,11.162300,14.287200C11.508000,14.641300,11.508000,14.818400,11.853600,15.172500C12.199300,15.703700,12.372100,16.057800,12.199300,15.349600C12.026400,14.464200,11.853600,13.047700,11.508000,11.631200C11.335100,10.568800,11.162300,10.391700,10.989500,9.683440C10.816700,8.798110,10.643800,8.266910,10.471000,7.381570C10.298200,6.850370,10.125400,5.433840,9.952560,4.725570C9.779730,3.840240,9.779740,2.246640,10.471000,1.538370C10.989500,1.007170,12.026400,0.830108,12.717700,1.184240C13.581800,1.715440,14.100300,2.954910,14.273100,3.486110C14.618800,4.371440,14.964400,5.610910,15.137200,7.027440C15.482900,8.798110,16.001400,11.454100,16.001400,11.985300C16.001400,11.277000,15.828500,10.037600,16.001400,9.329310C16.174200,8.798110,16.519800,8.089840,17.211100,7.912770C17.729600,7.735710,18.248000,7.735710,18.766500,7.735710C19.285000,7.912770,19.803500,8.266910,20.149100,8.621040C20.840400,9.683440,20.840400,11.985300,20.840400,11.808200C21.013200,11.100000,21.013200,9.683440,21.358900,8.975170C21.531700,8.621040,22.223000,8.266910,22.568600,8.089840C23.087100,7.912770,23.778400,7.912770,24.296800,8.089840C24.642500,8.089840,25.333800,8.621040,25.506600,8.975170C25.852300,9.506370,26.025100,11.277000,26.197900,11.985300C26.197900,12.162400,26.370700,11.277000,26.716400,10.745800C27.407700,9.683440,29.827200,9.329310,30,11.808200C30,13.047700,30,12.870600,30,13.756000C30,14.641300,30,15.172500,30,15.880800C30,16.589000,29.827200,18.182600,29.654400,18.890900C29.481500,19.422100,28.963100,20.661600,28.444600,21.369800C28.444600,21.369800,26.543500,23.494600,26.370700,24.557000C26.197900,25.619400,26.197900,25.619400,26.197900,26.327700C26.197900,27.036000,26.370700,27.921300,26.370700,27.921300C26.370700,27.921300,24.988100,28.098400,24.296800,27.921300C23.605600,27.744200,22.741400,26.504800,22.568600,25.973600C22.223000,25.442400,21.704500,25.442400,21.358900,25.973600C21.013200,26.681800,20.149100,27.921300,19.457800,27.921300C18.248000,28.098400,15.828500,27.921300,14.100300,27.921300C14.100300,27.921300,14.445900,26.150600,13.754700,25.442400C13.236200,24.911200,12.372100,24.025800,11.853600,23.494600L9.952560,22.255200Z" fill="rgb(255,255,255)" stroke="none" stroke-width="1"/><path id="eyapwn4gqww9102" d="M9.952560,22.255200C9.434090,21.546900,8.915620,20.307400,7.878680,18.713800C7.360220,17.828500,5.804810,16.057800,5.286340,15.349600C4.940700,14.641300,4.940700,14.287200,5.113520,13.578900C5.286340,12.516500,6.323280,11.631200,7.533040,11.631200C8.397150,11.631200,9.261270,12.339400,9.952560,12.870600C10.298200,13.224800,10.816700,13.933000,11.162300,14.287200C11.508000,14.641300,11.508000,14.818400,11.853600,15.172500C12.199300,15.703700,12.372100,16.057800,12.199300,15.349600C12.026400,14.464200,11.853600,13.047700,11.508000,11.631200C11.335100,10.568800,11.162300,10.391700,10.989500,9.683440C10.816700,8.798110,10.643800,8.266910,10.471000,7.381570C10.298200,6.850370,10.125400,5.433840,9.952560,4.725570C9.779730,3.840240,9.779740,2.246640,10.471000,1.538370C10.989500,1.007170,12.026400,0.830108,12.717700,1.184240C13.581800,1.715440,14.100300,2.954910,14.273100,3.486110C14.618800,4.371440,14.964400,5.610910,15.137200,7.027440C15.482900,8.798110,16.001400,11.454100,16.001400,11.985300C16.001400,11.277000,15.828500,10.037600,16.001400,9.329310C16.174200,8.798110,16.519800,8.089840,17.211100,7.912770C17.729600,7.735710,18.248000,7.735710,18.766500,7.735710C19.285000,7.912770,19.803500,8.266910,20.149100,8.621040C20.840400,9.683440,20.840400,11.985300,20.840400,11.808200C21.013200,11.100000,21.013200,9.683440,21.358900,8.975170C21.531700,8.621040,22.223000,8.266910,22.568600,8.089840C23.087100,7.912770,23.778400,7.912770,24.296800,8.089840C24.642500,8.089840,25.333800,8.621040,25.506600,8.975170C25.852300,9.506370,26.025100,11.277000,26.197900,11.985300C26.197900,12.162400,26.370700,11.277000,26.716400,10.745800C27.407700,9.683440,29.827200,9.329310,30,11.808200C30,13.047700,30,12.870600,30,13.756000C30,14.641300,30,15.172500,30,15.880800C30,16.589000,29.827200,18.182600,29.654400,18.890900C29.481500,19.422100,28.963100,20.661600,28.444600,21.369800C28.444600,21.369800,26.543500,23.494600,26.370700,24.557000C26.197900,25.619400,26.197900,25.619400,26.197900,26.327700C26.197900,27.036000,26.370700,27.921300,26.370700,27.921300C26.370700,27.921300,24.988100,28.098400,24.296800,27.921300C23.605600,27.744200,22.741400,26.504800,22.568600,25.973600C22.223000,25.442400,21.704500,25.442400,21.358900,25.973600C21.013200,26.681800,20.149100,27.921300,19.457800,27.921300C18.248000,28.098400,15.828500,27.921300,14.100300,27.921300C14.100300,27.921300,14.445900,26.150600,13.754700,25.442400C13.236200,24.911200,12.372100,24.025800,11.853600,23.494600L9.952560,22.255200Z" fill="none" stroke="rgb(0,0,0)" stroke-width="0.750000" stroke-linecap="round" stroke-linejoin="round"/><path id="eyapwn4gqww9103" d="M24.010500,22.956300L24.010500,16.936000" fill="none" stroke="rgb(0,0,0)" stroke-width="0.750000" stroke-linecap="round"/><path id="eyapwn4gqww9104" d="M20.726900,22.956300L20.554100,16.936000" fill="none" stroke="rgb(0,0,0)" stroke-width="0.750000" stroke-linecap="round"/><path id="eyapwn4gqww9105" d="M17.097500,16.936000L17.097500,22.956300" fill="none" stroke="rgb(0,0,0)" stroke-width="0.750000" stroke-linecap="round"/></g></g></g></svg>