<svg id="easmy871danq1" xmlns="http://www.w3.org/2000/svg" xmlns:xlink="http://www.w3.org/1999/xlink" viewBox="0 0 342 196" shape-rendering="geometricPrecision" text-rendering="geometricPrecision"><style><![CDATA[#easmy871danq4 {animation: easmy871danq4_c_o 6000ms linear infinite normal forwards}@keyframes easmy871danq4_c_o { 0% {opacity: 0} 3.333333% {opacity: 1} 96.666667% {opacity: 1} 100% {opacity: 0} }#easmy871danq5_to {animation: easmy871danq5_to__to 6000ms linear infinite normal forwards}@keyframes easmy871danq5_to__to { 0% {transform: translate(40.344587px,22.635773px)} 6.666667% {transform: translate(40.344587px,22.635773px)} 16.666667% {transform: translate(40.344587px,22.635773px);animation-timing-function: cubic-bezier(0.420000,0,0.580000,1)} 21.666667% {transform: translate(-119.579356px,-86.189747px)} 100% {transform: translate(-119.579356px,-86.189747px)} }#easmy871danq5_ts {animation: easmy871danq5_ts__ts 6000ms linear infinite normal forwards}@keyframes easmy871danq5_ts__ts { 0% {transform: scale(0.765746,0.765746)} 6.666667% {transform: scale(0.765746,0.765746)} 16.666667% {transform: scale(0.765746,0.765746);animation-timing-function: cubic-bezier(0.420000,0,0.580000,1)} 21.666667% {transform: scale(1.703030,1.703030)} 100% {transform: scale(1.703030,1.703030)} }#easmy871danq11 {animation: easmy871danq11_f_o 6000ms linear infinite normal forwards}@keyframes easmy871danq11_f_o { 0% {fill-opacity: 0.100000} 6.666667% {fill-opacity: 0.100000} 16.666667% {fill-opacity: 0.100000} 21.666667% {fill-opacity: 0} 100% {fill-opacity: 0} }#easmy871danq15_to {animation: easmy871danq15_to__to 6000ms linear infinite normal forwards}@keyframes easmy871danq15_to__to { 0% {transform: translate(59.671047px,28.750291px)} 38.333333% {transform: translate(59.671047px,28.750291px);animation-timing-function: cubic-bezier(0.420000,0,0.580000,1)} 45% {transform: translate(29.707966px,26.307202px);animation-timing-function: cubic-bezier(0.420000,0,0.580000,1)} 53.333333% {transform: translate(9.778485px,-3.446859px);animation-timing-function: cubic-bezier(0.420000,0,0.580000,1)} 61.666667% {transform: translate(33.501553px,24.226195px)} 100% {transform: translate(33.501553px,24.226195px)} }#easmy871danq15_ts {animation: easmy871danq15_ts__ts 6000ms linear infinite normal forwards}@keyframes easmy871danq15_ts__ts { 0% {transform: scale(0.654205,0.654205)} 38.333333% {transform: scale(0.654205,0.654205);animation-timing-function: cubic-bezier(0.420000,0,0.580000,1)} 45% {transform: scale(0.755233,0.755233);animation-timing-function: cubic-bezier(0.420000,0,0.580000,1)} 53.333333% {transform: scale(1.005454,1.007694);animation-timing-function: cubic-bezier(0.420000,0,0.580000,1)} 61.666667% {transform: scale(0.803833,0.805623)} 100% {transform: scale(0.803833,0.805623)} }#easmy871danq15 {animation: easmy871danq15_c_o 6000ms linear infinite normal forwards}@keyframes easmy871danq15_c_o { 0% {opacity: 0} 30% {opacity: 0} 36.666667% {opacity: 1} 100% {opacity: 1} }#easmy871danq41_to {animation: easmy871danq41_to__to 6000ms linear infinite normal forwards}@keyframes easmy871danq41_to__to { 0% {transform: translate(-97.133555px,-51.932290px)} 6.666667% {transform: translate(-97.133555px,-51.932290px)} 16.666667% {transform: translate(-97.133555px,-51.932290px)} 21.666667% {transform: translate(-372.129395px,-252.905549px)} 68% {transform: translate(-372.129395px,-252.905549px)} 72% {transform: translate(-336.247337px,-223.595002px)} 73.666667% {transform: translate(-372.129395px,-252.905549px)} 100% {transform: translate(-372.129395px,-252.905549px)} }#easmy871danq41_ts {animation: easmy871danq41_ts__ts 6000ms linear infinite normal forwards}@keyframes easmy871danq41_ts__ts { 0% {transform: scale(1.579626,1.415243)} 6.666667% {transform: scale(1.579626,1.415243)} 16.666667% {transform: scale(1.579626,1.415243)} 21.666667% {transform: scale(3.201925,3.090124)} 68% {transform: scale(3.201925,3.090124)} 72% {transform: scale(2.992434,2.887949)} 73.666667% {transform: scale(3.201925,3.090124)} 100% {transform: scale(3.201925,3.090124)} }#easmy871danq44_to {animation: easmy871danq44_to__to 6000ms linear infinite normal forwards}@keyframes easmy871danq44_to__to { 0% {transform: translate(0px,0px)} 6.666667% {transform: translate(0px,0px)} 16.666667% {transform: translate(0px,0px)} 21.666667% {transform: translate(-183.594227px,-119.712508px)} 100% {transform: translate(-183.594227px,-119.712508px)} }#easmy871danq44_ts {animation: easmy871danq44_ts__ts 6000ms linear infinite normal forwards}@keyframes easmy871danq44_ts__ts { 0% {transform: scale(1,1)} 6.666667% {transform: scale(1,1)} 16.666667% {transform: scale(1,1)} 21.666667% {transform: scale(2.073650,2.073650)} 100% {transform: scale(2.073650,2.073650)} }#easmy871danq44 {animation: easmy871danq44_c_o 6000ms linear infinite normal forwards}@keyframes easmy871danq44_c_o { 0% {opacity: 1} 73.333333% {opacity: 1} 77% {opacity: 0} 100% {opacity: 0} }#easmy871danq46_to {animation: easmy871danq46_to__to 6000ms linear infinite normal forwards}@keyframes easmy871danq46_to__to { 0% {transform: translate(158.043751px,123.545061px)} 70.333333% {transform: translate(158.043751px,123.545061px);animation-timing-function: cubic-bezier(0.420000,0,0.580000,1)} 73.166667% {transform: translate(144.073956px,109.618884px);animation-timing-function: cubic-bezier(0.420000,0,0.580000,1)} 75% {transform: translate(148.412600px,114.730799px)} 100% {transform: translate(148.412600px,114.730799px)} }#easmy871danq46_ts {animation: easmy871danq46_ts__ts 6000ms linear infinite normal forwards}@keyframes easmy871danq46_ts__ts { 0% {transform: scale(0.194142,0.194142)} 70.333333% {transform: scale(0.194142,0.194142);animation-timing-function: cubic-bezier(0.420000,0,0.580000,1)} 73.166667% {transform: scale(0.448409,0.448409);animation-timing-function: cubic-bezier(0.420000,0,0.580000,1)} 75% {transform: scale(0.359506,0.359506)} 100% {transform: scale(0.359506,0.359506)} }#easmy871danq46 {animation: easmy871danq46_c_o 6000ms linear infinite normal forwards}@keyframes easmy871danq46_c_o { 0% {opacity: 0} 70.333333% {opacity: 0;animation-timing-function: cubic-bezier(0.420000,0,0.580000,1)} 73.166667% {opacity: 1;animation-timing-function: cubic-bezier(0.420000,0,0.580000,1)} 75% {opacity: 1} 100% {opacity: 1} }#easmy871danq50_to {animation: easmy871danq50_to__to 6000ms linear infinite normal forwards}@keyframes easmy871danq50_to__to { 0% {offset-distance: 0%} 53.666667% {offset-distance: 0%;animation-timing-function: cubic-bezier(0.470000,0,0.745000,0.715000)} 59.833333% {offset-distance: 100%} 100% {offset-distance: 100%} }]]></style><defs><clipPath id="easmy871danq2"><rect id="easmy871danq3" width="124.500000" height="192" rx="0" ry="0" fill="rgb(255,255,255)" stroke="none" stroke-width="1"/></clipPath></defs><g id="easmy871danq4" opacity="0"><g id="easmy871danq5_to" transform="translate(40.344587,22.635773)"><g id="easmy871danq5_ts" transform="scale(0.765746,0.765746)"><g id="easmy871danq5" transform="translate(0,0)"><path id="easmy871danq6" d="M26.312500,8C26.312500,3.857870,29.670400,0.500000,33.812500,0.500000L307.437000,0.500000C311.580000,0.500000,314.937000,3.857860,314.937000,8L314.937000,187.187000L26.312500,187.187000L26.312500,8Z" transform="matrix(1 0 0 1 0.00019933722478 0.09584607766604)" fill="rgb(255,255,255)" stroke="rgb(206,211,221)" stroke-width="1"/><rect id="easmy871danq7" width="279" height="174" rx="0" ry="0" transform="matrix(1 0 0 1 31.12500000000000 8.81258000000000)" fill="none" stroke="rgb(206,211,221)" stroke-width="1"/><path id="easmy871danq8" d="M0.514903,187.750000C0.773367,192.074000,4.361540,195.500000,8.750000,195.500000L332.500000,195.500000C336.888000,195.500000,340.477000,192.074000,340.735000,187.750000L0.514903,187.750000Z" transform="matrix(1 0 0 1 -0.00000216782000 -1.30591565396435)" fill="rgb(255,255,255)" stroke="rgb(206,211,221)" stroke-width="1"/><path id="easmy871danq9" d="M130.907000,187.750000C131.152000,189.654000,132.779000,191.125000,134.750000,191.125000L206.500000,191.125000C208.471000,191.125000,210.098000,189.654000,210.343000,187.750000L130.907000,187.750000Z" transform="matrix(1 0 0 1 -0.00005066952733 -1.30591565396435)" fill="none" stroke="rgb(206,211,221)" stroke-width="1"/><circle id="easmy871danq10" r="1.687500" transform="matrix(1 0 0 1 170.62494933247552 4.94606500000000)" fill="none" stroke="rgb(206,211,221)" stroke-width="1"/><rect id="easmy871danq11" width="127" height="74" rx="0" ry="0" transform="matrix(1 0 0 1 107.12494933633458 58.50000000000000)" fill="rgb(206,211,221)" fill-opacity="0.1" stroke="rgb(156,119,224)" stroke-width="0"/><rect id="easmy871danq12" width="74" height="3" rx="1.500000" ry="1.500000" transform="matrix(1 0 0 1 133.62494932980499 34)" fill="rgb(206,211,221)" stroke="none" stroke-width="1"/><rect id="easmy871danq13" width="56" height="2" rx="1" ry="1" transform="matrix(1 0 0 1 143 41)" opacity="0.4" fill="rgb(206,211,221)" stroke="none" stroke-width="1"/><rect id="easmy871danq14" width="42" height="2" rx="1" ry="1" transform="matrix(1 0 0 1 150 45)" opacity="0.4" fill="rgb(206,211,221)" stroke="none" stroke-width="1"/></g></g></g><g id="easmy871danq15_to" transform="translate(59.671047,28.750291)"><g id="easmy871danq15_ts" transform="scale(0.654205,0.654205)"><g id="easmy871danq15" transform="translate(0,0)" opacity="0"><g id="easmy871danq16" transform="matrix(0.75258085655957 0 0 0.75258085655957 124.66990667461631 9.93284125280593)" clip-path="url(#easmy871danq2)"><path id="easmy871danq17" d="M124.500000,169.800000L124.500000,159.200000C124.500000,147.600000,115,138.100000,103.400000,138.100000L21.100000,138.100000C9.500000,138.100000,0,147.600000,0,159.200000L0,169.800000C17,183.600000,38.600000,192,62.300000,192C85.900000,192,107.500000,183.600000,124.500000,169.800000Z" clip-rule="evenodd" fill="rgb(231,227,231)" fill-rule="evenodd" stroke="none" stroke-width="1"/><path id="easmy871danq18" d="M54.299800,191.600000C56.899800,191.800000,59.599800,191.900000,62.299800,191.900000C64.999800,191.900000,67.599800,191.800000,70.199800,191.600000L66.699800,168.400000L62.299800,166.800000L57.899800,168.400000L54.299800,191.600000Z" clip-rule="evenodd" fill="rgb(156,119,224)" fill-rule="evenodd" stroke="none" stroke-width="1"/><path id="easmy871danq19" d="M70.399900,158.400000L66.599900,168.500000L62.199900,168.500000L57.799900,168.500000L53.899900,158.400000L55.899900,156.700000L62.199900,155.200000L68.499900,156.700000L70.399900,158.400000Z" clip-rule="evenodd" fill="rgb(48,41,94)" fill-rule="evenodd" stroke="none" stroke-width="1"/><path id="easmy871danq20" d="M124.500000,169.800000L124.500000,159.200000C124.500000,147.600000,115,138.100000,103.400000,138.100000L71.900000,138.100000L70.200000,139.100000L76.100000,157.300000L72.300000,191.400000C92,189.500000,110,181.700000,124.500000,169.800000ZM0,169.800000L0,159.200000C0,147.600000,9.500000,138.100000,21.100000,138.100000L52.600000,138.100000L54.300000,139.100000L48.400000,157.300000L52.200000,191.400000C32.500000,189.500000,14.500000,181.700000,0,169.800000Z" transform="matrix(1 0 0 1 0.87732857896962 0)" clip-rule="evenodd" fill="rgb(76,59,130)" fill-rule="evenodd" stroke="none" stroke-width="1"/><path id="easmy871danq21" d="M74.299800,151.900000L76.099800,157.400000L72.299800,191.500000C76.299800,191.100000,80.299800,190.400000,84.099800,189.600000L91.799800,174.700000L82.399800,145C79.499800,145.700000,76.799800,148.300000,74.299800,151.900000Z" clip-rule="evenodd" fill="rgb(48,41,94)" fill-rule="evenodd" stroke="none" stroke-width="1"/><path id="easmy871danq22" d="M62.299800,88.500000C71.699800,88.500000,79.299800,96.200000,79.299800,105.500000L79.299800,138.100000C79.299800,147.500000,71.599800,155.100000,62.299800,155.100000C52.899800,155.100000,45.299800,147.400000,45.299800,138.100000L45.299800,105.500000C45.199800,96.100000,52.899800,88.500000,62.299800,88.500000Z" clip-rule="evenodd" fill="rgb(233,186,168)" fill-rule="evenodd" stroke="none" stroke-width="1"/><path id="easmy871danq23" d="M62.300200,88.500000C71.700200,88.500000,79.300200,96.200000,79.300200,105.500000L79.300200,133.500000C74.800200,135.600000,69.800200,136.800000,64.600200,136.800000C57.500200,136.800000,50.800200,134.600000,45.200200,130.800000L45.200200,105.500000C45.200200,96.100000,52.900200,88.500000,62.300200,88.500000Z" clip-rule="evenodd" fill="rgb(225,170,149)" fill-rule="evenodd" stroke="none" stroke-width="1"/><path id="easmy871danq24" d="M17.199900,83.400000C16.999900,89.400000,21.799900,94.400000,27.799900,94.500000C27.999900,94.500000,28.099900,94.500000,28.299900,94.500000C27.199900,90.600000,26.599900,86.700000,26.599900,83L26.599900,79.700000C26.599900,73,17.499900,73.400000,17.199900,83.400000Z" clip-rule="evenodd" fill="rgb(225,170,149)" fill-rule="evenodd" stroke="none" stroke-width="1"/><path id="easmy871danq25" d="M107.300000,83.400000C107.500000,89.400000,102.700000,94.400000,96.699700,94.500000C96.499700,94.500000,96.399700,94.500000,96.199700,94.500000C97.299700,90.600000,97.899700,86.700000,97.899700,83L97.899700,79.700000C97.899700,73,107,73.400000,107.300000,83.400000Z" clip-rule="evenodd" fill="rgb(225,170,149)" fill-rule="evenodd" stroke="none" stroke-width="1"/><path id="easmy871danq26" d="M62.300100,20.500000C42.700100,20.500000,26.600100,37.100000,26.600100,57.400000L26.600100,90.900000C26.600100,111.200000,42.700100,127.800000,62.300100,127.800000C81.900100,127.800000,98.000100,111.200000,98.000100,90.900000L98.000100,57.400000C97.900100,37.100000,81.900100,20.500000,62.300100,20.500000Z" clip-rule="evenodd" fill="rgb(233,186,168)" fill-rule="evenodd" stroke="none" stroke-width="1"/><path id="easmy871danq27" d="M64.100200,88.200000C64.800200,90.200000,66.000200,93.700000,65.900200,94.300000C65.800200,95.100000,61.600200,95.300000,60.600200,94.100000C59.900200,93.300000,60.800200,90.400000,61.600200,88.400000C62.600200,85.700000,63.200200,85.600000,64.100200,88.200000Z" clip-rule="evenodd" fill="rgb(241,211,200)" fill-rule="evenodd" stroke="none" stroke-width="1"/><path id="easmy871danq28" d="M49.899900,66C50.699900,66.400000,50.999900,67.300000,50.699900,68.100000C50.299900,68.900000,49.399900,69.200000,48.599900,68.900000C48.599900,68.900000,43.899900,66.700000,39.399900,69.500000C38.699900,70,37.699900,69.700000,37.199900,69C36.699900,68.300000,36.999900,67.300000,37.699900,66.800000C43.699900,63.100000,49.899900,66,49.899900,66Z" clip-rule="evenodd" fill="rgb(48,41,94)" fill-rule="evenodd" stroke="none" stroke-width="1"/><path id="easmy871danq29" d="M86.599900,66.700000C87.399900,67.100000,87.599900,68.100000,87.199900,68.800000C86.799900,69.600000,85.799900,69.800000,85.099900,69.400000C85.099900,69.400000,80.599900,66.800000,75.899900,69.200000C75.099900,69.600000,74.199900,69.300000,73.799900,68.500000C73.399900,67.700000,73.699900,66.800000,74.499900,66.400000C80.699900,63.300000,86.599900,66.700000,86.599900,66.700000Z" clip-rule="evenodd" fill="rgb(48,41,94)" fill-rule="evenodd" stroke="none" stroke-width="1"/><path id="easmy871danq30" d="M102.700000,75.300000C102.700000,75.300000,97.900100,75.400000,97.900100,79.700000C97.900100,79.700000,94.500100,75.300000,95.200100,69.700000C95.200100,69.700000,86.100100,59,86.500100,47.100000C86.900100,35.200000,96.200100,32.600000,96.200100,32.600000C118.500000,39.200000,102.700000,55,102.700000,75.300000Z" clip-rule="evenodd" fill="rgb(48,41,94)" fill-rule="evenodd" stroke="none" stroke-width="1"/><path id="easmy871danq31" d="M21.799800,75.300000C21.799800,75.300000,26.599800,75.400000,26.599800,79.700000C26.599800,79.700000,29.999800,75.300000,29.299800,69.700000C29.299800,69.700000,38.399800,59,37.999800,47.100000C37.599800,35.200000,28.299800,32.600000,28.299800,32.600000C5.999810,39.200000,21.799800,55,21.799800,75.300000Z" clip-rule="evenodd" fill="rgb(48,41,94)" fill-rule="evenodd" stroke="none" stroke-width="1"/><path id="easmy871danq32" d="M74.700000,11.500000C77.600000,10,81,9.100000,84.500000,9.100000C96.100000,9.100000,105.600000,18.500000,105.600000,30.200000C105.600000,41.800000,96.200000,51.300000,84.500000,51.300000C78.900000,51.300000,73.800000,49.100000,70,45.600000C67.900000,49.700000,63.600000,52.500000,58.700000,52.500000C55,52.500000,51.700000,50.900000,49.400000,48.400000C47.100000,51.600000,43.300000,53.600000,39.100000,53.600000C34.200000,53.600000,29.900000,50.800000,27.700000,46.700000C19.600000,44.800000,13.500000,37.600000,13.500000,28.900000C13.500000,18.800000,21.700000,10.600000,31.800000,10.600000C33.800000,10.600000,35.700000,10.900000,37.500000,11.500000C40.900000,4.700000,47.900000,0,56,0C64.200000,0,71.200000,4.700000,74.700000,11.500000Z" clip-rule="evenodd" fill="rgb(48,41,94)" fill-rule="evenodd" stroke="none" stroke-width="1"/><path id="easmy871danq33" d="M62.299800,155.200000L74.299800,166.700000C74.299800,166.700000,78.799800,169.300000,80.499800,165.500000C82.299800,161.700000,87.599800,138.100000,87.599800,138.100000L79.199800,135C79.299800,135,78.799800,149.600000,62.299800,155.200000Z" clip-rule="evenodd" fill="rgb(255,255,255)" fill-rule="evenodd" stroke="none" stroke-width="1"/><path id="easmy871danq34" d="M109.600000,143.800000C109.800000,143.600000,110.100000,143.600000,110.300000,143.800000C110.500000,144,110.500000,144.300000,110.300000,144.500000C110.300000,144.500000,106,149,106,159.700000L106,181.800000C105.700000,182,105.400000,182.100000,105,182.300000L105,159.700000C105,148.500000,109.600000,143.800000,109.600000,143.800000Z" clip-rule="evenodd" fill="rgb(28,19,65)" fill-rule="evenodd" stroke="none" stroke-width="1"/><path id="easmy871danq35" d="M50.200200,151.900000L48.400200,157.400000L52.200200,191.500000C48.200200,191.100000,44.200200,190.400000,40.400200,189.600000L32.700200,174.700000L42.100200,145C45.000200,145.700000,47.700200,148.300000,50.200200,151.900000Z" clip-rule="evenodd" fill="rgb(48,41,94)" fill-rule="evenodd" stroke="none" stroke-width="1"/><path id="easmy871danq36" d="M62.300000,155.200000L50.300000,166.700000C50.300000,166.700000,45.800000,169.300000,44.100000,165.500000C42.300000,161.700000,37,138.100000,37,138.100000L45.400000,135C45.200000,135,45.700000,149.600000,62.300000,155.200000Z" clip-rule="evenodd" fill="rgb(255,255,255)" fill-rule="evenodd" stroke="none" stroke-width="1"/><path id="easmy871danq37" d="M14.899800,143.800000C14.699800,143.600000,14.399800,143.600000,14.199800,143.800000C13.999800,144,13.999800,144.300000,14.199800,144.500000C14.199800,144.500000,18.499800,149,18.499800,159.700000L18.499800,181.800000C18.799800,182,19.099800,182.100000,19.499800,182.300000L19.499800,159.700000C19.499800,148.500000,14.899800,143.800000,14.899800,143.800000Z" clip-rule="evenodd" fill="rgb(28,19,65)" fill-rule="evenodd" stroke="none" stroke-width="1"/><path id="easmy871danq38" d="M44.400000,86.500000C46.800000,86.500000,48.800000,84.500000,48.800000,82.100000C48.800000,79.700000,46.800000,77.700000,44.400000,77.700000C42,77.700000,40,79.700000,40,82.100000C40,84.500000,42,86.500000,44.400000,86.500000Z" clip-rule="evenodd" fill="rgb(48,41,94)" fill-rule="evenodd" stroke="none" stroke-width="1"/><path id="easmy871danq39" d="M80.100200,86.500000C82.500200,86.500000,84.500200,84.500000,84.500200,82.100000C84.500200,79.700000,82.500200,77.700000,80.100200,77.700000C77.700200,77.700000,75.700200,79.700000,75.700200,82.100000C75.700200,84.500000,77.600200,86.500000,80.100200,86.500000Z" clip-rule="evenodd" fill="rgb(48,41,94)" fill-rule="evenodd" stroke="none" stroke-width="1"/><path id="easmy871danq40" d="M70.100000,102.100000C70.100000,106.400000,66.600000,109.900000,62.300000,109.900000C58,109.900000,54.500000,106.400000,54.500000,102.100000C54.500000,101.300000,55.100000,100.700000,55.900000,100.700000L68.600000,100.700000C69.400000,100.700000,70.100000,101.400000,70.100000,102.100000Z" clip-rule="evenodd" fill="rgb(255,255,255)" fill-rule="evenodd" stroke="none" stroke-width="1"/></g></g></g></g><g id="easmy871danq41_to" transform="translate(-97.133555,-51.932290)"><g id="easmy871danq41_ts" transform="scale(1.579626,1.415243)"><g id="easmy871danq41" transform="translate(0,0)"><rect id="easmy871danq42" width="53" height="14" rx="7" ry="7" transform="matrix(0.48433055803826 0 0 0.48433055803826 156.91024225672362 131.79982567817436)" fill="rgb(206,211,221)" stroke="none" stroke-width="1"/><rect id="easmy871danq43" width="35" height="4" rx="2" ry="2" transform="matrix(0.48433055803826 0 0 0.48433055803826 161.26921728223329 134.22147846477202)" opacity="0.2" fill="rgb(255,255,255)" stroke="none" stroke-width="1"/></g></g></g><g id="easmy871danq44_to" transform="translate(0,0)"><g id="easmy871danq44_ts" transform="scale(1,1)"><g id="easmy871danq44" transform="translate(0,0)"><rect id="easmy871danq45" width="27.693304" height="35.756693" rx="100" ry="100" transform="matrix(1.35979184019950 0 0 1.35979184019950 152.17143570974960 71.69306673516148)" fill="none" stroke="rgb(156,119,224)" stroke-width="1"/></g></g></g><g id="easmy871danq46_to" transform="translate(158.043751,123.545061)"><g id="easmy871danq46_ts" transform="scale(0.194142,0.194142)"><g id="easmy871danq46" transform="translate(0,0)" opacity="0"><rect id="easmy871danq47" width="115" height="115" rx="60" ry="60" transform="matrix(1 0 0 1 79.12395654535486 -28.70333357292880)" fill="rgb(71,218,174)" stroke="none" stroke-width="1"/><rect id="easmy871danq48" width="6.052630" height="26.170700" rx="3.026320" ry="0" transform="matrix(0.70710700000000 -0.70710700000000 0.70710700000000 0.70710700000000 114.90784443345478 28.22106196057120)" fill="rgb(255,255,255)" stroke="none" stroke-width="1"/><rect id="easmy871danq49" width="6.052630" height="42.056300" rx="3.026320" ry="0" transform="matrix(0.70710700000000 0.70710700000000 -0.70710700000000 0.70710700000000 158.87199334015486 12.70826770427121)" fill="rgb(255,255,255)" stroke="none" stroke-width="1"/></g></g></g><g id="easmy871danq50_to" style="offset-path:path('M241.367919,198.089065C232.736431,176.545885,206.161123,176.520414,166.766857,171.518244');offset-rotate:0deg"><g id="easmy871danq50" display="none" transform="scale(0.449494,0.449494) translate(0,0)"><path id="easmy871danq51" d="M9.952560,22.255200C9.434090,21.546900,8.915620,20.307400,7.878680,18.713800C7.360220,17.828500,5.804810,16.057800,5.286340,15.349600C4.940700,14.641300,4.940700,14.287200,5.113520,13.578900C5.286340,12.516500,6.323280,11.631200,7.533040,11.631200C8.397150,11.631200,9.261270,12.339400,9.952560,12.870600C10.298200,13.224800,10.816700,13.933000,11.162300,14.287200C11.508000,14.641300,11.508000,14.818400,11.853600,15.172500C12.199300,15.703700,12.372100,16.057800,12.199300,15.349600C12.026400,14.464200,11.853600,13.047700,11.508000,11.631200C11.335100,10.568800,11.162300,10.391700,10.989500,9.683440C10.816700,8.798110,10.643800,8.266910,10.471000,7.381570C10.298200,6.850370,10.125400,5.433840,9.952560,4.725570C9.779730,3.840240,9.779740,2.246640,10.471000,1.538370C10.989500,1.007170,12.026400,0.830108,12.717700,1.184240C13.581800,1.715440,14.100300,2.954910,14.273100,3.486110C14.618800,4.371440,14.964400,5.610910,15.137200,7.027440C15.482900,8.798110,16.001400,11.454100,16.001400,11.985300C16.001400,11.277000,15.828500,10.037600,16.001400,9.329310C16.174200,8.798110,16.519800,8.089840,17.211100,7.912770C17.729600,7.735710,18.248000,7.735710,18.766500,7.735710C19.285000,7.912770,19.803500,8.266910,20.149100,8.621040C20.840400,9.683440,20.840400,11.985300,20.840400,11.808200C21.013200,11.100000,21.013200,9.683440,21.358900,8.975170C21.531700,8.621040,22.223000,8.266910,22.568600,8.089840C23.087100,7.912770,23.778400,7.912770,24.296800,8.089840C24.642500,8.089840,25.333800,8.621040,25.506600,8.975170C25.852300,9.506370,26.025100,11.277000,26.197900,11.985300C26.197900,12.162400,26.370700,11.277000,26.716400,10.745800C27.407700,9.683440,29.827200,9.329310,30,11.808200C30,13.047700,30,12.870600,30,13.756000C30,14.641300,30,15.172500,30,15.880800C30,16.589000,29.827200,18.182600,29.654400,18.890900C29.481500,19.422100,28.963100,20.661600,28.444600,21.369800C28.444600,21.369800,26.543500,23.494600,26.370700,24.557000C26.197900,25.619400,26.197900,25.619400,26.197900,26.327700C26.197900,27.036000,26.370700,27.921300,26.370700,27.921300C26.370700,27.921300,24.988100,28.098400,24.296800,27.921300C23.605600,27.744200,22.741400,26.504800,22.568600,25.973600C22.223000,25.442400,21.704500,25.442400,21.358900,25.973600C21.013200,26.681800,20.149100,27.921300,19.457800,27.921300C18.248000,28.098400,15.828500,27.921300,14.100300,27.921300C14.100300,27.921300,14.445900,26.150600,13.754700,25.442400C13.236200,24.911200,12.372100,24.025800,11.853600,23.494600L9.952560,22.255200Z" fill="rgb(255,255,255)" stroke="none" stroke-width="1"/><path id="easmy871danq52" d="M9.952560,22.255200C9.434090,21.546900,8.915620,20.307400,7.878680,18.713800C7.360220,17.828500,5.804810,16.057800,5.286340,15.349600C4.940700,14.641300,4.940700,14.287200,5.113520,13.578900C5.286340,12.516500,6.323280,11.631200,7.533040,11.631200C8.397150,11.631200,9.261270,12.339400,9.952560,12.870600C10.298200,13.224800,10.816700,13.933000,11.162300,14.287200C11.508000,14.641300,11.508000,14.818400,11.853600,15.172500C12.199300,15.703700,12.372100,16.057800,12.199300,15.349600C12.026400,14.464200,11.853600,13.047700,11.508000,11.631200C11.335100,10.568800,11.162300,10.391700,10.989500,9.683440C10.816700,8.798110,10.643800,8.266910,10.471000,7.381570C10.298200,6.850370,10.125400,5.433840,9.952560,4.725570C9.779730,3.840240,9.779740,2.246640,10.471000,1.538370C10.989500,1.007170,12.026400,0.830108,12.717700,1.184240C13.581800,1.715440,14.100300,2.954910,14.273100,3.486110C14.618800,4.371440,14.964400,5.610910,15.137200,7.027440C15.482900,8.798110,16.001400,11.454100,16.001400,11.985300C16.001400,11.277000,15.828500,10.037600,16.001400,9.329310C16.174200,8.798110,16.519800,8.089840,17.211100,7.912770C17.729600,7.735710,18.248000,7.735710,18.766500,7.735710C19.285000,7.912770,19.803500,8.266910,20.149100,8.621040C20.840400,9.683440,20.840400,11.985300,20.840400,11.808200C21.013200,11.100000,21.013200,9.683440,21.358900,8.975170C21.531700,8.621040,22.223000,8.266910,22.568600,8.089840C23.087100,7.912770,23.778400,7.912770,24.296800,8.089840C24.642500,8.089840,25.333800,8.621040,25.506600,8.975170C25.852300,9.506370,26.025100,11.277000,26.197900,11.985300C26.197900,12.162400,26.370700,11.277000,26.716400,10.745800C27.407700,9.683440,29.827200,9.329310,30,11.808200C30,13.047700,30,12.870600,30,13.756000C30,14.641300,30,15.172500,30,15.880800C30,16.589000,29.827200,18.182600,29.654400,18.890900C29.481500,19.422100,28.963100,20.661600,28.444600,21.369800C28.444600,21.369800,26.543500,23.494600,26.370700,24.557000C26.197900,25.619400,26.197900,25.619400,26.197900,26.327700C26.197900,27.036000,26.370700,27.921300,26.370700,27.921300C26.370700,27.921300,24.988100,28.098400,24.296800,27.921300C23.605600,27.744200,22.741400,26.504800,22.568600,25.973600C22.223000,25.442400,21.704500,25.442400,21.358900,25.973600C21.013200,26.681800,20.149100,27.921300,19.457800,27.921300C18.248000,28.098400,15.828500,27.921300,14.100300,27.921300C14.100300,27.921300,14.445900,26.150600,13.754700,25.442400C13.236200,24.911200,12.372100,24.025800,11.853600,23.494600L9.952560,22.255200Z" fill="none" stroke="rgb(0,0,0)" stroke-width="0.750000" stroke-linecap="round" stroke-linejoin="round"/><path id="easmy871danq53" d="M24.010500,22.956300L24.010500,16.936000" fill="none" stroke="rgb(0,0,0)" stroke-width="0.750000" stroke-linecap="round"/><path id="easmy871danq54" d="M20.726900,22.956300L20.554100,16.936000" fill="none" stroke="rgb(0,0,0)" stroke-width="0.750000" stroke-linecap="round"/><path id="easmy871danq55" d="M17.097500,16.936000L17.097500,22.956300" fill="none" stroke="rgb(0,0,0)" stroke-width="0.750000" stroke-linecap="round"/></g></g></g></svg>