<svg width="320" height="500" viewBox="0 0 320 500" fill="none" xmlns="http://www.w3.org/2000/svg">
<path opacity="0.5" fill-rule="evenodd" clip-rule="evenodd" d="M320 0H0V500H320V0ZM164 394C230.826 394 285 319.232 285 227C285 134.768 230.826 60 164 60C97.1735 60 43 134.768 43 227C43 319.232 97.1735 394 164 394Z" fill="#1B3361"/>
<path d="M283.5 227C283.5 272.834 270.037 314.268 248.345 344.207C226.652 374.147 196.813 392.5 164 392.5C131.187 392.5 101.348 374.147 79.6548 344.207C57.9629 314.268 44.5 272.834 44.5 227C44.5 181.166 57.9629 139.732 79.6548 109.793C101.348 79.8532 131.187 61.5 164 61.5C196.813 61.5 226.652 79.8532 248.345 109.793C270.037 139.732 283.5 181.166 283.5 227Z" stroke="#9C77E0" stroke-width="3"/>
</svg>
