<svg width="320" height="500" viewBox="0 0 320 500" fill="none" xmlns="http://www.w3.org/2000/svg">
<path opacity="0.5" fill-rule="evenodd" clip-rule="evenodd" d="M320 0H0V500H320V0ZM164 345C220.885 345 267 281.201 267 202.5C267 123.799 220.885 60 164 60C107.115 60 61 123.799 61 202.5C61 281.201 107.115 345 164 345Z" fill="#1B3361"/>
<path d="M265.5 202.5C265.5 241.57 254.051 276.879 235.616 302.384C217.18 327.891 191.84 343.5 164 343.5C136.16 343.5 110.82 327.891 92.3837 302.384C73.9487 276.879 62.5 241.57 62.5 202.5C62.5 163.43 73.9487 128.121 92.3837 102.616C110.82 77.1093 136.16 61.5 164 61.5C191.84 61.5 217.18 77.1093 235.616 102.616C254.051 128.121 265.5 163.43 265.5 202.5Z" stroke="#9C77E0" stroke-width="3"/>
</svg>
