<svg width="65" height="65" viewBox="0 0 65 65" fill="none" xmlns="http://www.w3.org/2000/svg">
<rect width="65" height="65" rx="32.5" fill="#F05A7E"/>
<path fill-rule="evenodd" clip-rule="evenodd" d="M23.7071 40.6778C23.3166 40.2873 23.3166 39.6541 23.7071 39.2636L39.2635 23.7072C39.654 23.3167 40.2871 23.3167 40.6777 23.7072L42.799 25.8286C43.1895 26.2191 43.1895 26.8523 42.799 27.2428L27.2426 42.7991C26.8521 43.1897 26.219 43.1897 25.8284 42.7991L23.7071 40.6778Z" fill="white"/>
<path fill-rule="evenodd" clip-rule="evenodd" d="M40.7071 42.7992C40.3166 43.1898 39.6834 43.1898 39.2929 42.7992L23.7365 27.2429C23.346 26.8524 23.346 26.2192 23.7365 25.8287L25.8579 23.7074C26.2484 23.3168 26.8816 23.3168 27.2721 23.7074L42.8284 39.2637C43.219 39.6542 43.219 40.2874 42.8284 40.6779L40.7071 42.7992Z" fill="white"/>
</svg>
