<svg width="100" height="100" viewBox="0 0 100 100" fill="none" xmlns="http://www.w3.org/2000/svg">
<rect x="44.1621" y="0.5" width="55.338" height="99" rx="6.5" stroke="#9C77E0"/>
<mask id="path-2-inside-1" fill="white">
<path fill-rule="evenodd" clip-rule="evenodd" d="M51.5029 4.22543C49.2938 4.22543 47.5029 6.01629 47.5029 8.22543L47.5029 91.7747C47.5029 93.9839 49.2938 95.7747 51.5029 95.7747L92.1585 95.7747C94.3676 95.7747 96.1585 93.9839 96.1585 91.7747L96.1585 8.22542C96.1585 6.01629 94.3676 4.22542 92.1585 4.22542L85.9157 4.22542L85.9157 6.45075C85.9157 7.55532 85.0202 8.45075 83.9157 8.45075L59.7466 8.45075C58.6421 8.45075 57.7466 7.55532 57.7466 6.45075L57.7466 4.22543L51.5029 4.22543Z"/>
</mask>
<path d="M47.5029 8.22543L46.5029 8.22543L47.5029 8.22543ZM51.5029 4.22543L51.5029 3.22543L51.5029 4.22543ZM47.5029 91.7747L48.5029 91.7747L47.5029 91.7747ZM51.5029 95.7747L51.5029 96.7747L51.5029 95.7747ZM92.1585 95.7747L92.1585 94.7747L92.1585 95.7747ZM96.1585 91.7747L97.1585 91.7747L97.1585 91.7747L96.1585 91.7747ZM85.9157 4.22542L85.9157 3.22542L84.9157 3.22542L84.9157 4.22542L85.9157 4.22542ZM83.9157 8.45075L83.9157 9.45075L83.9157 8.45075ZM59.7466 8.45075L59.7466 7.45075L59.7466 8.45075ZM57.7466 4.22543L58.7466 4.22543L58.7466 3.22543L57.7466 3.22543L57.7466 4.22543ZM48.5029 8.22543C48.5029 6.56857 49.8461 5.22543 51.5029 5.22543L51.5029 3.22543C48.7415 3.22543 46.5029 5.464 46.5029 8.22543L48.5029 8.22543ZM48.5029 91.7747L48.5029 8.22543L46.5029 8.22543L46.5029 91.7747L48.5029 91.7747ZM51.5029 94.7747C49.8461 94.7747 48.5029 93.4316 48.5029 91.7747L46.5029 91.7747C46.5029 94.5361 48.7415 96.7747 51.5029 96.7747L51.5029 94.7747ZM92.1585 94.7747L51.5029 94.7747L51.5029 96.7747L92.1585 96.7747L92.1585 94.7747ZM95.1585 91.7747C95.1585 93.4316 93.8154 94.7747 92.1585 94.7747L92.1585 96.7747C94.9199 96.7747 97.1585 94.5361 97.1585 91.7747L95.1585 91.7747ZM95.1585 8.22542L95.1585 91.7747L97.1585 91.7747L97.1585 8.22542L95.1585 8.22542ZM92.1585 5.22542C93.8154 5.22542 95.1585 6.56857 95.1585 8.22542L97.1585 8.22542C97.1585 5.464 94.9199 3.22542 92.1585 3.22542L92.1585 5.22542ZM85.9157 5.22542L92.1585 5.22542L92.1585 3.22542L85.9157 3.22542L85.9157 5.22542ZM84.9157 4.22542L84.9157 6.45075L86.9157 6.45075L86.9157 4.22542L84.9157 4.22542ZM84.9157 6.45075C84.9157 7.00303 84.4679 7.45075 83.9157 7.45075L83.9157 9.45075C85.5725 9.45075 86.9157 8.1076 86.9157 6.45075L84.9157 6.45075ZM83.9157 7.45075L59.7466 7.45075L59.7466 9.45075L83.9157 9.45075L83.9157 7.45075ZM59.7466 7.45075C59.1944 7.45075 58.7466 7.00304 58.7466 6.45075L56.7466 6.45075C56.7466 8.1076 58.0898 9.45075 59.7466 9.45075L59.7466 7.45075ZM58.7466 6.45075L58.7466 4.22543L56.7466 4.22543L56.7466 6.45075L58.7466 6.45075ZM51.5029 5.22543L57.7466 5.22543L57.7466 3.22543L51.5029 3.22543L51.5029 5.22543Z" fill="#9C77E0" mask="url(#path-2-inside-1)"/>
<g opacity="0.3">
<rect x="0.5" y="99.5" width="55.338" height="99" rx="6.5" transform="rotate(-90 0.5 99.5)" stroke="#9C77E0"/>
<mask id="path-5-inside-2" fill="white">
<path fill-rule="evenodd" clip-rule="evenodd" d="M4.22561 92.1591C4.22561 94.3682 6.01647 96.1591 8.22561 96.1591L91.7749 96.1591C93.984 96.1591 95.7749 94.3682 95.7749 92.1591L95.7749 51.5035C95.7749 49.2943 93.984 47.5035 91.7749 47.5035L8.2256 47.5035C6.01647 47.5035 4.2256 49.2944 4.2256 51.5035L4.22561 57.7465L6.45107 57.7465C7.55564 57.7465 8.45107 58.6419 8.45107 59.7465L8.45107 83.9155C8.45107 85.0201 7.55564 85.9155 6.45107 85.9155L4.22561 85.9155L4.22561 92.1591Z"/>
</mask>
<path d="M8.22561 96.1591L8.22561 97.1591L8.22561 96.1591ZM4.22561 92.1591L3.22561 92.1591L4.22561 92.1591ZM91.7749 96.1591L91.7749 95.1591L91.7749 96.1591ZM95.7749 92.1591L96.7749 92.1591L95.7749 92.1591ZM95.7749 51.5035L94.7749 51.5035L95.7749 51.5035ZM91.7749 47.5035L91.7749 48.5035L91.7749 47.5035ZM8.2256 47.5035L8.2256 46.5035L8.2256 47.5035ZM4.22561 57.7465L3.22561 57.7465L3.22561 58.7465L4.22561 58.7465L4.22561 57.7465ZM6.45107 57.7465L6.45107 56.7465L6.45107 57.7465ZM6.45107 85.9155L6.45107 84.9155L6.45107 85.9155ZM4.22561 85.9155L4.22561 84.9155L3.22561 84.9155L3.22561 85.9155L4.22561 85.9155ZM8.22561 95.1591C6.56876 95.1591 5.22561 93.8159 5.22561 92.1591L3.22561 92.1591C3.22561 94.9205 5.46419 97.1591 8.22561 97.1591L8.22561 95.1591ZM91.7749 95.1591L8.22561 95.1591L8.22561 97.1591L91.7749 97.1591L91.7749 95.1591ZM94.7749 92.1591C94.7749 93.8159 93.4318 95.1591 91.7749 95.1591L91.7749 97.1591C94.5363 97.1591 96.7749 94.9205 96.7749 92.1591L94.7749 92.1591ZM94.7749 51.5035L94.7749 92.1591L96.7749 92.1591L96.7749 51.5035L94.7749 51.5035ZM91.7749 48.5035C93.4318 48.5035 94.7749 49.8466 94.7749 51.5035L96.7749 51.5035C96.7749 48.7421 94.5363 46.5035 91.7749 46.5035L91.7749 48.5035ZM8.2256 48.5035L91.7749 48.5035L91.7749 46.5035L8.2256 46.5035L8.2256 48.5035ZM5.2256 51.5035C5.2256 49.8466 6.56875 48.5035 8.2256 48.5035L8.2256 46.5035C5.46418 46.5035 3.2256 48.7421 3.2256 51.5035L5.2256 51.5035ZM5.22561 57.7465L5.2256 51.5035L3.2256 51.5035L3.22561 57.7465L5.22561 57.7465ZM4.22561 58.7465L6.45107 58.7465L6.45107 56.7465L4.22561 56.7465L4.22561 58.7465ZM6.45107 58.7465C7.00335 58.7465 7.45107 59.1942 7.45107 59.7465L9.45107 59.7465C9.45107 58.0896 8.10792 56.7465 6.45107 56.7465L6.45107 58.7465ZM7.45107 59.7465L7.45107 83.9155L9.45107 83.9155L9.45107 59.7465L7.45107 59.7465ZM7.45107 83.9155C7.45107 84.4678 7.00336 84.9155 6.45107 84.9155L6.45107 86.9155C8.10792 86.9155 9.45107 85.5723 9.45107 83.9155L7.45107 83.9155ZM6.45107 84.9155L4.22561 84.9155L4.22561 86.9155L6.45107 86.9155L6.45107 84.9155ZM5.22561 92.1591L5.22561 85.9155L3.22561 85.9155L3.22561 92.1591L5.22561 92.1591Z" fill="#9C77E0" mask="url(#path-5-inside-2)"/>
</g>
<path d="M35.2115 14.0845L30.9861 14.0845C22.4296 14.0845 15.4932 21.021 15.4932 29.5775V35.2113" stroke="#9C77E0"/>
<path d="M30.9861 9.85922L35.2114 14.0845L30.9861 18.3098" stroke="#9C77E0"/>
<path d="M19.7185 30.9859L15.4932 35.2112L11.2678 30.9859" stroke="#9C77E0"/>
</svg>
