<svg width="25" height="21" viewBox="0 0 25 21" fill="none" xmlns="http://www.w3.org/2000/svg">
    <path fill-rule="evenodd" clip-rule="evenodd" d="M7.03078 4H4C2.34315 4 1 5.34315 1 7V17C1 18.6569 2.34315 20 4 20H21C22.6569 20 24 18.6569 24 17V7C24 5.34315 22.6569 4 21 4H17.9692L17.4086 1.75746C17.2973 1.3123 16.8973 1 16.4384 1H8.56155C8.10268 1 7.7027 1.3123 7.59141 1.75746L7.03078 4ZM4 3H6.25L6.62127 1.51493C6.84385 0.624595 7.64382 0 8.56155 0H16.4384C17.3562 0 18.1561 0.624594 18.3787 1.51493L18.75 3H21C23.2091 3 25 4.79086 25 7V17C25 19.2091 23.2091 21 21 21H4C1.79086 21 0 19.2091 0 17V7C0 4.79086 1.79086 3 4 3Z" fill="white"/>
    <path fill-rule="evenodd" clip-rule="evenodd" d="M12.5 16C14.9853 16 17 13.9853 17 11.5C17 9.01472 14.9853 7 12.5 7C10.0147 7 8 9.01472 8 11.5C8 13.9853 10.0147 16 12.5 16ZM12.5 17C15.5376 17 18 14.5376 18 11.5C18 8.46243 15.5376 6 12.5 6C9.46243 6 7 8.46243 7 11.5C7 14.5376 9.46243 17 12.5 17Z" fill="white"/>
</svg>
