<svg width="125" height="22" fill="none" xmlns="http://www.w3.org/2000/svg"><path opacity=".7" d="M2.531 11.994V15H.773V6.469h3.329c.64 0 1.203.117 1.687.351.488.235.863.569 1.125 1.002.262.43.393.92.393 1.471 0 .836-.287 1.496-.862 1.98-.57.48-1.361.721-2.373.721h-1.54zm0-1.424h1.57c.465 0 .819-.11 1.061-.328.246-.219.37-.531.37-.937 0-.418-.124-.756-.37-1.014s-.586-.39-1.02-.398h-1.61v2.677zm5.531 1.201c0-.628.122-1.189.364-1.681s.59-.873 1.043-1.143c.457-.27.986-.404 1.588-.404.855 0 1.552.262 2.091.785.543.524.846 1.235.909 2.133l.011.434c0 .972-.271 1.753-.814 2.343-.543.586-1.272.88-2.186.88-.914 0-1.644-.294-2.191-.88-.543-.586-.815-1.383-.815-2.39v-.077zm1.694.123c0 .602.113 1.063.34 1.383.226.317.55.475.972.475.41 0 .73-.156.961-.469.23-.316.346-.82.346-1.511 0-.59-.115-1.047-.346-1.372-.23-.324-.554-.486-.972-.486-.414 0-.735.162-.961.486-.227.32-.34.819-.34 1.495zm10.869.803l.832-4.037h1.635L21.475 15h-1.418l-1.201-3.99L17.654 15h-1.412l-1.617-6.34h1.635l.826 4.031 1.16-4.03h1.225l1.154 4.036zm6.229 2.42c-.93 0-1.688-.285-2.274-.855-.582-.57-.873-1.33-.873-2.28v-.164c0-.636.123-1.205.37-1.705.245-.504.593-.89 1.042-1.16.453-.273.969-.41 1.547-.41.867 0 1.549.273 2.045.82.5.547.75 1.322.75 2.327v.69h-4.037c.055.415.219.747.492.997.277.25.627.375 1.049.375.652 0 1.162-.236 1.53-.709l.831.932c-.254.359-.598.64-1.031.843-.434.2-.914.3-1.442.3zm-.194-5.203c-.336 0-.61.113-.82.34-.207.226-.34.55-.399.973h2.356v-.135c-.008-.375-.11-.664-.305-.867-.195-.207-.473-.31-.832-.31zm7.33.334a4.607 4.607 0 00-.61-.047c-.64 0-1.06.217-1.259.65V15h-1.693V8.66h1.6l.046.756c.34-.582.81-.873 1.412-.873.188 0 .364.025.528.076l-.024 1.629zm3.621 4.87c-.93 0-1.687-.286-2.273-.856-.582-.57-.873-1.33-.873-2.28v-.164c0-.636.123-1.205.369-1.705.246-.504.594-.89 1.043-1.16.453-.273.969-.41 1.547-.41.867 0 1.549.273 2.045.82.5.547.75 1.322.75 2.327v.69h-4.037c.054.415.218.747.492.997.277.25.627.375 1.049.375.652 0 1.162-.236 1.529-.709l.832.932c-.254.359-.598.64-1.031.843-.434.2-.914.3-1.442.3zm-.193-5.204c-.336 0-.61.113-.82.34-.207.226-.34.55-.399.973h2.356v-.135c-.008-.375-.11-.664-.305-.867-.195-.207-.473-.31-.832-.31zm3.504 1.87c0-.99.22-1.776.662-2.362.445-.586 1.053-.879 1.822-.879.617 0 1.127.23 1.53.691V6h1.699v9h-1.53l-.082-.674c-.421.527-.964.791-1.629.791-.746 0-1.345-.293-1.798-.879-.45-.59-.674-1.408-.674-2.455zm1.693.122c0 .594.104 1.05.31 1.365.208.317.509.475.903.475.524 0 .893-.22 1.107-.662v-2.502c-.21-.441-.576-.662-1.095-.662-.817 0-1.225.662-1.225 1.986zm14.033-.017c0 1.015-.216 1.808-.65 2.379-.433.566-1.039.85-1.816.85-.688 0-1.237-.264-1.647-.792L52.46 15h-1.524V6h1.694v3.229c.39-.458.904-.686 1.54-.686.774 0 1.38.285 1.817.855.442.567.662 1.366.662 2.397v.094zm-1.693-.123c0-.641-.102-1.108-.305-1.4-.203-.298-.505-.446-.908-.446-.539 0-.91.22-1.113.662v2.502c.207.445.582.668 1.125.668.547 0 .906-.27 1.078-.809.082-.258.123-.65.123-1.177zm5.04.838l1.171-3.944h1.816l-2.548 7.324-.141.334c-.379.828-1.004 1.242-1.875 1.242-.246 0-.496-.037-.75-.11v-1.284l.258.006c.32 0 .558-.049.715-.147.16-.097.285-.26.375-.486l.199-.521-2.22-6.358h1.821l1.178 3.944z" fill="#D6C9ED"/><path d="M75.87 5.024v1.34c-.803-1.005-1.875-1.474-3.148-1.474a4.435 4.435 0 00-4.12 2.68A7.293 7.293 0 0068 10.482c0 1.106.201 2.077.57 2.948.368.837.904 1.507 1.607 1.976.703.469 1.474.703 2.378.703 1.072 0 2.21-.502 3.35-1.54v.602c0 .77-.068 1.373-.235 1.842-.168.47-.436.804-.838 1.005-.3.168-.703.268-1.239.302h-4.99V21h5.191c1.91-.033 3.216-.469 4.12-1.34.938-.904 1.407-2.21 1.407-3.918V7.569h1.808V5.024h-5.258zm-.602 7.536c-.402.502-.938.737-1.574.737-.67 0-1.172-.268-1.574-.804-.369-.536-.57-1.206-.57-2.01 0-.837.201-1.507.57-2.043.368-.536.904-.77 1.574-.77s1.206.268 1.607.77c.402.503.603 1.206.603 2.077 0 .87-.2 1.54-.636 2.043zM93.32 11.22h-8.138c.067.837.368 1.507.87 1.976.503.503 1.14.737 1.91.737.87 0 1.708-.435 2.545-1.273l2.713.871c-.602.904-1.34 1.574-2.21 2.01-.871.435-1.91.67-3.115.67-1.206 0-2.277-.235-3.182-.67-.938-.47-1.641-1.106-2.143-1.943-.503-.837-.77-1.809-.77-2.947 0-1.106.267-2.11.803-3.015.536-.904 1.24-1.607 2.144-2.11a5.953 5.953 0 012.947-.77c1.139 0 2.144.268 3.014.804.871.536 1.508 1.273 1.977 2.244.401 1.005.636 2.11.636 3.416zM87.494 7.1c-.636 0-1.139.168-1.507.536-.368.369-.603.905-.703 1.642h4.555c-.1-.637-.369-1.173-.804-1.575a2.236 2.236 0 00-1.54-.603z" fill="#fff"/><path d="M110.335 13.43v2.513h-6.732V13.43h1.674V7.569h-1.674V5.024h5.124v8.407h1.608zm-1.407-11.52c0 .568-.201 1.004-.569 1.372a1.847 1.847 0 01-1.34.536c-.536 0-.971-.2-1.34-.57a1.879 1.879 0 01-.569-1.339c0-.536.201-.971.569-1.34.369-.368.837-.569 1.34-.569.536 0 .971.201 1.34.57.368.368.569.837.569 1.34z" fill="url(#paint0_linear)"/><path d="M124.235 13.43v2.513h-5.259v-1.307c-1.005.972-2.043 1.474-3.182 1.474-.937 0-1.741-.234-2.445-.737a4.75 4.75 0 01-1.641-2.043c-.402-.87-.603-1.842-.603-2.88 0-1.106.201-2.077.603-2.948.402-.87.972-1.54 1.675-2.01.737-.468 1.541-.736 2.445-.736 1.273 0 2.344.502 3.148 1.474V2.78h-1.741V.268h5.191V13.43h1.809zm-7.402-.066c.67 0 1.205-.268 1.607-.804.369-.536.57-1.24.57-2.077s-.201-1.54-.603-2.076a1.91 1.91 0 00-1.608-.804c-.67 0-1.172.268-1.574.804-.402.536-.569 1.239-.569 2.076 0 .838.201 1.54.569 2.077a1.91 1.91 0 001.608.804z" fill="url(#paint1_linear)"/><path d="M101.493 7.57V5.023h-2.01V.837L96 3.316v1.708h-1.373v2.545H96v5.862a2.53 2.53 0 002.512 2.512h2.981V13.43h-1.139a.83.83 0 01-.837-.838V7.57h1.976z" fill="#fff"/><defs><linearGradient id="paint0_linear" x1="102.324" y1="21.979" x2="114.252" y2="-7.598" gradientUnits="userSpaceOnUse"><stop stop-color="#00B1C9"/><stop offset="1" stop-color="#EA167C"/></linearGradient><linearGradient id="paint1_linear" x1="112.222" y1="25.971" x2="124.15" y2="-3.607" gradientUnits="userSpaceOnUse"><stop stop-color="#00B1C9"/><stop offset="1" stop-color="#EA167C"/></linearGradient></defs></svg>