<svg width="25" height="21" viewBox="0 0 25 21" fill="none" xmlns="http://www.w3.org/2000/svg">
<path d="M2.29035 19.8106C1.5741 20.26 0.645215 20.0169 0.215618 19.2676C-0.21398 18.5183 0.0183944 17.5464 0.73464 17.097C4.59766 14.6729 8.48904 13.4482 12.3901 13.4482C16.2912 13.4482 20.1826 14.6729 24.0456 17.097C24.7619 17.5464 24.9942 18.5183 24.5646 19.2676C24.135 20.0169 23.2062 20.26 22.4899 19.8106C19.0788 17.6701 15.7184 16.6125 12.3901 16.6125C9.06185 16.6125 5.70148 17.6701 2.29035 19.8106Z" fill="white"/>
<path d="M6.80502 4.74641C8.05782 4.74641 9.07342 3.68389 9.07342 2.37321C9.07342 1.06252 8.05782 0 6.80502 0C5.55222 0 4.53662 1.06252 4.53662 2.37321C4.53662 3.68389 5.55222 4.74641 6.80502 4.74641Z" fill="white"/>
<path d="M18.9032 4.74641C20.156 4.74641 21.1716 3.68389 21.1716 2.37321C21.1716 1.06252 20.156 0 18.9032 0C17.6504 0 16.6348 1.06252 16.6348 2.37321C16.6348 3.68389 17.6504 4.74641 18.9032 4.74641Z" fill="white"/>
</svg>
