<svg width="240" height="43" viewBox="0 0 240 43" fill="none" xmlns="http://www.w3.org/2000/svg">
<rect x="75.9766" y="22.5495" width="110.943" height="19.3533" rx="4.5" fill="#E5DFF1" stroke="#7861A2"/>
<rect opacity="0.4" x="47.1436" y="22.5495" width="25.2897" height="19.3533" rx="4.5" fill="#F5F5F5" stroke="#CCCCCC"/>
<rect opacity="0.4" x="191.312" y="22.5495" width="25.2897" height="19.3533" rx="4.5" fill="#F5F5F5" stroke="#CCCCCC"/>
<rect opacity="0.4" x="23.3979" y="22.5495" width="19.3533" height="19.3533" rx="4.5" fill="#F5F5F5" stroke="#CCCCCC"/>
<rect opacity="0.4" x="98.8745" y="0.5" width="19.3533" height="19.3533" rx="4.5" fill="#F5F5F5" stroke="#CCCCCC"/>
<rect opacity="0.4" x="121.771" y="0.5" width="19.3533" height="19.3533" rx="4.5" fill="#F5F5F5" stroke="#CCCCCC"/>
<rect opacity="0.4" x="75.9766" y="0.5" width="19.3533" height="19.3533" rx="4.5" fill="#F5F5F5" stroke="#CCCCCC"/>
<rect opacity="0.4" x="53.0786" y="0.5" width="19.3533" height="19.3533" rx="4.5" fill="#F5F5F5" stroke="#CCCCCC"/>
<rect opacity="0.4" x="29.334" y="0.5" width="19.3533" height="19.3533" rx="4.5" fill="#F5F5F5" stroke="#CCCCCC"/>
<rect opacity="0.4" x="145.518" y="0.5" width="19.3533" height="19.3533" rx="4.5" fill="#F5F5F5" stroke="#CCCCCC"/>
<rect opacity="0.4" x="168.415" y="0.5" width="19.3533" height="19.3533" rx="4.5" fill="#F5F5F5" stroke="#CCCCCC"/>
<rect opacity="0.4" x="191.312" y="0.5" width="19.3533" height="19.3533" rx="4.5" fill="#F5F5F5" stroke="#CCCCCC"/>
<rect opacity="0.4" x="0.5" y="22.5495" width="19.3533" height="19.3533" rx="4.5" fill="#F5F5F5" stroke="#CCCCCC"/>
<rect opacity="0.4" x="220.146" y="22.5495" width="19.3533" height="19.3533" rx="4.5" fill="#F5F5F5" stroke="#CCCCCC"/>
</svg>
