<svg width="342" height="196" viewBox="0 0 342 196" fill="none" xmlns="http://www.w3.org/2000/svg">
<path d="M33.8125 0.5H307.437C311.58 0.5 314.937 3.85786 314.937 8V187.187H26.3125V8C26.3125 3.85787 29.6704 0.5 33.8125 0.5Z" fill="white" stroke="#9C77E0"/>
<rect x="31.125" y="8.81262" width="279" height="174" stroke="#9C77E0"/>
<path d="M8.75 195.5H332.5C336.889 195.5 340.477 192.074 340.735 187.75H0.514903C0.773367 192.074 4.36154 195.5 8.75 195.5Z" fill="white" stroke="#9C77E0"/>
<path d="M134.75 191.125H206.5C208.471 191.125 210.098 189.654 210.343 187.75H130.907C131.152 189.654 132.779 191.125 134.75 191.125Z" stroke="#9C77E0"/>
<circle cx="170.625" cy="4.37512" r="1.6875" stroke="#9C77E0"/>
<rect x="107.5" y="58.5" width="127" height="74" fill="#9C77E0" fill-opacity="0.1" stroke="#9C77E0"/>
<rect x="131.5" y="70.5" width="78.2373" height="49" rx="3.5" stroke="#9C77E0"/>
<rect x="165.157" y="71.652" width="21.5064" height="2.19888" stroke="#9C77E0"/>
<rect x="163.367" y="79.8341" width="24.3109" height="1.78937" stroke="#9C77E0"/>
<rect x="134.865" y="71.6938" width="19.4628" height="2.12627" stroke="#9C77E0"/>
<rect x="134.865" y="74.962" width="19.4628" height="1.55785" stroke="#9C77E0"/>
<rect x="165.275" y="74.962" width="12.2156" height="1.55785" stroke="#9C77E0"/>
<rect x="163.39" y="83.818" width="24.2542" height="1.33271" stroke="#9C77E0"/>
<rect x="163.712" y="100.114" width="11.5051" height="1.41575" stroke="#9C77E0"/>
<rect x="163.712" y="104.519" width="11.5051" height="1.41575" stroke="#9C77E0"/>
<rect x="136.712" y="112.051" width="13.4945" height="2.26837" stroke="#9C77E0"/>
<rect x="190.854" y="90.7355" width="3.5473" height="1.27365" stroke="#9C77E0"/>
<rect x="190.854" y="95.1406" width="11.363" height="1.27365" stroke="#9C77E0"/>
<rect x="190.854" y="100.114" width="13.9208" height="1.41575" stroke="#9C77E0"/>
<rect x="182.043" y="90.7355" width="3.97361" height="1.27365" stroke="#9C77E0"/>
<rect x="134.89" y="79.822" width="25.6949" height="29.7203" stroke="#9C77E0"/>
<path d="M152.643 109.542C152.247 108.561 152.068 107.467 152.097 106.264L152.097 106.263C152.116 105.51 152.283 104.727 152.86 104.104C153.913 102.967 154.49 101.572 154.742 99.9689L154.742 99.9684C154.852 99.2763 155.203 98.731 155.875 98.4425L155.875 98.4424C156.311 98.2551 156.593 97.9217 156.687 97.4475C156.836 96.6942 156.942 95.9299 156.981 95.1719C157.005 94.7058 156.851 94.2796 156.544 93.9925L152.643 109.542ZM152.643 109.542H142.229C142.672 108.427 142.82 107.189 142.738 105.864C142.695 105.175 142.434 104.558 141.979 104.071C140.914 102.93 140.368 101.508 140.103 99.8836L152.643 109.542ZM156.368 91.7874L156.368 91.7869L156.368 91.7855C156.368 91.7854 156.368 91.7852 156.368 91.785C156.516 90.8193 156.661 89.8746 156.736 88.9273L156.736 88.9271C156.992 85.6916 155.082 82.5863 152.132 81.3128C150.356 80.5468 148.489 80.3934 146.541 80.4787L156.368 91.7874ZM156.368 91.7874L156.367 91.7888C156.311 92.156 156.254 92.5262 156.201 92.8971L156.368 91.7874ZM138.128 88.9266L138.128 88.9267C138.206 89.917 138.359 90.9045 138.515 91.9127C138.559 92.1963 138.603 92.4816 138.645 92.7672L138.645 92.7676C138.672 92.9487 138.695 93.167 138.648 93.3942C138.598 93.6382 138.478 93.8502 138.29 94.0438L138.289 94.0444C138.157 94.1808 138.041 94.4376 137.952 94.751L137.952 94.751C137.771 95.3939 137.876 96.0565 138.013 96.8468L138.013 96.8468C138.162 97.7092 138.486 98.2638 139.159 98.5421L139.159 98.5422C139.783 98.8006 140.021 99.3788 140.103 99.8834L138.128 88.9266ZM138.128 88.9266C137.891 85.9089 139.534 82.9796 142.191 81.5782L138.128 88.9266ZM142.191 81.5781C143.549 80.8625 145.008 80.5462 146.541 80.4787L142.191 81.5781Z" stroke="#9C77E0"/>
<rect x="143" y="144" width="53" height="14" rx="7" fill="#9C77E0"/>
<rect opacity="0.2" x="152" y="149" width="35" height="4" rx="2" fill="white"/>
<rect x="134" y="34" width="74" height="3" rx="1.5" fill="#9C77E0"/>
<rect opacity="0.4" x="143" y="41" width="56" height="2" rx="1" fill="#9C77E0"/>
<rect opacity="0.4" x="150" y="45" width="42" height="2" rx="1" fill="#9C77E0"/>
</svg>
