<svg width="55" height="80" viewBox="0 0 55 80" fill="none" xmlns="http://www.w3.org/2000/svg">
<path d="M34.3799 28.6582L39.0688 29.0557" stroke="white" stroke-width="2" stroke-linecap="round"/>
<path d="M19.7031 28.6582L15.0143 29.0557" stroke="white" stroke-width="2" stroke-linecap="round"/>
<path d="M25.4463 38.5285L27.9885 36.7396C28.3604 36.4779 28.4594 35.9499 28.235 35.5419C27.1165 33.5094 26.6952 31.5477 26.7959 28.499" stroke="white" stroke-width="2" stroke-linecap="round"/>
<path d="M23.0391 46.001C23.0391 46.001 24.951 46.8195 27.4281 46.8195C29.9052 46.8195 31.817 46.001 31.817 46.001" stroke="white" stroke-width="2" stroke-linecap="round"/>
<path d="M36.2526 32.1838C37.6158 32.1838 38.721 31.9885 38.721 31.7477C38.721 31.5068 37.6158 31.3115 36.2526 31.3115C34.8893 31.3115 33.7842 31.5068 33.7842 31.7477C33.7842 31.9885 34.8893 32.1838 36.2526 32.1838Z" fill="white"/>
<path d="M17.6484 32.1838C19.1515 32.1838 20.37 31.9885 20.37 31.7477C20.37 31.5068 19.1515 31.3115 17.6484 31.3115C16.1453 31.3115 14.9268 31.5068 14.9268 31.7477C14.9268 31.9885 16.1453 32.1838 17.6484 32.1838Z" fill="white"/>
<path d="M45.9285 24.2287V25.1799M12.4012 15.7842C7.95308 15.7842 7.95496 20.3051 7.99811 21.6196V25.1799M45.9285 35.3765V36.8274C45.9285 46.811 37.4375 54.9043 26.9633 54.9043C16.4891 54.9043 7.99811 46.811 7.99811 36.8274V35.3765M45.9285 35.3765C45.9285 35.3765 49.9294 34.6459 49.9294 30.2782C49.9294 26.3751 45.9285 25.1799 45.9285 25.1799M45.9285 35.3765V25.1799M7.99811 25.1799V35.3765M7.99811 25.1799C7.99811 25.1799 3.84082 25.6444 3.84082 30.2782C3.84082 34.9966 7.99811 35.3765 7.99811 35.3765" stroke="white" stroke-width="2"/>
<path d="M39.0909 5.84596V4.76578C46.4292 4.76578 47.0572 8.84651 47.1827 10.8869V24.8578C40.8821 24.8578 39.1629 20.705 39.0909 18.6286V12.8679M39.0909 5.84596V12.8679M39.0909 5.84596C31.7647 2.49726 15.5208 -1.51801 9.12366 9.76363C8.23726 11.5004 8.85269 11.8649 8.85269 11.8649M39.0909 12.8679C37.0904 14.9683 31.7708 19.2052 26.4952 19.3492C19.9008 19.5293 15.5673 15.7125 11.3469 15.7845C7.97061 15.8421 7.15164 16.8647 7.16421 17.3688C6.74961 15.8514 6.76863 13.2685 8.85269 11.8649M8.85269 11.8649C9.73623 11.2699 10.9909 10.8869 12.7411 10.8869C20.0892 10.8869 18.8834 13.372 24.7242 9.3032" stroke="white" stroke-width="2" stroke-linecap="round" stroke-linejoin="round"/>
<path d="M32.7363 60.9766C32.05 63.2217 29.9008 64.3917 27.5179 64.3743C25.111 64.3567 22.835 63.1237 22.0273 60.9481V54.3172C23.8925 54.754 25.5221 54.9804 27.208 54.9805C28.9258 54.9807 30.6662 54.7457 32.7363 54.293V60.9766Z" stroke="white" stroke-width="2"/>
<path d="M3.22255 63.5045C5.89112 61.9569 11.2551 60.8138 20.3494 60.7598C21.6514 63.6 24.6704 64.9924 27.5034 65.0131C30.3169 65.0337 33.2717 63.6979 34.4521 60.7598C39.0153 60.7865 42.6569 61.0684 45.5001 61.537C48.5032 62.0318 50.5542 62.7251 51.8535 63.4987C53.1427 64.2662 53.5792 65.0364 53.6456 65.6937C53.7162 66.392 53.4052 67.2822 52.5204 68.3359C50.7487 70.4458 47.1152 72.6754 42.5276 74.3811C37.9715 76.0751 32.6137 77.2001 27.5107 77.2001C21.8666 77.2001 16.3123 76.0712 11.7497 74.3807C7.14898 72.6761 3.70074 70.4547 2.12241 68.3745C1.34184 67.3457 1.10684 66.4734 1.23353 65.7704C1.35797 65.0799 1.88094 64.2825 3.22255 63.5045Z" stroke="white" stroke-width="2"/>
</svg>
