<svg width="65" height="65" viewBox="0 0 65 65" fill="none" xmlns="http://www.w3.org/2000/svg">
<g clip-path="url(#clip0)">
<path d="M19.5586 35.6475C18.3247 35.6475 17.1646 36.1279 16.2921 37.0005C15.8206 37.4718 15.8206 38.2359 16.2921 38.7073C16.7635 39.1788 17.5276 39.1786 17.9987 38.7073C18.4154 38.2907 18.9693 38.0612 19.5586 38.0612C20.1478 38.0612 20.7018 38.2907 21.1185 38.7073C21.3541 38.943 21.6629 39.0609 21.9719 39.0608C22.2807 39.0608 22.5896 38.943 22.8253 38.7073C23.2967 38.236 23.2967 37.4719 22.8253 37.0005C21.9526 36.1281 20.7925 35.6475 19.5586 35.6475Z" fill="#CEAFFF"/>
<path d="M41.284 37.0012C40.8126 37.4724 40.8126 38.2365 41.284 38.708C41.7553 39.1794 42.5194 39.1793 42.9907 38.708C43.8507 37.8478 45.2504 37.8479 46.1104 38.708C46.346 38.9436 46.6549 39.0614 46.9638 39.0614C47.2728 39.0614 47.5816 38.9436 47.8172 38.708C48.2886 38.2367 48.2886 37.4726 47.8172 37.0012C46.0163 35.2002 43.0854 35.2001 41.284 37.0012Z" fill="#CEAFFF"/>
<path d="M34.3791 49.4833C33.7582 50.1041 32.9328 50.4461 32.0547 50.4461C31.1767 50.4461 30.3512 50.1043 29.7304 49.4833C29.2591 49.0121 28.495 49.0121 28.0237 49.4833C27.5523 49.9546 27.5523 50.7187 28.0237 51.1901C29.1004 52.267 30.5321 52.8598 32.0548 52.8598C33.5776 52.8598 35.0092 52.2668 36.0859 51.1901C36.5574 50.7189 36.5574 49.9548 36.0859 49.4833C35.6145 49.0121 34.8504 49.0121 34.3791 49.4833Z" fill="#CEAFFF"/>
<path d="M60.5308 38.7277C60.5308 35.4494 58.1608 32.7159 55.0447 32.1458V11.9559C55.0447 9.33674 53.7417 6.90852 51.5592 5.46043C49.5094 4.10044 46.9644 3.79179 44.6633 4.60265L37.0863 2.03082C31.2641 0.0544242 25.1355 -0.148329 19.3632 1.44428C11.8064 3.52929 7.47404 7.93828 6.80529 14.2055C6.21347 14.9861 5.74324 15.8627 5.42373 16.8086L4.83598 18.5481C4.52054 19.4821 4.86827 20.4636 5.70161 20.9904C6.53465 21.5172 7.57059 21.4107 8.27917 20.725C8.52115 20.4907 8.78575 20.2934 9.06424 20.1284V32.1459C5.94811 32.716 3.57812 35.4494 3.57812 38.7279C3.57812 42.1374 6.14136 44.9577 9.44169 45.3677C10.2705 49.9442 12.4484 54.1656 15.7786 57.5438C20.1265 61.9543 25.9065 64.3831 32.0544 64.3831C32.0552 64.3831 32.056 64.3831 32.0567 64.3831C38.1968 64.3825 43.9692 61.9911 48.3109 57.6496C51.7024 54.2581 53.9037 49.9937 54.7052 45.3629C57.9871 44.9357 60.5308 42.124 60.5308 38.7277ZM50.2247 7.47183C51.754 8.48635 52.6309 10.1207 52.6309 11.9559V27.7491C48.885 27.167 46.0087 23.9199 46.0087 20.0133L45.9088 6.74378C47.3826 6.35532 48.9193 6.60575 50.2247 7.47183ZM7.476 18.2752L7.71059 17.5811C8.32503 15.7625 9.68955 14.2861 11.4541 13.5306C13.2186 12.7751 15.2288 12.8065 16.9689 13.617C20.6236 15.3192 25.0418 14.3989 27.7129 11.3794L28.0119 11.0413C28.4536 10.5421 28.4068 9.77936 27.9077 9.33779C27.4082 8.89623 26.6456 8.94285 26.204 9.44204L25.905 9.78011C23.9366 12.0053 20.6809 12.6832 17.988 11.429C15.6266 10.3291 12.8986 10.2864 10.504 11.3118C10.286 11.4052 10.0741 11.5094 9.86545 11.6185C11.2683 7.87854 14.6635 5.24486 20.0054 3.77097C25.3097 2.30734 30.9479 2.49607 36.3108 4.31632L43.4951 6.75495L43.5892 12.991C40.3903 17.3404 35.7248 20.2847 30.4083 21.2971C24.9644 22.3336 19.4106 21.2367 14.7699 18.2084C12.5021 16.7289 9.64338 16.7922 7.476 18.2752ZM5.99186 38.7277C5.99186 36.7872 7.2906 35.1453 9.06424 34.6229V41.1644C9.06424 41.7295 9.0846 42.2914 9.12428 42.8498C7.32017 42.347 5.99186 40.6901 5.99186 38.7277ZM46.6043 55.9425C42.7185 59.8283 37.552 61.9685 32.0566 61.9691C32.0557 61.9691 32.0555 61.9691 32.0544 61.9691C26.5582 61.9691 21.388 59.7954 17.4975 55.8491C13.6158 51.9114 11.478 46.6962 11.478 41.1642V19.5593C12.1615 19.6103 12.8398 19.8315 13.4504 20.2299C18.6167 23.6011 24.7992 24.8223 30.8595 23.6683C35.7788 22.7314 40.1981 20.3097 43.5948 16.7381V20.0131C43.5948 25.2526 47.5499 29.5831 52.6308 30.1825V41.3925C52.6309 46.8888 50.4907 52.0562 46.6043 55.9425ZM54.998 42.8458C55.0279 42.364 55.0447 41.8796 55.0447 41.3926V34.6229C56.8183 35.1453 58.117 36.7872 58.117 38.7277C58.117 40.6851 56.7955 42.3387 54.998 42.8458Z" fill="#CEAFFF"/>
</g>
<defs>
<clipPath id="clip0">
<rect width="64" height="64" fill="white" transform="translate(0.0546875 0.382812)"/>
</clipPath>
</defs>
</svg>
