<svg width="54" height="80" viewBox="0 0 54 80" fill="none" xmlns="http://www.w3.org/2000/svg">
<g clip-path="url(#clip0)">
<path d="M34.2441 23.6582L38.933 24.0557" stroke="white" stroke-width="2" stroke-linecap="round"/>
<path d="M19.5674 23.6582L14.8785 24.0557" stroke="white" stroke-width="2" stroke-linecap="round"/>
<path d="M25.3125 38.5285L27.8547 36.7396C28.2266 36.4779 28.3256 35.9499 28.1012 35.5419C26.9827 33.5094 26.5614 31.5477 26.6621 28.499" stroke="white" stroke-width="2" stroke-linecap="round"/>
<path d="M18.9053 43.0911C18.9053 43.0911 21.3915 46.9096 27.2943 46.9096C33.197 46.9096 35.2607 42.6465 35.2607 42.6465" stroke="white" stroke-width="2" stroke-linecap="round"/>
<path d="M36.1189 33.5815C37.1322 33.5815 37.9536 32.7601 37.9536 31.7468C37.9536 30.7335 37.1322 29.9121 36.1189 29.9121C35.1056 29.9121 34.2842 30.7335 34.2842 31.7468C34.2842 32.7601 35.1056 33.5815 36.1189 33.5815Z" fill="white"/>
<path d="M17.5144 33.5815C18.5277 33.5815 19.3491 32.7601 19.3491 31.7468C19.3491 30.7335 18.5277 29.9121 17.5144 29.9121C16.5011 29.9121 15.6797 30.7335 15.6797 31.7468C15.6797 32.7601 16.5011 33.5815 17.5144 33.5815Z" fill="white"/>
<path d="M45.7938 24.2287V25.1799M12.2664 15.7842C7.81832 15.7842 7.8202 20.3051 7.86334 21.6196V25.1799M45.7938 35.3765V36.8274C45.7938 46.811 37.3027 54.9043 26.8285 54.9043C16.3543 54.9043 7.86334 46.811 7.86334 36.8274V35.3765M45.7938 35.3765C45.7938 35.3765 49.7946 34.6459 49.7946 30.2782C49.7946 26.3751 45.7938 25.1799 45.7938 25.1799M45.7938 35.3765V25.1799M7.86334 25.1799V35.3765M7.86334 25.1799C7.86334 25.1799 3.70605 25.6444 3.70605 30.2782C3.70605 34.9966 7.86334 35.3765 7.86334 35.3765" stroke="white" stroke-width="2"/>
<path d="M38.9562 5.84596V4.76578C46.2944 4.76578 46.9224 8.84651 47.0479 10.8869V24.8578C40.7474 24.8578 39.0282 20.705 38.9562 18.6286V12.8679M38.9562 5.84596V12.8679M38.9562 5.84596C31.6299 2.49726 15.386 -1.51801 8.98889 9.76363C8.1025 11.5004 8.71792 11.8649 8.71792 11.8649M38.9562 12.8679C36.9556 14.9683 31.636 19.2052 26.3604 19.3492C19.7661 19.5293 15.4326 15.7125 11.2122 15.7845C7.83585 15.8421 7.01688 16.8647 7.02945 17.3688C6.61484 15.8514 6.63387 13.2685 8.71792 11.8649M8.71792 11.8649C9.60146 11.2699 10.8562 10.8869 12.6064 10.8869C19.9544 10.8869 18.7486 13.372 24.5894 9.3032" stroke="white" stroke-width="2" stroke-linecap="round" stroke-linejoin="round"/>
<path d="M32.6016 60.9766C31.9153 63.2217 29.7661 64.3917 27.3832 64.3743C24.9763 64.3567 22.7003 63.1237 21.8926 60.9481V54.3172C23.7578 54.754 25.3874 54.9804 27.0733 54.9805C28.7911 54.9807 30.5315 54.7457 32.6016 54.293V60.9766Z" stroke="white" stroke-width="2"/>
<path d="M3.08778 63.5045C5.75635 61.9569 11.1204 60.8138 20.2147 60.7598C21.5167 63.6 24.5357 64.9924 27.3687 65.0131C30.1822 65.0337 33.137 63.6979 34.3174 60.7598C38.8806 60.7865 42.5222 61.0684 45.3654 61.537C48.3685 62.0318 50.4195 62.7251 51.7188 63.4987C53.0079 64.2662 53.4445 65.0364 53.5109 65.6937C53.5815 66.392 53.2705 67.2822 52.3857 68.3359C50.614 70.4458 46.9805 72.6754 42.3929 74.3811C37.8368 76.0751 32.479 77.2001 27.376 77.2001C21.7319 77.2001 16.1776 76.0712 11.615 74.3807C7.01421 72.6761 3.56597 70.4547 1.98764 68.3745C1.20707 67.3457 0.972071 66.4734 1.09876 65.7704C1.2232 65.0799 1.74617 64.2825 3.08778 63.5045Z" stroke="white" stroke-width="2"/>
</g>
<defs>
<clipPath id="clip0">
<rect width="54" height="80" fill="white"/>
</clipPath>
</defs>
</svg>
