<svg width="80" height="80" viewBox="0 0 80 80" fill="none" xmlns="http://www.w3.org/2000/svg">
<path d="M46.7246 23.6582L51.4135 24.0557" stroke="white" stroke-width="2" stroke-linecap="round"/>
<path d="M36.0479 23.6582L31.359 24.0557" stroke="white" stroke-width="2" stroke-linecap="round"/>
<path d="M41.791 38.5285L39.1131 36.7396C38.7214 36.4779 38.6172 35.9499 38.8535 35.5419C40.0317 33.5094 40.4755 31.5477 40.3693 28.499" stroke="white" stroke-width="2" stroke-linecap="round"/>
<path d="M39.3848 46.0908C39.3848 46.0908 41.2967 46.9093 43.7738 46.9093C46.2509 46.9093 48.1627 46.0908 48.1627 46.0908" stroke="white" stroke-width="2" stroke-linecap="round"/>
<path d="M48.5974 33.5815C49.6107 33.5815 50.4321 32.7601 50.4321 31.7468C50.4321 30.7335 49.6107 29.9121 48.5974 29.9121C47.5841 29.9121 46.7627 30.7335 46.7627 31.7468C46.7627 32.7601 47.5841 33.5815 48.5974 33.5815Z" fill="white"/>
<path d="M33.9929 33.5815C35.0062 33.5815 35.8276 32.7601 35.8276 31.7468C35.8276 30.7335 35.0062 29.9121 33.9929 29.9121C32.9796 29.9121 32.1582 30.7335 32.1582 31.7468C32.1582 32.7601 32.9796 33.5815 33.9929 33.5815Z" fill="white"/>
<path d="M69.2728 24.2287V25.1799M35.7455 15.7842C31.2974 15.7842 31.2993 20.3051 31.3424 21.6196V25.1799M69.2728 35.3765V36.8274C69.2728 46.811 60.7818 54.9043 50.3076 54.9043C39.8334 54.9043 31.3424 46.811 31.3424 36.8274V35.3765M69.2728 35.3765C69.2728 35.3765 73.2737 34.6459 73.2737 30.2782C73.2737 26.3751 69.2728 25.1799 69.2728 25.1799M69.2728 35.3765C69.2728 35.3765 66.365 34.5922 66.365 30.2782C66.365 25.9642 69.2728 25.1799 69.2728 25.1799M31.3424 25.1799V35.3765M31.3424 25.1799C31.3424 25.1799 31.3423 25.6444 31.3423 30.2782C31.3423 34.9966 31.3424 35.3765 31.3424 35.3765" stroke="white" stroke-width="2"/>
<path d="M62.4357 5.84596V4.76578C69.7739 4.76578 70.4019 8.84651 70.5274 10.8869V24.8578C64.2269 24.8578 62.5077 20.705 62.4357 18.6286V12.8679M62.4357 5.84596V12.8679M62.4357 5.84596C55.1094 2.49726 38.8655 -1.51801 32.4684 9.76363C31.582 11.5004 32.1974 11.8649 32.1974 11.8649M62.4357 12.8679C60.4351 14.9683 55.1155 19.2052 49.8399 19.3492C43.2456 19.5293 38.9121 15.7125 34.6917 15.7845C31.3153 15.8421 30.4964 16.8647 30.5089 17.3688C30.0943 15.8514 30.1134 13.2685 32.1974 11.8649M32.1974 11.8649C33.081 11.2699 34.3357 10.8869 36.0859 10.8869C43.4339 10.8869 42.2281 13.372 48.0689 9.3032" stroke="white" stroke-width="2" stroke-linecap="round" stroke-linejoin="round"/>
<path d="M56.0811 60.9766C55.3948 63.2217 53.2456 64.3917 50.8627 64.3743C48.4558 64.3567 46.1798 63.1237 45.3721 60.9481V54.3172C47.2373 54.754 48.8669 54.9804 50.5528 54.9805C52.2706 54.9807 54.011 54.7457 56.0811 54.293V60.9766Z" stroke="white" stroke-width="2"/>
<path d="M26.5673 63.5045C29.2358 61.9569 34.5998 60.8138 43.6941 60.7598C44.9961 63.6 48.0151 64.9924 50.8481 65.0131C53.6616 65.0337 56.6164 63.6979 57.7968 60.7598C62.36 60.7865 66.0016 61.0684 68.8448 61.537C71.8479 62.0318 73.8989 62.7251 75.1982 63.4987C76.4874 64.2662 76.9239 65.0364 76.9903 65.6937C77.0609 66.392 76.7499 67.2822 75.8651 68.3359C74.0934 70.4458 70.4599 72.6754 65.8723 74.3811C61.3162 76.0751 55.9584 77.2001 50.8554 77.2001C45.2113 77.2001 39.657 76.0712 35.0944 74.3807C30.4937 72.6761 27.0455 70.4547 25.4671 68.3745C24.6866 67.3457 24.4516 66.4734 24.5783 65.7704C24.7027 65.0799 25.2257 64.2825 26.5673 63.5045Z" stroke="white" stroke-width="2"/>
<line x1="21.1055" y1="41.5918" x2="7.97504" y2="41.5918" stroke="white" stroke-width="2" stroke-linecap="round"/>
<path d="M11.7549 35.7568L5.97275 41.539L11.7549 47.3211" stroke="white" stroke-width="2" stroke-linecap="round"/>
</svg>
