<svg width="80" height="80" viewBox="0 0 80 80" fill="none" xmlns="http://www.w3.org/2000/svg">
<path d="M33.2754 23.6582L28.5865 24.0557" stroke="white" stroke-width="2" stroke-linecap="round"/>
<path d="M43.9521 23.6582L48.641 24.0557" stroke="white" stroke-width="2" stroke-linecap="round"/>
<path d="M38.209 38.5285L40.8869 36.7396C41.2786 36.4779 41.3828 35.9499 41.1465 35.5419C39.9683 33.5094 39.5245 31.5477 39.6307 28.499" stroke="white" stroke-width="2" stroke-linecap="round"/>
<path d="M40.6152 46.0908C40.6152 46.0908 38.7033 46.9093 36.2262 46.9093C33.7491 46.9093 31.8373 46.0908 31.8373 46.0908" stroke="white" stroke-width="2" stroke-linecap="round"/>
<path d="M31.4026 33.5815C30.3893 33.5815 29.5679 32.7601 29.5679 31.7468C29.5679 30.7335 30.3893 29.9121 31.4026 29.9121C32.4159 29.9121 33.2373 30.7335 33.2373 31.7468C33.2373 32.7601 32.4159 33.5815 31.4026 33.5815Z" fill="white"/>
<path d="M46.0071 33.5815C44.9938 33.5815 44.1724 32.7601 44.1724 31.7468C44.1724 30.7335 44.9938 29.9121 46.0071 29.9121C47.0204 29.9121 47.8418 30.7335 47.8418 31.7468C47.8418 32.7601 47.0204 33.5815 46.0071 33.5815Z" fill="white"/>
<path d="M10.7272 24.2287V25.1799M44.2545 15.7842C48.7026 15.7842 48.7007 20.3051 48.6576 21.6196V25.1799M10.7272 35.3765V36.8274C10.7272 46.811 19.2182 54.9043 29.6924 54.9043C40.1666 54.9043 48.6576 46.811 48.6576 36.8274V35.3765M10.7272 35.3765C10.7272 35.3765 6.72633 34.6459 6.72633 30.2782C6.72633 26.3751 10.7272 25.1799 10.7272 25.1799M10.7272 35.3765C10.7272 35.3765 13.635 34.5922 13.635 30.2782C13.635 25.9642 10.7272 25.1799 10.7272 25.1799M48.6576 25.1799V35.3765M48.6576 25.1799C48.6576 25.1799 48.6577 25.6444 48.6577 30.2782C48.6577 34.9966 48.6576 35.3765 48.6576 35.3765" stroke="white" stroke-width="2"/>
<path d="M17.5643 5.84596V4.76578C10.2261 4.76578 9.59809 8.84651 9.47261 10.8869V24.8578C15.7731 24.8578 17.4923 20.705 17.5643 18.6286V12.8679M17.5643 5.84596V12.8679M17.5643 5.84596C24.8906 2.49726 41.1345 -1.51801 47.5316 9.76363C48.418 11.5004 47.8026 11.8649 47.8026 11.8649M17.5643 12.8679C19.5649 14.9683 24.8845 19.2052 30.1601 19.3492C36.7544 19.5293 41.0879 15.7125 45.3083 15.7845C48.6847 15.8421 49.5036 16.8647 49.4911 17.3688C49.9057 15.8514 49.8866 13.2685 47.8026 11.8649M47.8026 11.8649C46.919 11.2699 45.6643 10.8869 43.9141 10.8869C36.5661 10.8869 37.7719 13.372 31.9311 9.3032" stroke="white" stroke-width="2" stroke-linecap="round" stroke-linejoin="round"/>
<path d="M23.9189 60.9766C24.6052 63.2217 26.7544 64.3917 29.1373 64.3743C31.5442 64.3567 33.8202 63.1237 34.6279 60.9481V54.3172C32.7627 54.754 31.1331 54.9804 29.4472 54.9805C27.7294 54.9807 25.989 54.7457 23.9189 54.293V60.9766Z" stroke="white" stroke-width="2"/>
<path d="M53.4327 63.5045C50.7642 61.9569 45.4002 60.8138 36.3059 60.7598C35.0039 63.6 31.9849 64.9924 29.1519 65.0131C26.3384 65.0337 23.3836 63.6979 22.2032 60.7598C17.64 60.7865 13.9984 61.0684 11.1552 61.537C8.15206 62.0318 6.10106 62.7251 4.80176 63.4987C3.51256 64.2662 3.07605 65.0364 3.00965 65.6937C2.93905 66.392 3.25006 67.2822 4.13486 68.3359C5.90656 70.4458 9.54005 72.6754 14.1277 74.3811C18.6838 76.0751 24.0416 77.2001 29.1446 77.2001C34.7887 77.2001 40.343 76.0712 44.9056 74.3807C49.5063 72.6761 52.9545 70.4547 54.5329 68.3745C55.3134 67.3457 55.5484 66.4734 55.4217 65.7704C55.2973 65.0799 54.7743 64.2825 53.4327 63.5045Z" stroke="white" stroke-width="2"/>
<line x1="1" y1="-1" x2="14.1304" y2="-1" transform="matrix(1 8.74226e-08 8.74226e-08 -1 57.8945 40.5918)" stroke="white" stroke-width="2" stroke-linecap="round"/>
<path d="M68.2451 35.7568L74.0272 41.539L68.2451 47.3211" stroke="white" stroke-width="2" stroke-linecap="round"/>
</svg>
