<svg id="ejc8invvy991" xmlns="http://www.w3.org/2000/svg" xmlns:xlink="http://www.w3.org/1999/xlink" viewBox="0 0 342 196" shape-rendering="geometricPrecision" text-rendering="geometricPrecision"><style><![CDATA[#ejc8invvy992 {animation: ejc8invvy992_c_o 6000ms linear infinite normal forwards}@keyframes ejc8invvy992_c_o { 0% {opacity: 0} 3.333333% {opacity: 1} 96.666667% {opacity: 1} 100% {opacity: 0} }#ejc8invvy993_to {animation: ejc8invvy993_to__to 6000ms linear infinite normal forwards}@keyframes ejc8invvy993_to__to { 0% {transform: translate(40.344587px,22.635773px)} 6.666667% {transform: translate(40.344587px,22.635773px)} 16.666667% {transform: translate(40.344587px,22.635773px);animation-timing-function: cubic-bezier(0.420000,0,0.580000,1)} 21.666667% {transform: translate(-119.579356px,-86.189747px)} 100% {transform: translate(-119.579356px,-86.189747px)} }#ejc8invvy993_ts {animation: ejc8invvy993_ts__ts 6000ms linear infinite normal forwards}@keyframes ejc8invvy993_ts__ts { 0% {transform: scale(0.765746,0.765746)} 6.666667% {transform: scale(0.765746,0.765746)} 16.666667% {transform: scale(0.765746,0.765746);animation-timing-function: cubic-bezier(0.420000,0,0.580000,1)} 21.666667% {transform: scale(1.703030,1.703030)} 100% {transform: scale(1.703030,1.703030)} }#ejc8invvy999 {animation: ejc8invvy999_f_o 6000ms linear infinite normal forwards}@keyframes ejc8invvy999_f_o { 0% {fill-opacity: 0.100000} 6.666667% {fill-opacity: 0.100000} 16.666667% {fill-opacity: 0.100000} 21.666667% {fill-opacity: 0} 100% {fill-opacity: 0} }#ejc8invvy9913_to {animation: ejc8invvy9913_to__to 6000ms linear infinite normal forwards}@keyframes ejc8invvy9913_to__to { 0% {transform: translate(122.930771px,9.696299px)} 6.666667% {transform: translate(122.930771px,9.696299px)} 16.666667% {transform: translate(122.930771px,9.696299px)} 21.666667% {transform: translate(72.449379px,-105.691893px)} 100% {transform: translate(72.449379px,-105.691893px)} }#ejc8invvy9913_ts {animation: ejc8invvy9913_ts__ts 6000ms linear infinite normal forwards}@keyframes ejc8invvy9913_ts__ts { 0% {transform: scale(0.516486,0.511906)} 6.666667% {transform: scale(0.516486,0.511906)} 16.666667% {transform: scale(0.516486,0.511906)} 21.666667% {transform: scale(1.123075,1.123075)} 100% {transform: scale(1.123075,1.123075)} }#ejc8invvy9913 {animation: ejc8invvy9913_c_o 6000ms linear infinite normal forwards}@keyframes ejc8invvy9913_c_o { 0% {opacity: 1} 25% {opacity: 1} 30% {opacity: 0} 100% {opacity: 0} }#ejc8invvy9920_to {animation: ejc8invvy9920_to__to 6000ms linear infinite normal forwards}@keyframes ejc8invvy9920_to__to { 0% {transform: translate(133.334041px,61.537931px)} 23.333333% {transform: translate(133.334041px,61.537931px);animation-timing-function: cubic-bezier(0.445000,0.050000,0.550000,0.950000)} 27.833333% {transform: translate(110.693580px,43.185919px);animation-timing-function: cubic-bezier(0.445000,0.050000,0.550000,0.950000)} 31.666667% {transform: translate(108.723239px,60.250640px);animation-timing-function: cubic-bezier(0.110000,0.660000,0.225000,0.870000)} 38.333333% {transform: translate(100.394456px,67.771520px);animation-timing-function: cubic-bezier(0.110000,0.660000,0.225000,0.870000)} 46.666667% {transform: translate(113.580301px,43.185919px);animation-timing-function: cubic-bezier(0.110000,0.660000,0.225000,0.870000)} 56.666667% {transform: translate(102.659741px,39.445391px)} 100% {transform: translate(102.659741px,39.445391px)} }#ejc8invvy9920_ts {animation: ejc8invvy9920_ts__ts 6000ms linear infinite normal forwards}@keyframes ejc8invvy9920_ts__ts { 0% {transform: scale(0.180061,0.180061)} 23.333333% {transform: scale(0.180061,0.180061);animation-timing-function: cubic-bezier(0.445000,0.050000,0.550000,0.950000)} 27.833333% {transform: scale(0.294318,0.294318);animation-timing-function: cubic-bezier(0.445000,0.050000,0.550000,0.950000)} 31.666667% {transform: scale(0.294318,0.294318);animation-timing-function: cubic-bezier(0.110000,0.660000,0.225000,0.870000)} 38.333333% {transform: scale(0.294318,0.294318);animation-timing-function: cubic-bezier(0.110000,0.660000,0.225000,0.870000)} 46.666667% {transform: scale(0.294318,0.294318);animation-timing-function: cubic-bezier(0.110000,0.660000,0.225000,0.870000)} 56.666667% {transform: scale(0.327556,0.327556)} 100% {transform: scale(0.327556,0.327556)} }#ejc8invvy9920 {animation: ejc8invvy9920_c_o 6000ms linear infinite normal forwards}@keyframes ejc8invvy9920_c_o { 0% {opacity: 0} 23.333333% {opacity: 0;animation-timing-function: cubic-bezier(0.445000,0.050000,0.550000,0.950000)} 27.833333% {opacity: 1;animation-timing-function: cubic-bezier(0.445000,0.050000,0.550000,0.950000)} 31.666667% {opacity: 1} 100% {opacity: 1} }#ejc8invvy9945_to {animation: ejc8invvy9945_to__to 6000ms linear infinite normal forwards}@keyframes ejc8invvy9945_to__to { 0% {transform: translate(14.398488px,-3.680645px)} 6.666667% {transform: translate(14.398488px,-3.680645px)} 16.666667% {transform: translate(14.398488px,-3.680645px)} 21.666667% {transform: translate(-148.905040px,-118.148127px)} 66% {transform: translate(-148.905040px,-118.148127px);animation-timing-function: cubic-bezier(0.420000,0,0.580000,1)} 69.666667% {transform: translate(-128.974542px,-101.041792px);animation-timing-function: cubic-bezier(0.420000,0,0.580000,1)} 71.333333% {transform: translate(-148.905040px,-118.148127px)} 100% {transform: translate(-148.905040px,-118.148127px)} }#ejc8invvy9945_ts {animation: ejc8invvy9945_ts__ts 6000ms linear infinite normal forwards}@keyframes ejc8invvy9945_ts__ts { 0% {transform: scale(0.919164,0.919164)} 6.666667% {transform: scale(0.919164,0.919164)} 16.666667% {transform: scale(0.919164,0.919164)} 21.666667% {transform: scale(1.904700,1.904700)} 66% {transform: scale(1.904700,1.904700);animation-timing-function: cubic-bezier(0.420000,0,0.580000,1)} 69.666667% {transform: scale(1.781808,1.781808);animation-timing-function: cubic-bezier(0.420000,0,0.580000,1)} 71.333333% {transform: scale(1.904700,1.904700)} 100% {transform: scale(1.904700,1.904700)} }#ejc8invvy9948_to {animation: ejc8invvy9948_to__to 6000ms linear infinite normal forwards}@keyframes ejc8invvy9948_to__to { 0% {transform: translate(0px,0px)} 6.666667% {transform: translate(0px,0px)} 16.666667% {transform: translate(0px,0px)} 21.666667% {transform: translate(-142.028534px,-94.255386px)} 100% {transform: translate(-142.028534px,-94.255386px)} }#ejc8invvy9948_ts {animation: ejc8invvy9948_ts__ts 6000ms linear infinite normal forwards}@keyframes ejc8invvy9948_ts__ts { 0% {transform: scale(1,1)} 6.666667% {transform: scale(1,1)} 16.666667% {transform: scale(1,1)} 21.666667% {transform: scale(1.847953,1.847953)} 100% {transform: scale(1.847953,1.847953)} }#ejc8invvy9948 {animation: ejc8invvy9948_c_o 6000ms linear infinite normal forwards}@keyframes ejc8invvy9948_c_o { 0% {opacity: 1} 73.333333% {opacity: 1} 77% {opacity: 0} 100% {opacity: 0} }#ejc8invvy9951_to {animation: ejc8invvy9951_to__to 6000ms linear infinite normal forwards}@keyframes ejc8invvy9951_to__to { 0% {transform: translate(161.671239px,115.411867px)} 71.166667% {transform: translate(161.671239px,115.411867px);animation-timing-function: cubic-bezier(0.420000,0,0.580000,1)} 73.666667% {transform: translate(147.742670px,100.791516px);animation-timing-function: cubic-bezier(0.420000,0,0.580000,1)} 75.166667% {transform: translate(152.595155px,105.903431px)} 100% {transform: translate(152.595155px,105.903431px)} }#ejc8invvy9951_ts {animation: ejc8invvy9951_ts__ts 6000ms linear infinite normal forwards}@keyframes ejc8invvy9951_ts__ts { 0% {transform: scale(0.194142,0.194142)} 71.166667% {transform: scale(0.194142,0.194142);animation-timing-function: cubic-bezier(0.420000,0,0.580000,1)} 73.666667% {transform: scale(0.448409,0.448409);animation-timing-function: cubic-bezier(0.420000,0,0.580000,1)} 75.166667% {transform: scale(0.359506,0.359506)} 100% {transform: scale(0.359506,0.359506)} }#ejc8invvy9951 {animation: ejc8invvy9951_c_o 6000ms linear infinite normal forwards}@keyframes ejc8invvy9951_c_o { 0% {opacity: 0} 71.166667% {opacity: 0;animation-timing-function: cubic-bezier(0.420000,0,0.580000,1)} 73.666667% {opacity: 1;animation-timing-function: cubic-bezier(0.420000,0,0.580000,1)} 75.166667% {opacity: 1} 100% {opacity: 1} }#ejc8invvy9955_to {animation: ejc8invvy9955_to__to 6000ms linear infinite normal forwards}@keyframes ejc8invvy9955_to__to { 0% {offset-distance: 0%} 53.666667% {offset-distance: 0%;animation-timing-function: cubic-bezier(0.470000,0,0.745000,0.715000)} 59.833333% {offset-distance: 100%} 100% {offset-distance: 100%} }]]></style><g id="ejc8invvy992" opacity="0"><g id="ejc8invvy993_to" transform="translate(40.344587,22.635773)"><g id="ejc8invvy993_ts" transform="scale(0.765746,0.765746)"><g id="ejc8invvy993" display="none" transform="translate(0,0)"><path id="ejc8invvy994" d="M26.312500,8C26.312500,3.857870,29.670400,0.500000,33.812500,0.500000L307.437000,0.500000C311.580000,0.500000,314.937000,3.857860,314.937000,8L314.937000,187.187000L26.312500,187.187000L26.312500,8Z" transform="matrix(1 0 0 1 -0.12474999999997 0.09584607766604)" fill="rgb(255,255,255)" stroke="rgb(156,119,224)" stroke-width="1"/><rect id="ejc8invvy995" width="279" height="174" rx="0" ry="0" transform="matrix(1 0 0 1 31.12500000000000 8.81258000000000)" fill="none" stroke="rgb(156,119,224)" stroke-width="1"/><path id="ejc8invvy996" d="M0.514903,187.750000C0.773367,192.074000,4.361540,195.500000,8.750000,195.500000L332.500000,195.500000C336.888000,195.500000,340.477000,192.074000,340.735000,187.750000L0.514903,187.750000Z" fill="rgb(255,255,255)" stroke="rgb(156,119,224)" stroke-width="1"/><path id="ejc8invvy997" d="M130.907000,187.750000C131.152000,189.654000,132.779000,191.125000,134.750000,191.125000L206.500000,191.125000C208.471000,191.125000,210.098000,189.654000,210.343000,187.750000L130.907000,187.750000Z" fill="none" stroke="rgb(156,119,224)" stroke-width="1"/><circle id="ejc8invvy998" r="1.687500" transform="matrix(1 0 0 1 169.50000000000000 4.94606500000000)" fill="none" stroke="rgb(156,119,224)" stroke-width="1"/><rect id="ejc8invvy999" width="127" height="74" rx="0" ry="0" transform="matrix(1 0 0 1 107.50000000000000 58.50000000000000)" fill="rgb(156,119,224)" fill-opacity="0.1" stroke="rgb(156,119,224)" stroke-width="0"/><rect id="ejc8invvy9910" width="74" height="3" rx="1.500000" ry="1.500000" transform="matrix(1 0 0 1 134 34)" fill="rgb(156,119,224)" stroke="none" stroke-width="1"/><rect id="ejc8invvy9911" width="56" height="2" rx="1" ry="1" transform="matrix(1 0 0 1 143 41)" opacity="0.4" fill="rgb(156,119,224)" stroke="none" stroke-width="1"/><rect id="ejc8invvy9912" width="42" height="2" rx="1" ry="1" transform="matrix(1 0 0 1 150 45)" opacity="0.4" fill="rgb(156,119,224)" stroke="none" stroke-width="1"/></g></g></g><g id="ejc8invvy9913_to" transform="translate(122.930771,9.696299)"><g id="ejc8invvy9913_ts" transform="scale(0.516486,0.511906)"><g id="ejc8invvy9913" transform="translate(0,0)"><rect id="ejc8invvy9914" width="327.744825" height="215.861515" rx="0" ry="0" transform="matrix(0.51259390530977 0 0 0.53523042123050 6.00000000396146 108.30679403588265)" fill="rgb(156,119,224)" fill-opacity="0.1" stroke="none" stroke-width="1"/><path id="ejc8invvy9915" d="M30,70.423100C30,69.084800,31.084800,68,32.423100,68L147.115000,68C148.454000,68,149.538000,69.084800,149.538000,70.423100L149.538000,70.423100C149.538000,71.761300,148.454000,72.846200,147.115000,72.846200L32.423100,72.846200C31.084900,72.846200,30,71.761300,30,70.423100L30,70.423100Z" fill="rgb(156,119,224)" stroke="none" stroke-width="1"/><path id="ejc8invvy9916" d="M44.538600,80.923100C44.538600,80.030900,45.261800,79.307700,46.154000,79.307700L133.385000,79.307700C134.277000,79.307700,135,80.030900,135,80.923100L135,80.923100C135,81.815200,134.277000,82.538400,133.385000,82.538400L46.154000,82.538400C45.261800,82.538400,44.538600,81.815200,44.538600,80.923100L44.538600,80.923100Z" opacity="0.4" fill="rgb(156,119,224)" stroke="none" stroke-width="1"/><path id="ejc8invvy9917" d="M55.846200,87.384600C55.846200,86.492500,56.569400,85.769200,57.461600,85.769200L122.077000,85.769200C122.969000,85.769200,123.692000,86.492500,123.692000,87.384600L123.692000,87.384600C123.692000,88.276800,122.969000,89,122.077000,89L57.461600,89C56.569400,89,55.846200,88.276800,55.846200,87.384600L55.846200,87.384600Z" opacity="0.4" fill="rgb(156,119,224)" stroke="none" stroke-width="1"/><path id="ejc8invvy9918" d="M160,1L20,1C9.506590,1,1,9.506590,1,20L1,325C1,335.493000,9.506590,344,20,344L160,344C170.493000,344,179,335.493000,179,325L179,20C179,9.506590,170.493000,1,160,1ZM20,0C8.954310,0,0,8.954300,0,20L0,325C0,336.046000,8.954300,345,20,345L160,345C171.046000,345,180,336.046000,180,325L180,20C180,8.954310,171.046000,0,160,0L20,0Z" clip-rule="evenodd" fill="rgb(156,119,224)" fill-rule="evenodd" stroke="none" stroke-width="1"/><path id="ejc8invvy9919" d="M158,7L22,7C13.715700,7,7,13.715700,7,22L7,323C7,331.284000,13.715700,338,22,338L158,338C166.284000,338,173,331.284000,173,323L173,22C173,13.715700,166.284000,7,158,7ZM22,6C13.163400,6,6,13.163400,6,22L6,323C6,331.837000,13.163400,339,22,339L158,339C166.837000,339,174,331.837000,174,323L174,22C174,13.163400,166.837000,6,158,6L22,6Z" clip-rule="evenodd" fill="rgb(156,119,224)" fill-rule="evenodd" stroke="none" stroke-width="1"/></g></g></g><g id="ejc8invvy9920_to" transform="translate(133.334041,61.537931)"><g id="ejc8invvy9920_ts" transform="scale(0.180061,0.180061)"><g id="ejc8invvy9920" transform="translate(0,0)" opacity="0"><rect id="ejc8invvy9921" width="412.634000" height="259" rx="22" ry="22" fill="rgb(243,247,251)" stroke="none" stroke-width="1"/><rect id="ejc8invvy9922" width="413" height="33" rx="0" ry="0" transform="matrix(1 0 0 1 0 20)" opacity="0.3" fill="rgb(206,211,221)" stroke="none" stroke-width="1"/><rect id="ejc8invvy9923" width="413" height="60" rx="0" ry="0" transform="matrix(1 0 0 1 0 169)" opacity="0.3" fill="rgb(206,211,221)" stroke="none" stroke-width="1"/><rect id="ejc8invvy9924" width="413" height="11" rx="0" ry="0" transform="matrix(1 0 0 1 0 60)" opacity="0.3" fill="rgb(206,211,221)" stroke="none" stroke-width="1"/><rect id="ejc8invvy9925" width="126.557000" height="160.698000" rx="20" ry="20" transform="matrix(1 0 0 1 24.13400000000000 47.67960000000000)" fill="rgb(206,211,221)" stroke="none" stroke-width="1"/><path id="ejc8invvy9926" d="M43.373800,79.785100C51.908100,58.589700,75.581100,54.655700,86.707200,55.022500C105.408000,55.022500,123.490000,62.062200,130.626000,79.785100C138.824000,100.145000,133.554000,107.299000,132.969000,122.157000C132.884000,124.304000,135.387000,124.672000,136.482000,126.559000C139.410000,131.603000,138.336000,147.424000,131.212000,150.771000C128.869000,151.872000,125.356000,152.422000,125.356000,156.824000C125.356000,162.877000,119.389000,175.968000,114.815000,179.936000C107.203000,186.539000,115.401000,208,115.401000,208L58.599200,208C58.599200,208,66.797400,186.539000,59.184800,179.936000C54.610700,175.968000,48.644200,162.877000,48.644200,156.824000C48.644200,152.422000,45.130800,151.872000,42.788400,150.771000C35.664300,147.424000,34.590500,131.603000,37.518100,126.559000C38.613000,124.672000,41.116100,124.304000,41.031500,122.157000C40.446100,107.299000,35.175800,100.145000,43.373800,79.785100Z" fill="rgb(137,143,154)" stroke="none" stroke-width="1"/><rect id="ejc8invvy9927" width="33" height="5" rx="2.500000" ry="2.500000" transform="matrix(1 0 0 1 163 49)" fill="rgb(206,211,221)" stroke="none" stroke-width="1"/><rect id="ejc8invvy9928" width="50" height="5" rx="2.500000" ry="2.500000" transform="matrix(1 0 0 1 163 146)" fill="rgb(206,211,221)" stroke="none" stroke-width="1"/><rect id="ejc8invvy9929" width="71" height="5" rx="2.500000" ry="2.500000" transform="matrix(1 0 0 1 25 240)" fill="rgb(206,211,221)" stroke="none" stroke-width="1"/><rect id="ejc8invvy9930" width="67" height="5" rx="2.500000" ry="2.500000" transform="matrix(1 0 0 1 163 170)" fill="rgb(206,211,221)" stroke="none" stroke-width="1"/><rect id="ejc8invvy9931" width="15" height="5" rx="2.500000" ry="2.500000" transform="matrix(1 0 0 1 258 112)" fill="rgb(206,211,221)" stroke="none" stroke-width="1"/><rect id="ejc8invvy9932" width="41" height="5" rx="2.500000" ry="2.500000" transform="matrix(1 0 0 1 308 112)" fill="rgb(206,211,221)" stroke="none" stroke-width="1"/><rect id="ejc8invvy9933" width="48" height="5" rx="2.500000" ry="2.500000" transform="matrix(1 0 0 1 308 136)" fill="rgb(206,211,221)" stroke="none" stroke-width="1"/><rect id="ejc8invvy9934" width="41" height="5" rx="2.500000" ry="5" transform="matrix(1 0 0 1 308 162)" fill="rgb(206,211,221)" stroke="none" stroke-width="1"/><rect id="ejc8invvy9935" width="33" height="5" rx="2.500000" ry="5" transform="matrix(1 0 0 1 163 69)" fill="rgb(206,211,221)" stroke="none" stroke-width="1"/><rect id="ejc8invvy9936" width="40" height="10" rx="5" ry="5" transform="matrix(1 0 0 1 163 56)" fill="rgb(206,211,221)" stroke="none" stroke-width="1"/><rect id="ejc8invvy9937" width="64" height="10" rx="5" ry="5" transform="matrix(1 0 0 1 163 153)" fill="rgb(206,211,221)" stroke="none" stroke-width="1"/><rect id="ejc8invvy9938" width="370" height="15" rx="8" ry="8" transform="matrix(1 0 0 1 25 217)" fill="rgb(206,211,221)" stroke="none" stroke-width="1"/><rect id="ejc8invvy9939" width="67" height="10" rx="5" ry="5" transform="matrix(1 0 0 1 163 177)" fill="rgb(206,211,221)" stroke="none" stroke-width="1"/><rect id="ejc8invvy9940" width="27" height="10" rx="5" ry="5" transform="matrix(1 0 0 1 258 119)" fill="rgb(206,211,221)" stroke="none" stroke-width="1"/><rect id="ejc8invvy9941" width="24" height="10" rx="5" ry="5" transform="matrix(1 0 0 1 308 119)" fill="rgb(206,211,221)" stroke="none" stroke-width="1"/><rect id="ejc8invvy9942" width="64" height="10" rx="5" ry="5" transform="matrix(1 0 0 1 308 143)" fill="rgb(206,211,221)" stroke="none" stroke-width="1"/><rect id="ejc8invvy9943" width="80" height="10" rx="5" ry="5" transform="matrix(1 0 0 1 308 169)" fill="rgb(206,211,221)" stroke="none" stroke-width="1"/><rect id="ejc8invvy9944" width="93" height="10" rx="5" ry="5" transform="matrix(1 0 0 1 163 76)" fill="rgb(206,211,221)" stroke="none" stroke-width="1"/></g></g></g><g id="ejc8invvy9945_to" transform="translate(14.398488,-3.680645)"><g id="ejc8invvy9945_ts" transform="scale(0.919164,0.919164)"><g id="ejc8invvy9945" transform="translate(0,0)"><rect id="ejc8invvy9946" width="53" height="14" rx="7" ry="7" transform="matrix(1 0 0 1 143 143.99999999706407)" fill="rgb(156,119,224)" stroke="none" stroke-width="1"/><rect id="ejc8invvy9947" width="35" height="4" rx="2" ry="2" transform="matrix(1 0 0 1 152 148.99999999347042)" opacity="0.2" fill="rgb(255,255,255)" stroke="none" stroke-width="1"/></g></g></g><g id="ejc8invvy9948_to" transform="translate(0,0)"><g id="ejc8invvy9948_ts" transform="scale(1,1)"><g id="ejc8invvy9948" transform="translate(0,0)"><rect id="ejc8invvy9949" width="25.694900" height="29.720300" rx="5" ry="5" transform="matrix(1 0 0 1 133.30518031500003 79.82200000000000)" fill="none" stroke="rgb(156,119,224)" stroke-width="1"/><rect id="ejc8invvy9950" width="78.237300" height="49" rx="3" ry="3" transform="matrix(1 0 0 1 129.91518031500004 70.50000000000000)" fill="none" stroke="rgb(156,119,224)" stroke-width="1"/></g></g></g><g id="ejc8invvy9951_to" transform="translate(161.671239,115.411867)"><g id="ejc8invvy9951_ts" transform="scale(0.194142,0.194142)"><g id="ejc8invvy9951" transform="translate(0,0)" opacity="0"><rect id="ejc8invvy9952" width="115" height="115" rx="60" ry="60" fill="rgb(71,218,174)" stroke="none" stroke-width="1"/><rect id="ejc8invvy9953" width="6.052630" height="26.170700" rx="3.026320" ry="0" transform="matrix(0.70710700000000 -0.70710700000000 0.70710700000000 0.70710700000000 35.78388788810000 56.92439553350001)" fill="rgb(255,255,255)" stroke="none" stroke-width="1"/><rect id="ejc8invvy9954" width="6.052630" height="42.056300" rx="3.026320" ry="0" transform="matrix(0.70710700000000 0.70710700000000 -0.70710700000000 0.70710700000000 79.74803679480002 41.41160127720002)" fill="rgb(255,255,255)" stroke="none" stroke-width="1"/></g></g></g><g id="ejc8invvy9955_to" style="offset-path:path('M241.367919,198.089065C232.736431,176.545885,206.161123,176.520414,166.766857,171.518244');offset-rotate:0deg"><g id="ejc8invvy9955" transform="scale(0.449494,0.449494) translate(0,0)"><path id="ejc8invvy9956" d="M9.952560,22.255200C9.434090,21.546900,8.915620,20.307400,7.878680,18.713800C7.360220,17.828500,5.804810,16.057800,5.286340,15.349600C4.940700,14.641300,4.940700,14.287200,5.113520,13.578900C5.286340,12.516500,6.323280,11.631200,7.533040,11.631200C8.397150,11.631200,9.261270,12.339400,9.952560,12.870600C10.298200,13.224800,10.816700,13.933000,11.162300,14.287200C11.508000,14.641300,11.508000,14.818400,11.853600,15.172500C12.199300,15.703700,12.372100,16.057800,12.199300,15.349600C12.026400,14.464200,11.853600,13.047700,11.508000,11.631200C11.335100,10.568800,11.162300,10.391700,10.989500,9.683440C10.816700,8.798110,10.643800,8.266910,10.471000,7.381570C10.298200,6.850370,10.125400,5.433840,9.952560,4.725570C9.779730,3.840240,9.779740,2.246640,10.471000,1.538370C10.989500,1.007170,12.026400,0.830108,12.717700,1.184240C13.581800,1.715440,14.100300,2.954910,14.273100,3.486110C14.618800,4.371440,14.964400,5.610910,15.137200,7.027440C15.482900,8.798110,16.001400,11.454100,16.001400,11.985300C16.001400,11.277000,15.828500,10.037600,16.001400,9.329310C16.174200,8.798110,16.519800,8.089840,17.211100,7.912770C17.729600,7.735710,18.248000,7.735710,18.766500,7.735710C19.285000,7.912770,19.803500,8.266910,20.149100,8.621040C20.840400,9.683440,20.840400,11.985300,20.840400,11.808200C21.013200,11.100000,21.013200,9.683440,21.358900,8.975170C21.531700,8.621040,22.223000,8.266910,22.568600,8.089840C23.087100,7.912770,23.778400,7.912770,24.296800,8.089840C24.642500,8.089840,25.333800,8.621040,25.506600,8.975170C25.852300,9.506370,26.025100,11.277000,26.197900,11.985300C26.197900,12.162400,26.370700,11.277000,26.716400,10.745800C27.407700,9.683440,29.827200,9.329310,30,11.808200C30,13.047700,30,12.870600,30,13.756000C30,14.641300,30,15.172500,30,15.880800C30,16.589000,29.827200,18.182600,29.654400,18.890900C29.481500,19.422100,28.963100,20.661600,28.444600,21.369800C28.444600,21.369800,26.543500,23.494600,26.370700,24.557000C26.197900,25.619400,26.197900,25.619400,26.197900,26.327700C26.197900,27.036000,26.370700,27.921300,26.370700,27.921300C26.370700,27.921300,24.988100,28.098400,24.296800,27.921300C23.605600,27.744200,22.741400,26.504800,22.568600,25.973600C22.223000,25.442400,21.704500,25.442400,21.358900,25.973600C21.013200,26.681800,20.149100,27.921300,19.457800,27.921300C18.248000,28.098400,15.828500,27.921300,14.100300,27.921300C14.100300,27.921300,14.445900,26.150600,13.754700,25.442400C13.236200,24.911200,12.372100,24.025800,11.853600,23.494600L9.952560,22.255200Z" fill="rgb(255,255,255)" stroke="none" stroke-width="1"/><path id="ejc8invvy9957" d="M9.952560,22.255200C9.434090,21.546900,8.915620,20.307400,7.878680,18.713800C7.360220,17.828500,5.804810,16.057800,5.286340,15.349600C4.940700,14.641300,4.940700,14.287200,5.113520,13.578900C5.286340,12.516500,6.323280,11.631200,7.533040,11.631200C8.397150,11.631200,9.261270,12.339400,9.952560,12.870600C10.298200,13.224800,10.816700,13.933000,11.162300,14.287200C11.508000,14.641300,11.508000,14.818400,11.853600,15.172500C12.199300,15.703700,12.372100,16.057800,12.199300,15.349600C12.026400,14.464200,11.853600,13.047700,11.508000,11.631200C11.335100,10.568800,11.162300,10.391700,10.989500,9.683440C10.816700,8.798110,10.643800,8.266910,10.471000,7.381570C10.298200,6.850370,10.125400,5.433840,9.952560,4.725570C9.779730,3.840240,9.779740,2.246640,10.471000,1.538370C10.989500,1.007170,12.026400,0.830108,12.717700,1.184240C13.581800,1.715440,14.100300,2.954910,14.273100,3.486110C14.618800,4.371440,14.964400,5.610910,15.137200,7.027440C15.482900,8.798110,16.001400,11.454100,16.001400,11.985300C16.001400,11.277000,15.828500,10.037600,16.001400,9.329310C16.174200,8.798110,16.519800,8.089840,17.211100,7.912770C17.729600,7.735710,18.248000,7.735710,18.766500,7.735710C19.285000,7.912770,19.803500,8.266910,20.149100,8.621040C20.840400,9.683440,20.840400,11.985300,20.840400,11.808200C21.013200,11.100000,21.013200,9.683440,21.358900,8.975170C21.531700,8.621040,22.223000,8.266910,22.568600,8.089840C23.087100,7.912770,23.778400,7.912770,24.296800,8.089840C24.642500,8.089840,25.333800,8.621040,25.506600,8.975170C25.852300,9.506370,26.025100,11.277000,26.197900,11.985300C26.197900,12.162400,26.370700,11.277000,26.716400,10.745800C27.407700,9.683440,29.827200,9.329310,30,11.808200C30,13.047700,30,12.870600,30,13.756000C30,14.641300,30,15.172500,30,15.880800C30,16.589000,29.827200,18.182600,29.654400,18.890900C29.481500,19.422100,28.963100,20.661600,28.444600,21.369800C28.444600,21.369800,26.543500,23.494600,26.370700,24.557000C26.197900,25.619400,26.197900,25.619400,26.197900,26.327700C26.197900,27.036000,26.370700,27.921300,26.370700,27.921300C26.370700,27.921300,24.988100,28.098400,24.296800,27.921300C23.605600,27.744200,22.741400,26.504800,22.568600,25.973600C22.223000,25.442400,21.704500,25.442400,21.358900,25.973600C21.013200,26.681800,20.149100,27.921300,19.457800,27.921300C18.248000,28.098400,15.828500,27.921300,14.100300,27.921300C14.100300,27.921300,14.445900,26.150600,13.754700,25.442400C13.236200,24.911200,12.372100,24.025800,11.853600,23.494600L9.952560,22.255200Z" fill="none" stroke="rgb(0,0,0)" stroke-width="0.750000" stroke-linecap="round" stroke-linejoin="round"/><path id="ejc8invvy9958" d="M24.010500,22.956300L24.010500,16.936000" fill="none" stroke="rgb(0,0,0)" stroke-width="0.750000" stroke-linecap="round"/><path id="ejc8invvy9959" d="M20.726900,22.956300L20.554100,16.936000" fill="none" stroke="rgb(0,0,0)" stroke-width="0.750000" stroke-linecap="round"/><path id="ejc8invvy9960" d="M17.097500,16.936000L17.097500,22.956300" fill="none" stroke="rgb(0,0,0)" stroke-width="0.750000" stroke-linecap="round"/></g></g></g></svg>