<svg id="eqbmvkptnhtp1" xmlns="http://www.w3.org/2000/svg" xmlns:xlink="http://www.w3.org/1999/xlink" viewBox="0 0 342 196" shape-rendering="geometricPrecision" text-rendering="geometricPrecision"><style><![CDATA[#eqbmvkptnhtp2 {animation: eqbmvkptnhtp2_c_o 6000ms linear infinite normal forwards}@keyframes eqbmvkptnhtp2_c_o { 0% {opacity: 0} 3.333333% {opacity: 1} 96.666667% {opacity: 1} 100% {opacity: 0} }#eqbmvkptnhtp3_to {animation: eqbmvkptnhtp3_to__to 6000ms linear infinite normal forwards}@keyframes eqbmvkptnhtp3_to__to { 0% {transform: translate(40.344587px,22.635773px)} 6.666667% {transform: translate(40.344587px,22.635773px)} 16.666667% {transform: translate(40.344587px,22.635773px);animation-timing-function: cubic-bezier(0.420000,0,0.580000,1)} 21.666667% {transform: translate(-119.579356px,-86.189747px)} 100% {transform: translate(-119.579356px,-86.189747px)} }#eqbmvkptnhtp3_ts {animation: eqbmvkptnhtp3_ts__ts 6000ms linear infinite normal forwards}@keyframes eqbmvkptnhtp3_ts__ts { 0% {transform: scale(0.765746,0.765746)} 6.666667% {transform: scale(0.765746,0.765746)} 16.666667% {transform: scale(0.765746,0.765746);animation-timing-function: cubic-bezier(0.420000,0,0.580000,1)} 21.666667% {transform: scale(1.703030,1.703030)} 100% {transform: scale(1.703030,1.703030)} }#eqbmvkptnhtp9 {animation: eqbmvkptnhtp9_f_o 6000ms linear infinite normal forwards}@keyframes eqbmvkptnhtp9_f_o { 0% {fill-opacity: 0.100000} 6.666667% {fill-opacity: 0.100000} 16.666667% {fill-opacity: 0.100000} 21.666667% {fill-opacity: 0} 100% {fill-opacity: 0} }#eqbmvkptnhtp13_to {animation: eqbmvkptnhtp13_to__to 6000ms linear infinite normal forwards}@keyframes eqbmvkptnhtp13_to__to { 0% {transform: translate(123.924770px,3.649034px)} 3.333333% {transform: translate(123.924770px,3.649034px)} 16.666667% {transform: translate(123.924770px,3.649034px)} 23.333333% {transform: translate(70.111060px,-109.681718px)} 100% {transform: translate(70.111060px,-109.681718px)} }#eqbmvkptnhtp13_ts {animation: eqbmvkptnhtp13_ts__ts 6000ms linear infinite normal forwards}@keyframes eqbmvkptnhtp13_ts__ts { 0% {transform: scale(0.523058,0.523058)} 3.333333% {transform: scale(0.523058,0.523058)} 16.666667% {transform: scale(0.523058,0.523058)} 23.333333% {transform: scale(1.126214,1.126214)} 100% {transform: scale(1.126214,1.126214)} }#eqbmvkptnhtp13 {animation: eqbmvkptnhtp13_c_o 6000ms linear infinite normal forwards}@keyframes eqbmvkptnhtp13_c_o { 0% {opacity: 1} 23.333333% {opacity: 1} 30% {opacity: 0} 100% {opacity: 0} }#eqbmvkptnhtp20_to {animation: eqbmvkptnhtp20_to__to 6000ms linear infinite normal forwards}@keyframes eqbmvkptnhtp20_to__to { 0% {transform: translate(0px,0px)} 6.666667% {transform: translate(0px,0px)} 16.666667% {transform: translate(0px,0px)} 21.666667% {transform: translate(-147.419657px,-89.849918px)} 23.333333% {transform: translate(-192.452854px,-119.227477px)} 100% {transform: translate(-192.452854px,-119.227477px)} }#eqbmvkptnhtp20_ts {animation: eqbmvkptnhtp20_ts__ts 6000ms linear infinite normal forwards}@keyframes eqbmvkptnhtp20_ts__ts { 0% {transform: scale(1,1)} 6.666667% {transform: scale(1,1)} 16.666667% {transform: scale(1,1)} 21.666667% {transform: scale(1.859666,1.845697)} 23.333333% {transform: scale(2.122673,2.122673)} 100% {transform: scale(2.122673,2.122673)} }#eqbmvkptnhtp20 {animation: eqbmvkptnhtp20_c_o 6000ms linear infinite normal forwards}@keyframes eqbmvkptnhtp20_c_o { 0% {opacity: 1} 73.333333% {opacity: 1} 77% {opacity: 0} 100% {opacity: 0} }#eqbmvkptnhtp23_to {animation: eqbmvkptnhtp23_to__to 6000ms linear infinite normal forwards}@keyframes eqbmvkptnhtp23_to__to { 0% {transform: translate(170.536855px,39.574505px)} 33.500000% {transform: translate(170.536855px,39.574505px)} 36.666667% {transform: translate(110.223239px,39.656170px);animation-timing-function: cubic-bezier(0.420000,0,0.580000,1)} 40.166667% {transform: translate(110.223239px,40.502144px);animation-timing-function: cubic-bezier(0.420000,0,0.580000,1)} 45% {transform: translate(130.606973px,58.367976px);animation-timing-function: cubic-bezier(0.420000,0,0.580000,1)} 50% {transform: translate(88.165562px,23.403846px)} 55% {transform: translate(96.552077px,35.059622px)} 100% {transform: translate(96.552077px,35.059622px)} }#eqbmvkptnhtp23_tk {animation: eqbmvkptnhtp23_tk__tk 6000ms linear infinite normal forwards}@keyframes eqbmvkptnhtp23_tk__tk { 0% {transform: skewX(0deg) skewY(10deg)} 33.500000% {transform: skewX(0deg) skewY(10deg);animation-timing-function: cubic-bezier(0.420000,0,0.580000,1)} 36.666667% {transform: skewX(0deg) skewY(0deg)} 40.166667% {transform: skewX(0deg) skewY(0deg)} 100% {transform: skewX(0deg) skewY(0deg)} }#eqbmvkptnhtp23_ts {animation: eqbmvkptnhtp23_ts__ts 6000ms linear infinite normal forwards}@keyframes eqbmvkptnhtp23_ts__ts { 0% {transform: scale(0.002243,0.294318)} 33.500000% {transform: scale(0.002243,0.294318);animation-timing-function: cubic-bezier(0.420000,0,0.580000,1)} 36.666667% {transform: scale(0.294318,0.294318);animation-timing-function: cubic-bezier(0.110000,0.660000,0.225000,0.870000)} 40.166667% {transform: scale(0.294318,0.294318);animation-timing-function: cubic-bezier(0.110000,0.660000,0.225000,0.870000)} 45% {transform: scale(0.294318,0.294318);animation-timing-function: cubic-bezier(0.110000,0.660000,0.225000,0.870000)} 50% {transform: scale(0.358499,0.366778)} 55% {transform: scale(0.360050,0.360050)} 100% {transform: scale(0.360050,0.360050)} }#eqbmvkptnhtp23 {animation: eqbmvkptnhtp23_c_o 6000ms linear infinite normal forwards}@keyframes eqbmvkptnhtp23_c_o { 0% {opacity: 0} 33.333333% {opacity: 0} 33.666667% {opacity: 1} 100% {opacity: 1} }#eqbmvkptnhtp37_to {animation: eqbmvkptnhtp37_to__to 6000ms linear infinite normal forwards}@keyframes eqbmvkptnhtp37_to__to { 0% {transform: translate(133.817470px,55.386257px)} 23.333333% {transform: translate(133.817470px,55.386257px);animation-timing-function: cubic-bezier(0.420000,0,0.580000,1)} 28.333333% {transform: translate(110.223239px,41.007324px);animation-timing-function: cubic-bezier(0.420000,0,0.580000,1)} 33.333333% {transform: translate(170.536855px,40.925659px)} 100% {transform: translate(170.536855px,40.925659px)} }#eqbmvkptnhtp37_tk {animation: eqbmvkptnhtp37_tk__tk 6000ms linear infinite normal forwards}@keyframes eqbmvkptnhtp37_tk__tk { 0% {transform: skewX(0deg) skewY(0deg)} 23.333333% {transform: skewX(0deg) skewY(0deg);animation-timing-function: cubic-bezier(0.420000,0,0.580000,1)} 30% {transform: skewX(0deg) skewY(0deg);animation-timing-function: cubic-bezier(0.420000,0,0.580000,1)} 33.333333% {transform: skewX(0deg) skewY(10deg)} 100% {transform: skewX(0deg) skewY(10deg)} }#eqbmvkptnhtp37_ts {animation: eqbmvkptnhtp37_ts__ts 6000ms linear infinite normal forwards}@keyframes eqbmvkptnhtp37_ts__ts { 0% {transform: scale(0.180061,0.180061)} 23.333333% {transform: scale(0.180061,0.180061);animation-timing-function: cubic-bezier(0.420000,0,0.580000,1)} 28.333333% {transform: scale(0.294318,0.294318);animation-timing-function: cubic-bezier(0.420000,0,0.580000,1)} 33.333333% {transform: scale(0.002243,0.294318)} 100% {transform: scale(0.002243,0.294318)} }#eqbmvkptnhtp37 {animation: eqbmvkptnhtp37_c_o 6000ms linear infinite normal forwards}@keyframes eqbmvkptnhtp37_c_o { 0% {opacity: 0} 23.333333% {opacity: 0;animation-timing-function: cubic-bezier(0.420000,0,0.580000,1)} 28.333333% {opacity: 1;animation-timing-function: cubic-bezier(0.420000,0,0.580000,1)} 33.166667% {opacity: 1;animation-timing-function: cubic-bezier(0.420000,0,0.580000,1)} 33.500000% {opacity: 0} 100% {opacity: 0} }#eqbmvkptnhtp62_to {animation: eqbmvkptnhtp62_to__to 6000ms linear infinite normal forwards}@keyframes eqbmvkptnhtp62_to__to { 0% {transform: translate(0px,0px)} 16.666667% {transform: translate(0px,0px)} 21.666667% {transform: translate(-181.956171px,-121.981876px)} 23.333333% {transform: translate(-181.956171px,-121.981876px)} 68% {transform: translate(-181.956171px,-121.981876px)} 72% {transform: translate(-164.137242px,-108.125443px)} 73.666667% {transform: translate(-181.956171px,-121.981876px)} 100% {transform: translate(-181.956171px,-121.981876px)} }#eqbmvkptnhtp62_ts {animation: eqbmvkptnhtp62_ts__ts 6000ms linear infinite normal forwards}@keyframes eqbmvkptnhtp62_ts__ts { 0% {transform: scale(1,1)} 16.666667% {transform: scale(1,1)} 21.666667% {transform: scale(2.057192,2.057192)} 23.333333% {transform: scale(2.057192,2.057192)} 68% {transform: scale(2.057192,2.057192)} 72% {transform: scale(1.957301,1.957301)} 73.666667% {transform: scale(2.057192,2.057192)} 100% {transform: scale(2.057192,2.057192)} }#eqbmvkptnhtp65_to {animation: eqbmvkptnhtp65_to__to 6000ms linear infinite normal forwards}@keyframes eqbmvkptnhtp65_to__to { 0% {transform: translate(159.836857px,116.295778px)} 73.666667% {transform: translate(159.836857px,116.295778px);animation-timing-function: cubic-bezier(0.420000,0,0.580000,1)} 76.500000% {transform: translate(145.216507px,98.613413px);animation-timing-function: cubic-bezier(0.420000,0,0.580000,1)} 78.333333% {transform: translate(150.328422px,103.725328px)} 100% {transform: translate(150.328422px,103.725328px)} }#eqbmvkptnhtp65_ts {animation: eqbmvkptnhtp65_ts__ts 6000ms linear infinite normal forwards}@keyframes eqbmvkptnhtp65_ts__ts { 0% {transform: scale(0.194142,0.194142)} 73.666667% {transform: scale(0.194142,0.194142);animation-timing-function: cubic-bezier(0.420000,0,0.580000,1)} 76.500000% {transform: scale(0.448409,0.448409);animation-timing-function: cubic-bezier(0.420000,0,0.580000,1)} 78.333333% {transform: scale(0.359506,0.359506)} 100% {transform: scale(0.359506,0.359506)} }#eqbmvkptnhtp65 {animation: eqbmvkptnhtp65_c_o 6000ms linear infinite normal forwards}@keyframes eqbmvkptnhtp65_c_o { 0% {opacity: 0} 73.666667% {opacity: 0;animation-timing-function: cubic-bezier(0.420000,0,0.580000,1)} 76.500000% {opacity: 1;animation-timing-function: cubic-bezier(0.420000,0,0.580000,1)} 78.333333% {opacity: 1} 100% {opacity: 1} }#eqbmvkptnhtp69_to {animation: eqbmvkptnhtp69_to__to 6000ms linear infinite normal forwards}@keyframes eqbmvkptnhtp69_to__to { 0% {offset-distance: 0%} 53.666667% {offset-distance: 0%;animation-timing-function: cubic-bezier(0.470000,0,0.745000,0.715000)} 59.833333% {offset-distance: 100%} 100% {offset-distance: 100%} }]]></style><g id="eqbmvkptnhtp2" opacity="0"><g id="eqbmvkptnhtp3_to" transform="translate(40.344587,22.635773)"><g id="eqbmvkptnhtp3_ts" transform="scale(0.765746,0.765746)"><g id="eqbmvkptnhtp3" display="none" transform="translate(0,0)"><path id="eqbmvkptnhtp4" d="M26.312500,8C26.312500,3.857870,29.670400,0.500000,33.812500,0.500000L307.437000,0.500000C311.580000,0.500000,314.937000,3.857860,314.937000,8L314.937000,187.187000L26.312500,187.187000L26.312500,8Z" transform="matrix(1 0 0 1 -0.12474999999997 0.09584607766604)" fill="rgb(255,255,255)" stroke="rgb(156,119,224)" stroke-width="1"/><rect id="eqbmvkptnhtp5" width="279" height="174" rx="0" ry="0" transform="matrix(1 0 0 1 31.12500000000000 8.81258000000000)" fill="none" stroke="rgb(156,119,224)" stroke-width="1"/><path id="eqbmvkptnhtp6" d="M0.514903,187.750000C0.773367,192.074000,4.361540,195.500000,8.750000,195.500000L332.500000,195.500000C336.888000,195.500000,340.477000,192.074000,340.735000,187.750000L0.514903,187.750000Z" fill="rgb(255,255,255)" stroke="rgb(156,119,224)" stroke-width="1"/><path id="eqbmvkptnhtp7" d="M130.907000,187.750000C131.152000,189.654000,132.779000,191.125000,134.750000,191.125000L206.500000,191.125000C208.471000,191.125000,210.098000,189.654000,210.343000,187.750000L130.907000,187.750000Z" fill="none" stroke="rgb(156,119,224)" stroke-width="1"/><circle id="eqbmvkptnhtp8" r="1.687500" transform="matrix(1 0 0 1 169.50000000000000 4.94606500000000)" fill="none" stroke="rgb(156,119,224)" stroke-width="1"/><rect id="eqbmvkptnhtp9" width="127" height="74" rx="0" ry="0" transform="matrix(1 0 0 1 107.50000000000000 58.50000000000000)" fill="rgb(156,119,224)" fill-opacity="0.1" stroke="rgb(156,119,224)" stroke-width="0"/><rect id="eqbmvkptnhtp10" width="74" height="3" rx="1.500000" ry="1.500000" transform="matrix(1 0 0 1 134 34)" fill="rgb(156,119,224)" stroke="none" stroke-width="1"/><rect id="eqbmvkptnhtp11" width="56" height="2" rx="1" ry="1" transform="matrix(1 0 0 1 143 41)" opacity="0.4" fill="rgb(156,119,224)" stroke="none" stroke-width="1"/><rect id="eqbmvkptnhtp12" width="42" height="2" rx="1" ry="1" transform="matrix(1 0 0 1 150 45)" opacity="0.4" fill="rgb(156,119,224)" stroke="none" stroke-width="1"/></g></g></g><g id="eqbmvkptnhtp13_to" transform="translate(123.924770,3.649034)"><g id="eqbmvkptnhtp13_ts" transform="scale(0.523058,0.523058)"><g id="eqbmvkptnhtp13" transform="translate(0,0)"><rect id="eqbmvkptnhtp14" width="168" height="113" rx="0" ry="0" transform="matrix(0.98078582047747 0 0 0.98726537642844 7.21658375858299 118.86734154662592)" fill="rgb(156,119,224)" fill-opacity="0.1" stroke="none" stroke-width="1"/><path id="eqbmvkptnhtp15" d="M30,70.423100C30,69.084800,31.084800,68,32.423100,68L147.115000,68C148.454000,68,149.538000,69.084800,149.538000,70.423100L149.538000,70.423100C149.538000,71.761300,148.454000,72.846200,147.115000,72.846200L32.423100,72.846200C31.084900,72.846200,30,71.761300,30,70.423100L30,70.423100Z" fill="rgb(156,119,224)" stroke="none" stroke-width="1"/><path id="eqbmvkptnhtp16" d="M44.538600,80.923100C44.538600,80.030900,45.261800,79.307700,46.154000,79.307700L133.385000,79.307700C134.277000,79.307700,135,80.030900,135,80.923100L135,80.923100C135,81.815200,134.277000,82.538400,133.385000,82.538400L46.154000,82.538400C45.261800,82.538400,44.538600,81.815200,44.538600,80.923100L44.538600,80.923100Z" opacity="0.4" fill="rgb(156,119,224)" stroke="none" stroke-width="1"/><path id="eqbmvkptnhtp17" d="M55.846200,87.384600C55.846200,86.492500,56.569400,85.769200,57.461600,85.769200L122.077000,85.769200C122.969000,85.769200,123.692000,86.492500,123.692000,87.384600L123.692000,87.384600C123.692000,88.276800,122.969000,89,122.077000,89L57.461600,89C56.569400,89,55.846200,88.276800,55.846200,87.384600L55.846200,87.384600Z" opacity="0.4" fill="rgb(156,119,224)" stroke="none" stroke-width="1"/><path id="eqbmvkptnhtp18" d="M160,1L20,1C9.506590,1,1,9.506590,1,20L1,325C1,335.493000,9.506590,344,20,344L160,344C170.493000,344,179,335.493000,179,325L179,20C179,9.506590,170.493000,1,160,1ZM20,0C8.954310,0,0,8.954300,0,20L0,325C0,336.046000,8.954300,345,20,345L160,345C171.046000,345,180,336.046000,180,325L180,20C180,8.954310,171.046000,0,160,0L20,0Z" clip-rule="evenodd" fill="rgb(156,119,224)" fill-rule="evenodd" stroke="none" stroke-width="1"/><path id="eqbmvkptnhtp19" d="M158,7L22,7C13.715700,7,7,13.715700,7,22L7,323C7,331.284000,13.715700,338,22,338L158,338C166.284000,338,173,331.284000,173,323L173,22C173,13.715700,166.284000,7,158,7ZM22,6C13.163400,6,6,13.163400,6,22L6,323C6,331.837000,13.163400,339,22,339L158,339C166.837000,339,174,331.837000,174,323L174,22C174,13.163400,166.837000,6,158,6L22,6Z" clip-rule="evenodd" fill="rgb(156,119,224)" fill-rule="evenodd" stroke="none" stroke-width="1"/></g></g></g><g id="eqbmvkptnhtp20_to" transform="translate(0,0)"><g id="eqbmvkptnhtp20_ts" transform="scale(1,1)"><g id="eqbmvkptnhtp20" transform="translate(0,0)"><rect id="eqbmvkptnhtp21" display="none" width="25.694900" height="29.720300" rx="5" ry="5" transform="matrix(1 0 0 1 134.88999999999999 79.82200000000000)" fill="none" stroke="rgb(156,119,224)" stroke-width="1"/><rect id="eqbmvkptnhtp22" width="78.237300" height="49" rx="3" ry="3" transform="matrix(1 0 0 1 131.50000000000000 70.50000000000000)" fill="none" stroke="rgb(156,119,224)" stroke-width="1"/></g></g></g><g id="eqbmvkptnhtp23_to" transform="translate(170.536855,39.574505)"><g id="eqbmvkptnhtp23_tk" transform="skewX(0) skewY(10)"><g id="eqbmvkptnhtp23_ts" transform="scale(0.002243,0.294318)"><g id="eqbmvkptnhtp23" transform="translate(0,0)" opacity="0"><rect id="eqbmvkptnhtp24" width="412.634000" height="259" rx="22" ry="22" fill="rgb(243,247,251)" stroke="none" stroke-width="1"/><rect id="eqbmvkptnhtp25" width="413" height="76" rx="0" ry="0" transform="matrix(1 0 0 -1 0 169)" opacity="0.3" fill="rgb(206,211,221)" stroke="none" stroke-width="1"/><rect id="eqbmvkptnhtp26" width="50" height="5" rx="2.500000" ry="2.500000" transform="matrix(1 0 0 1 163 36)" fill="rgb(206,211,221)" stroke="none" stroke-width="1"/><rect id="eqbmvkptnhtp27" width="67" height="5" rx="2.500000" ry="2.500000" transform="matrix(1 0 0 1 163 60)" fill="rgb(206,211,221)" stroke="none" stroke-width="1"/><rect id="eqbmvkptnhtp28" width="41" height="5" rx="2.500000" ry="2.500000" transform="matrix(1 0 0 1 163 112)" fill="rgb(206,211,221)" stroke="none" stroke-width="1"/><rect id="eqbmvkptnhtp29" width="48" height="5" rx="2.500000" ry="2.500000" transform="matrix(1 0 0 1 163 136)" fill="rgb(206,211,221)" stroke="none" stroke-width="1"/><rect id="eqbmvkptnhtp30" width="64" height="10" rx="5" ry="5" transform="matrix(1 0 0 1 163 43)" fill="rgb(206,211,221)" stroke="none" stroke-width="1"/><rect id="eqbmvkptnhtp31" width="370" height="15" rx="7.500000" ry="7.500000" transform="matrix(1 0 0 1 25 229)" fill="rgb(206,211,221)" stroke="none" stroke-width="1"/><rect id="eqbmvkptnhtp32" width="370" height="15" rx="7.500000" ry="7.500000" transform="matrix(1 0 0 1 25 207)" fill="rgb(206,211,221)" stroke="none" stroke-width="1"/><rect id="eqbmvkptnhtp33" width="370" height="15" rx="7.500000" ry="7.500000" transform="matrix(1 0 0 1 25 185)" fill="rgb(206,211,221)" stroke="none" stroke-width="1"/><rect id="eqbmvkptnhtp34" width="67" height="10" rx="5" ry="5" transform="matrix(1 0 0 1 163 67)" fill="rgb(206,211,221)" stroke="none" stroke-width="1"/><rect id="eqbmvkptnhtp35" width="24" height="10" rx="5" ry="5" transform="matrix(1 0 0 1 163 119)" fill="rgb(206,211,221)" stroke="none" stroke-width="1"/><rect id="eqbmvkptnhtp36" width="64" height="10" rx="5" ry="5" transform="matrix(1 0 0 1 163 143)" fill="rgb(206,211,221)" stroke="none" stroke-width="1"/></g></g></g></g><g id="eqbmvkptnhtp37_to" transform="translate(133.817470,55.386257)"><g id="eqbmvkptnhtp37_tk" transform="skewX(0) skewY(0)"><g id="eqbmvkptnhtp37_ts" transform="scale(0.180061,0.180061)"><g id="eqbmvkptnhtp37" transform="translate(0,0)" opacity="0"><rect id="eqbmvkptnhtp38" width="412.634000" height="259" rx="22" ry="22" fill="rgb(243,247,251)" stroke="none" stroke-width="1"/><rect id="eqbmvkptnhtp39" width="413" height="33" rx="0" ry="0" transform="matrix(1 0 0 1 0 20)" opacity="0.3" fill="rgb(206,211,221)" stroke="none" stroke-width="1"/><rect id="eqbmvkptnhtp40" width="413" height="60" rx="0" ry="0" transform="matrix(1 0 0 1 0 169)" opacity="0.3" fill="rgb(206,211,221)" stroke="none" stroke-width="1"/><rect id="eqbmvkptnhtp41" width="413" height="11" rx="0" ry="0" transform="matrix(1 0 0 1 0 60)" opacity="0.3" fill="rgb(206,211,221)" stroke="none" stroke-width="1"/><rect id="eqbmvkptnhtp42" width="126.557000" height="160.698000" rx="20" ry="20" transform="matrix(1 0 0 1 24.13400000000000 47.67960000000000)" fill="rgb(206,211,221)" stroke="none" stroke-width="1"/><path id="eqbmvkptnhtp43" d="M43.373800,79.785100C51.908100,58.589700,75.581100,54.655700,86.707200,55.022500C105.408000,55.022500,123.490000,62.062200,130.626000,79.785100C138.824000,100.145000,133.554000,107.299000,132.969000,122.157000C132.884000,124.304000,135.387000,124.672000,136.482000,126.559000C139.410000,131.603000,138.336000,147.424000,131.212000,150.771000C128.869000,151.872000,125.356000,152.422000,125.356000,156.824000C125.356000,162.877000,119.389000,175.968000,114.815000,179.936000C107.203000,186.539000,115.401000,208,115.401000,208L58.599200,208C58.599200,208,66.797400,186.539000,59.184800,179.936000C54.610700,175.968000,48.644200,162.877000,48.644200,156.824000C48.644200,152.422000,45.130800,151.872000,42.788400,150.771000C35.664300,147.424000,34.590500,131.603000,37.518100,126.559000C38.613000,124.672000,41.116100,124.304000,41.031500,122.157000C40.446100,107.299000,35.175800,100.145000,43.373800,79.785100Z" fill="rgb(137,143,154)" stroke="none" stroke-width="1"/><rect id="eqbmvkptnhtp44" width="33" height="5" rx="2.500000" ry="2.500000" transform="matrix(1 0 0 1 163 49)" fill="rgb(206,211,221)" stroke="none" stroke-width="1"/><rect id="eqbmvkptnhtp45" width="50" height="5" rx="2.500000" ry="2.500000" transform="matrix(1 0 0 1 163 146)" fill="rgb(206,211,221)" stroke="none" stroke-width="1"/><rect id="eqbmvkptnhtp46" width="71" height="5" rx="2.500000" ry="2.500000" transform="matrix(1 0 0 1 25 240)" fill="rgb(206,211,221)" stroke="none" stroke-width="1"/><rect id="eqbmvkptnhtp47" width="67" height="5" rx="2.500000" ry="2.500000" transform="matrix(1 0 0 1 163 170)" fill="rgb(206,211,221)" stroke="none" stroke-width="1"/><rect id="eqbmvkptnhtp48" width="15" height="5" rx="2.500000" ry="2.500000" transform="matrix(1 0 0 1 258 112)" fill="rgb(206,211,221)" stroke="none" stroke-width="1"/><rect id="eqbmvkptnhtp49" width="41" height="5" rx="2.500000" ry="2.500000" transform="matrix(1 0 0 1 308 112)" fill="rgb(206,211,221)" stroke="none" stroke-width="1"/><rect id="eqbmvkptnhtp50" width="48" height="5" rx="2.500000" ry="2.500000" transform="matrix(1 0 0 1 308 136)" fill="rgb(206,211,221)" stroke="none" stroke-width="1"/><rect id="eqbmvkptnhtp51" width="41" height="5" rx="2.500000" ry="5" transform="matrix(1 0 0 1 308 162)" fill="rgb(206,211,221)" stroke="none" stroke-width="1"/><rect id="eqbmvkptnhtp52" width="33" height="5" rx="2.500000" ry="5" transform="matrix(1 0 0 1 163 69)" fill="rgb(206,211,221)" stroke="none" stroke-width="1"/><rect id="eqbmvkptnhtp53" width="40" height="10" rx="5" ry="5" transform="matrix(1 0 0 1 163 56)" fill="rgb(206,211,221)" stroke="none" stroke-width="1"/><rect id="eqbmvkptnhtp54" width="64" height="10" rx="5" ry="5" transform="matrix(1 0 0 1 163 153)" fill="rgb(206,211,221)" stroke="none" stroke-width="1"/><rect id="eqbmvkptnhtp55" width="370" height="15" rx="8" ry="8" transform="matrix(1 0 0 1 25 217)" fill="rgb(206,211,221)" stroke="none" stroke-width="1"/><rect id="eqbmvkptnhtp56" width="67" height="10" rx="5" ry="5" transform="matrix(1 0 0 1 163 177)" fill="rgb(206,211,221)" stroke="none" stroke-width="1"/><rect id="eqbmvkptnhtp57" width="27" height="10" rx="5" ry="5" transform="matrix(1 0 0 1 258 119)" fill="rgb(206,211,221)" stroke="none" stroke-width="1"/><rect id="eqbmvkptnhtp58" width="24" height="10" rx="5" ry="5" transform="matrix(1 0 0 1 308 119)" fill="rgb(206,211,221)" stroke="none" stroke-width="1"/><rect id="eqbmvkptnhtp59" width="64" height="10" rx="5" ry="5" transform="matrix(1 0 0 1 308 143)" fill="rgb(206,211,221)" stroke="none" stroke-width="1"/><rect id="eqbmvkptnhtp60" width="80" height="10" rx="5" ry="5" transform="matrix(1 0 0 1 308 169)" fill="rgb(206,211,221)" stroke="none" stroke-width="1"/><rect id="eqbmvkptnhtp61" width="93" height="10" rx="5" ry="5" transform="matrix(1 0 0 1 163 76)" fill="rgb(206,211,221)" stroke="none" stroke-width="1"/></g></g></g></g><g id="eqbmvkptnhtp62_to" transform="translate(0,0)"><g id="eqbmvkptnhtp62_ts" transform="scale(1,1)"><g id="eqbmvkptnhtp62" transform="translate(0,0)"><path id="eqbmvkptnhtp63" d="M45,245C45,238.373000,50.372600,233,57,233L123.857000,233C130.485000,233,135.857000,238.373000,135.857000,245L135.857000,245C135.857000,251.627000,130.485000,257,123.857000,257L57,257C50.372600,257,45,251.627000,45,245L45,245Z" transform="matrix(0.53506566739649 0 0 0.53506566739649 122.83894468999998 10.63209524500012)" fill="rgb(156,119,224)" stroke="none" stroke-width="1"/><path id="eqbmvkptnhtp64" d="M60.428500,245C60.428500,243.106000,61.963500,241.571000,63.857000,241.571000L117,241.571000C118.893000,241.571000,120.428000,243.106000,120.428000,245L120.428000,245C120.428000,246.894000,118.893000,248.429000,117,248.429000L63.857000,248.429000C61.963500,248.429000,60.428500,246.894000,60.428500,245L60.428500,245Z" transform="matrix(0.53506566739649 0 0 0.53506566739649 122.83894468999998 10.63209524500012)" opacity="0.2" fill="rgb(255,255,255)" stroke="none" stroke-width="1"/></g></g></g><g id="eqbmvkptnhtp65_to" transform="translate(159.836857,116.295778)"><g id="eqbmvkptnhtp65_ts" transform="scale(0.194142,0.194142)"><g id="eqbmvkptnhtp65" transform="translate(0,0)" opacity="0"><rect id="eqbmvkptnhtp66" width="115" height="115" rx="60" ry="60" fill="rgb(71,218,174)" stroke="none" stroke-width="1"/><rect id="eqbmvkptnhtp67" width="6.052630" height="26.170700" rx="3.026320" ry="0" transform="matrix(0.70710700000000 -0.70710700000000 0.70710700000000 0.70710700000000 35.78388788810000 56.92439553350001)" fill="rgb(255,255,255)" stroke="none" stroke-width="1"/><rect id="eqbmvkptnhtp68" width="6.052630" height="42.056300" rx="3.026320" ry="0" transform="matrix(0.70710700000000 0.70710700000000 -0.70710700000000 0.70710700000000 79.74803679480002 41.41160127720002)" fill="rgb(255,255,255)" stroke="none" stroke-width="1"/></g></g></g><g id="eqbmvkptnhtp69_to" style="offset-path:path('M241.367919,198.089065C232.736431,176.545885,206.161123,176.520414,166.766857,171.518244');offset-rotate:0deg"><g id="eqbmvkptnhtp69" transform="scale(0.449494,0.449494) translate(0,0)"><path id="eqbmvkptnhtp70" d="M9.952560,22.255200C9.434090,21.546900,8.915620,20.307400,7.878680,18.713800C7.360220,17.828500,5.804810,16.057800,5.286340,15.349600C4.940700,14.641300,4.940700,14.287200,5.113520,13.578900C5.286340,12.516500,6.323280,11.631200,7.533040,11.631200C8.397150,11.631200,9.261270,12.339400,9.952560,12.870600C10.298200,13.224800,10.816700,13.933000,11.162300,14.287200C11.508000,14.641300,11.508000,14.818400,11.853600,15.172500C12.199300,15.703700,12.372100,16.057800,12.199300,15.349600C12.026400,14.464200,11.853600,13.047700,11.508000,11.631200C11.335100,10.568800,11.162300,10.391700,10.989500,9.683440C10.816700,8.798110,10.643800,8.266910,10.471000,7.381570C10.298200,6.850370,10.125400,5.433840,9.952560,4.725570C9.779730,3.840240,9.779740,2.246640,10.471000,1.538370C10.989500,1.007170,12.026400,0.830108,12.717700,1.184240C13.581800,1.715440,14.100300,2.954910,14.273100,3.486110C14.618800,4.371440,14.964400,5.610910,15.137200,7.027440C15.482900,8.798110,16.001400,11.454100,16.001400,11.985300C16.001400,11.277000,15.828500,10.037600,16.001400,9.329310C16.174200,8.798110,16.519800,8.089840,17.211100,7.912770C17.729600,7.735710,18.248000,7.735710,18.766500,7.735710C19.285000,7.912770,19.803500,8.266910,20.149100,8.621040C20.840400,9.683440,20.840400,11.985300,20.840400,11.808200C21.013200,11.100000,21.013200,9.683440,21.358900,8.975170C21.531700,8.621040,22.223000,8.266910,22.568600,8.089840C23.087100,7.912770,23.778400,7.912770,24.296800,8.089840C24.642500,8.089840,25.333800,8.621040,25.506600,8.975170C25.852300,9.506370,26.025100,11.277000,26.197900,11.985300C26.197900,12.162400,26.370700,11.277000,26.716400,10.745800C27.407700,9.683440,29.827200,9.329310,30,11.808200C30,13.047700,30,12.870600,30,13.756000C30,14.641300,30,15.172500,30,15.880800C30,16.589000,29.827200,18.182600,29.654400,18.890900C29.481500,19.422100,28.963100,20.661600,28.444600,21.369800C28.444600,21.369800,26.543500,23.494600,26.370700,24.557000C26.197900,25.619400,26.197900,25.619400,26.197900,26.327700C26.197900,27.036000,26.370700,27.921300,26.370700,27.921300C26.370700,27.921300,24.988100,28.098400,24.296800,27.921300C23.605600,27.744200,22.741400,26.504800,22.568600,25.973600C22.223000,25.442400,21.704500,25.442400,21.358900,25.973600C21.013200,26.681800,20.149100,27.921300,19.457800,27.921300C18.248000,28.098400,15.828500,27.921300,14.100300,27.921300C14.100300,27.921300,14.445900,26.150600,13.754700,25.442400C13.236200,24.911200,12.372100,24.025800,11.853600,23.494600L9.952560,22.255200Z" fill="rgb(255,255,255)" stroke="none" stroke-width="1"/><path id="eqbmvkptnhtp71" d="M9.952560,22.255200C9.434090,21.546900,8.915620,20.307400,7.878680,18.713800C7.360220,17.828500,5.804810,16.057800,5.286340,15.349600C4.940700,14.641300,4.940700,14.287200,5.113520,13.578900C5.286340,12.516500,6.323280,11.631200,7.533040,11.631200C8.397150,11.631200,9.261270,12.339400,9.952560,12.870600C10.298200,13.224800,10.816700,13.933000,11.162300,14.287200C11.508000,14.641300,11.508000,14.818400,11.853600,15.172500C12.199300,15.703700,12.372100,16.057800,12.199300,15.349600C12.026400,14.464200,11.853600,13.047700,11.508000,11.631200C11.335100,10.568800,11.162300,10.391700,10.989500,9.683440C10.816700,8.798110,10.643800,8.266910,10.471000,7.381570C10.298200,6.850370,10.125400,5.433840,9.952560,4.725570C9.779730,3.840240,9.779740,2.246640,10.471000,1.538370C10.989500,1.007170,12.026400,0.830108,12.717700,1.184240C13.581800,1.715440,14.100300,2.954910,14.273100,3.486110C14.618800,4.371440,14.964400,5.610910,15.137200,7.027440C15.482900,8.798110,16.001400,11.454100,16.001400,11.985300C16.001400,11.277000,15.828500,10.037600,16.001400,9.329310C16.174200,8.798110,16.519800,8.089840,17.211100,7.912770C17.729600,7.735710,18.248000,7.735710,18.766500,7.735710C19.285000,7.912770,19.803500,8.266910,20.149100,8.621040C20.840400,9.683440,20.840400,11.985300,20.840400,11.808200C21.013200,11.100000,21.013200,9.683440,21.358900,8.975170C21.531700,8.621040,22.223000,8.266910,22.568600,8.089840C23.087100,7.912770,23.778400,7.912770,24.296800,8.089840C24.642500,8.089840,25.333800,8.621040,25.506600,8.975170C25.852300,9.506370,26.025100,11.277000,26.197900,11.985300C26.197900,12.162400,26.370700,11.277000,26.716400,10.745800C27.407700,9.683440,29.827200,9.329310,30,11.808200C30,13.047700,30,12.870600,30,13.756000C30,14.641300,30,15.172500,30,15.880800C30,16.589000,29.827200,18.182600,29.654400,18.890900C29.481500,19.422100,28.963100,20.661600,28.444600,21.369800C28.444600,21.369800,26.543500,23.494600,26.370700,24.557000C26.197900,25.619400,26.197900,25.619400,26.197900,26.327700C26.197900,27.036000,26.370700,27.921300,26.370700,27.921300C26.370700,27.921300,24.988100,28.098400,24.296800,27.921300C23.605600,27.744200,22.741400,26.504800,22.568600,25.973600C22.223000,25.442400,21.704500,25.442400,21.358900,25.973600C21.013200,26.681800,20.149100,27.921300,19.457800,27.921300C18.248000,28.098400,15.828500,27.921300,14.100300,27.921300C14.100300,27.921300,14.445900,26.150600,13.754700,25.442400C13.236200,24.911200,12.372100,24.025800,11.853600,23.494600L9.952560,22.255200Z" fill="none" stroke="rgb(0,0,0)" stroke-width="0.750000" stroke-linecap="round" stroke-linejoin="round"/><path id="eqbmvkptnhtp72" d="M24.010500,22.956300L24.010500,16.936000" fill="none" stroke="rgb(0,0,0)" stroke-width="0.750000" stroke-linecap="round"/><path id="eqbmvkptnhtp73" d="M20.726900,22.956300L20.554100,16.936000" fill="none" stroke="rgb(0,0,0)" stroke-width="0.750000" stroke-linecap="round"/><path id="eqbmvkptnhtp74" d="M17.097500,16.936000L17.097500,22.956300" fill="none" stroke="rgb(0,0,0)" stroke-width="0.750000" stroke-linecap="round"/></g></g></g></svg>