<svg id="efqhhjrpibua1" xmlns="http://www.w3.org/2000/svg" xmlns:xlink="http://www.w3.org/1999/xlink" viewBox="0 0 342 196" shape-rendering="geometricPrecision" text-rendering="geometricPrecision"><style><![CDATA[#efqhhjrpibua2 {animation: efqhhjrpibua2_c_o 6000ms linear infinite normal forwards}@keyframes efqhhjrpibua2_c_o { 0% {opacity: 0} 3.333333% {opacity: 1} 96.666667% {opacity: 1} 100% {opacity: 0} }#efqhhjrpibua3_to {animation: efqhhjrpibua3_to__to 6000ms linear infinite normal forwards}@keyframes efqhhjrpibua3_to__to { 0% {transform: translate(40.344587px,22.635773px)} 6.666667% {transform: translate(40.344587px,22.635773px)} 16.666667% {transform: translate(40.344587px,22.635773px);animation-timing-function: cubic-bezier(0.420000,0,0.580000,1)} 21.666667% {transform: translate(-119.579356px,-86.189747px)} 100% {transform: translate(-119.579356px,-86.189747px)} }#efqhhjrpibua3_ts {animation: efqhhjrpibua3_ts__ts 6000ms linear infinite normal forwards}@keyframes efqhhjrpibua3_ts__ts { 0% {transform: scale(0.765746,0.765746)} 6.666667% {transform: scale(0.765746,0.765746)} 16.666667% {transform: scale(0.765746,0.765746);animation-timing-function: cubic-bezier(0.420000,0,0.580000,1)} 21.666667% {transform: scale(1.703030,1.703030)} 100% {transform: scale(1.703030,1.703030)} }#efqhhjrpibua9 {animation: efqhhjrpibua9_f_o 6000ms linear infinite normal forwards}@keyframes efqhhjrpibua9_f_o { 0% {fill-opacity: 0.100000} 6.666667% {fill-opacity: 0.100000} 16.666667% {fill-opacity: 0.100000} 21.666667% {fill-opacity: 0} 100% {fill-opacity: 0} }#efqhhjrpibua13_to {animation: efqhhjrpibua13_to__to 6000ms linear infinite normal forwards}@keyframes efqhhjrpibua13_to__to { 0% {transform: translate(122.930771px,9.696299px)} 6.666667% {transform: translate(122.930771px,9.696299px)} 16.666667% {transform: translate(122.930771px,9.696299px)} 21.666667% {transform: translate(72.449379px,-105.691893px)} 100% {transform: translate(72.449379px,-105.691893px)} }#efqhhjrpibua13_ts {animation: efqhhjrpibua13_ts__ts 6000ms linear infinite normal forwards}@keyframes efqhhjrpibua13_ts__ts { 0% {transform: scale(0.516486,0.511906)} 6.666667% {transform: scale(0.516486,0.511906)} 16.666667% {transform: scale(0.516486,0.511906)} 21.666667% {transform: scale(1.123075,1.123075)} 100% {transform: scale(1.123075,1.123075)} }#efqhhjrpibua13 {animation: efqhhjrpibua13_c_o 6000ms linear infinite normal forwards}@keyframes efqhhjrpibua13_c_o { 0% {opacity: 1} 25% {opacity: 1} 30% {opacity: 0} 100% {opacity: 0} }#efqhhjrpibua20_to {animation: efqhhjrpibua20_to__to 6000ms linear infinite normal forwards}@keyframes efqhhjrpibua20_to__to { 0% {transform: translate(133.334041px,61.537931px)} 23.333333% {transform: translate(133.334041px,61.537931px);animation-timing-function: cubic-bezier(0.445000,0.050000,0.550000,0.950000)} 27.833333% {transform: translate(110.693580px,43.185919px);animation-timing-function: cubic-bezier(0.445000,0.050000,0.550000,0.950000)} 31.666667% {transform: translate(108.723239px,60.250640px);animation-timing-function: cubic-bezier(0.110000,0.660000,0.225000,0.870000)} 38.333333% {transform: translate(100.394456px,67.771520px);animation-timing-function: cubic-bezier(0.110000,0.660000,0.225000,0.870000)} 46.666667% {transform: translate(113.580301px,43.185919px);animation-timing-function: cubic-bezier(0.110000,0.660000,0.225000,0.870000)} 56.666667% {transform: translate(102.659741px,39.445391px)} 100% {transform: translate(102.659741px,39.445391px)} }#efqhhjrpibua20_ts {animation: efqhhjrpibua20_ts__ts 6000ms linear infinite normal forwards}@keyframes efqhhjrpibua20_ts__ts { 0% {transform: scale(0.180061,0.180061)} 23.333333% {transform: scale(0.180061,0.180061);animation-timing-function: cubic-bezier(0.445000,0.050000,0.550000,0.950000)} 27.833333% {transform: scale(0.294318,0.294318);animation-timing-function: cubic-bezier(0.445000,0.050000,0.550000,0.950000)} 31.666667% {transform: scale(0.294318,0.294318);animation-timing-function: cubic-bezier(0.110000,0.660000,0.225000,0.870000)} 38.333333% {transform: scale(0.294318,0.294318);animation-timing-function: cubic-bezier(0.110000,0.660000,0.225000,0.870000)} 46.666667% {transform: scale(0.294318,0.294318);animation-timing-function: cubic-bezier(0.110000,0.660000,0.225000,0.870000)} 56.666667% {transform: scale(0.327556,0.327556)} 100% {transform: scale(0.327556,0.327556)} }#efqhhjrpibua20 {animation: efqhhjrpibua20_c_o 6000ms linear infinite normal forwards}@keyframes efqhhjrpibua20_c_o { 0% {opacity: 0} 23.333333% {opacity: 0;animation-timing-function: cubic-bezier(0.445000,0.050000,0.550000,0.950000)} 27.833333% {opacity: 1;animation-timing-function: cubic-bezier(0.445000,0.050000,0.550000,0.950000)} 31.666667% {opacity: 1} 100% {opacity: 1} }#efqhhjrpibua45_to {animation: efqhhjrpibua45_to__to 6000ms linear infinite normal forwards}@keyframes efqhhjrpibua45_to__to { 0% {transform: translate(135.946467px,35.953592px)} 23.333333% {transform: translate(135.946467px,35.953592px);animation-timing-function: cubic-bezier(0.445000,0.050000,0.550000,0.950000)} 27.833333% {transform: translate(114.615348px,-0px);animation-timing-function: cubic-bezier(0.445000,0.050000,0.550000,0.950000)} 31.666667% {transform: translate(104.313187px,-12.995048px);animation-timing-function: cubic-bezier(0.110000,0.660000,0.225000,0.870000)} 38.333333% {transform: translate(109.309053px,-72.502318px);animation-timing-function: cubic-bezier(0.110000,0.660000,0.225000,0.870000)} 46.666667% {transform: translate(112.819006px,-29.005378px);animation-timing-function: cubic-bezier(0.110000,0.660000,0.225000,0.870000)} 56.666667% {transform: translate(102.063310px,-58.159351px)} 100% {transform: translate(102.063310px,-58.159351px)} }#efqhhjrpibua45_ts {animation: efqhhjrpibua45_ts__ts 6000ms linear infinite normal forwards}@keyframes efqhhjrpibua45_ts__ts { 0% {transform: scale(0.180061,0.180061)} 23.333333% {transform: scale(0.180061,0.180061);animation-timing-function: cubic-bezier(0.445000,0.050000,0.550000,0.950000)} 27.833333% {transform: scale(0.294318,0.294318);animation-timing-function: cubic-bezier(0.445000,0.050000,0.550000,0.950000)} 31.666667% {transform: scale(0.294318,0.294318);animation-timing-function: cubic-bezier(0.110000,0.660000,0.225000,0.870000)} 38.333333% {transform: scale(0.391039,0.391039);animation-timing-function: cubic-bezier(0.110000,0.660000,0.225000,0.870000)} 46.666667% {transform: scale(0.294318,0.294318);animation-timing-function: cubic-bezier(0.110000,0.660000,0.225000,0.870000)} 56.666667% {transform: scale(0.356173,0.356173)} 100% {transform: scale(0.356173,0.356173)} }#efqhhjrpibua45 {animation: efqhhjrpibua45_c_o 6000ms linear infinite normal forwards}@keyframes efqhhjrpibua45_c_o { 0% {opacity: 0} 23.333333% {opacity: 0;animation-timing-function: cubic-bezier(0.445000,0.050000,0.550000,0.950000)} 27.833333% {opacity: 1;animation-timing-function: cubic-bezier(0.445000,0.050000,0.550000,0.950000)} 31.666667% {opacity: 1} 100% {opacity: 1} }#efqhhjrpibua95_to {animation: efqhhjrpibua95_to__to 6000ms linear infinite normal forwards}@keyframes efqhhjrpibua95_to__to { 0% {transform: translate(14.398488px,-3.680645px)} 6.666667% {transform: translate(14.398488px,-3.680645px)} 16.666667% {transform: translate(14.398488px,-3.680645px)} 21.666667% {transform: translate(-148.905040px,-118.148127px)} 66% {transform: translate(-148.905040px,-118.148127px);animation-timing-function: cubic-bezier(0.420000,0,0.580000,1)} 69.666667% {transform: translate(-128.974542px,-101.041792px);animation-timing-function: cubic-bezier(0.420000,0,0.580000,1)} 71.333333% {transform: translate(-148.905040px,-118.148127px)} 100% {transform: translate(-148.905040px,-118.148127px)} }#efqhhjrpibua95_ts {animation: efqhhjrpibua95_ts__ts 6000ms linear infinite normal forwards}@keyframes efqhhjrpibua95_ts__ts { 0% {transform: scale(0.919164,0.919164)} 6.666667% {transform: scale(0.919164,0.919164)} 16.666667% {transform: scale(0.919164,0.919164)} 21.666667% {transform: scale(1.904700,1.904700)} 66% {transform: scale(1.904700,1.904700);animation-timing-function: cubic-bezier(0.420000,0,0.580000,1)} 69.666667% {transform: scale(1.781808,1.781808);animation-timing-function: cubic-bezier(0.420000,0,0.580000,1)} 71.333333% {transform: scale(1.904700,1.904700)} 100% {transform: scale(1.904700,1.904700)} }#efqhhjrpibua98_to {animation: efqhhjrpibua98_to__to 6000ms linear infinite normal forwards}@keyframes efqhhjrpibua98_to__to { 0% {transform: translate(0px,0px)} 6.666667% {transform: translate(0px,0px)} 16.666667% {transform: translate(0px,0px)} 21.666667% {transform: translate(-142.028534px,-94.255386px)} 100% {transform: translate(-142.028534px,-94.255386px)} }#efqhhjrpibua98_ts {animation: efqhhjrpibua98_ts__ts 6000ms linear infinite normal forwards}@keyframes efqhhjrpibua98_ts__ts { 0% {transform: scale(1,1)} 6.666667% {transform: scale(1,1)} 16.666667% {transform: scale(1,1)} 21.666667% {transform: scale(1.847953,1.847953)} 100% {transform: scale(1.847953,1.847953)} }#efqhhjrpibua98 {animation: efqhhjrpibua98_c_o 6000ms linear infinite normal forwards}@keyframes efqhhjrpibua98_c_o { 0% {opacity: 1} 73.333333% {opacity: 1} 77% {opacity: 0} 100% {opacity: 0} }#efqhhjrpibua101_to {animation: efqhhjrpibua101_to__to 6000ms linear infinite normal forwards}@keyframes efqhhjrpibua101_to__to { 0% {transform: translate(161.671239px,115.411867px)} 71.166667% {transform: translate(161.671239px,115.411867px);animation-timing-function: cubic-bezier(0.420000,0,0.580000,1)} 73.666667% {transform: translate(147.742670px,100.791516px);animation-timing-function: cubic-bezier(0.420000,0,0.580000,1)} 75.166667% {transform: translate(152.595155px,105.903431px)} 100% {transform: translate(152.595155px,105.903431px)} }#efqhhjrpibua101_ts {animation: efqhhjrpibua101_ts__ts 6000ms linear infinite normal forwards}@keyframes efqhhjrpibua101_ts__ts { 0% {transform: scale(0.194142,0.194142)} 71.166667% {transform: scale(0.194142,0.194142);animation-timing-function: cubic-bezier(0.420000,0,0.580000,1)} 73.666667% {transform: scale(0.448409,0.448409);animation-timing-function: cubic-bezier(0.420000,0,0.580000,1)} 75.166667% {transform: scale(0.359506,0.359506)} 100% {transform: scale(0.359506,0.359506)} }#efqhhjrpibua101 {animation: efqhhjrpibua101_c_o 6000ms linear infinite normal forwards}@keyframes efqhhjrpibua101_c_o { 0% {opacity: 0} 71.166667% {opacity: 0;animation-timing-function: cubic-bezier(0.420000,0,0.580000,1)} 73.666667% {opacity: 1;animation-timing-function: cubic-bezier(0.420000,0,0.580000,1)} 75.166667% {opacity: 1} 100% {opacity: 1} }#efqhhjrpibua105_to {animation: efqhhjrpibua105_to__to 6000ms linear infinite normal forwards}@keyframes efqhhjrpibua105_to__to { 0% {offset-distance: 0%} 53.666667% {offset-distance: 0%;animation-timing-function: cubic-bezier(0.470000,0,0.745000,0.715000)} 59.833333% {offset-distance: 100%} 100% {offset-distance: 100%} }]]></style><g id="efqhhjrpibua2" opacity="0"><g id="efqhhjrpibua3_to" transform="translate(40.344587,22.635773)"><g id="efqhhjrpibua3_ts" transform="scale(0.765746,0.765746)"><g id="efqhhjrpibua3" display="none" transform="translate(0,0)"><path id="efqhhjrpibua4" d="M26.312500,8C26.312500,3.857870,29.670400,0.500000,33.812500,0.500000L307.437000,0.500000C311.580000,0.500000,314.937000,3.857860,314.937000,8L314.937000,187.187000L26.312500,187.187000L26.312500,8Z" transform="matrix(1 0 0 1 -0.12474999999997 0.09584607766604)" fill="rgb(255,255,255)" stroke="rgb(156,119,224)" stroke-width="1"/><rect id="efqhhjrpibua5" width="279" height="174" rx="0" ry="0" transform="matrix(1 0 0 1 31.12500000000000 8.81258000000000)" fill="none" stroke="rgb(156,119,224)" stroke-width="1"/><path id="efqhhjrpibua6" d="M0.514903,187.750000C0.773367,192.074000,4.361540,195.500000,8.750000,195.500000L332.500000,195.500000C336.888000,195.500000,340.477000,192.074000,340.735000,187.750000L0.514903,187.750000Z" fill="rgb(255,255,255)" stroke="rgb(156,119,224)" stroke-width="1"/><path id="efqhhjrpibua7" d="M130.907000,187.750000C131.152000,189.654000,132.779000,191.125000,134.750000,191.125000L206.500000,191.125000C208.471000,191.125000,210.098000,189.654000,210.343000,187.750000L130.907000,187.750000Z" fill="none" stroke="rgb(156,119,224)" stroke-width="1"/><circle id="efqhhjrpibua8" r="1.687500" transform="matrix(1 0 0 1 169.50000000000000 4.94606500000000)" fill="none" stroke="rgb(156,119,224)" stroke-width="1"/><rect id="efqhhjrpibua9" width="127" height="74" rx="0" ry="0" transform="matrix(1 0 0 1 107.50000000000000 58.50000000000000)" fill="rgb(156,119,224)" fill-opacity="0.1" stroke="rgb(156,119,224)" stroke-width="0"/><rect id="efqhhjrpibua10" width="74" height="3" rx="1.500000" ry="1.500000" transform="matrix(1 0 0 1 134 34)" fill="rgb(156,119,224)" stroke="none" stroke-width="1"/><rect id="efqhhjrpibua11" width="56" height="2" rx="1" ry="1" transform="matrix(1 0 0 1 143 41)" opacity="0.4" fill="rgb(156,119,224)" stroke="none" stroke-width="1"/><rect id="efqhhjrpibua12" width="42" height="2" rx="1" ry="1" transform="matrix(1 0 0 1 150 45)" opacity="0.4" fill="rgb(156,119,224)" stroke="none" stroke-width="1"/></g></g></g><g id="efqhhjrpibua13_to" transform="translate(122.930771,9.696299)"><g id="efqhhjrpibua13_ts" transform="scale(0.516486,0.511906)"><g id="efqhhjrpibua13" transform="translate(0,0)"><rect id="efqhhjrpibua14" width="327.744825" height="215.861515" rx="0" ry="0" transform="matrix(0.51259390530977 0 0 0.53523042123050 6.00000000396146 108.30679403588265)" fill="rgb(156,119,224)" fill-opacity="0.1" stroke="none" stroke-width="1"/><path id="efqhhjrpibua15" d="M30,70.423100C30,69.084800,31.084800,68,32.423100,68L147.115000,68C148.454000,68,149.538000,69.084800,149.538000,70.423100L149.538000,70.423100C149.538000,71.761300,148.454000,72.846200,147.115000,72.846200L32.423100,72.846200C31.084900,72.846200,30,71.761300,30,70.423100L30,70.423100Z" fill="rgb(156,119,224)" stroke="none" stroke-width="1"/><path id="efqhhjrpibua16" d="M44.538600,80.923100C44.538600,80.030900,45.261800,79.307700,46.154000,79.307700L133.385000,79.307700C134.277000,79.307700,135,80.030900,135,80.923100L135,80.923100C135,81.815200,134.277000,82.538400,133.385000,82.538400L46.154000,82.538400C45.261800,82.538400,44.538600,81.815200,44.538600,80.923100L44.538600,80.923100Z" opacity="0.4" fill="rgb(156,119,224)" stroke="none" stroke-width="1"/><path id="efqhhjrpibua17" d="M55.846200,87.384600C55.846200,86.492500,56.569400,85.769200,57.461600,85.769200L122.077000,85.769200C122.969000,85.769200,123.692000,86.492500,123.692000,87.384600L123.692000,87.384600C123.692000,88.276800,122.969000,89,122.077000,89L57.461600,89C56.569400,89,55.846200,88.276800,55.846200,87.384600L55.846200,87.384600Z" opacity="0.4" fill="rgb(156,119,224)" stroke="none" stroke-width="1"/><path id="efqhhjrpibua18" d="M160,1L20,1C9.506590,1,1,9.506590,1,20L1,325C1,335.493000,9.506590,344,20,344L160,344C170.493000,344,179,335.493000,179,325L179,20C179,9.506590,170.493000,1,160,1ZM20,0C8.954310,0,0,8.954300,0,20L0,325C0,336.046000,8.954300,345,20,345L160,345C171.046000,345,180,336.046000,180,325L180,20C180,8.954310,171.046000,0,160,0L20,0Z" clip-rule="evenodd" fill="rgb(156,119,224)" fill-rule="evenodd" stroke="none" stroke-width="1"/><path id="efqhhjrpibua19" d="M158,7L22,7C13.715700,7,7,13.715700,7,22L7,323C7,331.284000,13.715700,338,22,338L158,338C166.284000,338,173,331.284000,173,323L173,22C173,13.715700,166.284000,7,158,7ZM22,6C13.163400,6,6,13.163400,6,22L6,323C6,331.837000,13.163400,339,22,339L158,339C166.837000,339,174,331.837000,174,323L174,22C174,13.163400,166.837000,6,158,6L22,6Z" clip-rule="evenodd" fill="rgb(156,119,224)" fill-rule="evenodd" stroke="none" stroke-width="1"/></g></g></g><g id="efqhhjrpibua20_to" transform="translate(133.334041,61.537931)"><g id="efqhhjrpibua20_ts" transform="scale(0.180061,0.180061)"><g id="efqhhjrpibua20" display="none" transform="translate(0,0)" opacity="0"><rect id="efqhhjrpibua21" width="412.634000" height="259" rx="22" ry="22" fill="rgb(243,247,251)" stroke="none" stroke-width="1"/><rect id="efqhhjrpibua22" width="413" height="33" rx="0" ry="0" transform="matrix(1 0 0 1 0 20)" opacity="0.3" fill="rgb(206,211,221)" stroke="none" stroke-width="1"/><rect id="efqhhjrpibua23" width="413" height="60" rx="0" ry="0" transform="matrix(1 0 0 1 0 169)" opacity="0.3" fill="rgb(206,211,221)" stroke="none" stroke-width="1"/><rect id="efqhhjrpibua24" width="413" height="11" rx="0" ry="0" transform="matrix(1 0 0 1 0 60)" opacity="0.3" fill="rgb(206,211,221)" stroke="none" stroke-width="1"/><rect id="efqhhjrpibua25" width="126.557000" height="160.698000" rx="20" ry="20" transform="matrix(1 0 0 1 24.13400000000000 47.67960000000000)" fill="rgb(206,211,221)" stroke="none" stroke-width="1"/><path id="efqhhjrpibua26" d="M43.373800,79.785100C51.908100,58.589700,75.581100,54.655700,86.707200,55.022500C105.408000,55.022500,123.490000,62.062200,130.626000,79.785100C138.824000,100.145000,133.554000,107.299000,132.969000,122.157000C132.884000,124.304000,135.387000,124.672000,136.482000,126.559000C139.410000,131.603000,138.336000,147.424000,131.212000,150.771000C128.869000,151.872000,125.356000,152.422000,125.356000,156.824000C125.356000,162.877000,119.389000,175.968000,114.815000,179.936000C107.203000,186.539000,115.401000,208,115.401000,208L58.599200,208C58.599200,208,66.797400,186.539000,59.184800,179.936000C54.610700,175.968000,48.644200,162.877000,48.644200,156.824000C48.644200,152.422000,45.130800,151.872000,42.788400,150.771000C35.664300,147.424000,34.590500,131.603000,37.518100,126.559000C38.613000,124.672000,41.116100,124.304000,41.031500,122.157000C40.446100,107.299000,35.175800,100.145000,43.373800,79.785100Z" fill="rgb(137,143,154)" stroke="none" stroke-width="1"/><rect id="efqhhjrpibua27" width="33" height="5" rx="2.500000" ry="2.500000" transform="matrix(1 0 0 1 163 49)" fill="rgb(206,211,221)" stroke="none" stroke-width="1"/><rect id="efqhhjrpibua28" width="50" height="5" rx="2.500000" ry="2.500000" transform="matrix(1 0 0 1 163 146)" fill="rgb(206,211,221)" stroke="none" stroke-width="1"/><rect id="efqhhjrpibua29" width="71" height="5" rx="2.500000" ry="2.500000" transform="matrix(1 0 0 1 25 240)" fill="rgb(206,211,221)" stroke="none" stroke-width="1"/><rect id="efqhhjrpibua30" width="67" height="5" rx="2.500000" ry="2.500000" transform="matrix(1 0 0 1 163 170)" fill="rgb(206,211,221)" stroke="none" stroke-width="1"/><rect id="efqhhjrpibua31" width="15" height="5" rx="2.500000" ry="2.500000" transform="matrix(1 0 0 1 258 112)" fill="rgb(206,211,221)" stroke="none" stroke-width="1"/><rect id="efqhhjrpibua32" width="41" height="5" rx="2.500000" ry="2.500000" transform="matrix(1 0 0 1 308 112)" fill="rgb(206,211,221)" stroke="none" stroke-width="1"/><rect id="efqhhjrpibua33" width="48" height="5" rx="2.500000" ry="2.500000" transform="matrix(1 0 0 1 308 136)" fill="rgb(206,211,221)" stroke="none" stroke-width="1"/><rect id="efqhhjrpibua34" width="41" height="5" rx="2.500000" ry="5" transform="matrix(1 0 0 1 308 162)" fill="rgb(206,211,221)" stroke="none" stroke-width="1"/><rect id="efqhhjrpibua35" width="33" height="5" rx="2.500000" ry="5" transform="matrix(1 0 0 1 163 69)" fill="rgb(206,211,221)" stroke="none" stroke-width="1"/><rect id="efqhhjrpibua36" width="40" height="10" rx="5" ry="5" transform="matrix(1 0 0 1 163 56)" fill="rgb(206,211,221)" stroke="none" stroke-width="1"/><rect id="efqhhjrpibua37" width="64" height="10" rx="5" ry="5" transform="matrix(1 0 0 1 163 153)" fill="rgb(206,211,221)" stroke="none" stroke-width="1"/><rect id="efqhhjrpibua38" width="370" height="15" rx="8" ry="8" transform="matrix(1 0 0 1 25 217)" fill="rgb(206,211,221)" stroke="none" stroke-width="1"/><rect id="efqhhjrpibua39" width="67" height="10" rx="5" ry="5" transform="matrix(1 0 0 1 163 177)" fill="rgb(206,211,221)" stroke="none" stroke-width="1"/><rect id="efqhhjrpibua40" width="27" height="10" rx="5" ry="5" transform="matrix(1 0 0 1 258 119)" fill="rgb(206,211,221)" stroke="none" stroke-width="1"/><rect id="efqhhjrpibua41" width="24" height="10" rx="5" ry="5" transform="matrix(1 0 0 1 308 119)" fill="rgb(206,211,221)" stroke="none" stroke-width="1"/><rect id="efqhhjrpibua42" width="64" height="10" rx="5" ry="5" transform="matrix(1 0 0 1 308 143)" fill="rgb(206,211,221)" stroke="none" stroke-width="1"/><rect id="efqhhjrpibua43" width="80" height="10" rx="5" ry="5" transform="matrix(1 0 0 1 308 169)" fill="rgb(206,211,221)" stroke="none" stroke-width="1"/><rect id="efqhhjrpibua44" width="93" height="10" rx="5" ry="5" transform="matrix(1 0 0 1 163 76)" fill="rgb(206,211,221)" stroke="none" stroke-width="1"/></g></g></g><g id="efqhhjrpibua45_to" transform="translate(135.946467,35.953592)"><g id="efqhhjrpibua45_ts" transform="scale(0.180061,0.180061)"><g id="efqhhjrpibua45" transform="translate(0,0)" opacity="0"><path id="efqhhjrpibua46" d="M0,259L382,259L382,514C382,516.209000,380.209000,518,378,518L4.000010,518C1.790870,518,0,516.209000,0,514L0,259Z" fill="rgb(243,247,251)" stroke="none" stroke-width="1"/><path id="efqhhjrpibua47" d="M0,4.000010C0,1.790870,1.790860,0,4,0L378,0C380.209000,0,382,1.790860,382,4L382,259L0,259L0,4.000010Z" fill="rgb(232,236,242)" stroke="none" stroke-width="1"/><path id="efqhhjrpibua48" d="M17,343C17,331.954000,25.954300,323,37,323L90,323C101.046000,323,110,331.954000,110,343L110,421.088000C110,432.134000,101.046000,441.088000,90,441.088000L37,441.088000C25.954300,441.088000,17,432.134000,17,421.088000L17,343Z" fill="rgb(206,211,221)" stroke="none" stroke-width="1"/><path id="efqhhjrpibua49" d="M31.138400,346.593000C37.409800,331.017000,54.805800,328.126000,62.981800,328.396000C76.724000,328.396000,90.011600,333.569000,95.255600,346.593000C101.280000,361.554000,97.407000,366.811000,96.976800,377.729000C96.914600,379.307000,98.754100,379.578000,99.558600,380.964000C101.710000,384.671000,100.921000,396.297000,95.685800,398.757000C93.964400,399.565000,91.382600,399.970000,91.382600,403.205000C91.382600,407.653000,86.998200,417.273000,83.636900,420.188000C78.042800,425.041000,84.067200,440.811000,84.067200,440.811000L42.326700,440.811000C42.326700,440.811000,48.351100,425.041000,42.757000,420.188000C39.395800,417.273000,35.011300,407.653000,35.011300,403.205000C35.011300,399.970000,32.429500,399.565000,30.708200,398.757000C25.473000,396.297000,24.683900,384.671000,26.835300,380.964000C27.639900,379.578000,29.479300,379.307000,29.417100,377.729000C28.986900,366.811000,25.114100,361.554000,31.138400,346.593000Z" fill="rgb(137,143,154)" stroke="none" stroke-width="1"/><path id="efqhhjrpibua50" d="M116,314.500000C116,313.119000,117.119000,312,118.500000,312L146.500000,312C147.881000,312,149,313.119000,149,314.500000C149,315.881000,147.881000,317,146.500000,317L118.500000,317C117.119000,317,116,315.881000,116,314.500000Z" fill="rgb(206,211,221)" stroke="none" stroke-width="1"/><path id="efqhhjrpibua51" d="M116,354.500000C116,353.119000,117.119000,352,118.500000,352L146.500000,352C147.881000,352,149,353.119000,149,354.500000C149,355.881000,147.881000,357,146.500000,357L118.500000,357C117.119000,357,116,355.881000,116,354.500000Z" fill="rgb(206,211,221)" stroke="none" stroke-width="1"/><path id="efqhhjrpibua52" d="M116,378.500000C116,377.119000,117.119000,376,118.500000,376L192.500000,376C193.881000,376,195,377.119000,195,378.500000C195,379.881000,193.881000,381,192.500000,381L118.500000,381C117.119000,381,116,379.881000,116,378.500000Z" fill="rgb(206,211,221)" stroke="none" stroke-width="1"/><path id="efqhhjrpibua53" d="M20,281.500000C20,280.119000,21.119300,279,22.500000,279L182.500000,279C183.881000,279,185,280.119000,185,281.500000C185,282.881000,183.881000,284,182.500000,284L22.500000,284C21.119300,284,20,282.881000,20,281.500000Z" fill="rgb(206,211,221)" stroke="none" stroke-width="1"/><path id="efqhhjrpibua54" d="M116,405.500000C116,404.119000,117.119000,403,118.500000,403L163.500000,403C164.881000,403,166,404.119000,166,405.500000C166,406.881000,164.881000,408,163.500000,408L118.500000,408C117.119000,408,116,406.881000,116,405.500000Z" fill="rgb(206,211,221)" stroke="none" stroke-width="1"/><path id="efqhhjrpibua55" d="M116,429.500000C116,428.119000,117.119000,427,118.500000,427L180.500000,427C181.881000,427,183,428.119000,183,429.500000C183,430.881000,181.881000,432,180.500000,432L118.500000,432C117.119000,432,116,430.881000,116,429.500000Z" fill="rgb(206,211,221)" stroke="none" stroke-width="1"/><path id="efqhhjrpibua56" d="M224,351.500000C224,350.119000,225.119000,349,226.500000,349L236.500000,349C237.881000,349,239,350.119000,239,351.500000C239,352.881000,237.881000,354,236.500000,354L226.500000,354C225.119000,354,224,352.881000,224,351.500000Z" fill="rgb(206,211,221)" stroke="none" stroke-width="1"/><path id="efqhhjrpibua57" d="M266,351.500000C266,350.119000,267.119000,349,268.500000,349L297.500000,349C298.881000,349,300,350.119000,300,351.500000C300,352.881000,298.881000,354,297.500000,354L268.500000,354C267.119000,354,266,352.881000,266,351.500000Z" fill="rgb(206,211,221)" stroke="none" stroke-width="1"/><path id="efqhhjrpibua58" d="M266,387.500000C266,386.119000,267.119000,385,268.500000,385L304.500000,385C305.881000,385,307,386.119000,307,387.500000C307,388.881000,305.881000,390,304.500000,390L268.500000,390C267.119000,390,266,388.881000,266,387.500000Z" fill="rgb(206,211,221)" stroke="none" stroke-width="1"/><path id="efqhhjrpibua59" d="M266,427.500000C266,426.119000,267.119000,425,268.500000,425L358.500000,425C359.881000,425,361,426.119000,361,427.500000C361,428.881000,359.881000,430,358.500000,430L268.500000,430C267.119000,430,266,428.881000,266,427.500000Z" fill="rgb(206,211,221)" stroke="none" stroke-width="1"/><path id="efqhhjrpibua60" d="M116,334.500000C116,333.119000,117.119000,332,118.500000,332L146.500000,332C147.881000,332,149,333.119000,149,334.500000C149,335.881000,147.881000,337,146.500000,337L118.500000,337C117.119000,337,116,335.881000,116,334.500000Z" fill="rgb(206,211,221)" stroke="none" stroke-width="1"/><path id="efqhhjrpibua61" d="M116,324C116,321.239000,118.239000,319,121,319L151,319C153.761000,319,156,321.239000,156,324C156,326.761000,153.761000,329,151,329L121,329C118.239000,329,116,326.761000,116,324Z" fill="rgb(206,211,221)" stroke="none" stroke-width="1"/><path id="efqhhjrpibua62" d="M116,364C116,361.239000,118.239000,359,121,359L172,359C174.761000,359,177,361.239000,177,364C177,366.761000,174.761000,369,172,369L121,369C118.239000,369,116,366.761000,116,364Z" fill="rgb(206,211,221)" stroke="none" stroke-width="1"/><path id="efqhhjrpibua63" d="M116,388C116,385.239000,118.239000,383,121,383L147,383C149.761000,383,152,385.239000,152,388C152,390.761000,149.761000,393,147,393L121,393C118.239000,393,116,390.761000,116,388Z" fill="rgb(206,211,221)" stroke="none" stroke-width="1"/><path id="efqhhjrpibua64" d="M20,270C20,267.239000,22.238600,265,25,265L265,265C267.761000,265,270,267.239000,270,270C270,272.761000,267.761000,275,265,275L25,275C22.238600,275,20,272.761000,20,270Z" fill="rgb(206,211,221)" stroke="none" stroke-width="1"/><path id="efqhhjrpibua65" d="M20,132C20,125.373000,25.372600,120,32,120L159,120C165.627000,120,171,125.373000,171,132L171,227C171,233.627000,165.627000,239,159,239L32,239C25.372600,239,20,233.627000,20,227L20,132Z" opacity="0.2" fill="rgb(206,211,221)" stroke="none" stroke-width="1"/><path id="efqhhjrpibua66" d="M20,29C20,22.372600,25.372600,17,32,17L159,17C165.627000,17,171,22.372600,171,29L171,97C171,103.627000,165.627000,109,159,109L32,109C25.372600,109,20,103.627000,20,97L20,29Z" opacity="0.2" fill="rgb(206,211,221)" stroke="none" stroke-width="1"/><g id="efqhhjrpibua67" opacity="0.56"><path id="efqhhjrpibua68" d="M183,96.500000C183,95.119300,184.119000,94,185.500000,94L362.500000,94C363.881000,94,365,95.119300,365,96.500000C365,97.880700,363.881000,99,362.500000,99L185.500000,99C184.119000,99,183,97.880700,183,96.500000Z" opacity="0.5" fill="rgb(206,211,221)" stroke="none" stroke-width="1"/><path id="efqhhjrpibua69" d="M183,19.500000C183,18.119300,184.119000,17,185.500000,17L362.500000,17C363.881000,17,365,18.119300,365,19.500000C365,20.880700,363.881000,22,362.500000,22L185.500000,22C184.119000,22,183,20.880700,183,19.500000Z" opacity="0.5" fill="rgb(206,211,221)" stroke="none" stroke-width="1"/><path id="efqhhjrpibua70" d="M183,132.500000C183,131.119000,184.119000,130,185.500000,130L362.500000,130C363.881000,130,365,131.119000,365,132.500000C365,133.881000,363.881000,135,362.500000,135L185.500000,135C184.119000,135,183,133.881000,183,132.500000Z" opacity="0.5" fill="rgb(206,211,221)" stroke="none" stroke-width="1"/><path id="efqhhjrpibua71" d="M183,55.500000C183,54.119300,184.119000,53,185.500000,53L362.500000,53C363.881000,53,365,54.119300,365,55.500000C365,56.880700,363.881000,58,362.500000,58L185.500000,58C184.119000,58,183,56.880700,183,55.500000Z" opacity="0.5" fill="rgb(206,211,221)" stroke="none" stroke-width="1"/><path id="efqhhjrpibua72" d="M183,188.500000C183,187.119000,184.119000,186,185.500000,186L362.500000,186C363.881000,186,365,187.119000,365,188.500000C365,189.881000,363.881000,191,362.500000,191L185.500000,191C184.119000,191,183,189.881000,183,188.500000Z" opacity="0.5" fill="rgb(206,211,221)" stroke="none" stroke-width="1"/><path id="efqhhjrpibua73" d="M183,114.500000C183,113.119000,184.119000,112,185.500000,112L362.500000,112C363.881000,112,365,113.119000,365,114.500000C365,115.881000,363.881000,117,362.500000,117L185.500000,117C184.119000,117,183,115.881000,183,114.500000Z" opacity="0.5" fill="rgb(206,211,221)" stroke="none" stroke-width="1"/><path id="efqhhjrpibua74" d="M183,37.500000C183,36.119300,184.119000,35,185.500000,35L362.500000,35C363.881000,35,365,36.119300,365,37.500000C365,38.880700,363.881000,40,362.500000,40L185.500000,40C184.119000,40,183,38.880700,183,37.500000Z" opacity="0.5" fill="rgb(206,211,221)" stroke="none" stroke-width="1"/><path id="efqhhjrpibua75" d="M183,170.500000C183,169.119000,184.119000,168,185.500000,168L362.500000,168C363.881000,168,365,169.119000,365,170.500000C365,171.881000,363.881000,173,362.500000,173L185.500000,173C184.119000,173,183,171.881000,183,170.500000Z" opacity="0.5" fill="rgb(206,211,221)" stroke="none" stroke-width="1"/><path id="efqhhjrpibua76" d="M183,206.500000C183,205.119000,184.119000,204,185.500000,204L362.500000,204C363.881000,204,365,205.119000,365,206.500000C365,207.881000,363.881000,209,362.500000,209L185.500000,209C184.119000,209,183,207.881000,183,206.500000Z" opacity="0.5" fill="rgb(206,211,221)" stroke="none" stroke-width="1"/><path id="efqhhjrpibua77" d="M183,105.500000C183,104.119000,184.119000,103,185.500000,103L362.500000,103C363.881000,103,365,104.119000,365,105.500000C365,106.881000,363.881000,108,362.500000,108L185.500000,108C184.119000,108,183,106.881000,183,105.500000Z" opacity="0.5" fill="rgb(206,211,221)" stroke="none" stroke-width="1"/><path id="efqhhjrpibua78" d="M183,28.500000C183,27.119300,184.119000,26,185.500000,26L362.500000,26C363.881000,26,365,27.119300,365,28.500000C365,29.880700,363.881000,31,362.500000,31L185.500000,31C184.119000,31,183,29.880700,183,28.500000Z" opacity="0.5" fill="rgb(206,211,221)" stroke="none" stroke-width="1"/><path id="efqhhjrpibua79" d="M183,141.500000C183,140.119000,184.119000,139,185.500000,139L337.500000,139C338.881000,139,340,140.119000,340,141.500000C340,142.881000,338.881000,144,337.500000,144L185.500000,144C184.119000,144,183,142.881000,183,141.500000Z" opacity="0.5" fill="rgb(206,211,221)" stroke="none" stroke-width="1"/><path id="efqhhjrpibua80" d="M183,64.500000C183,63.119300,184.119000,62,185.500000,62L245.500000,62C246.881000,62,248,63.119300,248,64.500000C248,65.880700,246.881000,67,245.500000,67L185.500000,67C184.119000,67,183,65.880700,183,64.500000Z" opacity="0.5" fill="rgb(206,211,221)" stroke="none" stroke-width="1"/><path id="efqhhjrpibua81" d="M183,197.500000C183,196.119000,184.119000,195,185.500000,195L362.500000,195C363.881000,195,365,196.119000,365,197.500000C365,198.881000,363.881000,200,362.500000,200L185.500000,200C184.119000,200,183,198.881000,183,197.500000Z" opacity="0.5" fill="rgb(206,211,221)" stroke="none" stroke-width="1"/><path id="efqhhjrpibua82" d="M183,123.500000C183,122.119000,184.119000,121,185.500000,121L362.500000,121C363.881000,121,365,122.119000,365,123.500000C365,124.881000,363.881000,126,362.500000,126L185.500000,126C184.119000,126,183,124.881000,183,123.500000Z" opacity="0.5" fill="rgb(206,211,221)" stroke="none" stroke-width="1"/><path id="efqhhjrpibua83" d="M183,46.500000C183,45.119300,184.119000,44,185.500000,44L362.500000,44C363.881000,44,365,45.119300,365,46.500000C365,47.880700,363.881000,49,362.500000,49L185.500000,49C184.119000,49,183,47.880700,183,46.500000Z" opacity="0.5" fill="rgb(206,211,221)" stroke="none" stroke-width="1"/><path id="efqhhjrpibua84" d="M183,179.500000C183,178.119000,184.119000,177,185.500000,177L362.500000,177C363.881000,177,365,178.119000,365,179.500000C365,180.881000,363.881000,182,362.500000,182L185.500000,182C184.119000,182,183,180.881000,183,179.500000Z" opacity="0.5" fill="rgb(206,211,221)" stroke="none" stroke-width="1"/><path id="efqhhjrpibua85" d="M183,215.500000C183,214.119000,184.119000,213,185.500000,213L277.500000,213C278.881000,213,280,214.119000,280,215.500000C280,216.881000,278.881000,218,277.500000,218L185.500000,218C184.119000,218,183,216.881000,183,215.500000Z" opacity="0.5" fill="rgb(206,211,221)" stroke="none" stroke-width="1"/></g><path id="efqhhjrpibua86" d="M332,272C332,268.134000,335.134000,265,339,265L354,265C357.866000,265,361,268.134000,361,272C361,275.866000,357.866000,279,354,279L339,279C335.134000,279,332,275.866000,332,272Z" fill="rgb(206,211,221)" stroke="none" stroke-width="1"/><path id="efqhhjrpibua87" d="M116,415C116,412.239000,118.239000,410,121,410L175,410C177.761000,410,180,412.239000,180,415C180,417.761000,177.761000,420,175,420L121,420C118.239000,420,116,417.761000,116,415Z" fill="rgb(206,211,221)" stroke="none" stroke-width="1"/><path id="efqhhjrpibua88" d="M17,472.500000C17,468.358000,20.357900,465,24.500000,465L353.500000,465C357.642000,465,361,468.358000,361,472.500000C361,476.642000,357.642000,480,353.500000,480L24.500000,480C20.357900,480,17,476.642000,17,472.500000Z" fill="rgb(206,211,221)" stroke="none" stroke-width="1"/><path id="efqhhjrpibua89" d="M17,492.500000C17,488.358000,20.357900,485,24.500000,485L353.500000,485C357.642000,485,361,488.358000,361,492.500000C361,496.642000,357.642000,500,353.500000,500L24.500000,500C20.357900,500,17,496.642000,17,492.500000Z" fill="rgb(206,211,221)" stroke="none" stroke-width="1"/><path id="efqhhjrpibua90" d="M116,439C116,436.239000,118.239000,434,121,434L178,434C180.761000,434,183,436.239000,183,439C183,441.761000,180.761000,444,178,444L121,444C118.239000,444,116,441.761000,116,439Z" fill="rgb(206,211,221)" stroke="none" stroke-width="1"/><path id="efqhhjrpibua91" d="M224,361C224,358.239000,226.239000,356,229,356L246,356C248.761000,356,251,358.239000,251,361C251,363.761000,248.761000,366,246,366L229,366C226.239000,366,224,363.761000,224,361Z" fill="rgb(206,211,221)" stroke="none" stroke-width="1"/><path id="efqhhjrpibua92" d="M266,361C266,358.239000,268.239000,356,271,356L288,356C290.761000,356,293,358.239000,293,361C293,363.761000,290.761000,366,288,366L271,366C268.239000,366,266,363.761000,266,361Z" fill="rgb(206,211,221)" stroke="none" stroke-width="1"/><path id="efqhhjrpibua93" d="M266,397C266,394.239000,268.239000,392,271,392L285,392C287.761000,392,290,394.239000,290,397C290,399.761000,287.761000,402,285,402L271,402C268.239000,402,266,399.761000,266,397Z" fill="rgb(206,211,221)" stroke="none" stroke-width="1"/><path id="efqhhjrpibua94" d="M116,344C116,341.239000,118.239000,339,121,339L204,339C206.761000,339,209,341.239000,209,344C209,346.761000,206.761000,349,204,349L121,349C118.239000,349,116,346.761000,116,344Z" fill="rgb(206,211,221)" stroke="none" stroke-width="1"/></g></g></g><g id="efqhhjrpibua95_to" transform="translate(14.398488,-3.680645)"><g id="efqhhjrpibua95_ts" transform="scale(0.919164,0.919164)"><g id="efqhhjrpibua95" transform="translate(0,0)"><rect id="efqhhjrpibua96" width="53" height="14" rx="7" ry="7" transform="matrix(1 0 0 1 143 143.99999999706407)" fill="rgb(156,119,224)" stroke="none" stroke-width="1"/><rect id="efqhhjrpibua97" width="35" height="4" rx="2" ry="2" transform="matrix(1 0 0 1 152 148.99999999347042)" opacity="0.2" fill="rgb(255,255,255)" stroke="none" stroke-width="1"/></g></g></g><g id="efqhhjrpibua98_to" transform="translate(0,0)"><g id="efqhhjrpibua98_ts" transform="scale(1,1)"><g id="efqhhjrpibua98" transform="translate(0,0)"><rect id="efqhhjrpibua99" width="25.694900" height="29.720300" rx="5" ry="5" transform="matrix(1 0 0 1 133.30518031500003 79.82200000000000)" fill="none" stroke="rgb(156,119,224)" stroke-width="1"/><rect id="efqhhjrpibua100" width="78.237300" height="49" rx="3" ry="3" transform="matrix(1 0 0 1 129.91518031500004 70.50000000000000)" fill="none" stroke="rgb(156,119,224)" stroke-width="1"/></g></g></g><g id="efqhhjrpibua101_to" transform="translate(161.671239,115.411867)"><g id="efqhhjrpibua101_ts" transform="scale(0.194142,0.194142)"><g id="efqhhjrpibua101" transform="translate(0,0)" opacity="0"><rect id="efqhhjrpibua102" width="115" height="115" rx="60" ry="60" fill="rgb(71,218,174)" stroke="none" stroke-width="1"/><rect id="efqhhjrpibua103" width="6.052630" height="26.170700" rx="3.026320" ry="0" transform="matrix(0.70710700000000 -0.70710700000000 0.70710700000000 0.70710700000000 35.78388788810000 56.92439553350001)" fill="rgb(255,255,255)" stroke="none" stroke-width="1"/><rect id="efqhhjrpibua104" width="6.052630" height="42.056300" rx="3.026320" ry="0" transform="matrix(0.70710700000000 0.70710700000000 -0.70710700000000 0.70710700000000 79.74803679480002 41.41160127720002)" fill="rgb(255,255,255)" stroke="none" stroke-width="1"/></g></g></g><g id="efqhhjrpibua105_to" style="offset-path:path('M241.367919,198.089065C232.736431,176.545885,206.161123,176.520414,166.766857,171.518244');offset-rotate:0deg"><g id="efqhhjrpibua105" transform="scale(0.449494,0.449494) translate(0,0)"><path id="efqhhjrpibua106" d="M9.952560,22.255200C9.434090,21.546900,8.915620,20.307400,7.878680,18.713800C7.360220,17.828500,5.804810,16.057800,5.286340,15.349600C4.940700,14.641300,4.940700,14.287200,5.113520,13.578900C5.286340,12.516500,6.323280,11.631200,7.533040,11.631200C8.397150,11.631200,9.261270,12.339400,9.952560,12.870600C10.298200,13.224800,10.816700,13.933000,11.162300,14.287200C11.508000,14.641300,11.508000,14.818400,11.853600,15.172500C12.199300,15.703700,12.372100,16.057800,12.199300,15.349600C12.026400,14.464200,11.853600,13.047700,11.508000,11.631200C11.335100,10.568800,11.162300,10.391700,10.989500,9.683440C10.816700,8.798110,10.643800,8.266910,10.471000,7.381570C10.298200,6.850370,10.125400,5.433840,9.952560,4.725570C9.779730,3.840240,9.779740,2.246640,10.471000,1.538370C10.989500,1.007170,12.026400,0.830108,12.717700,1.184240C13.581800,1.715440,14.100300,2.954910,14.273100,3.486110C14.618800,4.371440,14.964400,5.610910,15.137200,7.027440C15.482900,8.798110,16.001400,11.454100,16.001400,11.985300C16.001400,11.277000,15.828500,10.037600,16.001400,9.329310C16.174200,8.798110,16.519800,8.089840,17.211100,7.912770C17.729600,7.735710,18.248000,7.735710,18.766500,7.735710C19.285000,7.912770,19.803500,8.266910,20.149100,8.621040C20.840400,9.683440,20.840400,11.985300,20.840400,11.808200C21.013200,11.100000,21.013200,9.683440,21.358900,8.975170C21.531700,8.621040,22.223000,8.266910,22.568600,8.089840C23.087100,7.912770,23.778400,7.912770,24.296800,8.089840C24.642500,8.089840,25.333800,8.621040,25.506600,8.975170C25.852300,9.506370,26.025100,11.277000,26.197900,11.985300C26.197900,12.162400,26.370700,11.277000,26.716400,10.745800C27.407700,9.683440,29.827200,9.329310,30,11.808200C30,13.047700,30,12.870600,30,13.756000C30,14.641300,30,15.172500,30,15.880800C30,16.589000,29.827200,18.182600,29.654400,18.890900C29.481500,19.422100,28.963100,20.661600,28.444600,21.369800C28.444600,21.369800,26.543500,23.494600,26.370700,24.557000C26.197900,25.619400,26.197900,25.619400,26.197900,26.327700C26.197900,27.036000,26.370700,27.921300,26.370700,27.921300C26.370700,27.921300,24.988100,28.098400,24.296800,27.921300C23.605600,27.744200,22.741400,26.504800,22.568600,25.973600C22.223000,25.442400,21.704500,25.442400,21.358900,25.973600C21.013200,26.681800,20.149100,27.921300,19.457800,27.921300C18.248000,28.098400,15.828500,27.921300,14.100300,27.921300C14.100300,27.921300,14.445900,26.150600,13.754700,25.442400C13.236200,24.911200,12.372100,24.025800,11.853600,23.494600L9.952560,22.255200Z" fill="rgb(255,255,255)" stroke="none" stroke-width="1"/><path id="efqhhjrpibua107" d="M9.952560,22.255200C9.434090,21.546900,8.915620,20.307400,7.878680,18.713800C7.360220,17.828500,5.804810,16.057800,5.286340,15.349600C4.940700,14.641300,4.940700,14.287200,5.113520,13.578900C5.286340,12.516500,6.323280,11.631200,7.533040,11.631200C8.397150,11.631200,9.261270,12.339400,9.952560,12.870600C10.298200,13.224800,10.816700,13.933000,11.162300,14.287200C11.508000,14.641300,11.508000,14.818400,11.853600,15.172500C12.199300,15.703700,12.372100,16.057800,12.199300,15.349600C12.026400,14.464200,11.853600,13.047700,11.508000,11.631200C11.335100,10.568800,11.162300,10.391700,10.989500,9.683440C10.816700,8.798110,10.643800,8.266910,10.471000,7.381570C10.298200,6.850370,10.125400,5.433840,9.952560,4.725570C9.779730,3.840240,9.779740,2.246640,10.471000,1.538370C10.989500,1.007170,12.026400,0.830108,12.717700,1.184240C13.581800,1.715440,14.100300,2.954910,14.273100,3.486110C14.618800,4.371440,14.964400,5.610910,15.137200,7.027440C15.482900,8.798110,16.001400,11.454100,16.001400,11.985300C16.001400,11.277000,15.828500,10.037600,16.001400,9.329310C16.174200,8.798110,16.519800,8.089840,17.211100,7.912770C17.729600,7.735710,18.248000,7.735710,18.766500,7.735710C19.285000,7.912770,19.803500,8.266910,20.149100,8.621040C20.840400,9.683440,20.840400,11.985300,20.840400,11.808200C21.013200,11.100000,21.013200,9.683440,21.358900,8.975170C21.531700,8.621040,22.223000,8.266910,22.568600,8.089840C23.087100,7.912770,23.778400,7.912770,24.296800,8.089840C24.642500,8.089840,25.333800,8.621040,25.506600,8.975170C25.852300,9.506370,26.025100,11.277000,26.197900,11.985300C26.197900,12.162400,26.370700,11.277000,26.716400,10.745800C27.407700,9.683440,29.827200,9.329310,30,11.808200C30,13.047700,30,12.870600,30,13.756000C30,14.641300,30,15.172500,30,15.880800C30,16.589000,29.827200,18.182600,29.654400,18.890900C29.481500,19.422100,28.963100,20.661600,28.444600,21.369800C28.444600,21.369800,26.543500,23.494600,26.370700,24.557000C26.197900,25.619400,26.197900,25.619400,26.197900,26.327700C26.197900,27.036000,26.370700,27.921300,26.370700,27.921300C26.370700,27.921300,24.988100,28.098400,24.296800,27.921300C23.605600,27.744200,22.741400,26.504800,22.568600,25.973600C22.223000,25.442400,21.704500,25.442400,21.358900,25.973600C21.013200,26.681800,20.149100,27.921300,19.457800,27.921300C18.248000,28.098400,15.828500,27.921300,14.100300,27.921300C14.100300,27.921300,14.445900,26.150600,13.754700,25.442400C13.236200,24.911200,12.372100,24.025800,11.853600,23.494600L9.952560,22.255200Z" fill="none" stroke="rgb(0,0,0)" stroke-width="0.750000" stroke-linecap="round" stroke-linejoin="round"/><path id="efqhhjrpibua108" d="M24.010500,22.956300L24.010500,16.936000" fill="none" stroke="rgb(0,0,0)" stroke-width="0.750000" stroke-linecap="round"/><path id="efqhhjrpibua109" d="M20.726900,22.956300L20.554100,16.936000" fill="none" stroke="rgb(0,0,0)" stroke-width="0.750000" stroke-linecap="round"/><path id="efqhhjrpibua110" d="M17.097500,16.936000L17.097500,22.956300" fill="none" stroke="rgb(0,0,0)" stroke-width="0.750000" stroke-linecap="round"/></g></g></g></svg>